<?xml version="1.0" encoding="UTF-8" standalone="no"?>
<svg
   inkscape:version="1.0 (6e3e5246a0, 2020-05-07)"
   sodipodi:docname="cast_logos.svg"
   id="svg80"
   version="1.1"
   width="227.31766pt"
   viewBox="-43 1 227.31766 105.03299"
   height="104.82183pt"
   xmlns:inkscape="http://www.inkscape.org/namespaces/inkscape"
   xmlns:sodipodi="http://sodipodi.sourceforge.net/DTD/sodipodi-0.dtd"
   xmlns="http://www.w3.org/2000/svg"
   xmlns:svg="http://www.w3.org/2000/svg"
   xmlns:rdf="http://www.w3.org/1999/02/22-rdf-syntax-ns#"
   xmlns:cc="http://creativecommons.org/ns#"
   xmlns:dc="http://purl.org/dc/elements/1.1/">
  <sodipodi:namedview
     inkscape:current-layer="svg80"
     inkscape:window-maximized="0"
     inkscape:window-y="111"
     inkscape:window-x="125"
     inkscape:cy="329.58074"
     inkscape:cx="427.58181"
     inkscape:zoom="1.0074671"
     showgrid="false"
     id="namedview58"
     inkscape:window-height="865"
     inkscape:window-width="1518"
     inkscape:pageshadow="2"
     inkscape:pageopacity="0"
     guidetolerance="10"
     gridtolerance="10"
     objecttolerance="10"
     borderopacity="1"
     bordercolor="#666666"
     pagecolor="#ffffff"
     inkscape:document-rotation="0"
     inkscape:showpageshadow="2"
     inkscape:pagecheckerboard="0"
     inkscape:deskcolor="#d1d1d1"
     inkscape:document-units="pt" />
  <metadata
     id="metadata86">
    <rdf:RDF>
      <cc:Work
         rdf:about="">
        <dc:format>image/svg+xml</dc:format>
        <dc:type
           rdf:resource="http://purl.org/dc/dcmitype/StillImage" />
        <dc:title />
      </cc:Work>
    </rdf:RDF>
  </metadata>
  <defs
     id="defs84" />
  <g
     transform="translate(-30.314495,-65.52121)"
     id="g1664">
    <path
       d="M 36.07106,95.489695 C 53.352737,113.35209 60.09624,135.34135 51.136911,144.60342 42.176783,153.86467 20.90278,146.89557 3.6211053,129.03235 -13.660571,111.16996 -11.443145,79.917798 -11.443145,79.917798 c 0,0 30.231729,-2.290497 47.514205,15.571897 z m 0,0"
       fill="#64c37d"
       id="path74"
       style="stroke-width:0.208281" />
    <path
       d="m 69.011555,113.95511 c 0,25.26246 -10.272498,45.74044 -22.944073,45.74044 -12.671576,0 -22.944074,-20.47798 -22.944074,-45.74044 0,-25.262454 22.944074,-45.740432 22.944074,-45.740432 0,0 22.944073,20.477978 22.944073,45.740432 z m 0,0"
       fill="#c2fb3b"
       id="path76"
       style="stroke-width:0.208281" />
    <path
       d="m 70.650418,113.95511 c 0,-25.738089 -22.551964,-46.165609 -23.512235,-47.02258 -0.615372,-0.548429 -1.526031,-0.548429 -2.140604,0 -6.353792,5.997145 -11.77132,12.974514 -16.06053,20.684775 -17.468929,-10.976017 -39.537556,-9.459773 -40.497027,-9.385326 -0.809829,0.06204 -1.45401,0.72793 -1.514027,1.565048 -0.09363,1.307792 -2.066183,32.239003 15.5363834,50.433103 7.4444996,7.97579 16.5198616,14.1301 26.5610946,18.01377 4.159574,7.75576 9.564298,12.31441 15.405146,13.03242 v 8.58377 c 0,0.93556 0.733807,1.69409 1.638863,1.69409 0.905055,0 1.638862,-0.75853 1.638862,-1.69409 v -8.58212 C 60.69801,159.69555 70.650418,139.49055 70.650418,113.95511 Z M 4.7798322,127.8354 C -9.6338345,112.93849 -10.017143,87.908476 -9.8650997,81.549021 c 5.1710589,-0.138968 23.0953157,0.103399 37.2305047,9.046177 -3.722652,7.195747 -5.73842,15.202142 -5.880859,23.359912 -0.148043,10.22328 1.690875,20.37376 5.408725,29.84842 -8.280735,-3.83238 -15.783652,-9.2505 -22.1134388,-15.96813 z m 42.9265118,30.01551 v -24.62386 l 11.067123,-13.07296 c 0.596968,-0.70476 0.528148,-1.77515 -0.153643,-2.39223 -0.681794,-0.61626 -1.717286,-0.54512 -2.314254,0.15964 l -8.599226,10.16454 v -24.29547 c 0,-0.93555 -0.733807,-1.69409 -1.638862,-1.69409 -0.905056,0 -1.638863,0.75854 -1.638863,1.69409 v 24.28968 l -8.599225,-10.16454 c -0.596169,-0.70394 -1.632461,-0.77508 -2.313453,-0.15882 -0.681794,0.61626 -0.750614,1.68747 -0.154445,2.39224 l 11.067123,13.07792 v 24.63048 c -4.752541,-0.77425 -9.256213,-4.88209 -12.828421,-11.78584 -4.412444,-8.44481 -6.837928,-19.84766 -6.837928,-32.11658 0.17525,-8.12964 2.304651,-16.086408 6.196949,-23.153113 4.012333,-7.514217 9.107369,-14.354272 15.108263,-20.286897 4.458058,4.379985 21.305211,22.333371 21.305211,43.44001 0,22.73622 -8.849697,42.09831 -19.666349,43.8958 z m 0,0"
       fill="#231f20"
       id="path78"
       style="stroke-width:0.208281" />
    <g
       transform="matrix(0.56312689,0,0,0.56312689,6.7335409,9.4720897)"
       style="font-size:36.1626px;line-height:0;font-family:Montserrat;-inkscape-font-specification:Montserrat;fill:#64c37d;fill-opacity:1;stroke-width:0.90407"
       id="text99"
       aria-label="Computational Agricultural  Statistics  Laboratory">
      <path
         id="path220"
         style="font-style:normal;font-variant:normal;font-weight:bold;font-stretch:normal;line-height:1.2;font-family:Manjari;-inkscape-font-specification:'Manjari Bold';fill:#000000;fill-opacity:1;stroke-width:0.90407"
         d="m 152.04964,132.1489 c -0.77693,0 -1.4126,0.38846 -1.71278,1.05945 -1.25368,2.73691 -4.29077,5.15599 -8.15777,5.15599 -5.19131,0 -8.38732,-4.30843 -8.38732,-9.46443 0,-5.12068 3.23132,-9.49974 8.36966,-9.49974 3.91997,0 6.83346,2.26016 8.15778,4.97942 0.31783,0.68864 1.00647,1.02413 1.81872,1.02413 0.8299,0 1.55386,-0.86521 1.55386,-1.73043 0,-0.28252 -0.053,-0.51207 -0.19423,-0.77693 -1.85404,-3.81403 -5.91527,-7.0277 -11.33613,-7.0277 -7.15129,0 -11.90117,6.05653 -11.90117,12.99594 0,7.02769 4.66159,13.04891 11.95414,13.04891 5.52681,0 9.55272,-3.39025 11.33613,-7.29256 0.1236,-0.24721 0.17658,-0.52973 0.17658,-0.84756 0,-0.82991 -0.82991,-1.62449 -1.67747,-1.62449 z" />
      <path
         id="path222"
         style="font-style:normal;font-variant:normal;font-weight:bold;font-stretch:normal;line-height:1.2;font-family:Manjari;-inkscape-font-specification:'Manjari Bold';fill:#000000;fill-opacity:1;stroke-width:0.90407"
         d="m 165.18684,122.19005 c -5.31492,0 -9.67632,4.53799 -9.67632,9.88822 0,5.4032 4.37906,9.78226 9.67632,9.78226 5.33257,0 9.69398,-4.48501 9.69398,-9.78226 0,-5.36789 -4.29078,-9.88822 -9.69398,-9.88822 z m -6.10951,9.92353 c 0,-3.44322 2.61332,-6.35671 6.10951,-6.35671 3.46087,0 6.12716,2.89584 6.12716,6.3214 0,3.35493 -2.71926,6.21544 -6.10951,6.21544 -3.33727,0 -6.12716,-2.75457 -6.12716,-6.18013 z" />
      <path
         id="path224"
         style="font-style:normal;font-variant:normal;font-weight:bold;font-stretch:normal;line-height:1.2;font-family:Manjari;-inkscape-font-specification:'Manjari Bold';fill:#000000;fill-opacity:1;stroke-width:0.90407"
         d="m 184.85731,122.1724 c -1.58917,0 -3.35493,1.00648 -4.09654,2.56034 l -0.33549,-0.97117 c -0.40613,-1.14773 -1.09477,-1.60683 -1.8717,-1.60683 -0.98882,0 -1.289,0.77693 -1.289,1.73044 v 16.3332 c 0,0.95351 0.79459,1.73044 1.76575,1.73044 0.97117,0 1.76575,-0.77693 1.76575,-1.71278 v -9.5174 c 0,-3.44322 1.65981,-5.01474 3.39025,-5.01474 1.85404,0 3.77871,1.81873 3.77871,5.13834 v 9.37614 c 0,0.95351 0.77693,1.73044 1.76575,1.73044 0.97116,0 1.76575,-0.77693 1.76575,-1.71278 l -0.0177,-9.41146 c 0,-2.7016 1.51855,-5.15599 4.13186,-5.15599 2.47206,0 3.0371,2.45439 3.0371,5.13833 l 0.0177,9.37615 c 0,0.9535 0.77693,1.73044 1.76576,1.73044 0.98882,0 1.76575,-0.77694 1.76575,-1.73044 l -0.0177,-9.41146 c 0,-4.55564 -2.15422,-8.61687 -6.6922,-8.61687 -2.27782,0 -4.16717,1.34197 -5.49149,2.86052 -1.11242,-1.57152 -2.86052,-2.84286 -5.13834,-2.84286 z" />
      <path
         id="path226"
         style="font-style:normal;font-variant:normal;font-weight:bold;font-stretch:normal;line-height:1.2;font-family:Manjari;-inkscape-font-specification:'Manjari Bold';fill:#000000;fill-opacity:1;stroke-width:0.90407"
         d="m 224.35719,132.06061 c 0,-5.20897 -3.93762,-9.81758 -9.25254,-9.81758 -2.18953,0 -4.60861,1.18305 -5.95058,3.10772 l -0.21189,-1.43026 c -0.14126,-0.9535 -0.5827,-1.76575 -1.55386,-1.76575 -0.97117,0 -1.76576,0.79459 -1.76576,1.76575 v 22.54866 c 0,0.97116 0.79459,1.76575 1.76576,1.76575 0.97116,0 1.76575,-0.79459 1.76575,-1.76575 v -7.43382 c 1.51854,1.76575 3.37258,2.87818 5.82698,2.87818 2.40142,0 4.73221,-0.95351 6.44499,-2.63098 1.94233,-1.92467 2.93115,-4.55564 2.93115,-7.22192 z m -9.21722,-6.28608 c 3.26664,0 5.70338,2.98412 5.70338,6.28608 0,3.2843 -2.4544,6.37436 -5.79167,6.37436 -3.37259,0 -5.77401,-2.89583 -5.77401,-6.28607 0,-1.64215 0.60036,-3.31962 1.65981,-4.48501 1.05945,-1.1654 2.66628,-1.88936 4.20249,-1.88936 z" />
      <path
         id="path228"
         style="font-style:normal;font-variant:normal;font-weight:bold;font-stretch:normal;line-height:1.2;font-family:Manjari;-inkscape-font-specification:'Manjari Bold';fill:#000000;fill-opacity:1;stroke-width:0.90407"
         d="m 239.24248,139.14127 0.30017,1.05946 c 0.26487,0.9535 0.74162,1.76575 1.71278,1.76575 0.97117,0 1.51855,-0.79459 1.51855,-1.76575 l -0.0353,-16.22727 c 0,-0.98882 -0.77693,-1.78341 -1.76576,-1.78341 -0.97116,0 -1.76575,0.79459 -1.76575,1.76576 l 0.0177,7.04535 c 0.0177,4.52032 -1.92467,7.38084 -5.4032,7.38084 -1.44792,0 -2.38377,-0.95351 -2.84286,-1.9953 -0.40613,-0.90053 -0.49441,-2.10124 -0.49441,-3.47853 v -8.91705 c 0,-0.97116 -0.79459,-1.76575 -1.76576,-1.76575 -0.97116,0 -1.76575,0.79459 -1.76575,1.76575 v 8.91705 c 0,1.48323 0.0353,3.21367 0.79459,4.92645 0.97116,2.17187 3.01944,4.07889 6.1095,4.07889 2.36611,0 4.11421,-1.53621 5.38555,-2.77224 z" />
      <path
         id="path230"
         style="font-style:normal;font-variant:normal;font-weight:bold;font-stretch:normal;line-height:1.2;font-family:Manjari;-inkscape-font-specification:'Manjari Bold';fill:#000000;fill-opacity:1;stroke-width:0.90407"
         d="m 248.88348,119.02936 v 3.5315 H 246.588 c -0.91819,0 -1.67746,0.75928 -1.67746,1.67747 0,0.91819 0.75927,1.67746 1.67746,1.67746 h 2.27782 l -0.0177,11.07127 v 0.15891 c 0,2.73692 1.6598,4.78519 4.62627,4.78519 1.30665,0 2.48971,-0.49441 3.39024,-1.18305 0.42378,-0.31784 0.7063,-0.88288 0.7063,-1.39495 0,-0.9535 -0.79459,-1.74809 -1.76575,-1.74809 -0.38847,0 -0.81225,0.17658 -1.09477,0.37081 -0.35315,0.2472 -0.79459,0.40612 -1.34197,0.40612 -0.81224,0 -0.98882,-0.37081 -0.98882,-1.51855 v -0.0353 l 0.0177,-10.93001 h 2.38376 c 0.91819,0 1.67747,-0.75927 1.67747,-1.67746 0,-0.91819 -0.75928,-1.67746 -1.67747,-1.67746 h -2.3661 v -3.51385 c 0,-0.97116 -0.79459,-1.76575 -1.76576,-1.76575 -0.98882,0 -1.76575,0.81224 -1.76575,1.76575 z" />
      <path
         id="path232"
         style="font-style:normal;font-variant:normal;font-weight:bold;font-stretch:normal;line-height:1.2;font-family:Manjari;-inkscape-font-specification:'Manjari Bold';fill:#000000;fill-opacity:1;stroke-width:0.90407"
         d="m 269.03071,122.10177 c -5.49149,0 -9.67632,4.71456 -9.67632,9.95884 0,5.2796 4.30843,9.87055 9.64101,9.87055 2.3661,0 4.99707,-1.00648 6.2331,-3.10772 l 0.19423,1.4126 c 0,0.97116 0.60036,1.76575 1.57152,1.76575 0.97117,0 1.76575,-0.79459 1.76575,-1.76575 l 0.0353,-16.35086 v -0.0353 c 0,-0.97116 -0.79459,-1.76575 -1.76575,-1.76575 -0.97117,0 -1.57152,0.79459 -1.57152,1.76575 l -0.19424,1.69512 c -0.9535,-1.64215 -3.63744,-3.44321 -6.2331,-3.44321 z m 6.09184,9.92352 c 0,3.40791 -2.71925,6.37437 -6.1095,6.37437 -3.4079,0 -6.16247,-2.96646 -6.16247,-6.39202 0,-3.39025 2.68394,-6.37437 6.14482,-6.37437 3.51384,0 6.12715,2.94881 6.12715,6.39202 z" />
      <path
         id="path234"
         style="font-style:normal;font-variant:normal;font-weight:bold;font-stretch:normal;line-height:1.2;font-family:Manjari;-inkscape-font-specification:'Manjari Bold';fill:#000000;fill-opacity:1;stroke-width:0.90407"
         d="m 284.97546,119.02936 v 3.5315 h -2.29548 c -0.91819,0 -1.67746,0.75928 -1.67746,1.67747 0,0.91819 0.75927,1.67746 1.67746,1.67746 h 2.27782 l -0.0177,11.07127 v 0.15891 c 0,2.73692 1.6598,4.78519 4.62627,4.78519 1.30665,0 2.48971,-0.49441 3.39024,-1.18305 0.42378,-0.31784 0.7063,-0.88288 0.7063,-1.39495 0,-0.9535 -0.79459,-1.74809 -1.76575,-1.74809 -0.38847,0 -0.81225,0.17658 -1.09477,0.37081 -0.35315,0.2472 -0.79459,0.40612 -1.34197,0.40612 -0.81224,0 -0.98882,-0.37081 -0.98882,-1.51855 v -0.0353 l 0.0177,-10.93001 h 2.38376 c 0.91819,0 1.67747,-0.75927 1.67747,-1.67746 0,-0.91819 -0.75928,-1.67746 -1.67747,-1.67746 h -2.3661 v -3.51385 c 0,-0.97116 -0.79459,-1.76575 -1.76576,-1.76575 -0.98882,0 -1.76575,0.81224 -1.76575,1.76575 z" />
      <path
         id="path236"
         style="font-style:normal;font-variant:normal;font-weight:bold;font-stretch:normal;line-height:1.2;font-family:Manjari;-inkscape-font-specification:'Manjari Bold';fill:#000000;fill-opacity:1;stroke-width:0.90407"
         d="m 297.70653,120.37133 c 0.97117,0 1.64215,-0.86522 1.64215,-1.78341 l -0.0177,-1.05945 c -0.0177,-0.95351 -0.77693,-1.74809 -1.76575,-1.74809 -0.74161,0 -1.74809,0.61801 -1.74809,1.50088 l 0.0353,1.34198 c 0.0177,0.98882 0.75928,1.74809 1.85404,1.74809 z m -1.90701,3.33727 0.0353,16.50978 c 0,0.93585 0.77694,1.71278 1.76576,1.71278 0.97116,0 1.76575,-0.75927 1.76575,-1.69512 l -0.0353,-16.35086 v -0.0177 c 0,-1.00648 -0.84756,-1.67747 -1.87169,-1.67747 -0.7063,0 -1.65981,0.63568 -1.65981,1.51855 z" />
      <path
         id="path238"
         style="font-style:normal;font-variant:normal;font-weight:bold;font-stretch:normal;line-height:1.2;font-family:Manjari;-inkscape-font-specification:'Manjari Bold';fill:#000000;fill-opacity:1;stroke-width:0.90407"
         d="m 311.60301,122.19005 c -5.31492,0 -9.67633,4.53799 -9.67633,9.88822 0,5.4032 4.37907,9.78226 9.67633,9.78226 5.33257,0 9.69397,-4.48501 9.69397,-9.78226 0,-5.36789 -4.29077,-9.88822 -9.69397,-9.88822 z m -6.10951,9.92353 c 0,-3.44322 2.61332,-6.35671 6.10951,-6.35671 3.46087,0 6.12715,2.89584 6.12715,6.3214 0,3.35493 -2.71925,6.21544 -6.1095,6.21544 -3.33727,0 -6.12716,-2.75457 -6.12716,-6.18013 z" />
      <path
         id="path240"
         style="font-style:normal;font-variant:normal;font-weight:bold;font-stretch:normal;line-height:1.2;font-family:Manjari;-inkscape-font-specification:'Manjari Bold';fill:#000000;fill-opacity:1;stroke-width:0.90407"
         d="m 327.37117,124.97994 -0.30018,-1.05945 c -0.26486,-0.9535 -0.74161,-1.76575 -1.71278,-1.76575 -0.97116,0 -1.51854,0.79459 -1.51854,1.76575 l 0.0353,16.22726 c 0,0.98882 0.77693,1.78341 1.76575,1.78341 0.97117,0 1.76575,-0.79459 1.76575,-1.76575 l -0.0177,-7.04535 c -0.0177,-4.52033 1.92467,-7.38084 5.4032,-7.38084 1.44791,0 2.38376,0.9535 2.84286,1.9953 0.40612,0.90053 0.49441,2.10124 0.49441,3.47853 v 8.91705 c 0,0.97116 0.79459,1.76575 1.76575,1.76575 0.97117,0 1.76575,-0.79459 1.76575,-1.76575 v -8.91705 c 0,-1.48323 -0.0353,-3.21367 -0.79458,-4.92645 -0.97117,-2.17188 -3.01944,-4.07889 -6.10951,-4.07889 -2.3661,0 -4.1142,1.53621 -5.38554,2.77223 z" />
      <path
         id="path242"
         style="font-style:normal;font-variant:normal;font-weight:bold;font-stretch:normal;line-height:1.2;font-family:Manjari;-inkscape-font-specification:'Manjari Bold';fill:#000000;fill-opacity:1;stroke-width:0.90407"
         d="m 352.37422,122.10177 c -5.49149,0 -9.67633,4.71456 -9.67633,9.95884 0,5.2796 4.30844,9.87055 9.64101,9.87055 2.36611,0 4.99708,-1.00648 6.23311,-3.10772 l 0.19423,1.4126 c 0,0.97116 0.60035,1.76575 1.57152,1.76575 0.97116,0 1.76575,-0.79459 1.76575,-1.76575 l 0.0353,-16.35086 v -0.0353 c 0,-0.97116 -0.79458,-1.76575 -1.76575,-1.76575 -0.97116,0 -1.57152,0.79459 -1.57152,1.76575 l -0.19423,1.69512 c -0.95351,-1.64215 -3.63745,-3.44321 -6.2331,-3.44321 z m 6.09184,9.92352 c 0,3.40791 -2.71926,6.37437 -6.1095,6.37437 -3.4079,0 -6.16248,-2.96646 -6.16248,-6.39202 0,-3.39025 2.68395,-6.37437 6.14482,-6.37437 3.51385,0 6.12716,2.94881 6.12716,6.39202 z" />
      <path
         id="path244"
         style="font-style:normal;font-variant:normal;font-weight:bold;font-stretch:normal;line-height:1.2;font-family:Manjari;-inkscape-font-specification:'Manjari Bold';fill:#000000;fill-opacity:1;stroke-width:0.90407"
         d="m 367.2595,115.76272 c -0.95351,0 -1.67746,0.86522 -1.67746,1.76575 v 22.54865 c 0,1.0418 0.84756,1.76576 1.87169,1.76576 0.72396,0 1.65981,-0.63568 1.65981,-1.57152 v -22.74289 c 0.0177,-0.86522 -0.72396,-1.76575 -1.85404,-1.76575 z" />
      <path
         id="path246"
         style="font-style:normal;font-variant:normal;font-weight:bold;font-stretch:normal;line-height:1.2;font-family:Manjari;-inkscape-font-specification:'Manjari Bold';fill:#000000;fill-opacity:1;stroke-width:0.90407"
         d="m 140.07784,160.28792 -9.69397,22.56631 c -0.0883,0.19424 -0.15892,0.51207 -0.15892,0.72396 0,0.97117 0.79459,1.76575 1.76575,1.76575 0.65333,0 1.37729,-0.49441 1.62449,-1.09476 l 3.09007,-7.16896 10.06478,0.14126 3.01944,7.01004 c 0.24721,0.60036 0.98882,1.07711 1.64215,1.07711 0.97116,0 1.76575,-0.79459 1.76575,-1.76575 0,-0.21189 -0.0706,-0.52973 -0.15892,-0.72396 l -9.71163,-22.531 c -0.24721,-0.5827 -0.98882,-1.05945 -1.62449,-1.05945 -0.65333,0 -1.37729,0.47675 -1.6245,1.05945 z m 1.6245,5.17366 3.5315,8.19309 -7.01004,-0.0883 z" />
      <path
         id="path248"
         style="font-style:normal;font-variant:normal;font-weight:bold;font-stretch:normal;line-height:1.2;font-family:Manjari;-inkscape-font-specification:'Manjari Bold';fill:#000000;fill-opacity:1;stroke-width:0.90407"
         d="m 170.9785,165.51455 c -0.98882,0 -1.34197,0.81224 -1.51854,1.78341 l -0.26487,1.4126 c -1.35962,-2.1189 -3.39024,-3.14304 -5.63274,-3.14304 -5.17366,0 -9.023,4.62627 -9.023,9.69398 0,5.10302 3.867,9.9765 9.023,9.9765 2.04827,0 4.13185,-0.67099 5.5268,-2.84286 v 1.73043 c 0,3.35493 -2.91349,6.19779 -6.33905,6.19779 -1.8717,0 -3.81403,-0.93584 -4.97942,-2.40142 -0.30018,-0.38846 -0.93585,-0.68864 -1.4126,-0.68864 -0.97117,0 -1.76576,0.79459 -1.76576,1.76575 0,0.35315 0.19424,0.86522 0.40613,1.13008 1.87169,2.34845 4.73221,3.72574 7.73399,3.72574 5.29726,0 9.8529,-4.39672 9.88821,-9.67632 l 0.12361,-16.86293 v -0.0353 c 0,-0.97116 -0.79459,-1.76575 -1.76576,-1.76575 z m -1.92467,9.76461 c 0,3.21367 -2.34845,6.42733 -5.49148,6.42733 -3.17836,0 -5.47384,-3.26664 -5.47384,-6.44499 0,-3.19601 2.3308,-6.16247 5.52681,-6.16247 3.14304,0 5.43851,2.98412 5.43851,6.18013 z" />
      <path
         id="path250"
         style="font-style:normal;font-variant:normal;font-weight:bold;font-stretch:normal;line-height:1.2;font-family:Manjari;-inkscape-font-specification:'Manjari Bold';fill:#000000;fill-opacity:1;stroke-width:0.90407"
         d="m 187.94738,167.81003 c 0,-1.88936 -1.73044,-2.24251 -4.13186,-2.24251 -1.95998,0 -3.84934,1.78341 -4.30843,2.77223 l -0.17658,-1.27134 c -0.30018,-1.11242 -1.14774,-1.51855 -1.69512,-1.51855 -0.91819,0 -1.48323,0.75928 -1.48323,1.81873 v 16.26257 c 0,1.05946 0.67098,1.71278 1.76575,1.71278 1.09477,0 1.76575,-0.65332 1.76575,-1.69512 v -9.11128 c 0,-3.26664 1.02414,-5.8623 4.1142,-5.8623 1.02414,0 2.11891,0.77694 2.78989,0.70631 0.84756,-0.10595 1.35963,-0.61802 1.35963,-1.57152 z" />
      <path
         id="path252"
         style="font-style:normal;font-variant:normal;font-weight:bold;font-stretch:normal;line-height:1.2;font-family:Manjari;-inkscape-font-specification:'Manjari Bold';fill:#000000;fill-opacity:1;stroke-width:0.90407"
         d="m 191.9733,163.76645 c 0.97116,0 1.64215,-0.86521 1.64215,-1.78341 l -0.0177,-1.05945 c -0.0177,-0.9535 -0.77693,-1.74809 -1.76575,-1.74809 -0.74162,0 -1.7481,0.61801 -1.7481,1.50089 l 0.0353,1.34197 c 0.0177,0.98882 0.75927,1.74809 1.85404,1.74809 z m -1.90701,3.33728 0.0353,16.50978 c 0,0.93585 0.77693,1.71278 1.76575,1.71278 0.97117,0 1.76575,-0.75928 1.76575,-1.69513 l -0.0353,-16.35086 v -0.0177 c 0,-1.00648 -0.84756,-1.67746 -1.8717,-1.67746 -0.7063,0 -1.6598,0.63567 -1.6598,1.51855 z" />
      <path
         id="path254"
         style="font-style:normal;font-variant:normal;font-weight:bold;font-stretch:normal;line-height:1.2;font-family:Manjari;-inkscape-font-specification:'Manjari Bold';fill:#000000;fill-opacity:1;stroke-width:0.90407"
         d="m 196.37002,175.40276 c 0,5.31491 4.00826,9.9765 9.35849,9.9765 3.60213,0 6.3567,-2.10125 7.69868,-4.5733 0.1236,-0.22955 0.22954,-0.61801 0.22954,-0.86522 0,-0.97116 -0.79459,-1.76575 -1.76575,-1.76575 -0.5827,0 -1.289,0.42378 -1.57152,0.93585 -0.79459,1.46557 -2.43674,2.73691 -4.59095,2.73691 -3.33727,0 -5.82698,-3.0724 -5.82698,-6.44499 0,-3.30196 2.41908,-6.30373 5.6504,-6.30373 2.27782,0 3.9906,1.46557 4.66159,3.16069 0.2472,0.63567 0.97116,1.14774 1.64215,1.14774 0.97116,0 1.76575,-0.79459 1.76575,-1.76575 0,-0.19423 -0.053,-0.49441 -0.1236,-0.67099 -1.14774,-2.89583 -4.07889,-5.4032 -7.94589,-5.4032 -5.22662,0 -9.18191,4.62627 -9.18191,9.83524 z" />
      <path
         id="path256"
         style="font-style:normal;font-variant:normal;font-weight:bold;font-stretch:normal;line-height:1.2;font-family:Manjari;-inkscape-font-specification:'Manjari Bold';fill:#000000;fill-opacity:1;stroke-width:0.90407"
         d="m 228.7186,182.5364 0.30017,1.05945 c 0.26487,0.95351 0.74162,1.76575 1.71278,1.76575 0.97117,0 1.51855,-0.79459 1.51855,-1.76575 l -0.0353,-16.22726 c 0,-0.98882 -0.77693,-1.78341 -1.76576,-1.78341 -0.97116,0 -1.76575,0.79459 -1.76575,1.76575 l 0.0177,7.04535 c 0.0177,4.52033 -1.92467,7.38084 -5.4032,7.38084 -1.44792,0 -2.38377,-0.9535 -2.84286,-1.9953 -0.40613,-0.90053 -0.49441,-2.10124 -0.49441,-3.47853 v -8.91704 c 0,-0.97117 -0.79459,-1.76576 -1.76576,-1.76576 -0.97116,0 -1.76575,0.79459 -1.76575,1.76576 v 8.91704 c 0,1.48323 0.0353,3.21367 0.79459,4.92645 0.97116,2.17188 3.01944,4.07889 6.1095,4.07889 2.36611,0 4.11421,-1.53621 5.38555,-2.77223 z" />
      <path
         id="path258"
         style="font-style:normal;font-variant:normal;font-weight:bold;font-stretch:normal;line-height:1.2;font-family:Manjari;-inkscape-font-specification:'Manjari Bold';fill:#000000;fill-opacity:1;stroke-width:0.90407"
         d="m 237.30015,159.15784 c -0.95351,0 -1.67746,0.86522 -1.67746,1.76575 v 22.54866 c 0,1.04179 0.84756,1.76575 1.87169,1.76575 0.72396,0 1.65981,-0.63567 1.65981,-1.57152 v -22.74289 c 0.0177,-0.86522 -0.72396,-1.76575 -1.85404,-1.76575 z" />
      <path
         id="path260"
         style="font-style:normal;font-variant:normal;font-weight:bold;font-stretch:normal;line-height:1.2;font-family:Manjari;-inkscape-font-specification:'Manjari Bold';fill:#000000;fill-opacity:1;stroke-width:0.90407"
         d="m 245.28135,162.42448 v 3.53151 h -2.29547 c -0.91819,0 -1.67747,0.75927 -1.67747,1.67746 0,0.91819 0.75928,1.67747 1.67747,1.67747 h 2.27782 l -0.0177,11.07126 v 0.15892 c 0,2.73691 1.65981,4.78519 4.62627,4.78519 1.30666,0 2.48971,-0.49441 3.39024,-1.18306 0.42378,-0.31783 0.7063,-0.88287 0.7063,-1.39494 0,-0.95351 -0.79458,-1.7481 -1.76575,-1.7481 -0.38846,0 -0.81224,0.17658 -1.09476,0.37081 -0.35315,0.24721 -0.79459,0.40612 -1.34198,0.40612 -0.81224,0 -0.98882,-0.3708 -0.98882,-1.51854 v -0.0353 l 0.0177,-10.93 h 2.38377 c 0.91819,0 1.67746,-0.75928 1.67746,-1.67747 0,-0.91819 -0.75927,-1.67746 -1.67746,-1.67746 h -2.36611 v -3.51385 c 0,-0.97116 -0.79459,-1.76575 -1.76575,-1.76575 -0.98883,0 -1.76576,0.81225 -1.76576,1.76575 z" />
      <path
         id="path262"
         style="font-style:normal;font-variant:normal;font-weight:bold;font-stretch:normal;line-height:1.2;font-family:Manjari;-inkscape-font-specification:'Manjari Bold';fill:#000000;fill-opacity:1;stroke-width:0.90407"
         d="m 268.4127,182.5364 0.30018,1.05945 c 0.26486,0.95351 0.74162,1.76575 1.71278,1.76575 0.97116,0 1.51855,-0.79459 1.51855,-1.76575 l -0.0353,-16.22726 c 0,-0.98882 -0.77693,-1.78341 -1.76575,-1.78341 -0.97116,0 -1.76575,0.79459 -1.76575,1.76575 l 0.0177,7.04535 c 0.0176,4.52033 -1.92467,7.38084 -5.4032,7.38084 -1.44792,0 -2.38377,-0.9535 -2.84287,-1.9953 -0.40612,-0.90053 -0.49441,-2.10124 -0.49441,-3.47853 v -8.91704 c 0,-0.97117 -0.79458,-1.76576 -1.76575,-1.76576 -0.97116,0 -1.76575,0.79459 -1.76575,1.76576 v 8.91704 c 0,1.48323 0.0353,3.21367 0.79459,4.92645 0.97116,2.17188 3.01943,4.07889 6.1095,4.07889 2.36611,0 4.1142,-1.53621 5.38554,-2.77223 z" />
      <path
         id="path264"
         style="font-style:normal;font-variant:normal;font-weight:bold;font-stretch:normal;line-height:1.2;font-family:Manjari;-inkscape-font-specification:'Manjari Bold';fill:#000000;fill-opacity:1;stroke-width:0.90407"
         d="m 287.11202,167.81003 c 0,-1.88936 -1.73044,-2.24251 -4.13186,-2.24251 -1.95999,0 -3.84934,1.78341 -4.30844,2.77223 l -0.17657,-1.27134 c -0.30018,-1.11242 -1.14774,-1.51855 -1.69513,-1.51855 -0.91819,0 -1.48323,0.75928 -1.48323,1.81873 v 16.26257 c 0,1.05946 0.67099,1.71278 1.76575,1.71278 1.09477,0 1.76576,-0.65332 1.76576,-1.69512 v -9.11128 c 0,-3.26664 1.02413,-5.8623 4.1142,-5.8623 1.02413,0 2.1189,0.77694 2.78989,0.70631 0.84756,-0.10595 1.35963,-0.61802 1.35963,-1.57152 z" />
      <path
         id="path266"
         style="font-style:normal;font-variant:normal;font-weight:bold;font-stretch:normal;line-height:1.2;font-family:Manjari;-inkscape-font-specification:'Manjari Bold';fill:#000000;fill-opacity:1;stroke-width:0.90407"
         d="m 297.70652,165.49689 c -5.49149,0 -9.67632,4.71456 -9.67632,9.95884 0,5.2796 4.30844,9.87056 9.64101,9.87056 2.3661,0 4.99708,-1.00648 6.2331,-3.10773 l 0.19423,1.4126 c 0,0.97117 0.60036,1.76576 1.57152,1.76576 0.97117,0 1.76576,-0.79459 1.76576,-1.76576 l 0.0353,-16.35086 v -0.0353 c 0,-0.97117 -0.79459,-1.76576 -1.76575,-1.76576 -0.97116,0 -1.57152,0.79459 -1.57152,1.76576 l -0.19423,1.69512 c -0.95351,-1.64215 -3.63745,-3.44322 -6.23311,-3.44322 z m 6.09185,9.92353 c 0,3.4079 -2.71926,6.37436 -6.10951,6.37436 -3.4079,0 -6.16247,-2.96646 -6.16247,-6.39202 0,-3.39024 2.68394,-6.37437 6.14482,-6.37437 3.51384,0 6.12716,2.94881 6.12716,6.39203 z" />
      <path
         id="path268"
         style="font-style:normal;font-variant:normal;font-weight:bold;font-stretch:normal;line-height:1.2;font-family:Manjari;-inkscape-font-specification:'Manjari Bold';fill:#000000;fill-opacity:1;stroke-width:0.90407"
         d="m 312.59182,159.15784 c -0.9535,0 -1.67746,0.86522 -1.67746,1.76575 v 22.54866 c 0,1.04179 0.84756,1.76575 1.87169,1.76575 0.72396,0 1.65981,-0.63567 1.65981,-1.57152 v -22.74289 c 0.0177,-0.86522 -0.72396,-1.76575 -1.85404,-1.76575 z" />
      <path
         id="path270"
         style="font-style:normal;font-variant:normal;font-weight:bold;font-stretch:normal;line-height:1.2;font-family:Manjari;-inkscape-font-specification:'Manjari Bold';fill:#000000;fill-opacity:1;stroke-width:0.90407"
         d="m 141.41982,202.65891 c -4.66159,0 -10.01182,2.66629 -10.01182,7.55742 0,2.78989 1.80107,4.55564 3.67277,5.49149 3.28429,1.6598 7.55741,1.289 10.91234,2.71926 0.98882,0.42378 1.9953,1.23602 1.9953,2.47205 0,2.93115 -3.61979,4.25546 -6.60391,4.25546 -3.19601,0 -5.8623,-1.46557 -6.88643,-3.84934 -0.24721,-0.60035 -0.97117,-1.07711 -1.62449,-1.07711 -0.97117,0 -1.76576,0.79459 -1.76576,1.76575 0,0.21189 0.0706,0.51207 0.15892,0.70631 1.57152,3.6551 5.50915,5.98589 10.11776,5.98589 4.50267,0 10.15307,-2.59565 10.15307,-7.78696 0,-2.98412 -2.06593,-4.8205 -4.14951,-5.72104 -3.30196,-1.4126 -7.66337,-1.09476 -10.71812,-2.63097 -0.86522,-0.44144 -1.71278,-1.25368 -1.71278,-2.33079 0,-2.68394 3.79637,-4.02592 6.46266,-4.02592 2.73691,0 4.9441,1.289 5.84463,3.31962 0.24721,0.5827 0.98883,1.05945 1.6245,1.05945 0.97116,0 1.76575,-0.79459 1.76575,-1.76575 0,-0.21189 -0.0706,-0.52973 -0.15892,-0.72396 -1.4126,-3.19601 -5.01473,-5.42086 -9.07596,-5.42086 z" />
      <path
         id="path272"
         style="font-style:normal;font-variant:normal;font-weight:bold;font-stretch:normal;line-height:1.2;font-family:Manjari;-inkscape-font-specification:'Manjari Bold';fill:#000000;fill-opacity:1;stroke-width:0.90407"
         d="m 157.70005,205.81961 v 3.5315 h -2.29548 c -0.91819,0 -1.67746,0.75927 -1.67746,1.67746 0,0.9182 0.75927,1.67747 1.67746,1.67747 h 2.27782 l -0.0177,11.07126 v 0.15892 c 0,2.73692 1.65981,4.78519 4.62627,4.78519 1.30666,0 2.48972,-0.49441 3.39025,-1.18305 0.42378,-0.31784 0.7063,-0.88288 0.7063,-1.39495 0,-0.9535 -0.79459,-1.74809 -1.76575,-1.74809 -0.38847,0 -0.81225,0.17657 -1.09477,0.37081 -0.35315,0.2472 -0.79459,0.40612 -1.34197,0.40612 -0.81225,0 -0.98882,-0.37081 -0.98882,-1.51855 v -0.0353 l 0.0177,-10.93001 h 2.38376 c 0.91819,0 1.67747,-0.75927 1.67747,-1.67746 0,-0.91819 -0.75928,-1.67747 -1.67747,-1.67747 h -2.36611 v -3.51384 c 0,-0.97117 -0.79458,-1.76576 -1.76575,-1.76576 -0.98882,0 -1.76575,0.81225 -1.76575,1.76576 z" />
      <path
         id="path274"
         style="font-style:normal;font-variant:normal;font-weight:bold;font-stretch:normal;line-height:1.2;font-family:Manjari;-inkscape-font-specification:'Manjari Bold';fill:#000000;fill-opacity:1;stroke-width:0.90407"
         d="m 177.84728,208.89201 c -5.49149,0 -9.67632,4.71456 -9.67632,9.95885 0,5.27959 4.30843,9.87055 9.64101,9.87055 2.3661,0 4.99707,-1.00648 6.2331,-3.10772 l 0.19423,1.4126 c 0,0.97116 0.60036,1.76575 1.57152,1.76575 0.97117,0 1.76575,-0.79459 1.76575,-1.76575 l 0.0353,-16.35087 v -0.0353 c 0,-0.97116 -0.79459,-1.76575 -1.76575,-1.76575 -0.97117,0 -1.57152,0.79459 -1.57152,1.76575 l -0.19423,1.69512 c -0.95351,-1.64215 -3.63745,-3.44322 -6.23311,-3.44322 z m 6.09184,9.92353 c 0,3.4079 -2.71925,6.37437 -6.1095,6.37437 -3.4079,0 -6.16247,-2.96647 -6.16247,-6.39203 0,-3.39024 2.68394,-6.37436 6.14482,-6.37436 3.51384,0 6.12715,2.9488 6.12715,6.39202 z" />
      <path
         id="path276"
         style="font-style:normal;font-variant:normal;font-weight:bold;font-stretch:normal;line-height:1.2;font-family:Manjari;-inkscape-font-specification:'Manjari Bold';fill:#000000;fill-opacity:1;stroke-width:0.90407"
         d="m 193.79202,205.81961 v 3.5315 h -2.29548 c -0.91819,0 -1.67746,0.75927 -1.67746,1.67746 0,0.9182 0.75927,1.67747 1.67746,1.67747 h 2.27782 l -0.0177,11.07126 v 0.15892 c 0,2.73692 1.65981,4.78519 4.62628,4.78519 1.30665,0 2.48971,-0.49441 3.39024,-1.18305 0.42378,-0.31784 0.7063,-0.88288 0.7063,-1.39495 0,-0.9535 -0.79459,-1.74809 -1.76575,-1.74809 -0.38847,0 -0.81225,0.17657 -1.09477,0.37081 -0.35315,0.2472 -0.79459,0.40612 -1.34197,0.40612 -0.81225,0 -0.98882,-0.37081 -0.98882,-1.51855 v -0.0353 l 0.0177,-10.93001 h 2.38376 c 0.91819,0 1.67747,-0.75927 1.67747,-1.67746 0,-0.91819 -0.75928,-1.67747 -1.67747,-1.67747 h -2.36611 v -3.51384 c 0,-0.97117 -0.79458,-1.76576 -1.76575,-1.76576 -0.98882,0 -1.76575,0.81225 -1.76575,1.76576 z" />
      <path
         id="path278"
         style="font-style:normal;font-variant:normal;font-weight:bold;font-stretch:normal;line-height:1.2;font-family:Manjari;-inkscape-font-specification:'Manjari Bold';fill:#000000;fill-opacity:1;stroke-width:0.90407"
         d="m 206.52309,207.16158 c 0.97116,0 1.64215,-0.86522 1.64215,-1.78341 l -0.0177,-1.05945 c -0.0177,-0.95351 -0.77693,-1.7481 -1.76575,-1.7481 -0.74162,0 -1.74809,0.61802 -1.74809,1.50089 l 0.0353,1.34197 c 0.0177,0.98882 0.75927,1.7481 1.85404,1.7481 z m -1.90701,3.33727 0.0353,16.50978 c 0,0.93585 0.77693,1.71278 1.76576,1.71278 0.97116,0 1.76575,-0.75927 1.76575,-1.69512 l -0.0353,-16.35087 v -0.0177 c 0,-1.00648 -0.84756,-1.67747 -1.87169,-1.67747 -0.70631,0 -1.65981,0.63567 -1.65981,1.51855 z" />
      <path
         id="path280"
         style="font-style:normal;font-variant:normal;font-weight:bold;font-stretch:normal;line-height:1.2;font-family:Manjari;-inkscape-font-specification:'Manjari Bold';fill:#000000;fill-opacity:1;stroke-width:0.90407"
         d="m 220.49019,208.94499 c -3.95528,0 -8.58155,1.80106 -8.58155,6.05653 0,4.73221 5.35023,5.24428 9.48209,5.68572 1.62449,0.17657 4.06123,0.21189 4.06123,1.76575 0,2.01296 -2.80755,2.64863 -4.90879,2.64863 -2.66629,0 -4.64393,-0.75928 -5.56212,-2.54268 -0.26487,-0.54739 -0.98882,-0.98883 -1.58918,-0.98883 -0.97116,0 -1.76575,0.79459 -1.76575,1.76576 0,0.2472 0.10594,0.61801 0.21189,0.8299 1.50089,2.91349 4.89113,4.46735 8.72281,4.46735 4.18484,0 8.42264,-1.88935 8.42264,-6.16247 0,-3.9906 -3.76105,-4.92645 -7.22192,-5.29726 -1.80107,-0.19423 -6.3214,-0.35315 -6.3214,-2.17187 0,-1.85404 3.1607,-2.52503 5.0324,-2.52503 2.13656,0 3.74339,0.74162 4.52032,2.18953 0.26486,0.52973 0.97117,0.97117 1.57152,0.97117 0.97116,0 1.76575,-0.79459 1.76575,-1.76575 0,-0.24721 -0.0883,-0.63568 -0.21189,-0.84757 -1.32431,-2.48971 -4.27312,-4.07888 -7.62805,-4.07888 z" />
      <path
         id="path282"
         style="font-style:normal;font-variant:normal;font-weight:bold;font-stretch:normal;line-height:1.2;font-family:Manjari;-inkscape-font-specification:'Manjari Bold';fill:#000000;fill-opacity:1;stroke-width:0.90407"
         d="m 235.18125,205.81961 v 3.5315 h -2.29548 c -0.91819,0 -1.67746,0.75927 -1.67746,1.67746 0,0.9182 0.75927,1.67747 1.67746,1.67747 h 2.27782 l -0.0177,11.07126 v 0.15892 c 0,2.73692 1.65981,4.78519 4.62627,4.78519 1.30666,0 2.48971,-0.49441 3.39025,-1.18305 0.42378,-0.31784 0.7063,-0.88288 0.7063,-1.39495 0,-0.9535 -0.79459,-1.74809 -1.76575,-1.74809 -0.38847,0 -0.81225,0.17657 -1.09477,0.37081 -0.35315,0.2472 -0.79459,0.40612 -1.34197,0.40612 -0.81225,0 -0.98882,-0.37081 -0.98882,-1.51855 v -0.0353 l 0.0177,-10.93001 h 2.38376 c 0.91819,0 1.67746,-0.75927 1.67746,-1.67746 0,-0.91819 -0.75927,-1.67747 -1.67746,-1.67747 h -2.36611 v -3.51384 c 0,-0.97117 -0.79459,-1.76576 -1.76575,-1.76576 -0.98882,0 -1.76575,0.81225 -1.76575,1.76576 z" />
      <path
         id="path284"
         style="font-style:normal;font-variant:normal;font-weight:bold;font-stretch:normal;line-height:1.2;font-family:Manjari;-inkscape-font-specification:'Manjari Bold';fill:#000000;fill-opacity:1;stroke-width:0.90407"
         d="m 247.91232,207.16158 c 0.97116,0 1.64215,-0.86522 1.64215,-1.78341 l -0.0177,-1.05945 c -0.0177,-0.95351 -0.77693,-1.7481 -1.76575,-1.7481 -0.74162,0 -1.7481,0.61802 -1.7481,1.50089 l 0.0353,1.34197 c 0.0177,0.98882 0.75927,1.7481 1.85404,1.7481 z m -1.90701,3.33727 0.0353,16.50978 c 0,0.93585 0.77693,1.71278 1.76575,1.71278 0.97117,0 1.76576,-0.75927 1.76576,-1.69512 l -0.0353,-16.35087 v -0.0177 c 0,-1.00648 -0.84756,-1.67747 -1.8717,-1.67747 -0.7063,0 -1.6598,0.63567 -1.6598,1.51855 z" />
      <path
         id="path286"
         style="font-style:normal;font-variant:normal;font-weight:bold;font-stretch:normal;line-height:1.2;font-family:Manjari;-inkscape-font-specification:'Manjari Bold';fill:#000000;fill-opacity:1;stroke-width:0.90407"
         d="m 252.30905,218.79788 c 0,5.31492 4.00825,9.9765 9.35848,9.9765 3.60214,0 6.35671,-2.10124 7.69868,-4.5733 0.1236,-0.22954 0.22955,-0.61801 0.22955,-0.86521 0,-0.97117 -0.79459,-1.76576 -1.76575,-1.76576 -0.5827,0 -1.289,0.42378 -1.57152,0.93585 -0.79459,1.46558 -2.43674,2.73692 -4.59096,2.73692 -3.33727,0 -5.82698,-3.07241 -5.82698,-6.445 0,-3.30195 2.41908,-6.30373 5.65041,-6.30373 2.27782,0 3.9906,1.46557 4.66158,3.16069 0.24721,0.63568 0.97117,1.14774 1.64215,1.14774 0.97117,0 1.76575,-0.79458 1.76575,-1.76575 0,-0.19423 -0.053,-0.49441 -0.1236,-0.67098 -1.14774,-2.89584 -4.07889,-5.40321 -7.94588,-5.40321 -5.22663,0 -9.18191,4.62627 -9.18191,9.83524 z" />
      <path
         id="path288"
         style="font-style:normal;font-variant:normal;font-weight:bold;font-stretch:normal;line-height:1.2;font-family:Manjari;-inkscape-font-specification:'Manjari Bold';fill:#000000;fill-opacity:1;stroke-width:0.90407"
         d="m 281.30269,208.94499 c -3.95528,0 -8.58155,1.80106 -8.58155,6.05653 0,4.73221 5.35023,5.24428 9.48209,5.68572 1.62449,0.17657 4.06123,0.21189 4.06123,1.76575 0,2.01296 -2.80755,2.64863 -4.90879,2.64863 -2.66629,0 -4.64393,-0.75928 -5.56212,-2.54268 -0.26487,-0.54739 -0.98882,-0.98883 -1.58918,-0.98883 -0.97116,0 -1.76575,0.79459 -1.76575,1.76576 0,0.2472 0.10594,0.61801 0.21189,0.8299 1.50089,2.91349 4.89113,4.46735 8.72281,4.46735 4.18484,0 8.42264,-1.88935 8.42264,-6.16247 0,-3.9906 -3.76105,-4.92645 -7.22192,-5.29726 -1.80107,-0.19423 -6.3214,-0.35315 -6.3214,-2.17187 0,-1.85404 3.1607,-2.52503 5.0324,-2.52503 2.13656,0 3.74339,0.74162 4.52032,2.18953 0.26486,0.52973 0.97117,0.97117 1.57152,0.97117 0.97116,0 1.76575,-0.79459 1.76575,-1.76575 0,-0.24721 -0.0883,-0.63568 -0.21189,-0.84757 -1.32431,-2.48971 -4.27312,-4.07888 -7.62805,-4.07888 z" />
      <path
         id="path290"
         style="font-style:normal;font-variant:normal;font-weight:bold;font-stretch:normal;line-height:1.2;font-family:Manjari;-inkscape-font-specification:'Manjari Bold';fill:#000000;fill-opacity:1;stroke-width:0.90407"
         d="m 132.83826,271.85167 15.1325,-0.0353 h 0.0176 c 0.97117,0 1.76575,-0.79459 1.76575,-1.76576 0,-0.97116 -0.79458,-1.76575 -1.76575,-1.76575 h -0.0176 l -13.36675,0.0353 -0.053,-20.64164 c 0,-0.93585 -0.79459,-1.71278 -1.76575,-1.71278 -0.97117,0 -1.76575,0.77693 -1.76575,1.71278 v 0.0177 l 0.053,22.4074 c 0,0.9535 0.79459,1.74809 1.76575,1.74809 z" />
      <path
         id="path292"
         style="font-style:normal;font-variant:normal;font-weight:bold;font-stretch:normal;line-height:1.2;font-family:Manjari;-inkscape-font-specification:'Manjari Bold';fill:#000000;fill-opacity:1;stroke-width:0.90407"
         d="m 160.33102,252.28714 c -5.49149,0 -9.67632,4.71456 -9.67632,9.95884 0,5.2796 4.30843,9.87055 9.64101,9.87055 2.3661,0 4.99707,-1.00648 6.2331,-3.10772 l 0.19423,1.4126 c 0,0.97116 0.60036,1.76575 1.57152,1.76575 0.97117,0 1.76575,-0.79459 1.76575,-1.76575 l 0.0353,-16.35086 v -0.0353 c 0,-0.97116 -0.79459,-1.76575 -1.76575,-1.76575 -0.97117,0 -1.57152,0.79459 -1.57152,1.76575 l -0.19424,1.69512 c -0.9535,-1.64215 -3.63744,-3.44321 -6.2331,-3.44321 z m 6.09184,9.92352 c 0,3.40791 -2.71925,6.37437 -6.1095,6.37437 -3.4079,0 -6.16247,-2.96646 -6.16247,-6.39202 0,-3.39025 2.68394,-6.37437 6.14482,-6.37437 3.51384,0 6.12715,2.94881 6.12715,6.39202 z" />
      <path
         id="path294"
         style="font-style:normal;font-variant:normal;font-weight:bold;font-stretch:normal;line-height:1.2;font-family:Manjari;-inkscape-font-specification:'Manjari Bold';fill:#000000;fill-opacity:1;stroke-width:0.90407"
         d="m 192.36176,262.19301 c 0,-2.66629 -0.98882,-5.29726 -2.93115,-7.22193 -1.71278,-1.67746 -4.04357,-2.63097 -6.44499,-2.63097 -2.4544,0 -4.30844,1.11242 -5.82698,2.87818 v -7.43382 c 0,-0.97116 -0.79459,-1.76575 -1.76575,-1.76575 -0.97117,0 -1.76576,0.79459 -1.76576,1.76575 v 22.54865 c 0,0.97117 0.79459,1.76576 1.76576,1.76576 0.97116,0 1.4126,-0.81225 1.55386,-1.76576 l 0.21189,-1.43026 c 1.34197,1.92467 3.76105,3.10773 5.95058,3.10773 5.31492,0 9.25254,-4.60861 9.25254,-9.81758 z m -9.21722,6.28607 c -1.53621,0 -3.14304,-0.72395 -4.20249,-1.88935 -1.05945,-1.1654 -1.65981,-2.84286 -1.65981,-4.48501 0,-3.39024 2.40142,-6.28608 5.77401,-6.28608 3.33727,0 5.79167,3.09007 5.79167,6.37437 0,3.30195 -2.43674,6.28607 -5.70338,6.28607 z" />
      <path
         id="path296"
         style="font-style:normal;font-variant:normal;font-weight:bold;font-stretch:normal;line-height:1.2;font-family:Manjari;-inkscape-font-specification:'Manjari Bold';fill:#000000;fill-opacity:1;stroke-width:0.90407"
         d="m 203.8215,252.37543 c -5.31492,0 -9.67633,4.53798 -9.67633,9.88821 0,5.4032 4.37907,9.78226 9.67633,9.78226 5.33257,0 9.69397,-4.48501 9.69397,-9.78226 0,-5.36789 -4.29077,-9.88821 -9.69397,-9.88821 z m -6.10951,9.92352 c 0,-3.44321 2.61332,-6.35671 6.10951,-6.35671 3.46087,0 6.12716,2.89584 6.12716,6.3214 0,3.35493 -2.71926,6.21544 -6.10951,6.21544 -3.33727,0 -6.12716,-2.75457 -6.12716,-6.18013 z" />
      <path
         id="path298"
         style="font-style:normal;font-variant:normal;font-weight:bold;font-stretch:normal;line-height:1.2;font-family:Manjari;-inkscape-font-specification:'Manjari Bold';fill:#000000;fill-opacity:1;stroke-width:0.90407"
         d="m 227.85338,254.60027 c 0,-1.88935 -1.73044,-2.2425 -4.13186,-2.2425 -1.95999,0 -3.84934,1.78341 -4.30844,2.77223 l -0.17657,-1.27134 c -0.30018,-1.11243 -1.14774,-1.51855 -1.69512,-1.51855 -0.91819,0 -1.48323,0.75927 -1.48323,1.81873 v 16.26257 c 0,1.05945 0.67098,1.71278 1.76575,1.71278 1.09476,0 1.76575,-0.65333 1.76575,-1.69512 v -9.11128 c 0,-3.26664 1.02414,-5.8623 4.1142,-5.8623 1.02414,0 2.1189,0.77693 2.78989,0.7063 0.84756,-0.10594 1.35963,-0.61801 1.35963,-1.57152 z" />
      <path
         id="path300"
         style="font-style:normal;font-variant:normal;font-weight:bold;font-stretch:normal;line-height:1.2;font-family:Manjari;-inkscape-font-specification:'Manjari Bold';fill:#000000;fill-opacity:1;stroke-width:0.90407"
         d="m 238.44789,252.28714 c -5.49149,0 -9.67632,4.71456 -9.67632,9.95884 0,5.2796 4.30844,9.87055 9.64101,9.87055 2.36611,0 4.99708,-1.00648 6.2331,-3.10772 l 0.19424,1.4126 c 0,0.97116 0.60035,1.76575 1.57151,1.76575 0.97117,0 1.76576,-0.79459 1.76576,-1.76575 l 0.0353,-16.35086 v -0.0353 c 0,-0.97116 -0.79459,-1.76575 -1.76575,-1.76575 -0.97116,0 -1.57152,0.79459 -1.57152,1.76575 l -0.19423,1.69512 c -0.95351,-1.64215 -3.63745,-3.44321 -6.23311,-3.44321 z m 6.09185,9.92352 c 0,3.40791 -2.71926,6.37437 -6.1095,6.37437 -3.40791,0 -6.16248,-2.96646 -6.16248,-6.39202 0,-3.39025 2.68394,-6.37437 6.14482,-6.37437 3.51384,0 6.12716,2.94881 6.12716,6.39202 z" />
      <path
         id="path302"
         style="font-style:normal;font-variant:normal;font-weight:bold;font-stretch:normal;line-height:1.2;font-family:Manjari;-inkscape-font-specification:'Manjari Bold';fill:#000000;fill-opacity:1;stroke-width:0.90407"
         d="m 254.39264,249.21473 v 3.5315 h -2.29548 c -0.91819,0 -1.67747,0.75928 -1.67747,1.67747 0,0.91819 0.75928,1.67746 1.67747,1.67746 h 2.27782 l -0.0177,11.07127 v 0.15892 c 0,2.73691 1.65981,4.78518 4.62627,4.78518 1.30666,0 2.48971,-0.49441 3.39025,-1.18305 0.42378,-0.31784 0.7063,-0.88288 0.7063,-1.39494 0,-0.95351 -0.79459,-1.7481 -1.76576,-1.7481 -0.38846,0 -0.81224,0.17658 -1.09476,0.37081 -0.35315,0.2472 -0.79459,0.40612 -1.34197,0.40612 -0.81225,0 -0.98882,-0.37081 -0.98882,-1.51855 v -0.0353 l 0.0177,-10.93001 h 2.38377 c 0.91819,0 1.67746,-0.75927 1.67746,-1.67746 0,-0.91819 -0.75927,-1.67746 -1.67746,-1.67746 h -2.36611 v -3.51385 c 0,-0.97116 -0.79459,-1.76575 -1.76575,-1.76575 -0.98882,0 -1.76575,0.81224 -1.76575,1.76575 z" />
      <path
         id="path304"
         style="font-style:normal;font-variant:normal;font-weight:bold;font-stretch:normal;line-height:1.2;font-family:Manjari;-inkscape-font-specification:'Manjari Bold';fill:#000000;fill-opacity:1;stroke-width:0.90407"
         d="m 274.09843,252.37543 c -5.31492,0 -9.67632,4.53798 -9.67632,9.88821 0,5.4032 4.37906,9.78226 9.67632,9.78226 5.33257,0 9.69398,-4.48501 9.69398,-9.78226 0,-5.36789 -4.29078,-9.88821 -9.69398,-9.88821 z m -6.1095,9.92352 c 0,-3.44321 2.61331,-6.35671 6.1095,-6.35671 3.46087,0 6.12716,2.89584 6.12716,6.3214 0,3.35493 -2.71926,6.21544 -6.10951,6.21544 -3.33727,0 -6.12715,-2.75457 -6.12715,-6.18013 z" />
      <path
         id="path306"
         style="font-style:normal;font-variant:normal;font-weight:bold;font-stretch:normal;line-height:1.2;font-family:Manjari;-inkscape-font-specification:'Manjari Bold';fill:#000000;fill-opacity:1;stroke-width:0.90407"
         d="m 298.13031,254.60027 c 0,-1.88935 -1.73044,-2.2425 -4.13186,-2.2425 -1.95998,0 -3.84934,1.78341 -4.30843,2.77223 l -0.17658,-1.27134 c -0.30018,-1.11243 -1.14774,-1.51855 -1.69512,-1.51855 -0.91819,0 -1.48323,0.75927 -1.48323,1.81873 v 16.26257 c 0,1.05945 0.67098,1.71278 1.76575,1.71278 1.09477,0 1.76575,-0.65333 1.76575,-1.69512 v -9.11128 c 0,-3.26664 1.02414,-5.8623 4.1142,-5.8623 1.02414,0 2.11891,0.77693 2.78989,0.7063 0.84756,-0.10594 1.35963,-0.61801 1.35963,-1.57152 z" />
      <path
         id="path308"
         style="font-style:normal;font-variant:normal;font-weight:bold;font-stretch:normal;line-height:1.2;font-family:Manjari;-inkscape-font-specification:'Manjari Bold';fill:#000000;fill-opacity:1;stroke-width:0.90407"
         d="m 300.77894,252.26948 c -0.97117,0 -1.76576,0.79459 -1.76576,1.76575 0,0.24721 0.053,0.51207 0.15892,0.75928 l 7.41616,16.63338 -0.84756,2.15422 c -0.81225,1.9953 -1.78341,3.67276 -3.84934,3.81402 -0.91819,0.0353 -1.65981,0.82991 -1.65981,1.76575 0,0.97117 0.77693,1.80107 1.76576,1.80107 1.81872,0 3.56681,-0.93585 4.71455,-2.13656 1.20072,-1.21837 1.80107,-2.66628 2.29548,-3.90231 l 0.98882,-2.47205 c 0.10595,-0.17658 0.24721,-0.42378 0.30018,-0.72396 l 6.49797,-16.95122 c 0.0883,-0.19423 0.14126,-0.4591 0.14126,-0.68865 0,-0.97116 -0.79459,-1.76575 -1.76575,-1.76575 -0.72396,0 -1.39495,0.47676 -1.64215,1.11243 l -5.13834,13.52566 -6.00356,-13.64927 c -0.26486,-0.58269 -0.91819,-1.04179 -1.60683,-1.04179 z" />
    </g>
  </g>
</svg>
