<?xml version="1.0" encoding="utf-8" ?>	<!-- Generator: Assembly 2.4 - http://assemblyapp.co -->	<svg version="1.1" xmlns="http://www.w3.org/2000/svg" xmlns:xlink="http://www.w3.org/1999/xlink" width="500.00" height="231.00" viewBox="0 0 500.0 231.0">		<g id="document" transform="scale(1.6680433702241741 1.6680433702241741) translate(149.77415376640678 69.30806241878292)">			<g>				<path d="M-66.9664,-24.3983 C-84.8729,-42.9056 -116.196,-40.5324 -116.196,-40.5324 C-116.196,-40.5324 -118.494,-8.15182 -100.588,10.3555 C-82.6823,28.8638 -60.6402,36.0845 -51.3565,26.4888 C-42.0737,16.8923 -49.0607,-5.8909 -66.9664,-24.3983 L-66.9664,-24.3983 Z " fill="none" />				<path d="M-32.8365,-5.2661 C-32.8365,-31.4407 -56.609,-52.6581 -56.609,-52.6581 C-56.609,-52.6581 -80.3815,-31.4407 -80.3815,-5.2661 C-80.3815,20.9085 -69.7381,42.1259 -56.609,42.1259 C-43.4799,42.1259 -32.8365,20.9085 -32.8365,-5.2661 Z " fill="none" />				<path d="M-31.1384,-5.2661 C-31.1384,-31.9335 -54.5047,-53.0987 -55.4996,-53.9866 C-56.1372,-54.5548 -57.0808,-54.5548 -57.7175,-53.9866 C-64.3007,-47.7729 -69.9139,-40.5436 -74.358,-32.5549 C-92.4577,-43.9272 -115.323,-42.3563 -116.317,-42.2791 C-117.156,-42.2148 -117.824,-41.5249 -117.886,-40.6576 C-117.983,-39.3025 -120.027,-7.25448 -101.789,11.5966 C-94.0753,19.8603 -84.6722,26.2369 -74.2684,30.2608 C-69.9587,38.2966 -64.3588,43.0198 -58.307,43.7638 L-58.307,52.6575 C-58.307,53.6268 -57.5467,54.4127 -56.609,54.4127 C-55.6713,54.4127 -54.911,53.6268 -54.911,52.6575 L-54.911,43.7655 C-41.4502,42.1259 -31.1384,21.1914 -31.1384,-5.2661 L-31.1384,-5.2661 Z M-99.3875,9.11537 C-114.322,-6.31943 -114.719,-32.2532 -114.561,-38.8423 C-109.203,-38.9863 -90.632,-38.7352 -75.9864,-29.4695 C-79.8434,-22.0139 -81.932,-13.7184 -82.0796,-5.2661 C-82.233,5.32631 -80.3276,15.8433 -76.4755,25.6601 C-85.0553,21.6893 -92.8291,16.0756 -99.3875,9.11537 Z M-54.911,40.2147 L-54.911,14.7017 L-43.4442,1.15671 C-42.8257,0.426493 -42.897,-0.682544 -43.6034,-1.32191 C-44.3098,-1.96042 -45.3827,-1.88671 -46.0012,-1.1565 L-54.911,9.37506 L-54.911,-15.7977 C-54.911,-16.767 -55.6713,-17.5529 -56.609,-17.5529 C-57.5467,-17.5529 -58.307,-16.767 -58.307,-15.7977 L-58.307,9.36906 L-67.2168,-1.1625 C-67.8345,-1.89185 -68.9082,-1.96556 -69.6138,-1.32705 C-70.3202,-0.688542 -70.3915,0.421352 -69.7738,1.15157 L-58.307,14.7017 L-58.307,40.2215 C-63.2312,39.4193 -67.8975,35.1632 -71.5987,28.0101 C-76.1704,19.2604 -78.6835,7.44582 -78.6835,-5.2661 C-78.5019,-13.6893 -76.2956,-21.9334 -72.2628,-29.2552 C-68.1056,-37.0408 -62.8266,-44.1278 -56.609,-50.2746 C-51.99,-45.7365 -34.5345,-27.1349 -34.5345,-5.2661 C-34.5345,18.2911 -43.7038,38.3523 -54.911,40.2147 L-54.911,40.2147 Z " fill="#ffffff" fill-opacity="1.00" />			</g>			<g>				<path d="M-8.6483,-36.4182 C-9.10161,-36.4182 -9.4725,-36.1915 -9.64764,-35.8 C-10.3791,-34.2031 -12.1511,-32.7917 -14.4074,-32.7917 C-17.4363,-32.7917 -19.301,-35.3055 -19.301,-38.3138 C-19.301,-41.3015 -17.4157,-43.8565 -14.4177,-43.8565 C-12.1305,-43.8565 -10.4306,-42.5378 -9.65794,-40.9513 C-9.4725,-40.5495 -9.07071,-40.3537 -8.59679,-40.3537 C-8.11258,-40.3537 -7.69018,-40.8585 -7.69018,-41.3633 C-7.69018,-41.5282 -7.7211,-41.6621 -7.8035,-41.8167 C-8.88526,-44.042 -11.2548,-45.917 -14.4177,-45.917 C-18.5902,-45.917 -21.3615,-42.3833 -21.3615,-38.3344 C-21.3615,-34.234 -18.6417,-30.7209 -14.3868,-30.7209 C-11.1621,-30.7209 -8.81314,-32.699 -7.77259,-34.9758 C-7.70048,-35.1201 -7.66957,-35.2849 -7.66957,-35.4703 C-7.66957,-35.9546 -8.15379,-36.4182 -8.6483,-36.4182 L-8.6483,-36.4182 Z " fill="#ffffff" fill-opacity="1.00" />				<path d="M-0.983267,-42.2288 C-4.08431,-42.2288 -6.62902,-39.581 -6.62902,-36.4594 C-6.62902,-33.3068 -4.07401,-30.7518 -0.983267,-30.7518 C2.12807,-30.7518 4.67278,-33.3686 4.67278,-36.4594 C4.67278,-39.5913 2.16928,-42.2288 -0.983267,-42.2288 Z M-4.54792,-36.4388 C-4.54792,-38.4478 -3.02316,-40.1477 -0.983267,-40.1477 C1.03601,-40.1477 2.59168,-38.4581 2.59168,-36.4594 C2.59168,-34.5019 1.00511,-32.8329 -0.972971,-32.8329 C-2.92013,-32.8329 -4.54792,-34.4401 -4.54792,-36.4388 Z " fill="#ffffff" fill-opacity="1.00" />				<path d="M10.4937,-42.2391 C9.56645,-42.2391 8.5362,-41.6518 8.1035,-40.7452 L7.90775,-41.3118 C7.67079,-41.9815 7.269,-42.2494 6.81569,-42.2494 C6.23875,-42.2494 6.06361,-41.7961 6.06361,-41.2397 L6.06361,-31.7099 C6.06361,-31.1536 6.52722,-30.7003 7.09385,-30.7003 C7.66049,-30.7003 8.1241,-31.1536 8.1241,-31.6996 L8.1241,-37.2527 C8.1241,-39.2616 9.09253,-40.1786 10.1022,-40.1786 C11.1839,-40.1786 12.3069,-39.1174 12.3069,-37.1806 L12.3069,-31.7099 C12.3069,-31.1536 12.7602,-30.7003 13.3371,-30.7003 C13.9038,-30.7003 14.3674,-31.1536 14.3674,-31.6996 L14.3571,-37.1909 C14.3571,-38.7671 15.2431,-40.1992 16.7678,-40.1992 C18.2102,-40.1992 18.5399,-38.7671 18.5399,-37.2012 L18.5502,-31.7305 C18.5502,-31.1742 19.0035,-30.7209 19.5804,-30.7209 C20.1574,-30.7209 20.6107,-31.1742 20.6107,-31.7305 L20.6004,-37.2218 C20.6004,-39.8798 19.3435,-42.2494 16.6957,-42.2494 C15.3667,-42.2494 14.2644,-41.4664 13.4917,-40.5804 C12.8426,-41.4973 11.8227,-42.2391 10.4936,-42.2391 L10.4937,-42.2391 Z " fill="#ffffff" fill-opacity="1.00" />				<path d="M33.5403,-36.4697 C33.5403,-39.5089 31.2428,-42.1978 28.1418,-42.1978 C26.8643,-42.1978 25.4528,-41.5076 24.6699,-40.3846 L24.5462,-41.2191 C24.4638,-41.7754 24.2062,-42.2494 23.6396,-42.2494 C23.073,-42.2494 22.6094,-41.7858 22.6094,-41.2191 L22.6094,-28.0629 C22.6094,-27.4962 23.073,-27.0326 23.6396,-27.0326 C24.2062,-27.0326 24.6699,-27.4962 24.6699,-28.0629 L24.6699,-32.4002 C25.5559,-31.37 26.6376,-30.7209 28.0697,-30.7209 C29.4708,-30.7209 30.8307,-31.2772 31.8301,-32.256 C32.9633,-33.3789 33.5403,-34.914 33.5403,-36.4697 L33.5403,-36.4697 Z M28.1624,-40.1374 C30.0683,-40.1374 31.4901,-38.3962 31.4901,-36.4697 C31.4901,-34.5534 30.058,-32.7505 28.1109,-32.7505 C26.1431,-32.7505 24.742,-34.4401 24.742,-36.4182 C24.742,-37.3763 25.0923,-38.355 25.7104,-39.035 C26.3285,-39.715 27.2661,-40.1374 28.1624,-40.1374 L28.1624,-40.1374 Z " fill="#ffffff" fill-opacity="1.00" />				<path d="M42.2252,-32.3384 L42.4004,-31.7202 C42.5549,-31.1639 42.8331,-30.69 43.3997,-30.69 C43.9664,-30.69 44.2857,-31.1536 44.2857,-31.7202 L44.2651,-41.1882 C44.2651,-41.7651 43.8118,-42.2288 43.2349,-42.2288 C42.6682,-42.2288 42.2046,-41.7651 42.2046,-41.1985 L42.215,-37.0878 C42.2253,-34.4504 41.092,-32.7814 39.0624,-32.7814 C38.2176,-32.7814 37.6716,-33.3377 37.4037,-33.9456 C37.1668,-34.471 37.1152,-35.1716 37.1152,-35.9752 L37.1152,-41.1779 C37.1152,-41.7445 36.6516,-42.2082 36.085,-42.2082 C35.5184,-42.2082 35.0548,-41.7445 35.0548,-41.1779 L35.0548,-35.9752 C35.0548,-35.1098 35.0753,-34.1001 35.5184,-33.1008 C36.085,-31.8336 37.2801,-30.7209 39.083,-30.7209 C40.4635,-30.7209 41.4835,-31.6172 42.2253,-32.3384 L42.2252,-32.3384 Z " fill="#ffffff" fill-opacity="1.00" />				<path d="M47.8504,-44.0729 L47.8504,-42.0124 L46.5111,-42.0124 C45.9753,-42.0124 45.5323,-41.5694 45.5323,-41.0337 C45.5323,-40.4979 45.9753,-40.0549 46.5111,-40.0549 L47.8401,-40.0549 L47.8297,-33.5953 L47.8297,-33.5026 C47.8297,-31.9057 48.7982,-30.7106 50.529,-30.7106 C51.2914,-30.7106 51.9816,-30.9991 52.5071,-31.4009 C52.7543,-31.5863 52.9192,-31.916 52.9192,-32.2148 C52.9192,-32.7711 52.4555,-33.2347 51.8889,-33.2347 C51.6623,-33.2347 51.415,-33.1317 51.2502,-33.0184 C51.0441,-32.8741 50.7865,-32.7814 50.4672,-32.7814 C49.9933,-32.7814 49.8902,-32.9978 49.8902,-33.6674 L49.8902,-33.688 L49.9006,-40.0652 L51.2914,-40.0652 C51.8271,-40.0652 52.2701,-40.5082 52.2701,-41.044 C52.2701,-41.5797 51.8271,-42.0227 51.2914,-42.0227 L49.9109,-42.0227 L49.9109,-44.0729 C49.9109,-44.6395 49.4473,-45.1031 48.8806,-45.1031 C48.3037,-45.1031 47.8504,-44.6292 47.8504,-44.0729 L47.8504,-44.0729 Z " fill="#ffffff" fill-opacity="1.00" />				<path d="M59.6055,-42.2803 C56.4014,-42.2803 53.9597,-39.5295 53.9597,-36.4697 C53.9597,-33.3892 56.4735,-30.7106 59.5849,-30.7106 C60.9654,-30.7106 62.5005,-31.2979 63.2216,-32.5238 L63.335,-31.6996 C63.335,-31.133 63.6853,-30.6694 64.2519,-30.6694 C64.8185,-30.6694 65.2821,-31.133 65.2821,-31.6996 L65.3027,-41.2397 L65.3027,-41.2603 C65.3027,-41.8269 64.8391,-42.2906 64.2725,-42.2906 C63.7058,-42.2906 63.3556,-41.8269 63.3556,-41.2603 L63.2422,-40.2713 C62.6859,-41.2294 61.1199,-42.2803 59.6055,-42.2803 L59.6055,-42.2803 Z M63.1598,-36.4903 C63.1598,-34.5019 61.5732,-32.7711 59.5952,-32.7711 C57.6068,-32.7711 55.9996,-34.5019 55.9996,-36.5006 C55.9996,-38.4787 57.5656,-40.2198 59.5849,-40.2198 C61.6351,-40.2198 63.1598,-38.4993 63.1598,-36.4903 L63.1598,-36.4903 Z " fill="#ffffff" fill-opacity="1.00" />				<path d="M68.9086,-44.0729 L68.9086,-42.0124 L67.5693,-42.0124 C67.0336,-42.0124 66.5906,-41.5694 66.5906,-41.0337 C66.5906,-40.4979 67.0336,-40.0549 67.5693,-40.0549 L68.8983,-40.0549 L68.888,-33.5953 L68.888,-33.5026 C68.888,-31.9057 69.8564,-30.7106 71.5872,-30.7106 C72.3496,-30.7106 73.0399,-30.9991 73.5653,-31.4009 C73.8126,-31.5863 73.9774,-31.916 73.9774,-32.2148 C73.9774,-32.7711 73.5138,-33.2347 72.9471,-33.2347 C72.7205,-33.2347 72.4732,-33.1317 72.3084,-33.0184 C72.1023,-32.8741 71.8448,-32.7814 71.5254,-32.7814 C71.0515,-32.7814 70.9485,-32.9978 70.9485,-33.6674 L70.9485,-33.688 L70.9588,-40.0652 L72.3496,-40.0652 C72.8854,-40.0652 73.3284,-40.5082 73.3284,-41.044 C73.3284,-41.5797 72.8854,-42.0227 72.3496,-42.0227 L70.9691,-42.0227 L70.9691,-44.0729 C70.9691,-44.6395 70.5055,-45.1031 69.9388,-45.1031 C69.3619,-45.1031 68.9086,-44.6292 68.9086,-44.0729 L68.9086,-44.0729 Z " fill="#ffffff" fill-opacity="1.00" />				<path d="M76.3367,-43.2899 C76.9033,-43.2899 77.2948,-43.7947 77.2948,-44.3305 L77.2845,-44.9486 C77.2742,-45.5049 76.8312,-45.9685 76.2542,-45.9685 C75.8215,-45.9685 75.2343,-45.608 75.2343,-45.0928 L75.2549,-44.3099 C75.2652,-43.7329 75.6979,-43.2899 76.3367,-43.2899 L76.3367,-43.2899 Z M75.224,-41.3427 L75.2446,-31.7099 C75.2446,-31.1639 75.6979,-30.7106 76.2749,-30.7106 C76.8415,-30.7106 77.3051,-31.1536 77.3051,-31.6996 L77.2845,-41.2397 L77.2845,-41.25 C77.2845,-41.8373 76.79,-42.2288 76.1925,-42.2288 C75.7804,-42.2288 75.224,-41.8579 75.224,-41.3428 L75.224,-41.3427 Z " fill="#ffffff" fill-opacity="1.00" />				<path d="M84.4447,-42.2288 C81.3437,-42.2288 78.799,-39.581 78.799,-36.4594 C78.799,-33.3068 81.354,-30.7518 84.4447,-30.7518 C87.5561,-30.7518 90.1008,-33.3686 90.1008,-36.4594 C90.1008,-39.5913 87.5973,-42.2288 84.4447,-42.2288 Z M80.8801,-36.4388 C80.8801,-38.4478 82.4048,-40.1477 84.4447,-40.1477 C86.464,-40.1477 88.0197,-38.4581 88.0197,-36.4594 C88.0197,-34.5019 86.4331,-32.8329 84.455,-32.8329 C82.5078,-32.8329 80.8801,-34.4401 80.8801,-36.4388 Z " fill="#ffffff" fill-opacity="1.00" />				<path d="M93.6448,-40.601 L93.4697,-41.2191 C93.3151,-41.7754 93.037,-42.2494 92.4703,-42.2494 C91.9037,-42.2494 91.5843,-41.7857 91.5843,-41.2191 L91.6049,-31.7512 C91.6049,-31.1742 92.0582,-30.7106 92.6352,-30.7106 C93.2018,-30.7106 93.6654,-31.1742 93.6654,-31.7409 L93.6551,-35.8515 C93.6447,-38.489 94.778,-40.158 96.8076,-40.158 C97.6524,-40.158 98.1985,-39.6016 98.4663,-38.9938 C98.7033,-38.4684 98.7548,-37.7678 98.7548,-36.9642 L98.7548,-31.7615 C98.7548,-31.1948 99.2184,-30.7312 99.785,-30.7312 C100.352,-30.7312 100.815,-31.1948 100.815,-31.7615 L100.815,-36.9642 C100.815,-37.8296 100.795,-38.8392 100.352,-39.8386 C99.785,-41.1058 98.5899,-42.2185 96.787,-42.2185 C95.4065,-42.2185 94.3865,-41.3221 93.6448,-40.601 L93.6448,-40.601 Z " fill="#ffffff" fill-opacity="1.00" />				<path d="M108.233,-42.2803 C105.029,-42.2803 102.587,-39.5295 102.587,-36.4697 C102.587,-33.3892 105.101,-30.7106 108.212,-30.7106 C109.593,-30.7106 111.128,-31.2979 111.849,-32.5238 L111.963,-31.6996 C111.963,-31.133 112.313,-30.6694 112.879,-30.6694 C113.446,-30.6694 113.91,-31.133 113.91,-31.6996 L113.93,-41.2397 L113.93,-41.2603 C113.93,-41.8269 113.467,-42.2906 112.9,-42.2906 C112.333,-42.2906 111.983,-41.8269 111.983,-41.2603 L111.87,-40.2713 C111.314,-41.2294 109.748,-42.2803 108.233,-42.2803 L108.233,-42.2803 Z M111.787,-36.4903 C111.787,-34.5019 110.201,-32.7711 108.223,-32.7711 C106.234,-32.7711 104.627,-34.5019 104.627,-36.5006 C104.627,-38.4787 106.193,-40.2198 108.212,-40.2198 C110.263,-40.2198 111.787,-38.4993 111.787,-36.4903 L111.787,-36.4903 Z " fill="#ffffff" fill-opacity="1.00" />				<path d="M116.918,-45.9789 C116.362,-45.9789 115.939,-45.474 115.939,-44.9486 L115.939,-31.7924 C115.939,-31.1845 116.434,-30.7621 117.031,-30.7621 C117.454,-30.7621 118,-31.133 118,-31.679 L118,-44.9486 C118.01,-45.4534 117.577,-45.9788 116.918,-45.9788 L116.918,-45.9789 Z " fill="#ffffff" fill-opacity="1.00" />				<path d="M-15.6334,-20.0002 L-21.2894,-6.83363 C-21.3409,-6.7203 -21.3821,-6.53486 -21.3821,-6.41123 C-21.3821,-5.84459 -20.9185,-5.38098 -20.3519,-5.38098 C-19.9707,-5.38098 -19.5483,-5.66945 -19.4041,-6.01973 L-17.6011,-10.2025 L-11.7287,-10.1201 L-9.96702,-6.03004 C-9.82278,-5.67975 -9.39008,-5.40159 -9.00889,-5.40159 C-8.44226,-5.40159 -7.97865,-5.8652 -7.97865,-6.43183 C-7.97865,-6.55546 -8.01984,-6.74091 -8.07137,-6.85423 L-13.7377,-20.0002 C-13.882,-20.3402 -14.3147,-20.6183 -14.6855,-20.6183 C-15.0667,-20.6183 -15.4891,-20.3402 -15.6334,-20.0002 L-15.6334,-20.0002 Z M-14.6855,-16.9815 L-12.6251,-12.2012 L-16.7151,-12.2527 L-14.6855,-16.9815 Z " fill="#ffffff" fill-opacity="1.00" />				<path d="M2.39593,-16.9506 C1.81899,-16.9506 1.61295,-16.4767 1.50993,-15.9101 L1.35538,-15.0859 C0.562099,-16.3222 -0.622686,-16.9197 -1.9311,-16.9197 C-4.94972,-16.9197 -7.19566,-14.2205 -7.19566,-11.2637 C-7.19566,-8.28627 -4.93942,-5.44279 -1.9311,-5.44279 C-0.736012,-5.44279 0.479674,-5.83429 1.29357,-7.10149 L1.29357,-6.09185 C1.29357,-4.13438 -0.406335,-2.47569 -2.40501,-2.47569 C-3.49707,-2.47569 -4.63035,-3.02171 -5.3103,-3.87682 C-5.48545,-4.10347 -5.85634,-4.27861 -6.1345,-4.27861 C-6.70114,-4.27861 -7.16475,-3.815 -7.16475,-3.24837 C-7.16475,-3.04232 -7.05142,-2.74355 -6.92779,-2.58901 C-5.83573,-1.21879 -4.16673,-0.415192 -2.41532,-0.415192 C0.675425,-0.415192 3.33346,-2.9805 3.35406,-6.06094 L3.42618,-15.8998 L3.42618,-15.9204 C3.42618,-16.487 2.96257,-16.9506 2.39593,-16.9506 L2.39593,-16.9506 Z M1.27296,-11.2534 C1.27296,-9.37833 -0.0972618,-7.50329 -1.9311,-7.50329 C-3.78554,-7.50329 -5.12486,-9.40924 -5.12486,-11.2637 C-5.12486,-13.1284 -3.76493,-14.8592 -1.90019,-14.8592 C-0.0663518,-14.8592 1.27296,-13.1181 1.27296,-11.2534 Z " fill="#ffffff" fill-opacity="1.00" />				<path d="M12.2966,-15.6113 C12.2966,-16.7137 11.2869,-16.9197 9.88581,-16.9197 C8.74224,-16.9197 7.63988,-15.8792 7.37202,-15.3023 L7.26899,-16.044 C7.09385,-16.6931 6.59933,-16.93 6.27995,-16.93 C5.74423,-16.93 5.41455,-16.487 5.41455,-15.8689 L5.41455,-6.38032 C5.41455,-5.76217 5.80604,-5.38099 6.44479,-5.38099 C7.08355,-5.38099 7.47504,-5.76217 7.47504,-6.37002 L7.47504,-11.6861 C7.47504,-13.592 8.07258,-15.1065 9.87551,-15.1065 C10.4731,-15.1065 11.1118,-14.6532 11.5033,-14.6944 C11.9978,-14.7562 12.2966,-15.055 12.2966,-15.6113 L12.2966,-15.6113 Z " fill="#ffffff" fill-opacity="1.00" />				<path d="M14.6456,-17.9706 C15.2122,-17.9706 15.6037,-18.4754 15.6037,-19.0111 L15.5934,-19.6293 C15.583,-20.1856 15.1401,-20.6492 14.5631,-20.6492 C14.1304,-20.6492 13.5432,-20.2886 13.5432,-19.7735 L13.5638,-18.9905 C13.5741,-18.4136 14.0068,-17.9706 14.6455,-17.9706 L14.6456,-17.9706 Z M13.5329,-16.0234 L13.5535,-6.39062 C13.5535,-5.84459 14.0068,-5.39128 14.5837,-5.39128 C15.1504,-5.39128 15.614,-5.83429 15.614,-6.38032 L15.5934,-15.9204 L15.5934,-15.9307 C15.5934,-16.518 15.0989,-16.9095 14.5013,-16.9095 C14.0892,-16.9095 13.5329,-16.5386 13.5329,-16.0234 L13.5329,-16.0234 Z " fill="#ffffff" fill-opacity="1.00" />				<path d="M17.2109,-11.1813 C17.2109,-8.08023 19.5495,-5.36038 22.6712,-5.36038 C24.7729,-5.36038 26.3801,-6.58637 27.1631,-8.02872 C27.2352,-8.16265 27.297,-8.3893 27.297,-8.53354 C27.297,-9.10017 26.8334,-9.56378 26.2667,-9.56378 C25.9268,-9.56378 25.5147,-9.31653 25.3498,-9.01775 C24.8862,-8.16265 23.9281,-7.42087 22.6712,-7.42087 C20.724,-7.42087 19.2714,-9.2135 19.2714,-11.1813 C19.2714,-13.1078 20.6828,-14.8592 22.5681,-14.8592 C23.8972,-14.8592 24.8965,-14.0041 25.288,-13.0151 C25.4322,-12.6442 25.8546,-12.3454 26.2461,-12.3454 C26.8128,-12.3454 27.2764,-12.8091 27.2764,-13.3757 C27.2764,-13.489 27.2455,-13.6642 27.2043,-13.7672 C26.5346,-15.4568 24.8244,-16.9197 22.5681,-16.9197 C19.5186,-16.9197 17.2109,-14.2205 17.2109,-11.1813 L17.2109,-11.1813 Z " fill="#ffffff" fill-opacity="1.00" />				<path d="M36.085,-7.01907 L36.2601,-6.40092 C36.4147,-5.84459 36.6928,-5.37068 37.2594,-5.37068 C37.8261,-5.37068 38.1455,-5.83429 38.1455,-6.40092 L38.1249,-15.8689 C38.1249,-16.4458 37.6716,-16.9094 37.0946,-16.9094 C36.528,-16.9094 36.0644,-16.4458 36.0644,-15.8792 L36.0747,-11.7685 C36.085,-9.13107 34.9517,-7.46208 32.9221,-7.46208 C32.0773,-7.46208 31.5313,-8.01841 31.2635,-8.62626 C31.0265,-9.15168 30.975,-9.85224 30.975,-10.6558 L30.975,-15.8586 C30.975,-16.4252 30.5114,-16.8888 29.9447,-16.8888 C29.3781,-16.8888 28.9145,-16.4252 28.9145,-15.8586 L28.9145,-10.6558 C28.9145,-9.79043 28.9351,-8.78079 29.3781,-7.78145 C29.9447,-6.51425 31.1398,-5.40158 32.9427,-5.40158 C34.3233,-5.40158 35.3432,-6.2979 36.085,-7.01907 L36.085,-7.01907 Z " fill="#ffffff" fill-opacity="1.00" />				<path d="M41.092,-20.6595 C40.5356,-20.6595 40.1132,-20.1547 40.1132,-19.6293 L40.1132,-6.47304 C40.1132,-5.8652 40.6078,-5.4428 41.2053,-5.4428 C41.6277,-5.4428 42.1737,-5.81369 42.1737,-6.35972 L42.1737,-19.6293 C42.1841,-20.1341 41.7513,-20.6595 41.092,-20.6595 L41.092,-20.6595 Z " fill="#ffffff" fill-opacity="1.00" />				<path d="M45.7487,-18.7536 L45.7487,-16.6931 L44.4094,-16.6931 C43.8736,-16.6931 43.4306,-16.2501 43.4306,-15.7143 C43.4306,-15.1786 43.8736,-14.7356 44.4094,-14.7356 L45.7384,-14.7356 L45.7281,-8.27597 L45.7281,-8.18325 C45.7281,-6.58637 46.6965,-5.39128 48.4273,-5.39128 C49.1897,-5.39128 49.8799,-5.67975 50.4054,-6.08155 C50.6526,-6.26699 50.8175,-6.59667 50.8175,-6.89544 C50.8175,-7.45177 50.3539,-7.91539 49.7872,-7.91539 C49.5606,-7.91539 49.3133,-7.81236 49.1485,-7.69903 C48.9424,-7.5548 48.6849,-7.46208 48.3655,-7.46208 C47.8916,-7.46208 47.7885,-7.67843 47.7885,-8.34809 L47.7885,-8.36868 L47.7989,-14.7459 L49.1897,-14.7459 C49.7254,-14.7459 50.1684,-15.1889 50.1684,-15.7246 C50.1684,-16.2604 49.7254,-16.7034 49.1897,-16.7034 L47.8092,-16.7034 L47.8092,-18.7536 C47.8092,-19.3202 47.3456,-19.7838 46.7789,-19.7838 C46.202,-19.7838 45.7487,-19.3099 45.7487,-18.7536 L45.7487,-18.7536 Z " fill="#ffffff" fill-opacity="1.00" />				<path d="M59.2449,-7.01907 L59.42,-6.40092 C59.5746,-5.84459 59.8527,-5.37068 60.4194,-5.37068 C60.986,-5.37068 61.3054,-5.83429 61.3054,-6.40092 L61.2848,-15.8689 C61.2848,-16.4458 60.8315,-16.9094 60.2545,-16.9094 C59.6879,-16.9094 59.2243,-16.4458 59.2243,-15.8792 L59.2346,-11.7685 C59.2449,-9.13107 58.1117,-7.46208 56.0821,-7.46208 C55.2373,-7.46208 54.6912,-8.01841 54.4234,-8.62626 C54.1864,-9.15168 54.1349,-9.85224 54.1349,-10.6558 L54.1349,-15.8586 C54.1349,-16.4252 53.6713,-16.8888 53.1047,-16.8888 C52.538,-16.8888 52.0744,-16.4252 52.0744,-15.8586 L52.0744,-10.6558 C52.0744,-9.79043 52.095,-8.78079 52.538,-7.78145 C53.1047,-6.51425 54.2997,-5.40158 56.1027,-5.40158 C57.4832,-5.40158 58.5032,-6.2979 59.2449,-7.01907 L59.2449,-7.01907 Z " fill="#ffffff" fill-opacity="1.00" />				<path d="M70.1552,-15.6113 C70.1552,-16.7137 69.1456,-16.9197 67.7444,-16.9197 C66.6009,-16.9197 65.4985,-15.8792 65.2306,-15.3023 L65.1276,-16.044 C64.9525,-16.6931 64.458,-16.93 64.1386,-16.93 C63.6028,-16.93 63.2732,-16.487 63.2732,-15.8689 L63.2732,-6.38032 C63.2732,-5.76217 63.6647,-5.38099 64.3034,-5.38099 C64.9422,-5.38099 65.3337,-5.76217 65.3337,-6.37002 L65.3337,-11.6861 C65.3337,-13.592 65.9312,-15.1065 67.7341,-15.1065 C68.3317,-15.1065 68.9704,-14.6532 69.3619,-14.6944 C69.8564,-14.7562 70.1552,-15.055 70.1552,-15.6113 L70.1552,-15.6113 Z " fill="#ffffff" fill-opacity="1.00" />				<path d="M76.3367,-16.9609 C73.1326,-16.9609 70.6909,-14.2102 70.6909,-11.1504 C70.6909,-8.06993 73.2047,-5.39128 76.3161,-5.39128 C77.6966,-5.39128 79.2317,-5.97853 79.9528,-7.20452 L80.0662,-6.38032 C80.0662,-5.81369 80.4164,-5.35007 80.9831,-5.35007 C81.5497,-5.35007 82.0133,-5.81369 82.0133,-6.38032 L82.0339,-15.9204 L82.0339,-15.941 C82.0339,-16.5076 81.5703,-16.9712 81.0037,-16.9712 C80.437,-16.9712 80.0868,-16.5076 80.0868,-15.941 L79.9734,-14.952 C79.4171,-15.9101 77.8511,-16.9609 76.3367,-16.9609 L76.3367,-16.9609 Z M79.891,-11.171 C79.891,-9.18259 78.3044,-7.45178 76.3264,-7.45178 C74.338,-7.45178 72.7308,-9.18259 72.7308,-11.1813 C72.7308,-13.1593 74.2968,-14.9005 76.3161,-14.9005 C78.3663,-14.9005 79.891,-13.1799 79.891,-11.171 L79.891,-11.171 Z " fill="#ffffff" fill-opacity="1.00" />				<path d="M85.0217,-20.6595 C84.4653,-20.6595 84.0429,-20.1547 84.0429,-19.6293 L84.0429,-6.47304 C84.0429,-5.8652 84.5374,-5.4428 85.135,-5.4428 C85.5574,-5.4428 86.1034,-5.81369 86.1034,-6.35972 L86.1034,-19.6293 C86.1137,-20.1341 85.681,-20.6595 85.0217,-20.6595 L85.0217,-20.6595 Z " fill="#ffffff" fill-opacity="1.00" />				<path d="M-14.8504,4.72161 C-17.5702,4.72161 -20.6919,6.27728 -20.6919,9.13106 C-20.6919,10.7588 -19.641,11.7891 -18.549,12.3351 C-16.6327,13.3036 -14.1395,13.0872 -12.1821,13.9217 C-11.6051,14.169 -11.0179,14.6429 -11.0179,15.364 C-11.0179,17.0743 -13.1299,17.8469 -14.871,17.8469 C-16.7357,17.8469 -18.2914,16.9918 -18.889,15.601 C-19.0332,15.2507 -19.4556,14.9726 -19.8368,14.9726 C-20.4034,14.9726 -20.867,15.4362 -20.867,16.0028 C-20.867,16.1264 -20.8258,16.3016 -20.7743,16.4149 C-19.8574,18.5475 -17.5599,19.9074 -14.871,19.9074 C-12.2439,19.9074 -8.94708,18.393 -8.94708,15.364 C-8.94708,13.6229 -10.1525,12.5515 -11.3682,12.026 C-13.2947,11.2019 -15.8394,11.3873 -17.6217,10.491 C-18.1266,10.2334 -18.6211,9.75951 -18.6211,9.13106 C-18.6211,7.56509 -16.4061,6.7821 -14.8504,6.7821 C-13.2535,6.7821 -11.9657,7.53418 -11.4403,8.71896 C-11.296,9.05894 -10.8633,9.33711 -10.4924,9.33711 C-9.92581,9.33711 -9.4622,8.8735 -9.4622,8.30686 C-9.4622,8.18324 -9.50339,7.99779 -9.55492,7.88446 C-10.3791,6.01972 -12.4808,4.72161 -14.8504,4.72161 L-14.8504,4.72161 Z " fill="#ffffff" fill-opacity="1.00" />				<path d="M-5.35152,6.56575 L-5.35152,8.62624 L-6.69084,8.62624 C-7.22657,8.62624 -7.66957,9.06925 -7.66957,9.60497 C-7.66957,10.1407 -7.22657,10.5837 -6.69084,10.5837 L-5.36182,10.5837 L-5.37215,17.0433 L-5.37215,17.1361 C-5.37215,18.733 -4.40372,19.928 -2.67291,19.928 C-1.91052,19.928 -1.22026,19.6396 -0.694831,19.2378 C-0.447573,19.0523 -0.282732,18.7227 -0.282732,18.4239 C-0.282732,17.8675 -0.746346,17.4039 -1.31298,17.4039 C-1.53963,17.4039 -1.78689,17.507 -1.95173,17.6203 C-2.15778,17.7645 -2.41534,17.8572 -2.73472,17.8572 C-3.20864,17.8572 -3.31166,17.6409 -3.31166,16.9712 L-3.31166,16.9506 L-3.30133,10.5734 L-1.9105,10.5734 C-1.37477,10.5734 -0.931764,10.1304 -0.931764,9.59468 C-0.931764,9.05895 -1.37477,8.61594 -1.9105,8.61594 L-3.29103,8.61594 L-3.29103,6.56576 C-3.29103,5.99912 -3.75464,5.53551 -4.32127,5.53551 C-4.89821,5.53551 -5.35152,6.00942 -5.35152,6.56576 L-5.35152,6.56575 Z " fill="#ffffff" fill-opacity="1.00" />				<path d="M6.40359,8.35838 C3.19952,8.35838 0.757839,11.1091 0.757839,14.169 C0.757839,17.2494 3.27164,19.928 6.38298,19.928 C7.76351,19.928 9.29858,19.3408 10.0198,18.1148 L10.1331,18.939 C10.1331,19.5056 10.4834,19.9693 11.05,19.9693 C11.6166,19.9693 12.0802,19.5056 12.0802,18.939 L12.1008,9.39893 L12.1008,9.37833 C12.1008,8.8117 11.6372,8.34808 11.0706,8.34808 C10.504,8.34808 10.1537,8.8117 10.1537,9.37833 L10.0403,10.3674 C9.48401,9.40924 7.91804,8.35838 6.40357,8.35838 L6.40359,8.35838 Z M9.95793,14.1484 C9.95793,16.1367 8.37136,17.8676 6.39328,17.8676 C4.40491,17.8676 2.79773,16.1367 2.79773,14.1381 C2.79773,12.16 4.3637,10.4189 6.38298,10.4189 C8.43317,10.4189 9.95793,12.1394 9.95793,14.1484 L9.95793,14.1484 Z " fill="#ffffff" fill-opacity="1.00" />				<path d="M15.7067,6.56575 L15.7067,8.62624 L14.3674,8.62624 C13.8317,8.62624 13.3887,9.06925 13.3887,9.60497 C13.3887,10.1407 13.8317,10.5837 14.3674,10.5837 L15.6964,10.5837 L15.6861,17.0433 L15.6861,17.1361 C15.6861,18.733 16.6545,19.928 18.3853,19.928 C19.1477,19.928 19.838,19.6396 20.3634,19.2378 C20.6107,19.0523 20.7755,18.7227 20.7755,18.4239 C20.7755,17.8675 20.3119,17.4039 19.7453,17.4039 C19.5186,17.4039 19.2713,17.507 19.1065,17.6203 C18.9004,17.7645 18.6429,17.8572 18.3235,17.8572 C17.8496,17.8572 17.7466,17.6409 17.7466,16.9712 L17.7466,16.9506 L17.7569,10.5734 L19.1477,10.5734 C19.6835,10.5734 20.1265,10.1304 20.1265,9.59468 C20.1265,9.05895 19.6835,8.61594 19.1477,8.61594 L17.7672,8.61594 L17.7672,6.56576 C17.7672,5.99912 17.3036,5.53551 16.737,5.53551 C16.16,5.53551 15.7067,6.00942 15.7067,6.56576 L15.7067,6.56575 Z " fill="#ffffff" fill-opacity="1.00" />				<path d="M23.1348,7.34874 C23.7014,7.34874 24.0929,6.84391 24.0929,6.30819 L24.0826,5.69004 C24.0723,5.13371 23.6293,4.67009 23.0523,4.67009 C22.6196,4.67009 22.0324,5.03068 22.0324,5.5458 L22.053,6.32879 C22.0633,6.90573 22.496,7.34874 23.1347,7.34874 L23.1348,7.34874 Z M22.0221,9.2959 L22.0427,18.9287 C22.0427,19.4747 22.496,19.928 23.073,19.928 C23.6396,19.928 24.1032,19.485 24.1032,18.939 L24.0826,9.39892 L24.0826,9.38859 C24.0826,8.80135 23.5881,8.40986 22.9906,8.40986 C22.5784,8.40986 22.0221,8.78075 22.0221,9.29587 L22.0221,9.2959 Z " fill="#ffffff" fill-opacity="1.00" />				<path d="M31.284,8.38929 C28.9763,8.38929 26.277,9.44013 26.277,11.923 C26.277,14.6841 29.3987,14.9829 31.8095,15.2404 C32.7573,15.3434 34.179,15.3641 34.179,16.2707 C34.179,17.4451 32.5409,17.816 31.3149,17.816 C29.7593,17.816 28.6054,17.373 28.0697,16.3325 C27.9151,16.0131 27.4927,15.7555 27.1424,15.7555 C26.5758,15.7555 26.1122,16.2192 26.1122,16.7858 C26.1122,16.93 26.174,17.1464 26.2358,17.27 C27.1115,18.9699 29.0896,19.8765 31.3252,19.8765 C33.7669,19.8765 36.2395,18.7742 36.2395,16.281 C36.2395,13.9526 34.0451,13.4066 32.0258,13.1902 C30.975,13.0769 28.3375,12.9842 28.3375,11.923 C28.3375,10.8413 30.1817,10.4498 31.2737,10.4498 C32.5203,10.4498 33.4578,10.8825 33.9112,11.7273 C34.0657,12.0364 34.4778,12.2939 34.8281,12.2939 C35.3947,12.2939 35.8583,11.8303 35.8583,11.2637 C35.8583,11.1194 35.8068,10.8928 35.7347,10.7692 C34.962,9.3165 33.2415,8.38929 31.284,8.38929 L31.284,8.38929 Z " fill="#ffffff" fill-opacity="1.00" />				<path d="M39.8557,6.56575 L39.8557,8.62624 L38.5163,8.62624 C37.9806,8.62624 37.5376,9.06925 37.5376,9.60497 C37.5376,10.1407 37.9806,10.5837 38.5163,10.5837 L39.8454,10.5837 L39.835,17.0433 L39.835,17.1361 C39.835,18.733 40.8035,19.928 42.5343,19.928 C43.2967,19.928 43.9869,19.6396 44.5124,19.2378 C44.7596,19.0523 44.9245,18.7227 44.9245,18.4239 C44.9245,17.8675 44.4608,17.4039 43.8942,17.4039 C43.6676,17.4039 43.4203,17.507 43.2555,17.6203 C43.0494,17.7645 42.7918,17.8572 42.4725,17.8572 C41.9986,17.8572 41.8955,17.6409 41.8955,16.9712 L41.8955,16.9506 L41.9059,10.5734 L43.2967,10.5734 C43.8324,10.5734 44.2754,10.1304 44.2754,9.59468 C44.2754,9.05895 43.8324,8.61594 43.2967,8.61594 L41.9162,8.61594 L41.9162,6.56576 C41.9162,5.99912 41.4525,5.53551 40.8859,5.53551 C40.309,5.53551 39.8557,6.00942 39.8557,6.56576 L39.8557,6.56575 Z " fill="#ffffff" fill-opacity="1.00" />				<path d="M47.2837,7.34874 C47.8504,7.34874 48.2419,6.84391 48.2419,6.30819 L48.2315,5.69004 C48.2212,5.13371 47.7782,4.67009 47.2013,4.67009 C46.7686,4.67009 46.1814,5.03068 46.1814,5.5458 L46.202,6.32879 C46.2123,6.90573 46.645,7.34874 47.2837,7.34874 L47.2837,7.34874 Z M46.1711,9.2959 L46.1917,18.9287 C46.1917,19.4747 46.645,19.928 47.2219,19.928 C47.7886,19.928 48.2522,19.485 48.2522,18.939 L48.2316,9.39892 L48.2316,9.38859 C48.2316,8.80135 47.7371,8.40986 47.1395,8.40986 C46.7274,8.40986 46.1711,8.78075 46.1711,9.29587 L46.1711,9.2959 Z " fill="#ffffff" fill-opacity="1.00" />				<path d="M49.8491,14.1381 C49.8491,17.2391 52.1877,19.9589 55.3094,19.9589 C57.4111,19.9589 59.0182,18.733 59.8012,17.2906 C59.8733,17.1567 59.9352,16.93 59.9352,16.7858 C59.9352,16.2192 59.4716,15.7555 58.9049,15.7555 C58.5649,15.7555 58.1528,16.0028 57.988,16.3016 C57.5244,17.1567 56.5663,17.8985 55.3094,17.8985 C53.3622,17.8985 51.9096,16.1058 51.9096,14.1381 C51.9096,12.2115 53.321,10.4601 55.2063,10.4601 C56.5354,10.4601 57.5347,11.3152 57.9262,12.3042 C58.0704,12.6751 58.4928,12.9739 58.8843,12.9739 C59.451,12.9739 59.9146,12.5103 59.9146,11.9436 C59.9146,11.8303 59.8836,11.6552 59.8424,11.5521 C59.1728,9.86254 57.4626,8.39959 55.2063,8.39959 C52.1568,8.39959 49.8491,11.0988 49.8491,14.1381 L49.8491,14.1381 Z " fill="#ffffff" fill-opacity="1.00" />				<path d="M66.7657,8.38929 C64.458,8.38929 61.7587,9.44013 61.7587,11.923 C61.7587,14.6841 64.8804,14.9829 67.2911,15.2404 C68.239,15.3434 69.6607,15.3641 69.6607,16.2707 C69.6607,17.4451 68.0226,17.816 66.7966,17.816 C65.2409,17.816 64.0871,17.373 63.5513,16.3325 C63.3968,16.0131 62.9744,15.7555 62.6241,15.7555 C62.0575,15.7555 61.5939,16.2192 61.5939,16.7858 C61.5939,16.93 61.6557,17.1464 61.7175,17.27 C62.5932,18.9699 64.5713,19.8765 66.8069,19.8765 C69.2486,19.8765 71.7212,18.7742 71.7212,16.281 C71.7212,13.9526 69.5268,13.4066 67.5075,13.1902 C66.4566,13.0769 63.8192,12.9842 63.8192,11.923 C63.8192,10.8413 65.6633,10.4498 66.7554,10.4498 C68.002,10.4498 68.9395,10.8825 69.3928,11.7273 C69.5474,12.0364 69.9595,12.2939 70.3097,12.2939 C70.8764,12.2939 71.34,11.8303 71.34,11.2637 C71.34,11.1194 71.2885,10.8928 71.2164,10.7692 C70.4437,9.3165 68.7232,8.38929 66.7657,8.38929 L66.7657,8.38929 Z " fill="#ffffff" fill-opacity="1.00" />				<path d="M-19.8574,45.0928 L-11.0282,45.0722 L-11.0179,45.0722 C-10.4513,45.0722 -9.98765,44.6086 -9.98765,44.042 C-9.98765,43.4754 -10.4513,43.0117 -11.0179,43.0117 L-11.0282,43.0117 L-18.8271,43.0323 L-18.8581,30.9888 C-18.8581,30.4427 -19.3217,29.9894 -19.8883,29.9894 C-20.4549,29.9894 -20.9185,30.4427 -20.9185,30.9888 L-20.9185,30.9991 L-20.8876,44.0729 C-20.8876,44.6292 -20.424,45.0929 -19.8574,45.0929 L-19.8574,45.0928 Z " fill="#ffffff" fill-opacity="1.00" />				<path d="M-3.81645,33.6777 C-7.02051,33.6777 -9.46219,36.4285 -9.46219,39.4883 C-9.46219,42.5687 -6.9484,45.2474 -3.83705,45.2474 C-2.45652,45.2474 -0.921457,44.6601 -0.200283,43.4341 L-0.086957,44.2583 C-0.086957,44.825 0.263328,45.2886 0.829962,45.2886 C1.3966,45.2886 1.86021,44.825 1.86021,44.2583 L1.8808,34.7183 L1.8808,34.6977 C1.8808,34.131 1.41719,33.6674 0.850558,33.6674 C0.283918,33.6674 -0.0663613,34.131 -0.0663613,34.6977 L-0.179693,35.6867 C-0.736022,34.7286 -2.30199,33.6777 -3.81646,33.6777 L-3.81645,33.6777 Z M-0.2621,39.4677 C-0.2621,41.4561 -1.84868,43.1869 -3.82675,43.1869 C-5.81512,43.1869 -7.4223,41.4561 -7.4223,39.4574 C-7.4223,37.4793 -5.85633,35.7382 -3.83705,35.7382 C-1.78686,35.7382 -0.2621,37.4587 -0.2621,39.4677 L-0.2621,39.4677 Z " fill="#ffffff" fill-opacity="1.00" />				<path d="M14.8722,39.4574 C14.8722,37.9017 14.2953,36.3667 13.162,35.2437 C12.1627,34.265 10.8027,33.7086 9.4016,33.7086 C7.96956,33.7086 6.8878,34.3577 6.00179,35.3879 L6.00179,31.0506 C6.00179,30.484 5.53818,30.0203 4.97155,30.0203 C4.40491,30.0203 3.9413,30.484 3.9413,31.0506 L3.9413,44.2068 C3.9413,44.7735 4.40491,45.2371 4.97155,45.2371 C5.53818,45.2371 5.79574,44.7632 5.87816,44.2068 L6.00179,43.3723 C6.78478,44.4953 8.19622,45.1856 9.47372,45.1856 C12.5748,45.1856 14.8722,42.4966 14.8722,39.4574 L14.8722,39.4574 Z M9.49433,43.1251 C8.59801,43.1251 7.66049,42.7027 7.04234,42.0227 C6.42419,41.3427 6.07391,40.364 6.07391,39.4059 C6.07391,37.4278 7.47504,35.7382 9.44281,35.7382 C11.39,35.7382 12.822,37.5411 12.822,39.4574 C12.822,41.3839 11.4003,43.1251 9.49433,43.1251 L9.49433,43.1251 Z " fill="#ffffff" fill-opacity="1.00" />				<path d="M21.5585,33.7292 C18.4575,33.7292 15.9128,36.3769 15.9128,39.4986 C15.9128,42.6511 18.4678,45.2061 21.5585,45.2061 C24.6699,45.2061 27.2146,42.5893 27.2146,39.4986 C27.2146,36.3666 24.7111,33.7292 21.5585,33.7292 Z M17.9939,39.5192 C17.9939,37.5102 19.5186,35.8103 21.5585,35.8103 C23.5778,35.8103 25.1335,37.4999 25.1335,39.4986 C25.1335,41.4561 23.5469,43.1251 21.5688,43.1251 C19.6216,43.1251 17.9939,41.5179 17.9939,39.5192 Z " fill="#ffffff" fill-opacity="1.00" />				<path d="M35.5802,35.0273 C35.5802,33.925 34.5705,33.7189 33.1694,33.7189 C32.0258,33.7189 30.9234,34.7595 30.6556,35.3364 L30.5526,34.5946 C30.3774,33.9456 29.8829,33.7086 29.5635,33.7086 C29.0278,33.7086 28.6981,34.1516 28.6981,34.7698 L28.6981,44.2583 C28.6981,44.8765 29.0896,45.2577 29.7284,45.2577 C30.3671,45.2577 30.7586,44.8765 30.7586,44.2686 L30.7586,38.9526 C30.7586,37.0466 31.3561,35.5321 33.1591,35.5321 C33.7566,35.5321 34.3954,35.9854 34.7869,35.9442 C35.2814,35.8824 35.5802,35.5837 35.5802,35.0273 L35.5802,35.0273 Z " fill="#ffffff" fill-opacity="1.00" />				<path d="M41.7616,33.6777 C38.5576,33.6777 36.1159,36.4285 36.1159,39.4883 C36.1159,42.5687 38.6297,45.2474 41.741,45.2474 C43.1216,45.2474 44.6566,44.6601 45.3778,43.4341 L45.4911,44.2583 C45.4911,44.825 45.8414,45.2886 46.408,45.2886 C46.9747,45.2886 47.4383,44.825 47.4383,44.2583 L47.4589,34.7183 L47.4589,34.6977 C47.4589,34.131 46.9953,33.6674 46.4286,33.6674 C45.862,33.6674 45.5117,34.131 45.5117,34.6977 L45.3984,35.6867 C44.8421,34.7286 43.2761,33.6777 41.7616,33.6777 L41.7616,33.6777 Z M45.316,39.4677 C45.316,41.4561 43.7294,43.1869 41.7513,43.1869 C39.763,43.1869 38.1558,41.4561 38.1558,39.4574 C38.1558,37.4793 39.7217,35.7382 41.741,35.7382 C43.7912,35.7382 45.316,37.4587 45.316,39.4677 L45.316,39.4677 Z " fill="#ffffff" fill-opacity="1.00" />				<path d="M51.0648,31.8851 L51.0648,33.9456 L49.7254,33.9456 C49.1897,33.9456 48.7467,34.3886 48.7467,34.9243 C48.7467,35.46 49.1897,35.903 49.7254,35.903 L51.0544,35.903 L51.0441,42.3627 L51.0441,42.4554 C51.0441,44.0523 52.0126,45.2474 53.7434,45.2474 C54.5057,45.2474 55.196,44.9589 55.7214,44.5571 C55.9687,44.3717 56.1335,44.042 56.1335,43.7432 C56.1335,43.1869 55.6699,42.7233 55.1033,42.7233 C54.8766,42.7233 54.6294,42.8263 54.4645,42.9396 C54.2585,43.0838 54.0009,43.1766 53.6816,43.1766 C53.2076,43.1766 53.1046,42.9602 53.1046,42.2906 L53.1046,42.27 L53.1149,35.8927 L54.5058,35.8927 C55.0415,35.8927 55.4845,35.4497 55.4845,34.914 C55.4845,34.3783 55.0415,33.9353 54.5058,33.9353 L53.1252,33.9353 L53.1252,31.8851 C53.1252,31.3184 52.6616,30.8548 52.095,30.8548 C51.5181,30.8548 51.0648,31.3287 51.0648,31.8851 L51.0648,31.8851 Z " fill="#ffffff" fill-opacity="1.00" />				<path d="M62.5623,33.7292 C59.4612,33.7292 56.9165,36.3769 56.9165,39.4986 C56.9165,42.6511 59.4715,45.2061 62.5623,45.2061 C65.6736,45.2061 68.2183,42.5893 68.2183,39.4986 C68.2183,36.3666 65.7148,33.7292 62.5623,33.7292 Z M58.9976,39.5192 C58.9976,37.5102 60.5224,35.8103 62.5623,35.8103 C64.5816,35.8103 66.1372,37.4999 66.1372,39.4986 C66.1372,41.4561 64.5507,43.1251 62.5726,43.1251 C60.6254,43.1251 58.9976,41.5179 58.9976,39.5192 Z " fill="#ffffff" fill-opacity="1.00" />				<path d="M76.5839,35.0273 C76.5839,33.925 75.5743,33.7189 74.1732,33.7189 C73.0296,33.7189 71.9272,34.7595 71.6594,35.3364 L71.5563,34.5946 C71.3812,33.9456 70.8867,33.7086 70.5673,33.7086 C70.0316,33.7086 69.7019,34.1516 69.7019,34.7698 L69.7019,44.2583 C69.7019,44.8765 70.0934,45.2577 70.7321,45.2577 C71.3709,45.2577 71.7624,44.8765 71.7624,44.2686 L71.7624,38.9526 C71.7624,37.0466 72.3599,35.5321 74.1629,35.5321 C74.7604,35.5321 75.3992,35.9854 75.7906,35.9442 C76.2852,35.8824 76.5839,35.5837 76.5839,35.0273 L76.5839,35.0273 Z " fill="#ffffff" fill-opacity="1.00" />				<path d="M78.1293,33.6674 C77.5627,33.6674 77.0991,34.131 77.0991,34.6976 C77.0991,34.8419 77.13,34.9964 77.1918,35.1407 L81.5188,44.8456 L81.0243,46.1025 C80.5504,47.2666 79.9837,48.2454 78.7784,48.3278 C78.2426,48.3484 77.8099,48.812 77.8099,49.358 C77.8099,49.9247 78.2632,50.4089 78.8402,50.4089 C79.9013,50.4089 80.9213,49.8629 81.5909,49.1623 C82.2915,48.4514 82.6418,47.6066 82.9302,46.8855 L83.5072,45.4431 C83.569,45.3401 83.6514,45.1959 83.6823,45.0207 L87.4736,35.1304 C87.5252,35.017 87.5561,34.8625 87.5561,34.7286 C87.5561,34.1619 87.0924,33.6983 86.5258,33.6983 C86.1034,33.6983 85.7119,33.9765 85.5677,34.3474 L82.5697,42.239 L79.0668,34.2752 C78.9123,33.9353 78.5311,33.6674 78.1293,33.6674 L78.1293,33.6674 Z " fill="#ffffff" fill-opacity="1.00" />			</g>		</g>	</svg>