<?xml version="1.0" encoding="utf-8" ?>	<!-- Generator: Assembly 2.4 - http://assemblyapp.co -->	<svg version="1.1" xmlns="http://www.w3.org/2000/svg" xmlns:xlink="http://www.w3.org/1999/xlink" width="500.00" height="402.00" viewBox="0 0 500.0 402.0">		<g id="document" transform="scale(1.6666906527574754 1.6666906527574754) translate(150.0 120.56721700497364)">			<g>				<g>					<path d="M-2.05767,-57.1864 C-27.9742,-83.8916 -73.3093,-80.4672 -73.3093,-80.4672 C-73.3093,-80.4672 -76.6346,-33.7436 -50.7192,-7.0384 C-24.8038,19.668 7.09839,30.0872 20.5349,16.2412 C33.9702,2.39387 23.8577,-30.4812 -2.05767,-57.1864 L-2.05767,-57.1864 Z " fill="#63c37d" fill-opacity="1.00" />					<path d="M47.3394,-29.5796 C47.3394,-67.3483 12.9328,-97.964 12.9328,-97.964 C12.9328,-97.964 -21.4738,-67.3483 -21.4738,-29.5796 C-21.4738,8.18903 -6.0693,38.8047 12.9328,38.8047 C31.9349,38.8047 47.3394,8.18903 47.3394,-29.5796 Z " fill="#c2fb3b" fill-opacity="1.00" />					<path d="M49.7971,-29.5796 C49.7971,-68.0594 15.9784,-98.5996 14.5384,-99.8808 C13.6156,-100.701 12.25,-100.701 11.3284,-99.8808 C1.80035,-90.9148 -6.3237,-80.4833 -12.7557,-68.956 C-38.9519,-85.3657 -72.0457,-83.0989 -73.4845,-82.9876 C-74.6989,-82.8948 -75.665,-81.8993 -75.755,-80.6477 C-75.8954,-78.6925 -78.8534,-32.4488 -52.4568,-5.24767 C-41.2931,6.67655 -27.6838,15.8776 -12.6261,21.6838 C-6.3885,33.2791 1.71635,40.0945 10.4752,41.168 L10.4752,54.0012 C10.4752,55.3999 11.5756,56.5339 12.9328,56.5339 C14.29,56.5339 15.3904,55.3999 15.3904,54.0012 L15.3904,41.1705 C34.8726,38.8047 49.7971,8.59714 49.7971,-29.5796 L49.7971,-29.5796 Z M-48.9816,-8.8279 C-70.5961,-31.0995 -71.1709,-68.5207 -70.9429,-78.0284 C-63.1885,-78.2362 -36.3095,-77.8738 -15.1126,-64.5039 C-20.695,-53.7459 -23.7178,-41.7759 -23.9314,-29.5796 C-24.1534,-14.2953 -21.3958,0.88016 -15.8206,15.0453 C-28.2382,9.31566 -39.4895,1.2153 -48.9816,-8.8279 Z M15.3904,36.0468 L15.3904,-0.767118 L31.9865,-20.3119 C32.8818,-21.3655 32.7786,-22.9658 31.7561,-23.8884 C30.7337,-24.8097 29.1809,-24.7034 28.2857,-23.6497 L15.3904,-8.45318 L15.3904,-44.7762 C15.3904,-46.1749 14.29,-47.3089 12.9328,-47.3089 C11.5756,-47.3089 10.4752,-46.1749 10.4752,-44.7762 L10.4752,-8.46183 L-2.42008,-23.6583 C-3.31408,-24.7108 -4.86809,-24.8171 -5.8893,-23.8958 C-6.91171,-22.9745 -7.01491,-21.3729 -6.1209,-20.3193 L10.4752,-0.767114 L10.4752,36.0567 C3.34836,34.8992 -3.40528,28.7578 -8.76212,18.4363 C-15.379,5.81087 -19.0162,-11.237 -19.0162,-29.5796 C-18.7534,-41.7339 -15.5602,-53.6297 -9.72332,-64.1947 C-3.70648,-75.4289 3.93397,-85.6551 12.9328,-94.5247 C19.6181,-87.9764 44.8818,-61.1352 44.8818,-29.5796 C44.8818,4.41217 31.6109,33.3595 15.3904,36.0468 L15.3904,36.0468 Z " fill="#231f20" fill-opacity="1.00" />				</g>			</g>			<path d="M-106.263,67.9993 C-106.274,70.9514 -105.588,73.6884 -104.206,76.2101 C-102.824,78.7318 -100.946,80.7615 -98.5731,82.2991 C-96.1999,83.8368 -93.5372,84.6109 -90.5851,84.6215 C-88.4188,84.6292 -86.4369,84.2328 -84.6394,83.4321 C-82.8418,82.6315 -81.2876,81.5698 -79.9767,80.2471 C-78.6658,78.9244 -77.6572,77.4891 -76.9508,75.9412 C-76.801,75.6444 -76.7255,75.3155 -76.7242,74.9544 C-76.7219,74.296 -76.9535,73.7324 -77.419,73.2635 C-77.8846,72.7945 -78.4466,72.5589 -79.105,72.5565 C-79.5298,72.555 -79.955,72.6916 -80.3808,72.9661 C-80.8065,73.2407 -81.1051,73.5795 -81.2764,73.9824 C-82.0042,75.5727 -83.1826,76.9543 -84.8115,78.1272 C-86.4405,79.3001 -88.3593,79.8826 -90.5681,79.8747 C-92.6282,79.8673 -94.4899,79.3138 -96.1532,78.2141 C-97.8165,77.1143 -99.1281,75.6654 -100.088,73.8673 C-101.048,72.0692 -101.524,70.1295 -101.517,68.0481 C-101.509,65.9668 -101.014,64.0306 -100.031,62.2394 C-99.0472,60.4483 -97.7252,59.0088 -96.0647,57.9209 C-94.4042,56.8331 -92.5439,56.2928 -90.4838,56.3002 C-88.275,56.3081 -86.3657,56.9096 -84.7558,58.1047 C-83.146,59.2999 -81.9829,60.6951 -81.2665,62.2906 C-81.098,62.6947 -80.8019,63.0303 -80.378,63.2973 C-79.9542,63.5643 -79.5299,63.6986 -79.1052,63.7001 C-78.4468,63.7024 -77.8831,63.4761 -77.4143,63.0212 C-76.9454,62.5662 -76.7098,62.0096 -76.7074,61.3512 C-76.7062,61.0114 -76.79,60.6712 -76.9586,60.3308 C-77.6539,58.7567 -78.6469,57.3089 -79.9377,55.9875 C-81.2286,54.6661 -82.7645,53.5987 -84.5457,52.7852 C-86.3268,51.9718 -88.3005,51.5612 -90.4668,51.5535 C-93.3977,51.543 -96.0552,52.2981 -98.4394,53.8187 C-100.824,55.3394 -102.721,57.3449 -104.132,59.8354 C-105.542,62.3259 -106.253,65.0472 -106.263,67.9993 Z M-54.6905,51.554 C-56.9205,51.546 -58.9822,51.9953 -60.8757,52.9018 C-62.7692,53.8082 -64.4249,55.0395 -65.8428,56.5954 C-67.2608,58.1514 -68.3609,59.9315 -69.1433,61.9357 C-69.9257,63.94 -70.3207,66.0253 -70.3285,68.1916 C-70.3363,70.3791 -69.9562,72.4672 -69.1881,74.4557 C-68.42,76.4443 -67.3378,78.2162 -65.9417,79.7716 C-64.5455,81.3271 -62.9145,82.5594 -61.0488,83.4687 C-59.183,84.378 -57.1564,84.8366 -54.9688,84.8444 C-52.845,84.852 -50.8199,84.2433 -48.8934,83.0184 C-46.9669,81.7935 -45.3001,80.4189 -43.8929,78.8948 L-43.9059,82.5265 C-43.9081,83.1424 -43.6923,83.6689 -43.2585,84.1058 C-42.8246,84.5427 -42.2998,84.7623 -41.6838,84.7645 C-41.0679,84.7667 -40.5415,84.5509 -40.1046,84.1171 C-39.6676,83.6832 -39.4481,83.1584 -39.4458,82.5425 L-39.3428,53.7434 C-39.3406,53.1275 -39.5564,52.601 -39.9903,52.1641 C-40.4241,51.7271 -40.949,51.5076 -41.5649,51.5054 C-42.1808,51.5032 -42.6594,51.7191 -43.0008,52.1533 C-43.3422,52.5875 -43.514,53.1125 -43.5162,53.7284 L-43.8172,57.7414 C-45.1712,56.2711 -46.7538,54.8744 -48.565,53.5511 C-50.3762,52.2278 -52.418,51.5621 -54.6905,51.554 Z M-43.695,68.0957 C-43.7024,70.1558 -44.219,72.1026 -45.245,73.936 C-46.2711,75.7695 -47.6356,77.2513 -49.3388,78.3815 C-51.0419,79.5117 -52.9129,80.0731 -54.9518,80.0658 C-56.9694,80.0586 -58.778,79.4946 -60.3775,78.3739 C-61.977,77.2531 -63.2407,75.7885 -64.1688,73.9799 C-65.0968,72.1713 -65.5571,70.2475 -65.5499,68.2087 C-65.5425,66.1485 -65.063,64.2122 -64.1114,62.3997 C-63.1598,60.5873 -61.8643,59.1211 -60.2249,58.0013 C-58.5856,56.8816 -56.7358,56.3253 -54.6757,56.3327 C-52.6368,56.34 -50.7858,56.8988 -49.1225,58.0092 C-47.4593,59.1195 -46.137,60.5632 -45.1558,62.3401 C-44.1745,64.117 -43.6876,66.0356 -43.695,68.0957 Z M-16.5884,51.531 C-18.245,51.5251 -19.9341,51.7102 -21.6558,52.0863 C-23.3775,52.4624 -24.9566,53.0568 -26.3931,53.8693 C-27.8296,54.6819 -28.9908,55.7184 -29.8767,56.9789 C-30.7626,58.2395 -31.2088,59.7617 -31.2151,61.5457 C-31.2227,63.6696 -30.6233,65.3177 -29.4169,66.4901 C-28.2105,67.6626 -26.7003,68.5122 -24.8863,69.039 C-23.0723,69.5659 -21.263,69.9387 -19.4585,70.1575 C-18.4396,70.2886 -17.2241,70.3992 -15.812,70.4892 C-14.4,70.5792 -13.0042,70.7541 -11.6246,71.0139 C-10.245,71.2737 -9.09964,71.6972 -8.18848,72.2845 C-7.27733,72.8719 -6.82372,73.7177 -6.82767,74.8221 C-6.83269,76.2238 -7.34109,77.337 -8.35287,78.1617 C-9.36465,78.9864 -10.6198,79.5713 -12.1184,79.9164 C-13.6169,80.2614 -15.0989,80.4314 -16.5644,80.4261 C-19.113,80.417 -21.3309,80.0002 -23.2182,79.1758 C-25.1055,78.3514 -26.5026,77.0667 -27.4096,75.3219 C-27.5782,74.9603 -27.8639,74.6566 -28.2665,74.4109 C-28.6692,74.1652 -29.0723,74.0417 -29.4758,74.0402 C-30.1129,74.038 -30.6553,74.259 -31.1029,74.7034 C-31.5505,75.1478 -31.7755,75.6886 -31.7777,76.3258 C-31.7793,76.7505 -31.6956,77.1119 -31.5267,77.4098 C-30.2613,79.8993 -28.2823,81.7913 -25.5896,83.0858 C-22.897,84.3804 -19.8941,85.0336 -16.5809,85.0454 C-14.2234,85.0539 -11.9497,84.7063 -9.75957,84.0026 C-7.56949,83.299 -5.77086,82.1904 -4.3637,80.6768 C-2.95655,79.1633 -2.24871,77.2172 -2.24021,74.8385 C-2.23231,72.6297 -2.84218,70.9391 -4.06982,69.7666 C-5.29746,68.5941 -6.84485,67.7496 -8.712,67.2332 C-10.5791,66.7168 -12.4787,66.3596 -14.4107,66.1615 C-15.3873,66.0518 -16.5603,65.9414 -17.9298,65.8304 C-19.2993,65.7193 -20.6473,65.5286 -21.9737,65.2584 C-23.3002,64.9881 -24.4084,64.5647 -25.2983,63.9881 C-26.1883,63.4115 -26.6314,62.6028 -26.6277,61.5622 C-26.6229,60.2241 -26.0616,59.1589 -24.9437,58.3665 C-23.8258,57.574 -22.4911,57.0053 -20.9394,56.6605 C-19.3878,56.3156 -17.9536,56.1455 -16.6368,56.1502 C-14.5555,56.1576 -12.7356,56.5411 -11.1773,57.3007 C-9.619,58.0602 -8.46013,59.1635 -7.70072,60.6104 C-7.53203,60.9508 -7.24636,61.2439 -6.8437,61.4896 C-6.44105,61.7352 -6.04858,61.8588 -5.66629,61.8601 C-5.02914,61.8624 -4.48146,61.6414 -4.02324,61.197 C-3.56502,60.7526 -3.33477,60.2119 -3.33249,59.5747 C-3.33105,59.1712 -3.42529,58.7992 -3.61522,58.4587 C-4.73325,56.3308 -6.46348,54.6468 -8.80591,53.4066 C-11.1483,52.1664 -13.7425,51.5412 -16.5884,51.531 Z M10.3924,52.2965 L5.48636,52.279 C4.87045,52.2768 4.34403,52.4926 3.90709,52.9264 C3.47014,53.3602 3.25057,53.8851 3.24837,54.501 C3.24617,55.1169 3.46198,55.6433 3.89581,56.0803 C4.32963,56.5172 4.8545,56.7368 5.47041,56.739 L10.3765,56.7565 L10.2738,76.5399 C10.2647,79.0885 10.8891,81.1668 12.1471,82.7748 C13.405,84.3828 15.287,85.1913 17.7932,85.2003 C18.6002,85.2031 19.5191,85.1055 20.5499,84.9075 C21.5807,84.7094 22.4793,84.3569 23.2457,83.8499 C24.0121,83.3429 24.3969,82.6434 24.4001,81.7514 C24.4024,81.093 24.1708,80.5293 23.7052,80.0604 C23.2397,79.5915 22.6777,79.3559 22.0193,79.3535 C21.2335,79.3507 20.5373,79.5234 19.9308,79.8717 C19.3242,80.22 18.5537,80.3924 17.6192,80.3891 C16.5786,80.3854 15.8895,80.0378 15.5522,79.3463 C15.2149,78.6549 15.0482,77.7463 15.0522,76.6207 L15.1552,56.7418 L21.3673,56.7959 C21.9832,56.7981 22.5096,56.5822 22.9465,56.1484 C23.3835,55.7146 23.6031,55.1897 23.6053,54.5738 C23.6075,53.9579 23.3917,53.4315 22.9578,52.9945 C22.524,52.5576 21.9991,52.338 21.3832,52.3358 L15.1711,52.2817 L15.2285,45.1458 C15.2309,44.4874 14.9993,43.9238 14.5337,43.4548 C14.0681,42.9859 13.5061,42.7503 12.8478,42.7479 C12.1894,42.7456 11.6257,42.9772 11.1568,43.4428 C10.6879,43.9083 10.4523,44.4703 10.4499,45.1287 L10.3924,52.2965 Z M32.1938,40.4278 C31.5991,40.4257 31.0778,40.684 30.63,41.2027 C30.1821,41.7215 29.9571,42.2888 29.9548,42.9047 L29.8116,82.9495 C29.8091,83.6503 30.0566,84.2247 30.5541,84.6725 C31.0516,85.1202 31.6614,85.3454 32.3835,85.348 C32.8508,85.3497 33.3347,85.1496 33.8352,84.7479 C34.3357,84.3462 34.587,83.8692 34.589,83.317 L34.7337,42.8581 C34.7357,42.2846 34.5094,41.7369 34.0546,41.215 C33.5999,40.693 32.9796,40.4306 32.1938,40.4278 Z M57.2884,51.9545 C55.0583,51.9465 52.9966,52.3958 51.1031,53.3023 C49.2096,54.2088 47.5539,55.44 46.136,56.9959 C44.7181,58.5519 43.6179,60.332 42.8356,62.3363 C42.0532,64.3405 41.6581,66.4258 41.6504,68.5921 C41.6425,70.7796 42.0227,72.8677 42.7908,74.8562 C43.5589,76.8448 44.641,78.6168 46.0372,80.1722 C47.4334,81.7276 49.0643,82.9599 50.9301,83.8692 C52.7958,84.7786 54.8225,85.2371 57.01,85.245 C59.1338,85.2525 61.159,84.6439 63.0854,83.4189 C65.0119,82.194 66.6787,80.8194 68.0859,79.2953 L68.073,82.927 C68.0707,83.543 68.2866,84.0694 68.7204,84.5063 C69.1542,84.9433 69.6791,85.1628 70.295,85.165 C70.9109,85.1672 71.4373,84.9514 71.8743,84.5176 C72.3112,84.0838 72.5308,83.5589 72.533,82.943 L72.636,54.1439 C72.6382,53.528 72.4224,53.0015 71.9886,52.5646 C71.5547,52.1277 71.0299,51.9081 70.414,51.9059 C69.798,51.9037 69.3194,52.1197 68.978,52.5538 C68.6367,52.988 68.4649,53.513 68.4627,54.129 L68.1616,58.142 C66.8076,56.6717 65.225,55.2749 63.4138,53.9516 C61.6027,52.6283 59.5609,51.9626 57.2884,51.9545 Z M68.2839,68.4962 C68.2765,70.5563 67.7598,72.5031 66.7338,74.3366 C65.7078,76.17 64.3432,77.6518 62.6401,78.782 C60.937,79.9122 59.066,80.4736 57.0271,80.4663 C55.0094,80.4591 53.2009,79.8951 51.6014,78.7744 C50.0019,77.6536 48.7381,76.189 47.8101,74.3804 C46.8821,72.5718 46.4217,70.648 46.429,68.6092 C46.4363,66.5491 46.9158,64.6128 47.8674,62.8003 C48.819,60.9878 50.1145,59.5216 51.7539,58.4019 C53.3933,57.2821 55.243,56.7259 57.3031,56.7332 C59.342,56.7405 61.1931,57.2994 62.8563,58.4097 C64.5196,59.5201 65.8418,60.9637 66.8231,62.7406 C67.8043,64.5176 68.2912,66.4361 68.2839,68.4962 Z M95.4619,85.3825 C98.3503,85.3928 100.912,84.6374 103.148,83.1162 C105.383,81.595 107.143,79.589 108.426,77.098 C109.709,74.6071 110.356,71.928 110.366,69.0609 C110.374,66.8946 110.01,64.8013 109.273,62.781 C108.537,60.7607 107.492,58.957 106.139,57.3699 C104.785,55.7827 103.192,54.5187 101.358,53.5776 C99.5241,52.6365 97.5028,52.1621 95.294,52.1542 C93.2127,52.1467 91.31,52.6603 89.586,53.6948 C87.8619,54.7293 86.3497,55.9239 85.0493,57.2785 L85.1008,42.8789 C85.1032,42.2206 84.8716,41.6569 84.406,41.188 C83.9404,40.7191 83.3785,40.4834 82.7201,40.4811 C82.0617,40.4787 81.498,40.7103 81.0291,41.1759 C80.5602,41.6415 80.3246,42.2035 80.3222,42.8618 L80.1788,82.9703 C80.1764,83.6287 80.408,84.1924 80.8736,84.6613 C81.3392,85.1302 81.9011,85.3658 82.5595,85.3682 C83.2179,85.3705 83.755,85.1388 84.1708,84.6731 C84.5867,84.2073 84.7957,83.6452 84.7981,82.9869 L84.9683,79.9291 C86.1745,81.1653 87.6675,82.3812 89.4472,83.5769 C91.227,84.7727 93.2319,85.3745 95.4619,85.3825 Z M95.3834,80.6035 C93.2384,80.5959 91.3874,80.0052 89.8306,78.8315 C88.2737,77.6578 87.0845,76.1456 86.2628,74.2949 C85.4411,72.4442 85.0338,70.5207 85.041,68.5243 C85.0481,66.5279 85.4637,64.6498 86.2877,62.8899 C87.1116,61.13 88.2955,59.6954 89.8393,58.5859 C91.383,57.4764 93.2168,56.9254 95.3407,56.933 C97.4008,56.9404 99.1933,57.5362 100.718,58.7204 C102.243,59.9045 103.427,61.4273 104.27,63.2887 C105.113,65.1501 105.531,67.1002 105.523,69.1391 C105.516,71.1568 105.09,73.0402 104.245,74.7893 C103.4,76.5385 102.216,77.9466 100.693,79.0137 C99.1711,80.0808 97.4011,80.6107 95.3834,80.6035 Z " fill="#231f20" fill-opacity="1.00" />		</g>	</svg>