<?xml version="1.0" encoding="UTF-8" standalone="no"?>
<svg
   inkscape:version="1.0 (6e3e5246a0, 2020-05-07)"
   sodipodi:docname="cast_logos.svg"
   id="svg80"
   version="1.1"
   width="133.97092pt"
   viewBox="-43 1 133.97092 110.20096"
   height="109.97942pt"
   xmlns:inkscape="http://www.inkscape.org/namespaces/inkscape"
   xmlns:sodipodi="http://sodipodi.sourceforge.net/DTD/sodipodi-0.dtd"
   xmlns="http://www.w3.org/2000/svg"
   xmlns:svg="http://www.w3.org/2000/svg"
   xmlns:rdf="http://www.w3.org/1999/02/22-rdf-syntax-ns#"
   xmlns:cc="http://creativecommons.org/ns#"
   xmlns:dc="http://purl.org/dc/elements/1.1/">
  <sodipodi:namedview
     inkscape:current-layer="svg80"
     inkscape:window-maximized="0"
     inkscape:window-y="111"
     inkscape:window-x="125"
     inkscape:cy="329.58074"
     inkscape:cx="427.58181"
     inkscape:zoom="1.0074671"
     showgrid="false"
     id="namedview58"
     inkscape:window-height="865"
     inkscape:window-width="1518"
     inkscape:pageshadow="2"
     inkscape:pageopacity="0"
     guidetolerance="10"
     gridtolerance="10"
     objecttolerance="10"
     borderopacity="1"
     bordercolor="#666666"
     pagecolor="#ffffff"
     inkscape:document-rotation="0"
     inkscape:showpageshadow="2"
     inkscape:pagecheckerboard="0"
     inkscape:deskcolor="#d1d1d1"
     inkscape:document-units="pt" />
  <metadata
     id="metadata86">
    <rdf:RDF>
      <cc:Work
         rdf:about="">
        <dc:format>image/svg+xml</dc:format>
        <dc:type
           rdf:resource="http://purl.org/dc/dcmitype/StillImage" />
        <dc:title />
      </cc:Work>
    </rdf:RDF>
  </metadata>
  <defs
     id="defs84" />
  <g
     transform="translate(-347.21697,-343.74485)"
     id="g1062">
    <g
       style="font-size:36.1626px;line-height:0;font-family:Montserrat;-inkscape-font-specification:Montserrat;fill:#FFFFFF;fill-opacity:1;stroke-width:0.90407"
       id="text99-3-4"
       aria-label="Computational Agricultural  Statistics  Laboratory"
       transform="matrix(0.13160864,0,0,0.13160864,272.72957,383.19761)">
      <text
         xml:space="preserve"
         style="font-style:normal;font-variant:normal;font-weight:normal;font-stretch:normal;font-size:307.2px;line-height:1.25;font-family:Georgia;-inkscape-font-specification:Georgia;stroke-width:3.25468"
         x="220.46201"
         y="541.26331"
         id="text885-5-7"><tspan
           sodipodi:role="line"
           x="220.46201"
           y="541.26331"
           style="font-style:normal;font-variant:normal;font-weight:normal;font-stretch:normal;font-size:307.2px;font-family:Manjari;-inkscape-font-specification:Manjari;fill:#FFFFFF;fill-opacity:1;stroke-width:3.25468"
           id="tspan887-6-4">castlab</tspan></text>
    </g>
    <g
       id="g91-3-4"
       transform="matrix(0.18059432,0,0,0.18617822,337.34791,344.74503)">
      <path
         style="fill:#FFFFFF;fill-opacity:0"
         id="path76-7-3"
         fill="#FFFFFF"
         d="m 401.73047,223.99609 c 0,119.29688 -50.14453,216 -112,216 -61.85547,0 -112,-96.70312 -112,-216 0,-119.29687 112,-215.999996 112,-215.999996 0,0 112,96.703126 112,215.999996 z m 0,0" />
      <path
         id="path78-5-7"
         fill="#FFFFFF"
         d="m 409.73047,223.99609 c 0,-121.54296 -110.08594,-218.007809 -114.77344,-222.054684 -3.0039,-2.589844 -7.44922,-2.589844 -10.44922,0 C 253.49219,30.261719 227.04688,63.210938 206.10938,99.621094 120.83594,47.789062 13.109375,54.949219 8.425781,55.300781 4.472656,55.59375 1.328125,58.738281 1.035156,62.691406 0.578125,68.867188 -9.050781,214.93359 76.875,300.85156 c 36.33984,37.66406 80.64063,66.72656 129.65625,85.06641 20.30469,36.625 46.6875,58.15234 75.19922,61.54297 v 40.53515 c 0,4.41797 3.58203,8 8,8 4.41797,0 8,-3.58203 8,-8 v -40.52734 c 63.41797,-7.47266 112,-102.88672 112,-223.47266 z M 88.1875,289.54297 C 17.828125,219.19531 15.957031,100.99609 16.699219,70.964844 41.941406,70.308594 129.4375,71.453125 198.4375,113.68359 c -18.17188,33.98047 -28.01172,71.78907 -28.70703,110.3125 -0.72266,48.27735 8.2539,96.21094 26.40234,140.95313 C 155.71094,346.85156 119.08594,321.26562 88.1875,289.54297 Z M 297.73047,431.28516 V 315.00391 l 54.02344,-61.73438 c 2.91406,-3.32812 2.57812,-8.38281 -0.75,-11.29687 -3.32813,-2.91016 -8.38282,-2.57422 -11.29688,0.7539 l -41.97656,48 V 175.99609 c 0,-4.41797 -3.58203,-8 -8,-8 -4.41797,0 -8,3.58203 -8,8 v 114.70313 l -41.97656,-48 c -2.91016,-3.32422 -7.96875,-3.66016 -11.29297,-0.75 -3.32813,2.91015 -3.66407,7.96875 -0.75391,11.29687 l 54.02344,61.75782 v 116.3125 c -23.19922,-3.65625 -45.1836,-23.05469 -62.6211,-55.65625 -21.53906,-39.87891 -33.3789,-93.72657 -33.3789,-151.66407 0.85547,-38.39062 11.25,-75.96484 30.25,-109.33593 19.58594,-35.484379 44.45703,-67.78516 73.75,-95.800785 21.76172,20.683594 104,105.464845 104,205.136715 0,107.36719 -43.19922,198.80078 -96,207.28907 z m 0,0" />
    </g>
  </g>
</svg>
