<?xml version="1.0" encoding="UTF-8" standalone="no"?>
<!DOCTYPE svg PUBLIC "-//W3C//DTD SVG 1.1//EN"
 "http://www.w3.org/Graphics/SVG/1.1/DTD/svg11.dtd">
<!-- Generated by graphviz version 2.43.0 (0)
 -->
<!-- Title: hasse Pages: 1 -->
<svg width="252pt" height="411pt"
 viewBox="0.00 0.00 252.00 411.00" xmlns="http://www.w3.org/2000/svg" xmlns:xlink="http://www.w3.org/1999/xlink">
<g id="graph0" class="graph" transform="scale(1 1) rotate(0) translate(4 407)">
<title>hasse</title>
<text text-anchor="start" x="8" y="-389.6" font-family="Times,serif" font-weight="bold" font-size="13.00">Sem bloco: 2⁴ saturado (N=16)</text>
<!-- n1 -->
<g id="node1" class="node">
<title>n1</title>
<path fill="white" stroke="#444444" d="M142.5,-381C142.5,-381 101.5,-381 101.5,-381 95.5,-381 89.5,-375 89.5,-369 89.5,-369 89.5,-349 89.5,-349 89.5,-343 95.5,-337 101.5,-337 101.5,-337 142.5,-337 142.5,-337 148.5,-337 154.5,-343 154.5,-349 154.5,-349 154.5,-369 154.5,-369 154.5,-375 148.5,-381 142.5,-381"/>
<text text-anchor="start" x="102" y="-364.4" font-family="Helvetica,sans-Serif" font-weight="bold" font-size="12.00">Média</text>
<text text-anchor="start" x="113" y="-348" font-family="Helvetica,sans-Serif" font-size="10.00">1 gl</text>
</g>
<!-- n2 -->
<g id="node2" class="node">
<title>n2</title>
<path fill="white" stroke="#444444" d="M180.5,-305C180.5,-305 63.5,-305 63.5,-305 57.5,-305 51.5,-299 51.5,-293 51.5,-293 51.5,-262 51.5,-262 51.5,-256 57.5,-250 63.5,-250 63.5,-250 180.5,-250 180.5,-250 186.5,-250 192.5,-256 192.5,-262 192.5,-262 192.5,-293 192.5,-293 192.5,-299 186.5,-305 180.5,-305"/>
<text text-anchor="start" x="64" y="-287.9" font-family="Helvetica,sans-Serif" font-weight="bold" font-size="12.00">Efeitos principais</text>
<text text-anchor="start" x="91.5" y="-275.9" font-family="Helvetica,sans-Serif" font-weight="bold" font-size="12.00">(A,B,C,D)</text>
<text text-anchor="start" x="113" y="-260.5" font-family="Helvetica,sans-Serif" font-size="10.00">4 gl</text>
</g>
<!-- n1&#45;&gt;n2 -->
<g id="edge1" class="edge">
<title>n1&#45;&gt;n2</title>
<path fill="none" stroke="#777777" stroke-width="1.1" d="M122,-336.7C122,-327.04 122,-315.51 122,-305.27"/>
</g>
<!-- n3 -->
<g id="node3" class="node">
<title>n3</title>
<path fill="white" stroke="#444444" d="M182.5,-218C182.5,-218 61.5,-218 61.5,-218 55.5,-218 49.5,-212 49.5,-206 49.5,-206 49.5,-175 49.5,-175 49.5,-169 55.5,-163 61.5,-163 61.5,-163 182.5,-163 182.5,-163 188.5,-163 194.5,-169 194.5,-175 194.5,-175 194.5,-206 194.5,-206 194.5,-212 188.5,-218 182.5,-218"/>
<text text-anchor="start" x="62" y="-200.9" font-family="Helvetica,sans-Serif" font-weight="bold" font-size="12.00">Interações duplas</text>
<text text-anchor="start" x="86" y="-188.9" font-family="Helvetica,sans-Serif" font-weight="bold" font-size="12.00">(6 termos)</text>
<text text-anchor="start" x="113" y="-173.5" font-family="Helvetica,sans-Serif" font-size="10.00">6 gl</text>
</g>
<!-- n2&#45;&gt;n3 -->
<g id="edge2" class="edge">
<title>n2&#45;&gt;n3</title>
<path fill="none" stroke="#777777" stroke-width="1.1" d="M122,-249.61C122,-239.59 122,-228.22 122,-218.22"/>
</g>
<!-- n4 -->
<g id="node4" class="node">
<title>n4</title>
<path fill="white" stroke="#444444" d="M182.5,-131C182.5,-131 61.5,-131 61.5,-131 55.5,-131 49.5,-125 49.5,-119 49.5,-119 49.5,-88 49.5,-88 49.5,-82 55.5,-76 61.5,-76 61.5,-76 182.5,-76 182.5,-76 188.5,-76 194.5,-82 194.5,-88 194.5,-88 194.5,-119 194.5,-119 194.5,-125 188.5,-131 182.5,-131"/>
<text text-anchor="start" x="62" y="-113.9" font-family="Helvetica,sans-Serif" font-weight="bold" font-size="12.00">Interações triplas</text>
<text text-anchor="start" x="86" y="-101.9" font-family="Helvetica,sans-Serif" font-weight="bold" font-size="12.00">(4 termos)</text>
<text text-anchor="start" x="113" y="-86.5" font-family="Helvetica,sans-Serif" font-size="10.00">4 gl</text>
</g>
<!-- n3&#45;&gt;n4 -->
<g id="edge3" class="edge">
<title>n3&#45;&gt;n4</title>
<path fill="none" stroke="#777777" stroke-width="1.1" d="M122,-162.61C122,-152.59 122,-141.22 122,-131.22"/>
</g>
<!-- n5 -->
<g id="node5" class="node">
<title>n5</title>
<path fill="white" stroke="#444444" d="M140.5,-44C140.5,-44 103.5,-44 103.5,-44 97.5,-44 91.5,-38 91.5,-32 91.5,-32 91.5,-12 91.5,-12 91.5,-6 97.5,0 103.5,0 103.5,0 140.5,0 140.5,0 146.5,0 152.5,-6 152.5,-12 152.5,-12 152.5,-32 152.5,-32 152.5,-38 146.5,-44 140.5,-44"/>
<text text-anchor="start" x="104" y="-27.4" font-family="Helvetica,sans-Serif" font-weight="bold" font-size="12.00">ABCD</text>
<text text-anchor="start" x="113" y="-11" font-family="Helvetica,sans-Serif" font-size="10.00">1 gl</text>
</g>
<!-- n4&#45;&gt;n5 -->
<g id="edge4" class="edge">
<title>n4&#45;&gt;n5</title>
<path fill="none" stroke="#777777" stroke-width="1.1" d="M122,-75.58C122,-65.31 122,-53.76 122,-44.11"/>
</g>
</g>
</svg>
