<?xml version="1.0" encoding="utf-8" ?>	<!-- Generator: Assembly 2.4 - http://assemblyapp.co -->	<svg version="1.1" xmlns="http://www.w3.org/2000/svg" xmlns:xlink="http://www.w3.org/1999/xlink" width="800.00" height="450.00" viewBox="0 0 800.0 450.0">		<g id="document" transform="scale(2.6666666666666665 2.6666666666666665) translate(150.0 84.37499937135726)">			<path d="M-104.565,19.1419 L-104.565,-1.49926 L-1.58026,-1.49926 L-1.58026,-13.2532 " fill="none" stroke-width="3.05" stroke="#000000" stroke-linecap="square" stroke-linejoin="miter" />			<path d="M-1.48904,20.6676 L-1.48904,-7.86902 " fill="none" stroke-width="2.62" stroke="#000000" stroke-linecap="square" stroke-linejoin="miter" />			<path d="M101.495,19.1419 L101.495,-1.49926 L-1.48904,-1.49926 L-1.48904,-13.2532 " fill="none" stroke-width="3.05" stroke="#000000" stroke-linecap="square" stroke-linejoin="miter" />			<defs>				<filter id="3AHYjz0a" x="-8.01%" y="-23.74%" width="124.02%" height="171.22%" filterUnits="objectBoundingBox">					<feOffset dx="0.00" dy="0.00" in="SourceAlpha" result="shadowOffsetOuter1" />					<feGaussianBlur stdDeviation="2.87" in="shadowOffsetOuter1" result="shadowBlurOuter1" />					<feFlood flood-color="#000000" flood-opacity="0.34" />					<feComposite in2="shadowBlurOuter1" operator="in" />					<feMerge>						<feMergeNode />						<feMergeNode in="SourceGraphic" />					</feMerge>				</filter>			</defs>			<path d="M30.831,42.0375 C32.7681,42.0375 34.3464,40.4591 34.3464,38.5221 L34.3464,21.3756 C34.3464,19.4385 32.7681,17.8602 30.831,17.8602 L-33.8091,17.8602 C-35.7462,17.8602 -37.3245,19.4385 -37.3245,21.3756 L-37.3245,38.5221 C-37.3245,40.4591 -35.7462,42.0375 -33.8091,42.0375 L30.831,42.0375 Z " fill="#f4dd4c" fill-opacity="1.00" filter="url(#3AHYjz0a)" />			<defs>				<filter id="wDohhaC0" x="-8.01%" y="-23.74%" width="124.02%" height="171.22%" filterUnits="objectBoundingBox">					<feOffset dx="0.00" dy="0.00" in="SourceAlpha" result="shadowOffsetOuter1" />					<feGaussianBlur stdDeviation="2.87" in="shadowOffsetOuter1" result="shadowBlurOuter1" />					<feFlood flood-color="#000000" flood-opacity="0.34" />					<feComposite in2="shadowBlurOuter1" operator="in" />					<feMerge>						<feMergeNode />						<feMergeNode in="SourceGraphic" />					</feMerge>				</filter>			</defs>			<path d="M-72.3358,42.0375 C-70.3988,42.0375 -68.8204,40.4591 -68.8204,38.5221 L-68.8204,21.3756 C-68.8204,19.4385 -70.3988,17.8602 -72.3358,17.8602 L-136.976,17.8602 C-138.913,17.8602 -140.491,19.4385 -140.491,21.3756 L-140.491,38.5221 C-140.491,40.4591 -138.913,42.0375 -136.976,42.0375 L-72.3358,42.0375 Z " fill="#f4dd4c" fill-opacity="1.00" filter="url(#wDohhaC0)" />			<defs>				<filter id="bXULfDYV" x="-8.01%" y="-23.74%" width="124.02%" height="171.22%" filterUnits="objectBoundingBox">					<feOffset dx="0.00" dy="0.00" in="SourceAlpha" result="shadowOffsetOuter1" />					<feGaussianBlur stdDeviation="2.87" in="shadowOffsetOuter1" result="shadowBlurOuter1" />					<feFlood flood-color="#000000" flood-opacity="0.34" />					<feComposite in2="shadowBlurOuter1" operator="in" />					<feMerge>						<feMergeNode />						<feMergeNode in="SourceGraphic" />					</feMerge>				</filter>			</defs>			<path d="M136.976,42.1086 C138.913,42.1086 140.491,40.5303 140.491,38.5932 L140.491,21.4467 C140.491,19.5097 138.913,17.9313 136.976,17.9313 L72.3358,17.9313 C70.3988,17.9313 68.8204,19.5097 68.8204,21.4467 L68.8204,38.5932 C68.8204,40.5303 70.3988,42.1086 72.3358,42.1086 L136.976,42.1086 Z " fill="#f4dd4c" fill-opacity="1.00" filter="url(#bXULfDYV)" />			<defs>				<filter id="O7sjPBhq" x="-8.01%" y="-23.74%" width="124.02%" height="171.22%" filterUnits="objectBoundingBox">					<feOffset dx="0.00" dy="0.00" in="SourceAlpha" result="shadowOffsetOuter1" />					<feGaussianBlur stdDeviation="3.22" in="shadowOffsetOuter1" result="shadowBlurOuter1" />					<feFlood flood-color="#000000" flood-opacity="0.23" />					<feComposite in2="shadowBlurOuter1" operator="in" />					<feMerge>						<feMergeNode />						<feMergeNode in="SourceGraphic" />					</feMerge>				</filter>			</defs>			<path d="M36.2159,-13.8065 C38.3865,-13.8065 40.1551,-15.575 40.1551,-17.7456 L40.1551,-36.9589 C40.1551,-39.1295 38.3865,-40.8981 36.2159,-40.8981 L-36.2159,-40.8981 C-38.3865,-40.8981 -40.1551,-39.1295 -40.1551,-36.9589 L-40.1551,-17.7456 C-40.1551,-15.575 -38.3865,-13.8065 -36.2159,-13.8065 L36.2159,-13.8065 Z " fill="#f58231" fill-opacity="1.00" filter="url(#O7sjPBhq)" />			<defs>				<filter id="r94xvcrv" x="-2.88%" y="-9.47%" width="108.64%" height="128.42%" filterUnits="objectBoundingBox">					<feOffset dx="0.00" dy="0.00" in="SourceAlpha" result="shadowOffsetOuter1" />					<feGaussianBlur stdDeviation="0.81" in="shadowOffsetOuter1" result="shadowBlurOuter1" />					<feFlood flood-color="#000000" flood-opacity="0.23" />					<feComposite in2="shadowBlurOuter1" operator="in" />					<feMerge>						<feMergeNode />						<feMergeNode in="SourceGraphic" />					</feMerge>				</filter>			</defs>			<path d="M-24.831,-29.5947 C-24.831,-29.4967 -24.7962,-29.4129 -24.7266,-29.3433 C-24.6571,-29.2738 -24.5733,-29.239 -24.4752,-29.239 C-24.3772,-29.239 -24.2934,-29.2738 -24.2238,-29.3433 C-24.1543,-29.4129 -24.1195,-29.4967 -24.1195,-29.5947 L-24.1195,-34.2526 L-21.8095,-30.477 C-21.74,-30.3631 -21.6388,-30.3062 -21.506,-30.3062 C-21.3731,-30.3062 -21.272,-30.3631 -21.2024,-30.477 L-18.8829,-34.2573 L-18.8829,-29.5757 C-18.8829,-29.4777 -18.8481,-29.3939 -18.7786,-29.3243 C-18.709,-29.2548 -18.6252,-29.22 -18.5272,-29.22 C-18.4292,-29.22 -18.3454,-29.2548 -18.2758,-29.3243 C-18.2062,-29.3939 -18.1714,-29.4777 -18.1714,-29.5757 L-18.1714,-35.519 C-18.1714,-35.6171 -18.2062,-35.7009 -18.2758,-35.7704 C-18.3454,-35.84 -18.4292,-35.8748 -18.5272,-35.8748 C-18.66,-35.8748 -18.7612,-35.8179 -18.8308,-35.704 L-21.506,-31.345 L-24.1527,-35.6756 C-24.1843,-35.7293 -24.2302,-35.7768 -24.2903,-35.8179 C-24.3503,-35.859 -24.412,-35.8795 -24.4752,-35.8795 C-24.5796,-35.8795 -24.665,-35.8424 -24.7314,-35.7681 C-24.7978,-35.6938 -24.831,-35.6123 -24.831,-35.5238 L-24.831,-29.5947 Z M-14.6709,-29.2153 C-15.1294,-29.2153 -15.5445,-29.3291 -15.916,-29.5568 C-16.2876,-29.7844 -16.5824,-30.0888 -16.8006,-30.4698 C-17.0188,-30.8509 -17.1279,-31.2691 -17.1279,-31.7244 C-17.1279,-32.1577 -17.0244,-32.5585 -16.8172,-32.9269 C-16.6101,-33.2953 -16.3295,-33.5917 -15.9753,-33.8162 C-15.6211,-34.0407 -15.2259,-34.153 -14.7895,-34.153 C-14.3879,-34.153 -14.0187,-34.0534 -13.6819,-33.8542 C-13.3452,-33.6549 -13.0748,-33.387 -12.8708,-33.0502 C-12.6669,-32.7134 -12.5649,-32.3395 -12.5649,-31.9284 C-12.5649,-31.7829 -12.591,-31.658 -12.6432,-31.5537 C-12.6953,-31.4493 -12.791,-31.3972 -12.9301,-31.3972 L-16.3832,-31.3972 C-16.3326,-31.1347 -16.2291,-30.892 -16.0725,-30.6691 C-15.916,-30.4461 -15.7184,-30.2667 -15.4796,-30.1307 C-15.2409,-29.9947 -14.9745,-29.9267 -14.6804,-29.9267 C-14.4306,-29.9267 -14.1855,-29.9821 -13.9452,-30.0928 C-13.7049,-30.2034 -13.5072,-30.3552 -13.3523,-30.5481 C-13.2827,-30.6398 -13.1894,-30.6857 -13.0724,-30.6857 C-12.9744,-30.6857 -12.8906,-30.6509 -12.821,-30.5813 C-12.7515,-30.5117 -12.7167,-30.4279 -12.7167,-30.3299 C-12.7167,-30.2445 -12.7451,-30.1671 -12.8021,-30.0975 C-13.0297,-29.8192 -13.3088,-29.6026 -13.6393,-29.4477 C-13.9697,-29.2927 -14.3136,-29.2153 -14.6709,-29.2153 Z M-13.2906,-32.0992 C-13.3191,-32.3458 -13.4029,-32.5711 -13.542,-32.7751 C-13.6812,-32.979 -13.8582,-33.1411 -14.0733,-33.2613 C-14.2883,-33.3814 -14.5255,-33.4415 -14.7848,-33.4415 C-15.0535,-33.4415 -15.2986,-33.3798 -15.52,-33.2565 C-15.7413,-33.1332 -15.9255,-32.9703 -16.0725,-32.768 C-16.2196,-32.5656 -16.32,-32.3426 -16.3737,-32.0992 L-13.2906,-32.0992 Z M-9.40589,-29.2105 C-9.07386,-29.2105 -8.77504,-29.2991 -8.50941,-29.4761 C-8.24379,-29.6532 -8.02086,-29.8335 -7.84061,-30.0169 L-7.8169,-29.5615 C-7.8169,-29.4635 -7.78607,-29.3797 -7.7244,-29.3101 C-7.66274,-29.2406 -7.5829,-29.2058 -7.48487,-29.2058 C-7.38684,-29.2058 -7.30304,-29.2406 -7.23348,-29.3101 C-7.16391,-29.3797 -7.12912,-29.4635 -7.12912,-29.5615 L-7.12912,-35.5333 C-7.12912,-35.6313 -7.16312,-35.7151 -7.2311,-35.7847 C-7.29909,-35.8542 -7.38368,-35.889 -7.48487,-35.889 C-7.5829,-35.889 -7.66669,-35.8542 -7.73626,-35.7847 C-7.80583,-35.7151 -7.84061,-35.6313 -7.84061,-35.5333 L-7.84061,-33.3893 C-8.03351,-33.5917 -8.25802,-33.7704 -8.51416,-33.9253 C-8.77029,-34.0803 -9.05331,-34.1577 -9.3632,-34.1577 C-9.68891,-34.1577 -9.98931,-34.0882 -10.2644,-33.949 C-10.5395,-33.8099 -10.7783,-33.6225 -10.9807,-33.387 C-11.183,-33.1514 -11.3396,-32.8834 -11.4502,-32.583 C-11.5609,-32.2826 -11.6163,-31.9711 -11.6163,-31.6485 C-11.6163,-31.2217 -11.5214,-30.8224 -11.3317,-30.4509 C-11.1419,-30.0793 -10.881,-29.7797 -10.549,-29.552 C-10.217,-29.3243 -9.83595,-29.2105 -9.40589,-29.2105 Z M-9.39166,-29.922 C-9.69207,-29.922 -9.95532,-30.0018 -10.1814,-30.1615 C-10.4075,-30.3212 -10.583,-30.5315 -10.7079,-30.7924 C-10.8328,-31.0533 -10.8953,-31.3339 -10.8953,-31.6343 C-10.8953,-31.9379 -10.832,-32.228 -10.7055,-32.5047 C-10.5791,-32.7814 -10.402,-33.0075 -10.1743,-33.183 C-9.94662,-33.3585 -9.67942,-33.4462 -9.37269,-33.4462 C-9.05331,-33.4462 -8.77978,-33.3632 -8.5521,-33.1972 C-8.32443,-33.0312 -8.14972,-32.817 -8.02797,-32.5545 C-7.90623,-32.2921 -7.84536,-32.0122 -7.84536,-31.715 C-7.84536,-31.4177 -7.90702,-31.1315 -8.03034,-30.8564 C-8.15367,-30.5813 -8.33075,-30.3568 -8.56159,-30.1829 C-8.79243,-30.009 -9.06912,-29.922 -9.39166,-29.922 Z M-5.57333,-34.8929 C-5.4342,-34.8929 -5.31404,-34.942 -5.21285,-35.04 C-5.11166,-35.138 -5.06106,-35.2566 -5.06106,-35.3957 C-5.06106,-35.5349 -5.11166,-35.6534 -5.21285,-35.7515 C-5.31404,-35.8495 -5.4342,-35.8985 -5.57333,-35.8985 C-5.70931,-35.8985 -5.82868,-35.8495 -5.93145,-35.7515 C-6.03422,-35.6534 -6.08561,-35.5349 -6.08561,-35.3957 C-6.08561,-35.2566 -6.03422,-35.138 -5.93145,-35.04 C-5.82868,-34.942 -5.70931,-34.8929 -5.57333,-34.8929 Z M-5.91011,-29.5615 C-5.91011,-29.4635 -5.87532,-29.3789 -5.80575,-29.3077 C-5.73619,-29.2366 -5.65239,-29.201 -5.55436,-29.201 C-5.45633,-29.201 -5.37254,-29.2358 -5.30297,-29.3054 C-5.2334,-29.3749 -5.19862,-29.4587 -5.19862,-29.5568 L-5.2081,-33.8115 C-5.2081,-33.919 -5.24447,-34.0059 -5.3172,-34.0724 C-5.38993,-34.1388 -5.48163,-34.172 -5.59231,-34.172 C-5.65871,-34.172 -5.72986,-34.1411 -5.80575,-34.0795 C-5.88165,-34.0178 -5.91959,-33.9459 -5.91959,-33.8637 L-5.91011,-29.5615 Z M-1.80718,-29.2105 C-1.47515,-29.2105 -1.17633,-29.2991 -0.910707,-29.4761 C-0.645084,-29.6532 -0.42215,-29.8335 -0.241906,-30.0169 L-0.21819,-29.5615 C-0.21819,-29.4635 -0.187359,-29.3797 -0.125696,-29.3101 C-0.0640341,-29.2406 0.0158109,-29.2058 0.113838,-29.2058 C0.211866,-29.2058 0.295663,-29.2406 0.365231,-29.3101 C0.434799,-29.3797 0.469583,-29.4635 0.469583,-29.5615 L0.469583,-35.5333 C0.469583,-35.6313 0.43559,-35.7151 0.367603,-35.7847 C0.299616,-35.8542 0.215028,-35.889 0.113838,-35.889 C0.0158109,-35.889 -0.0679868,-35.8542 -0.137555,-35.7847 C-0.207122,-35.7151 -0.241906,-35.6313 -0.241906,-35.5333 L-0.241906,-33.3893 C-0.434799,-33.5917 -0.659314,-33.7704 -0.91545,-33.9253 C-1.17159,-34.0803 -1.4546,-34.1577 -1.76449,-34.1577 C-2.0902,-34.1577 -2.3906,-34.0882 -2.66571,-33.949 C-2.94082,-33.8099 -3.17957,-33.6225 -3.38195,-33.387 C-3.58433,-33.1514 -3.74085,-32.8834 -3.85153,-32.583 C-3.96221,-32.2826 -4.01754,-31.9711 -4.01754,-31.6485 C-4.01754,-31.2217 -3.92268,-30.8224 -3.73295,-30.4509 C-3.54322,-30.0793 -3.28234,-29.7797 -2.95031,-29.552 C-2.61828,-29.3243 -2.23724,-29.2105 -1.80718,-29.2105 Z M-1.79295,-29.922 C-2.09336,-29.922 -2.35661,-30.0018 -2.58271,-30.1615 C-2.8088,-30.3212 -2.9843,-30.5315 -3.10921,-30.7924 C-3.23411,-31.0533 -3.29657,-31.3339 -3.29657,-31.6343 C-3.29657,-31.9379 -3.23332,-32.228 -3.10684,-32.5047 C-2.98035,-32.7814 -2.80327,-33.0075 -2.57559,-33.183 C-2.34792,-33.3585 -2.08071,-33.4462 -1.77398,-33.4462 C-1.4546,-33.4462 -1.18107,-33.3632 -0.953396,-33.1972 C-0.725719,-33.0312 -0.551009,-32.817 -0.429265,-32.5545 C-0.307522,-32.2921 -0.24665,-32.0122 -0.24665,-31.715 C-0.24665,-31.4177 -0.308312,-31.1315 -0.431637,-30.8564 C-0.554962,-30.5813 -0.732044,-30.3568 -0.962882,-30.1829 C-1.19372,-30.009 -1.47041,-29.922 -1.79295,-29.922 Z M3.83256,-34.172 C3.50053,-34.172 3.1938,-34.104 2.91236,-33.968 C2.63093,-33.832 2.38507,-33.6478 2.17479,-33.4154 C1.9645,-33.183 1.80165,-32.9174 1.68623,-32.6185 C1.57081,-32.3197 1.5131,-32.009 1.5131,-31.6865 C1.5131,-31.3608 1.57081,-31.0501 1.68623,-30.7544 C1.80165,-30.4588 1.96371,-30.1955 2.17241,-29.9647 C2.38112,-29.7339 2.62461,-29.5512 2.90288,-29.4168 C3.18115,-29.2824 3.48314,-29.2153 3.80884,-29.2153 C4.12506,-29.2153 4.42626,-29.307 4.71243,-29.4904 C4.99861,-29.6738 5.24605,-29.8793 5.45475,-30.107 L5.45475,-29.5663 C5.45475,-29.4746 5.48716,-29.3963 5.55199,-29.3315 C5.61681,-29.2666 5.69508,-29.2342 5.78678,-29.2342 C5.87848,-29.2342 5.95675,-29.2666 6.02157,-29.3315 C6.0864,-29.3963 6.11881,-29.4746 6.11881,-29.5663 L6.11881,-33.8542 C6.11881,-33.9459 6.0864,-34.0241 6.02157,-34.089 C5.95675,-34.1538 5.87848,-34.1862 5.78678,-34.1862 C5.69508,-34.1862 5.62393,-34.1538 5.57333,-34.089 C5.52274,-34.0241 5.49744,-33.9459 5.49744,-33.8542 L5.45475,-33.2565 C5.25237,-33.4747 5.016,-33.6818 4.74563,-33.8779 C4.47527,-34.0739 4.17091,-34.172 3.83256,-34.172 Z M5.47847,-31.715 C5.47847,-31.4082 5.40258,-31.1181 5.25079,-30.8446 C5.09901,-30.571 4.89663,-30.3497 4.64365,-30.1805 C4.39068,-30.0113 4.11241,-29.9267 3.80884,-29.9267 C3.50843,-29.9267 3.23886,-30.0097 3.00011,-30.1758 C2.76137,-30.3418 2.57243,-30.5592 2.43329,-30.828 C2.29416,-31.0967 2.22459,-31.3829 2.22459,-31.6865 C2.22459,-31.9932 2.29495,-32.2818 2.43567,-32.5521 C2.57638,-32.8225 2.76848,-33.0415 3.01197,-33.2091 C3.25546,-33.3767 3.53057,-33.4605 3.8373,-33.4605 C4.14087,-33.4605 4.41677,-33.3783 4.665,-33.2138 C4.91323,-33.0494 5.11087,-32.8352 5.25791,-32.5711 C5.40495,-32.3071 5.47847,-32.0217 5.47847,-31.715 Z M9.5055,-34.1957 C9.25885,-34.1957 9.00746,-34.1672 8.75132,-34.1103 C8.49518,-34.0534 8.26039,-33.9641 8.04695,-33.8423 C7.8335,-33.7206 7.66116,-33.5656 7.52993,-33.3775 C7.3987,-33.1893 7.33308,-32.9624 7.33308,-32.6968 C7.33308,-32.3806 7.42321,-32.1355 7.60345,-31.9616 C7.78369,-31.7877 8.009,-31.662 8.27937,-31.5845 C8.54973,-31.507 8.81931,-31.4525 9.08809,-31.4209 C9.23988,-31.4019 9.42091,-31.3861 9.6312,-31.3734 C9.84148,-31.3608 10.0494,-31.3355 10.2549,-31.2975 C10.4605,-31.2596 10.6312,-31.1971 10.7672,-31.1102 C10.9032,-31.0232 10.9712,-30.8975 10.9712,-30.7331 C10.9712,-30.5244 10.8961,-30.3584 10.7459,-30.2351 C10.5957,-30.1117 10.4091,-30.024 10.1862,-29.9718 C9.96322,-29.9196 9.74266,-29.8935 9.52447,-29.8935 C9.14501,-29.8935 8.81456,-29.9544 8.53313,-30.0762 C8.2517,-30.1979 8.04299,-30.3884 7.90702,-30.6477 C7.88172,-30.7015 7.83903,-30.7465 7.77895,-30.7829 C7.71887,-30.8193 7.65879,-30.8374 7.59871,-30.8374 C7.50384,-30.8374 7.42321,-30.8042 7.3568,-30.7378 C7.2904,-30.6714 7.25719,-30.5908 7.25719,-30.4959 C7.25719,-30.4327 7.26984,-30.3789 7.29514,-30.3347 C7.48487,-29.9647 7.78053,-29.684 8.18213,-29.4927 C8.58373,-29.3014 9.03117,-29.2058 9.52447,-29.2058 C9.87547,-29.2058 10.2138,-29.2587 10.5395,-29.3647 C10.8652,-29.4706 11.1324,-29.6366 11.3411,-29.8627 C11.5498,-30.0888 11.6542,-30.3789 11.6542,-30.7331 C11.6542,-31.062 11.5625,-31.3134 11.3791,-31.4873 C11.1957,-31.6612 10.9648,-31.7861 10.6866,-31.862 C10.4083,-31.9379 10.1253,-31.9901 9.83753,-32.0185 C9.69207,-32.0343 9.51736,-32.0501 9.3134,-32.066 C9.10944,-32.0818 8.90864,-32.1094 8.711,-32.149 C8.51337,-32.1885 8.34814,-32.2509 8.21533,-32.3363 C8.08252,-32.4217 8.01611,-32.5419 8.01611,-32.6968 C8.01611,-32.896 8.09912,-33.0549 8.26514,-33.1735 C8.43115,-33.2921 8.62958,-33.3775 8.86042,-33.4296 C9.09125,-33.4818 9.3047,-33.5079 9.50076,-33.5079 C9.81065,-33.5079 10.0818,-33.4518 10.3142,-33.3395 C10.5466,-33.2273 10.7198,-33.0636 10.8336,-32.8486 C10.8589,-32.798 10.9016,-32.7545 10.9617,-32.7182 C11.0218,-32.6818 11.0803,-32.6636 11.1372,-32.6636 C11.232,-32.6636 11.3135,-32.6968 11.3815,-32.7632 C11.4494,-32.8296 11.4834,-32.9103 11.4834,-33.0051 C11.4834,-33.0652 11.4692,-33.1205 11.4408,-33.1711 C11.2732,-33.4874 11.0146,-33.7372 10.6652,-33.9206 C10.3158,-34.104 9.92923,-34.1957 9.5055,-34.1957 Z M17.2797,-29.2105 C17.6117,-29.2105 17.9106,-29.2991 18.1762,-29.4761 C18.4418,-29.6532 18.6647,-29.8335 18.845,-30.0169 L18.8687,-29.5615 C18.8687,-29.4635 18.8995,-29.3797 18.9612,-29.3101 C19.0229,-29.2406 19.1027,-29.2058 19.2007,-29.2058 C19.2988,-29.2058 19.3826,-29.2406 19.4521,-29.3101 C19.5217,-29.3797 19.5565,-29.4635 19.5565,-29.5615 L19.5565,-35.5333 C19.5565,-35.6313 19.5225,-35.7151 19.4545,-35.7847 C19.3865,-35.8542 19.3019,-35.889 19.2007,-35.889 C19.1027,-35.889 19.0189,-35.8542 18.9493,-35.7847 C18.8798,-35.7151 18.845,-35.6313 18.845,-35.5333 L18.845,-33.3893 C18.6521,-33.5917 18.4276,-33.7704 18.1714,-33.9253 C17.9153,-34.0803 17.6323,-34.1577 17.3224,-34.1577 C16.9967,-34.1577 16.6963,-34.0882 16.4212,-33.949 C16.1461,-33.8099 15.9073,-33.6225 15.7049,-33.387 C15.5026,-33.1514 15.346,-32.8834 15.2354,-32.583 C15.1247,-32.2826 15.0693,-31.9711 15.0693,-31.6485 C15.0693,-31.2217 15.1642,-30.8224 15.3539,-30.4509 C15.5437,-30.0793 15.8046,-29.7797 16.1366,-29.552 C16.4686,-29.3243 16.8497,-29.2105 17.2797,-29.2105 Z M17.2939,-29.922 C16.9935,-29.922 16.7303,-30.0018 16.5042,-30.1615 C16.2781,-30.3212 16.1026,-30.5315 15.9777,-30.7924 C15.8528,-31.0533 15.7903,-31.3339 15.7903,-31.6343 C15.7903,-31.9379 15.8536,-32.228 15.9801,-32.5047 C16.1065,-32.7814 16.2836,-33.0075 16.5113,-33.183 C16.739,-33.3585 17.0062,-33.4462 17.3129,-33.4462 C17.6323,-33.4462 17.9058,-33.3632 18.1335,-33.1972 C18.3612,-33.0312 18.5359,-32.817 18.6576,-32.5545 C18.7794,-32.2921 18.8402,-32.0122 18.8402,-31.715 C18.8402,-31.4177 18.7786,-31.1315 18.6553,-30.8564 C18.5319,-30.5813 18.3548,-30.3568 18.124,-30.1829 C17.8932,-30.009 17.6165,-29.922 17.2939,-29.922 Z M23.057,-29.2153 C22.5985,-29.2153 22.1835,-29.3291 21.8119,-29.5568 C21.4403,-29.7844 21.1455,-30.0888 20.9273,-30.4698 C20.7091,-30.8509 20.6,-31.2691 20.6,-31.7244 C20.6,-32.1577 20.7036,-32.5585 20.9107,-32.9269 C21.1178,-33.2953 21.3984,-33.5917 21.7526,-33.8162 C22.1068,-34.0407 22.502,-34.153 22.9384,-34.153 C23.34,-34.153 23.7092,-34.0534 24.046,-33.8542 C24.3827,-33.6549 24.6531,-33.387 24.8571,-33.0502 C25.061,-32.7134 25.163,-32.3395 25.163,-31.9284 C25.163,-31.7829 25.1369,-31.658 25.0847,-31.5537 C25.0326,-31.4493 24.9369,-31.3972 24.7978,-31.3972 L21.3447,-31.3972 C21.3953,-31.1347 21.4988,-30.892 21.6554,-30.6691 C21.8119,-30.4461 22.0095,-30.2667 22.2483,-30.1307 C22.487,-29.9947 22.7534,-29.9267 23.0475,-29.9267 C23.2973,-29.9267 23.5424,-29.9821 23.7827,-30.0928 C24.023,-30.2034 24.2207,-30.3552 24.3756,-30.5481 C24.4452,-30.6398 24.5385,-30.6857 24.6555,-30.6857 C24.7535,-30.6857 24.8373,-30.6509 24.9069,-30.5813 C24.9764,-30.5117 25.0112,-30.4279 25.0112,-30.3299 C25.0112,-30.2445 24.9828,-30.1671 24.9258,-30.0975 C24.6982,-29.8192 24.4191,-29.6026 24.0887,-29.4477 C23.7582,-29.2927 23.4143,-29.2153 23.057,-29.2153 Z M24.4373,-32.0992 C24.4088,-32.3458 24.325,-32.5711 24.1859,-32.7751 C24.0468,-32.979 23.8697,-33.1411 23.6547,-33.2613 C23.4396,-33.3814 23.2025,-33.4415 22.9432,-33.4415 C22.6744,-33.4415 22.4293,-33.3798 22.208,-33.2565 C21.9866,-33.1332 21.8024,-32.9703 21.6554,-32.768 C21.5083,-32.5656 21.4079,-32.3426 21.3542,-32.0992 L24.4373,-32.0992 Z M-28.1109,-25.124 C-28.1109,-25.0481 -28.0999,-24.9881 -28.0777,-24.9438 L-25.3219,-19.0195 C-25.2555,-18.8772 -25.148,-18.806 -24.9994,-18.806 C-24.9266,-18.806 -24.8587,-18.8305 -24.7954,-18.8795 C-24.7322,-18.9285 -24.6895,-18.9799 -24.6673,-19.0337 L-22.1914,-25.0197 C-22.1755,-25.0608 -22.1676,-25.1177 -22.1676,-25.1904 C-22.1676,-25.2695 -22.2024,-25.343 -22.272,-25.411 C-22.3416,-25.479 -22.4175,-25.513 -22.4997,-25.513 C-22.6736,-25.513 -22.7922,-25.4371 -22.8554,-25.2853 L-25.0183,-20.0772 L-27.4279,-25.2331 C-27.488,-25.3754 -27.605,-25.4466 -27.7789,-25.4466 C-27.858,-25.4466 -27.9331,-25.4118 -28.0042,-25.3422 C-28.0754,-25.2727 -28.1109,-25.1999 -28.1109,-25.124 Z M-19.1367,-23.8101 C-19.4687,-23.8101 -19.7755,-23.7422 -20.0569,-23.6062 C-20.3383,-23.4702 -20.5842,-23.286 -20.7945,-23.0536 C-21.0048,-22.8212 -21.1676,-22.5556 -21.283,-22.2567 C-21.3984,-21.9579 -21.4562,-21.6472 -21.4562,-21.3247 C-21.4562,-20.999 -21.3984,-20.6883 -21.283,-20.3926 C-21.1676,-20.097 -21.0055,-19.8337 -20.7968,-19.6029 C-20.5881,-19.372 -20.3446,-19.1894 -20.0664,-19.055 C-19.7881,-18.9206 -19.4861,-18.8534 -19.1604,-18.8534 C-18.8442,-18.8534 -18.543,-18.9451 -18.2568,-19.1285 C-17.9706,-19.312 -17.7232,-19.5175 -17.5145,-19.7452 L-17.5145,-19.2044 C-17.5145,-19.1127 -17.4821,-19.0345 -17.4173,-18.9696 C-17.3524,-18.9048 -17.2742,-18.8724 -17.1825,-18.8724 C-17.0908,-18.8724 -17.0125,-18.9048 -16.9477,-18.9696 C-16.8829,-19.0345 -16.8504,-19.1127 -16.8504,-19.2044 L-16.8504,-23.4923 C-16.8504,-23.5841 -16.8829,-23.6623 -16.9477,-23.7271 C-17.0125,-23.792 -17.0908,-23.8244 -17.1825,-23.8244 C-17.2742,-23.8244 -17.3453,-23.792 -17.3959,-23.7271 C-17.4465,-23.6623 -17.4718,-23.5841 -17.4718,-23.4923 L-17.5145,-22.8947 C-17.7169,-23.1129 -17.9533,-23.32 -18.2236,-23.5161 C-18.494,-23.7121 -18.7983,-23.8101 -19.1367,-23.8101 Z M-17.4908,-21.3531 C-17.4908,-21.0464 -17.5667,-20.7563 -17.7185,-20.4827 C-17.8702,-20.2092 -18.0726,-19.9879 -18.3256,-19.8187 C-18.5786,-19.6495 -18.8568,-19.5649 -19.1604,-19.5649 C-19.4608,-19.5649 -19.7304,-19.6479 -19.9691,-19.8139 C-20.2079,-19.98 -20.3968,-20.1974 -20.536,-20.4661 C-20.6751,-20.7349 -20.7447,-21.0211 -20.7447,-21.3247 C-20.7447,-21.6314 -20.6743,-21.92 -20.5336,-22.1903 C-20.3929,-22.4607 -20.2008,-22.6797 -19.9573,-22.8473 C-19.7138,-23.0149 -19.4387,-23.0987 -19.132,-23.0987 C-18.8284,-23.0987 -18.5525,-23.0164 -18.3043,-22.852 C-18.056,-22.6876 -17.8584,-22.4733 -17.7113,-22.2093 C-17.5643,-21.9453 -17.4908,-21.6599 -17.4908,-21.3531 Z M-12.9183,-23.3548 C-12.9183,-23.5319 -13.0052,-23.6528 -13.1792,-23.7177 C-13.3531,-23.7825 -13.5618,-23.8149 -13.8053,-23.8149 C-13.976,-23.8149 -14.1444,-23.7667 -14.3104,-23.6702 C-14.4764,-23.5738 -14.6203,-23.4544 -14.7421,-23.3121 C-14.8638,-23.1698 -14.9468,-23.0259 -14.9911,-22.8805 L-15.0338,-23.4022 C-15.0338,-23.5224 -15.063,-23.618 -15.1215,-23.6892 C-15.18,-23.7603 -15.2551,-23.7959 -15.3468,-23.7959 C-15.4354,-23.7959 -15.5184,-23.7596 -15.5958,-23.6868 C-15.6733,-23.6141 -15.7121,-23.5192 -15.7121,-23.4022 L-15.7121,-19.195 C-15.7121,-19.0969 -15.682,-19.0123 -15.6219,-18.9412 C-15.5619,-18.87 -15.4733,-18.8345 -15.3563,-18.8345 C-15.2362,-18.8345 -15.1468,-18.87 -15.0883,-18.9412 C-15.0298,-19.0123 -15.0006,-19.0969 -15.0006,-19.195 L-15.0006,-21.78 C-15.0006,-22.0109 -14.9634,-22.2298 -14.8891,-22.437 C-14.8148,-22.6441 -14.6891,-22.8141 -14.512,-22.9469 C-14.3349,-23.0797 -14.0914,-23.1461 -13.7816,-23.1461 C-13.6582,-23.1461 -13.5531,-23.1232 -13.4661,-23.0773 C-13.3792,-23.0315 -13.2867,-23.0085 -13.1886,-23.0085 C-13.1222,-23.0085 -13.0606,-23.0449 -13.0037,-23.1176 C-12.9467,-23.1904 -12.9183,-23.2694 -12.9183,-23.3548 Z M-11.8842,-24.5311 C-11.7451,-24.5311 -11.6249,-24.5801 -11.5238,-24.6782 C-11.4226,-24.7762 -11.372,-24.8948 -11.372,-25.0339 C-11.372,-25.173 -11.4226,-25.2916 -11.5238,-25.3897 C-11.6249,-25.4877 -11.7451,-25.5367 -11.8842,-25.5367 C-12.0202,-25.5367 -12.1396,-25.4877 -12.2424,-25.3897 C-12.3451,-25.2916 -12.3965,-25.173 -12.3965,-25.0339 C-12.3965,-24.8948 -12.3451,-24.7762 -12.2424,-24.6782 C-12.1396,-24.5801 -12.0202,-24.5311 -11.8842,-24.5311 Z M-12.221,-19.1997 C-12.221,-19.1017 -12.1862,-19.0171 -12.1167,-18.9459 C-12.0471,-18.8748 -11.9633,-18.8392 -11.8653,-18.8392 C-11.7672,-18.8392 -11.6834,-18.874 -11.6139,-18.9436 C-11.5443,-19.0131 -11.5095,-19.0969 -11.5095,-19.195 L-11.519,-23.4497 C-11.519,-23.5572 -11.5554,-23.6441 -11.6281,-23.7105 C-11.7008,-23.7769 -11.7925,-23.8101 -11.9032,-23.8101 C-11.9696,-23.8101 -12.0408,-23.7793 -12.1167,-23.7177 C-12.1926,-23.656 -12.2305,-23.5841 -12.2305,-23.5018 L-12.221,-19.1997 Z M-8.009,-23.8101 C-8.34103,-23.8101 -8.64776,-23.7422 -8.92919,-23.6062 C-9.21063,-23.4702 -9.45649,-23.286 -9.66677,-23.0536 C-9.87705,-22.8212 -10.0399,-22.5556 -10.1553,-22.2567 C-10.2707,-21.9579 -10.3285,-21.6472 -10.3285,-21.3247 C-10.3285,-20.999 -10.2707,-20.6883 -10.1553,-20.3926 C-10.0399,-20.097 -9.87785,-19.8337 -9.66914,-19.6029 C-9.46044,-19.372 -9.21695,-19.1894 -8.93868,-19.055 C-8.66041,-18.9206 -8.35842,-18.8534 -8.03272,-18.8534 C-7.7165,-18.8534 -7.4153,-18.9451 -7.12912,-19.1285 C-6.84295,-19.312 -6.59551,-19.5175 -6.3868,-19.7452 L-6.3868,-19.2044 C-6.3868,-19.1127 -6.35439,-19.0345 -6.28957,-18.9696 C-6.22474,-18.9048 -6.14648,-18.8724 -6.05478,-18.8724 C-5.96307,-18.8724 -5.88481,-18.9048 -5.81998,-18.9696 C-5.75516,-19.0345 -5.72275,-19.1127 -5.72275,-19.2044 L-5.72275,-23.4923 C-5.72275,-23.5841 -5.75516,-23.6623 -5.81998,-23.7271 C-5.88481,-23.792 -5.96307,-23.8244 -6.05478,-23.8244 C-6.14648,-23.8244 -6.21763,-23.792 -6.26822,-23.7271 C-6.31882,-23.6623 -6.34411,-23.5841 -6.34411,-23.4923 L-6.3868,-22.8947 C-6.58918,-23.1129 -6.82556,-23.32 -7.09592,-23.5161 C-7.36629,-23.7121 -7.67065,-23.8101 -8.009,-23.8101 Z M-6.36309,-21.3531 C-6.36309,-21.0464 -6.43898,-20.7563 -6.59076,-20.4827 C-6.74255,-20.2092 -6.94493,-19.9879 -7.1979,-19.8187 C-7.45088,-19.6495 -7.72915,-19.5649 -8.03272,-19.5649 C-8.33312,-19.5649 -8.6027,-19.6479 -8.84144,-19.8139 C-9.08019,-19.98 -9.26913,-20.1974 -9.40826,-20.4661 C-9.5474,-20.7349 -9.61697,-21.0211 -9.61697,-21.3247 C-9.61697,-21.6314 -9.54661,-21.92 -9.40589,-22.1903 C-9.26517,-22.4607 -9.07307,-22.6797 -8.82958,-22.8473 C-8.5861,-23.0149 -8.31099,-23.0987 -8.00426,-23.0987 C-7.70069,-23.0987 -7.42479,-23.0164 -7.17656,-22.852 C-6.92833,-22.6876 -6.73069,-22.4733 -6.58365,-22.2093 C-6.43661,-21.9453 -6.36309,-21.6599 -6.36309,-21.3531 Z M-2.3076,-18.8534 C-1.87754,-18.8534 -1.4965,-18.9673 -1.16447,-19.195 C-0.832443,-19.4226 -0.571563,-19.7222 -0.381833,-20.0938 C-0.192102,-20.4654 -0.0972369,-20.8646 -0.0972369,-21.2915 C-0.0972369,-21.614 -0.152575,-21.9255 -0.263251,-22.2259 C-0.373927,-22.5263 -0.530455,-22.7943 -0.732834,-23.0299 C-0.935213,-23.2655 -1.17317,-23.4528 -1.4467,-23.592 C-1.72022,-23.7311 -2.02142,-23.8007 -2.35029,-23.8007 C-2.66018,-23.8007 -2.94319,-23.7232 -3.19933,-23.5682 C-3.45547,-23.4133 -3.67998,-23.2346 -3.87287,-23.0323 L-3.87287,-25.1762 C-3.87287,-25.2742 -3.90766,-25.358 -3.97723,-25.4276 C-4.04679,-25.4972 -4.13059,-25.532 -4.22862,-25.532 C-4.32665,-25.532 -4.41044,-25.4972 -4.48001,-25.4276 C-4.54958,-25.358 -4.58436,-25.2742 -4.58436,-25.1762 L-4.58436,-19.2044 C-4.58436,-19.1064 -4.54958,-19.0226 -4.48001,-18.953 C-4.41044,-18.8835 -4.32665,-18.8487 -4.22862,-18.8487 C-4.13059,-18.8487 -4.05075,-18.8835 -3.98908,-18.953 C-3.92742,-19.0226 -3.89659,-19.1064 -3.89659,-19.2044 L-3.87287,-19.6598 C-3.69263,-19.4764 -3.4697,-19.2961 -3.20407,-19.1191 C-2.93845,-18.942 -2.63963,-18.8534 -2.3076,-18.8534 Z M-2.32183,-19.5649 C-2.64121,-19.5649 -2.91711,-19.6519 -3.14953,-19.8258 C-3.38195,-19.9997 -3.55982,-20.2242 -3.68314,-20.4993 C-3.80647,-20.7745 -3.86813,-21.0606 -3.86813,-21.3579 C-3.86813,-21.6551 -3.80726,-21.935 -3.68552,-22.1974 C-3.56377,-22.4599 -3.38827,-22.6741 -3.15901,-22.8401 C-2.92976,-23.0062 -2.65702,-23.0892 -2.3408,-23.0892 C-2.03407,-23.0892 -1.76687,-23.0014 -1.53919,-22.8259 C-1.31151,-22.6504 -1.13443,-22.4243 -1.00794,-22.1476 C-0.881456,-21.8709 -0.818213,-21.5808 -0.818213,-21.2772 C-0.818213,-20.9768 -0.880666,-20.6962 -1.00557,-20.4353 C-1.13048,-20.1744 -1.30598,-19.9642 -1.53207,-19.8045 C-1.75817,-19.6448 -2.02142,-19.5649 -2.32183,-19.5649 Z M1.36369,-24.5311 C1.50282,-24.5311 1.62299,-24.5801 1.72418,-24.6782 C1.82537,-24.7762 1.87596,-24.8948 1.87596,-25.0339 C1.87596,-25.173 1.82537,-25.2916 1.72418,-25.3897 C1.62299,-25.4877 1.50282,-25.5367 1.36369,-25.5367 C1.22771,-25.5367 1.10834,-25.4877 1.00557,-25.3897 C0.902801,-25.2916 0.851416,-25.173 0.851416,-25.0339 C0.851416,-24.8948 0.902801,-24.7762 1.00557,-24.6782 C1.10834,-24.5801 1.22771,-24.5311 1.36369,-24.5311 Z M1.02692,-19.1997 C1.02692,-19.1017 1.0617,-19.0171 1.13127,-18.9459 C1.20084,-18.8748 1.28463,-18.8392 1.38266,-18.8392 C1.48069,-18.8392 1.56449,-18.874 1.63405,-18.9436 C1.70362,-19.0131 1.73841,-19.0969 1.73841,-19.195 L1.72892,-23.4497 C1.72892,-23.5572 1.69255,-23.6441 1.61982,-23.7105 C1.54709,-23.7769 1.45539,-23.8101 1.34472,-23.8101 C1.27831,-23.8101 1.20716,-23.7793 1.13127,-23.7177 C1.05538,-23.656 1.01743,-23.5841 1.01743,-23.5018 L1.02692,-19.1997 Z M3.34637,-25.513 C3.25783,-25.513 3.18036,-25.4742 3.11395,-25.3968 C3.04755,-25.3193 3.01434,-25.2347 3.01434,-25.143 L3.01434,-19.1807 C3.01434,-19.0764 3.0515,-18.991 3.12581,-18.9246 C3.20012,-18.8582 3.29103,-18.825 3.39855,-18.825 C3.46812,-18.825 3.54006,-18.855 3.61437,-18.9151 C3.68868,-18.9752 3.72583,-19.0463 3.72583,-19.1285 L3.72583,-25.1525 C3.72583,-25.2379 3.69184,-25.3193 3.62385,-25.3968 C3.55587,-25.4742 3.46337,-25.513 3.34637,-25.513 Z M5.28162,-24.5311 C5.42076,-24.5311 5.54092,-24.5801 5.64211,-24.6782 C5.7433,-24.7762 5.7939,-24.8948 5.7939,-25.0339 C5.7939,-25.173 5.7433,-25.2916 5.64211,-25.3897 C5.54092,-25.4877 5.42076,-25.5367 5.28162,-25.5367 C5.14565,-25.5367 5.02628,-25.4877 4.92351,-25.3897 C4.82074,-25.2916 4.76935,-25.173 4.76935,-25.0339 C4.76935,-24.8948 4.82074,-24.7762 4.92351,-24.6782 C5.02628,-24.5801 5.14565,-24.5311 5.28162,-24.5311 Z M4.94485,-19.1997 C4.94485,-19.1017 4.97964,-19.0171 5.0492,-18.9459 C5.11877,-18.8748 5.20257,-18.8392 5.3006,-18.8392 C5.39862,-18.8392 5.48242,-18.874 5.55199,-18.9436 C5.62156,-19.0131 5.65634,-19.0969 5.65634,-19.195 L5.64685,-23.4497 C5.64685,-23.5572 5.61049,-23.6441 5.53776,-23.7105 C5.46503,-23.7769 5.37333,-23.8101 5.26265,-23.8101 C5.19624,-23.8101 5.1251,-23.7793 5.0492,-23.7177 C4.97331,-23.656 4.93537,-23.5841 4.93537,-23.5018 L4.94485,-19.1997 Z M9.04777,-18.8487 C9.3798,-18.8487 9.67863,-18.9372 9.94425,-19.1143 C10.2099,-19.2914 10.4328,-19.4716 10.6131,-19.655 L10.6368,-19.1997 C10.6368,-19.1017 10.6676,-19.0179 10.7293,-18.9483 C10.7909,-18.8787 10.8708,-18.844 10.9688,-18.844 C11.0668,-18.844 11.1506,-18.8787 11.2202,-18.9483 C11.2898,-19.0179 11.3245,-19.1017 11.3245,-19.1997 L11.3245,-25.1715 C11.3245,-25.2695 11.2905,-25.3533 11.2226,-25.4229 C11.1546,-25.4924 11.07,-25.5272 10.9688,-25.5272 C10.8708,-25.5272 10.787,-25.4924 10.7174,-25.4229 C10.6478,-25.3533 10.6131,-25.2695 10.6131,-25.1715 L10.6131,-23.0275 C10.4202,-23.2299 10.1956,-23.4086 9.93951,-23.5635 C9.68337,-23.7184 9.40036,-23.7959 9.09046,-23.7959 C8.76476,-23.7959 8.46435,-23.7263 8.18924,-23.5872 C7.91413,-23.4481 7.67539,-23.2607 7.47301,-23.0251 C7.27063,-22.7896 7.1141,-22.5216 7.00343,-22.2212 C6.89275,-21.9207 6.83741,-21.6093 6.83741,-21.2867 C6.83741,-20.8598 6.93228,-20.4606 7.12201,-20.0891 C7.31174,-19.7175 7.57262,-19.4179 7.90465,-19.1902 C8.23668,-18.9625 8.61772,-18.8487 9.04777,-18.8487 Z M9.062,-19.5602 C8.7616,-19.5602 8.49835,-19.64 8.27225,-19.7997 C8.04616,-19.9594 7.87065,-20.1697 7.74575,-20.4306 C7.62084,-20.6915 7.55839,-20.9721 7.55839,-21.2725 C7.55839,-21.5761 7.62163,-21.8662 7.74812,-22.1429 C7.87461,-22.4196 8.05169,-22.6457 8.27937,-22.8212 C8.50704,-22.9967 8.77425,-23.0844 9.08098,-23.0844 C9.40036,-23.0844 9.67389,-23.0014 9.90156,-22.8354 C10.1292,-22.6694 10.3039,-22.4552 10.4257,-22.1927 C10.5474,-21.9302 10.6083,-21.6504 10.6083,-21.3531 C10.6083,-21.0559 10.5466,-20.7697 10.4233,-20.4946 C10.3,-20.2195 10.1229,-19.995 9.89208,-19.8211 C9.66124,-19.6471 9.38455,-19.5602 9.062,-19.5602 Z M14.6875,-23.8101 C14.3555,-23.8101 14.0488,-23.7422 13.7673,-23.6062 C13.4859,-23.4702 13.24,-23.286 13.0297,-23.0536 C12.8195,-22.8212 12.6566,-22.5556 12.5412,-22.2567 C12.4258,-21.9579 12.3681,-21.6472 12.3681,-21.3247 C12.3681,-20.999 12.4258,-20.6883 12.5412,-20.3926 C12.6566,-20.097 12.8187,-19.8337 13.0274,-19.6029 C13.2361,-19.372 13.4796,-19.1894 13.7578,-19.055 C14.0361,-18.9206 14.3381,-18.8534 14.6638,-18.8534 C14.98,-18.8534 15.2812,-18.9451 15.5674,-19.1285 C15.8536,-19.312 16.101,-19.5175 16.3097,-19.7452 L16.3097,-19.2044 C16.3097,-19.1127 16.3421,-19.0345 16.4069,-18.9696 C16.4718,-18.9048 16.55,-18.8724 16.6417,-18.8724 C16.7334,-18.8724 16.8117,-18.9048 16.8765,-18.9696 C16.9414,-19.0345 16.9738,-19.1127 16.9738,-19.2044 L16.9738,-23.4923 C16.9738,-23.5841 16.9414,-23.6623 16.8765,-23.7271 C16.8117,-23.792 16.7334,-23.8244 16.6417,-23.8244 C16.55,-23.8244 16.4789,-23.792 16.4283,-23.7271 C16.3777,-23.6623 16.3524,-23.5841 16.3524,-23.4923 L16.3097,-22.8947 C16.1073,-23.1129 15.871,-23.32 15.6006,-23.5161 C15.3302,-23.7121 15.0259,-23.8101 14.6875,-23.8101 Z M16.3334,-21.3531 C16.3334,-21.0464 16.2575,-20.7563 16.1057,-20.4827 C15.954,-20.2092 15.7516,-19.9879 15.4986,-19.8187 C15.2456,-19.6495 14.9674,-19.5649 14.6638,-19.5649 C14.3634,-19.5649 14.0938,-19.6479 13.8551,-19.8139 C13.6163,-19.98 13.4274,-20.1974 13.2883,-20.4661 C13.1491,-20.7349 13.0795,-21.0211 13.0795,-21.3247 C13.0795,-21.6314 13.1499,-21.92 13.2906,-22.1903 C13.4313,-22.4607 13.6234,-22.6797 13.8669,-22.8473 C14.1104,-23.0149 14.3855,-23.0987 14.6923,-23.0987 C14.9958,-23.0987 15.2717,-23.0164 15.52,-22.852 C15.7682,-22.6876 15.9658,-22.4733 16.1129,-22.2093 C16.2599,-21.9453 16.3334,-21.6599 16.3334,-21.3531 Z M20.2276,-18.8487 C20.5597,-18.8487 20.8585,-18.9372 21.1241,-19.1143 C21.3897,-19.2914 21.6127,-19.4716 21.7929,-19.655 L21.8166,-19.1997 C21.8166,-19.1017 21.8475,-19.0179 21.9091,-18.9483 C21.9708,-18.8787 22.0506,-18.844 22.1487,-18.844 C22.2467,-18.844 22.3305,-18.8787 22.4001,-18.9483 C22.4696,-19.0179 22.5044,-19.1017 22.5044,-19.1997 L22.5044,-25.1715 C22.5044,-25.2695 22.4704,-25.3533 22.4024,-25.4229 C22.3344,-25.4924 22.2499,-25.5272 22.1487,-25.5272 C22.0506,-25.5272 21.9668,-25.4924 21.8973,-25.4229 C21.8277,-25.3533 21.7929,-25.2695 21.7929,-25.1715 L21.7929,-23.0275 C21.6,-23.2299 21.3755,-23.4086 21.1194,-23.5635 C20.8632,-23.7184 20.5802,-23.7959 20.2703,-23.7959 C19.9446,-23.7959 19.6442,-23.7263 19.3691,-23.5872 C19.094,-23.4481 18.8553,-23.2607 18.6529,-23.0251 C18.4505,-22.7896 18.294,-22.5216 18.1833,-22.2212 C18.0726,-21.9207 18.0173,-21.6093 18.0173,-21.2867 C18.0173,-20.8598 18.1122,-20.4606 18.3019,-20.0891 C18.4916,-19.7175 18.7525,-19.4179 19.0845,-19.1902 C19.4165,-18.9625 19.7976,-18.8487 20.2276,-18.8487 Z M20.2419,-19.5602 C19.9415,-19.5602 19.6782,-19.64 19.4521,-19.7997 C19.226,-19.9594 19.0505,-20.1697 18.9256,-20.4306 C18.8007,-20.6915 18.7383,-20.9721 18.7383,-21.2725 C18.7383,-21.5761 18.8015,-21.8662 18.928,-22.1429 C19.0545,-22.4196 19.2316,-22.6457 19.4592,-22.8212 C19.6869,-22.9967 19.9541,-23.0844 20.2608,-23.0844 C20.5802,-23.0844 20.8538,-23.0014 21.0814,-22.8354 C21.3091,-22.6694 21.4838,-22.4552 21.6056,-22.1927 C21.7273,-21.9302 21.7882,-21.6504 21.7882,-21.3531 C21.7882,-21.0559 21.7265,-20.7697 21.6032,-20.4946 C21.4799,-20.2195 21.3028,-19.995 21.0719,-19.8211 C20.8411,-19.6471 20.5644,-19.5602 20.2419,-19.5602 Z M26.0049,-18.8534 C26.3623,-18.8534 26.7062,-18.9309 27.0366,-19.0859 C27.367,-19.2408 27.6461,-19.4574 27.8738,-19.7357 C27.9307,-19.8053 27.9592,-19.8827 27.9592,-19.9681 C27.9592,-20.0661 27.9244,-20.1499 27.8548,-20.2195 C27.7852,-20.2891 27.7014,-20.3238 27.6034,-20.3238 C27.4864,-20.3238 27.3931,-20.278 27.3236,-20.1863 C27.1686,-19.9934 26.971,-19.8416 26.7307,-19.7309 C26.4903,-19.6203 26.2453,-19.5649 25.9955,-19.5649 C25.7014,-19.5649 25.435,-19.6329 25.1962,-19.7689 C24.9575,-19.9049 24.7598,-20.0843 24.6033,-20.3072 C24.4468,-20.5302 24.3432,-20.7729 24.2926,-21.0353 L27.7457,-21.0353 C27.8849,-21.0353 27.9805,-21.0875 28.0327,-21.1919 C28.0849,-21.2962 28.1109,-21.4211 28.1109,-21.5666 C28.1109,-21.9777 28.009,-22.3516 27.805,-22.6884 C27.601,-23.0251 27.3307,-23.2931 26.9939,-23.4923 C26.6571,-23.6916 26.288,-23.7912 25.8864,-23.7912 C25.45,-23.7912 25.0547,-23.6789 24.7005,-23.4544 C24.3464,-23.2299 24.0657,-22.9334 23.8586,-22.565 C23.6515,-22.1966 23.5479,-21.7958 23.5479,-21.3626 C23.5479,-20.9073 23.657,-20.4891 23.8752,-20.108 C24.0934,-19.727 24.3883,-19.4226 24.7598,-19.195 C25.1314,-18.9673 25.5464,-18.8534 26.0049,-18.8534 Z M24.3021,-21.7373 C24.3559,-21.9808 24.4563,-22.2038 24.6033,-22.4061 C24.7503,-22.6085 24.9345,-22.7714 25.1559,-22.8947 C25.3772,-23.018 25.6223,-23.0797 25.8911,-23.0797 C26.1504,-23.0797 26.3876,-23.0196 26.6026,-22.8994 C26.8176,-22.7793 26.9947,-22.6172 27.1338,-22.4133 C27.273,-22.2093 27.3568,-21.984 27.3852,-21.7373 L24.3021,-21.7373 Z " fill="#fffb8b" fill-opacity="1.00" filter="url(#r94xvcrv)" />			<path d="M-125.827,32.6193 C-125.654,32.6193 -125.537,32.5466 -125.476,32.4011 L-124.504,30.2145 L-121.867,30.2145 L-120.913,32.3916 C-120.853,32.5371 -120.73,32.6098 -120.543,32.6098 C-120.452,32.6098 -120.377,32.5711 -120.318,32.4936 C-120.26,32.4161 -120.23,32.3331 -120.23,32.2446 C-120.23,32.194 -120.24,32.1481 -120.259,32.107 L-122.868,26.1637 C-122.928,26.0214 -123.043,25.9503 -123.214,25.9503 C-123.274,25.9503 -123.335,25.974 -123.397,26.0214 C-123.458,26.0688 -123.5,26.1163 -123.522,26.1637 L-126.126,32.1165 C-126.148,32.1608 -126.159,32.2209 -126.159,32.2968 C-126.159,32.3726 -126.124,32.4454 -126.053,32.5149 C-125.982,32.5845 -125.907,32.6193 -125.827,32.6193 Z M-122.18,29.503 L-124.196,29.503 L-123.195,27.1977 L-122.18,29.503 Z M-115.81,28.6634 C-115.927,28.3915 -116.109,28.1519 -116.358,27.9448 C-116.606,27.7377 -116.921,27.6341 -117.304,27.6341 C-117.506,27.6341 -117.7,27.6816 -117.885,27.7764 C-118.07,27.8713 -118.234,27.9883 -118.378,28.1274 C-118.522,28.2666 -118.634,28.4041 -118.713,28.5401 L-118.736,27.9804 C-118.733,27.8792 -118.762,27.7962 -118.824,27.7314 C-118.886,27.6665 -118.967,27.6341 -119.068,27.6341 C-119.166,27.6341 -119.249,27.6665 -119.315,27.7314 C-119.381,27.7962 -119.418,27.8776 -119.424,27.9756 L-119.419,32.2446 C-119.419,32.3426 -119.385,32.4272 -119.315,32.4983 C-119.245,32.5695 -119.162,32.6051 -119.064,32.6051 C-118.966,32.6051 -118.882,32.5703 -118.812,32.5007 C-118.743,32.4311 -118.708,32.3473 -118.708,32.2493 L-118.703,29.835 C-118.703,29.4018 -118.581,29.0468 -118.335,28.7701 C-118.09,28.4934 -117.742,28.3551 -117.29,28.3551 C-117.03,28.3551 -116.832,28.4231 -116.694,28.5591 C-116.557,28.695 -116.463,28.8753 -116.412,29.0998 C-116.361,29.3243 -116.336,29.5694 -116.336,29.835 L-116.331,32.2351 C-116.331,32.3331 -116.297,32.4177 -116.227,32.4889 C-116.158,32.56 -116.074,32.5956 -115.976,32.5956 C-115.878,32.5956 -115.794,32.5608 -115.724,32.4912 C-115.655,32.4217 -115.62,32.3379 -115.62,32.2398 L-115.61,29.835 C-115.607,29.582 -115.557,29.3425 -115.459,29.1164 C-115.361,28.8903 -115.206,28.7069 -114.994,28.5662 C-114.782,28.4255 -114.51,28.3551 -114.178,28.3551 C-113.922,28.3551 -113.727,28.4247 -113.595,28.5638 C-113.462,28.7029 -113.371,28.8848 -113.322,29.1093 C-113.273,29.3338 -113.248,29.5757 -113.248,29.835 L-113.244,32.2209 C-113.244,32.3189 -113.209,32.4035 -113.139,32.4746 C-113.07,32.5458 -112.986,32.5813 -112.888,32.5813 C-112.79,32.5813 -112.706,32.5466 -112.636,32.477 C-112.567,32.4074 -112.532,32.3236 -112.532,32.2256 L-112.537,29.835 C-112.537,29.4144 -112.59,29.0381 -112.696,28.7061 C-112.802,28.3741 -112.973,28.1124 -113.21,27.9211 C-113.448,27.7298 -113.767,27.6341 -114.169,27.6341 C-114.437,27.6341 -114.676,27.6847 -114.885,27.7859 C-115.093,27.8871 -115.274,28.0167 -115.425,28.1749 C-115.577,28.333 -115.705,28.4958 -115.81,28.6634 Z M-109.117,27.6578 C-109.449,27.6578 -109.748,27.7464 -110.013,27.9235 C-110.279,28.1005 -110.502,28.2808 -110.682,28.4642 L-110.706,28.0088 C-110.706,27.9108 -110.737,27.827 -110.798,27.7574 C-110.86,27.6879 -110.94,27.6531 -111.038,27.6531 C-111.136,27.6531 -111.22,27.6879 -111.289,27.7574 C-111.359,27.827 -111.394,27.9108 -111.394,28.0088 L-111.394,33.9806 C-111.394,34.0786 -111.359,34.1624 -111.289,34.232 C-111.22,34.3016 -111.136,34.3364 -111.038,34.3364 C-110.94,34.3364 -110.856,34.3016 -110.787,34.232 C-110.717,34.1624 -110.682,34.0786 -110.682,33.9806 L-110.682,31.8367 C-110.489,32.039 -110.265,32.2177 -110.009,32.3726 C-109.753,32.5276 -109.47,32.6051 -109.16,32.6051 C-108.831,32.6051 -108.53,32.5355 -108.256,32.3964 C-107.983,32.2572 -107.745,32.0699 -107.542,31.8343 C-107.34,31.5987 -107.183,31.3307 -107.073,31.0303 C-106.962,30.7299 -106.907,30.4184 -106.907,30.0959 C-106.907,29.6658 -107.001,29.2658 -107.191,28.8958 C-107.381,28.5259 -107.642,28.227 -107.974,27.9994 C-108.306,27.7717 -108.687,27.6578 -109.117,27.6578 Z M-109.131,28.3693 C-108.831,28.3693 -108.568,28.4492 -108.341,28.6089 C-108.115,28.7686 -107.94,28.9788 -107.815,29.2397 C-107.69,29.5006 -107.628,29.7812 -107.628,30.0816 C-107.628,30.3852 -107.691,30.6753 -107.817,30.952 C-107.944,31.2287 -108.121,31.4548 -108.349,31.6303 C-108.576,31.8058 -108.843,31.8936 -109.15,31.8936 C-109.466,31.8936 -109.739,31.8106 -109.968,31.6446 C-110.198,31.4785 -110.373,31.2635 -110.495,30.9995 C-110.617,30.7354 -110.677,30.4564 -110.677,30.1623 C-110.677,29.8619 -110.616,29.5749 -110.492,29.3014 C-110.369,29.0279 -110.191,28.8041 -109.959,28.6302 C-109.726,28.4563 -109.451,28.3693 -109.131,28.3693 Z M-105.531,25.9455 C-105.62,25.9455 -105.697,25.9843 -105.763,26.0617 C-105.83,26.1392 -105.863,26.2238 -105.863,26.3155 L-105.863,32.2778 C-105.863,32.3821 -105.826,32.4675 -105.752,32.5339 C-105.677,32.6003 -105.586,32.6335 -105.479,32.6335 C-105.409,32.6335 -105.337,32.6035 -105.263,32.5434 C-105.189,32.4833 -105.152,32.4122 -105.152,32.33 L-105.152,26.306 C-105.152,26.2206 -105.186,26.1392 -105.254,26.0617 C-105.322,25.9843 -105.414,25.9455 -105.531,25.9455 Z M-103.596,26.9274 C-103.457,26.9274 -103.336,26.8784 -103.235,26.7803 C-103.134,26.6823 -103.084,26.5637 -103.084,26.4246 C-103.084,26.2855 -103.134,26.1669 -103.235,26.0688 C-103.336,25.9708 -103.457,25.9218 -103.596,25.9218 C-103.732,25.9218 -103.851,25.9708 -103.954,26.0688 C-104.057,26.1669 -104.108,26.2855 -104.108,26.4246 C-104.108,26.5637 -104.057,26.6823 -103.954,26.7803 C-103.851,26.8784 -103.732,26.9274 -103.596,26.9274 Z M-103.933,32.2588 C-103.933,32.3568 -103.898,32.4414 -103.828,32.5126 C-103.759,32.5837 -103.675,32.6193 -103.577,32.6193 C-103.479,32.6193 -103.395,32.5845 -103.325,32.5149 C-103.256,32.4454 -103.221,32.3616 -103.221,32.2635 L-103.231,28.0088 C-103.231,27.9013 -103.267,27.8144 -103.34,27.748 C-103.412,27.6816 -103.504,27.6484 -103.615,27.6484 C-103.681,27.6484 -103.752,27.6792 -103.828,27.7408 C-103.904,27.8025 -103.942,27.8744 -103.942,27.9567 L-103.933,32.2588 Z M-101.215,27.7242 L-101.945,27.7242 C-102.037,27.7242 -102.115,27.7567 -102.18,27.8215 C-102.245,27.8863 -102.277,27.9646 -102.277,28.0563 C-102.277,28.148 -102.245,28.2262 -102.18,28.2911 C-102.115,28.3559 -102.037,28.3883 -101.945,28.3883 L-101.215,28.3883 L-101.219,31.3339 C-101.219,31.7133 -101.125,32.0224 -100.937,32.2612 C-100.749,32.4999 -100.468,32.6193 -100.095,32.6193 C-99.9751,32.6193 -99.8383,32.6043 -99.685,32.5742 C-99.5316,32.5442 -99.398,32.4912 -99.2842,32.4153 C-99.1703,32.3394 -99.1134,32.2351 -99.1134,32.1023 C-99.1134,32.0042 -99.1482,31.9205 -99.2177,31.8509 C-99.2873,31.7813 -99.3711,31.7465 -99.4691,31.7465 C-99.5861,31.7465 -99.6897,31.7726 -99.7798,31.8248 C-99.8699,31.877 -99.9846,31.9031 -100.124,31.9031 C-100.279,31.9031 -100.381,31.8517 -100.432,31.7489 C-100.483,31.6461 -100.508,31.5109 -100.508,31.3434 L-100.503,28.3836 L-99.5782,28.3883 C-99.4865,28.3883 -99.4083,28.3559 -99.3434,28.2911 C-99.2786,28.2262 -99.2462,28.148 -99.2462,28.0563 C-99.2462,27.9646 -99.2786,27.8863 -99.3434,27.8215 C-99.4083,27.7567 -99.4865,27.7242 -99.5782,27.7242 L-100.503,27.7195 L-100.498,26.657 C-100.498,26.559 -100.533,26.4752 -100.603,26.4056 C-100.672,26.336 -100.756,26.3013 -100.854,26.3013 C-100.952,26.3013 -101.036,26.336 -101.106,26.4056 C-101.175,26.4752 -101.21,26.559 -101.21,26.657 L-101.215,27.7242 Z M-94.6452,32.6335 C-94.5441,32.6335 -94.4595,32.5979 -94.3915,32.5268 C-94.3235,32.4556 -94.2895,32.3711 -94.2895,32.273 L-94.2942,28.0136 C-94.2942,27.9124 -94.3282,27.827 -94.3962,27.7574 C-94.4642,27.6879 -94.5488,27.6531 -94.65,27.6531 C-94.748,27.6531 -94.8318,27.6879 -94.9014,27.7574 C-94.9709,27.827 -95.0057,27.9108 -95.0057,28.0088 L-95.0057,30.333 C-95.0057,30.8327 -95.137,31.22 -95.3994,31.4951 C-95.6619,31.7702 -96.0508,31.9078 -96.5663,31.9078 C-96.8382,31.9078 -97.0493,31.8335 -97.1995,31.6849 C-97.3497,31.5362 -97.4533,31.341 -97.5102,31.0991 C-97.5671,30.8572 -97.5956,30.5971 -97.5956,30.3188 L-97.5908,28.0231 C-97.5908,27.9219 -97.6248,27.8365 -97.6928,27.7669 C-97.7608,27.6974 -97.8454,27.6626 -97.9466,27.6626 C-98.0446,27.6626 -98.1284,27.6974 -98.1979,27.7669 C-98.2675,27.8365 -98.3023,27.9203 -98.3023,28.0183 L-98.307,30.3188 C-98.307,30.7204 -98.2493,31.0967 -98.1339,31.4477 C-98.0185,31.7987 -97.8327,32.0817 -97.5766,32.2968 C-97.3204,32.5118 -96.9837,32.6193 -96.5663,32.6193 C-96.3228,32.6193 -96.1046,32.5727 -95.9117,32.4794 C-95.7188,32.3861 -95.5465,32.2691 -95.3947,32.1284 C-95.2429,31.9876 -95.1117,31.8493 -95.001,31.7133 L-94.9773,32.2778 C-94.9773,32.3758 -94.9464,32.4596 -94.8848,32.5292 C-94.8231,32.5987 -94.7433,32.6335 -94.6452,32.6335 Z M-91.0356,32.6098 C-90.7036,32.6098 -90.4048,32.5213 -90.1391,32.3442 C-89.8735,32.1671 -89.6506,31.9869 -89.4703,31.8035 L-89.4466,32.2588 C-89.4466,32.3568 -89.4158,32.4406 -89.3541,32.5102 C-89.2925,32.5798 -89.2126,32.6145 -89.1146,32.6145 C-89.0166,32.6145 -88.9328,32.5798 -88.8632,32.5102 C-88.7936,32.4406 -88.7589,32.3568 -88.7589,32.2588 L-88.7589,26.287 C-88.7589,26.189 -88.7928,26.1052 -88.8608,26.0356 C-88.9288,25.9661 -89.0134,25.9313 -89.1146,25.9313 C-89.2126,25.9313 -89.2964,25.9661 -89.366,26.0356 C-89.4356,26.1052 -89.4703,26.189 -89.4703,26.287 L-89.4703,28.431 C-89.6632,28.2286 -89.8878,28.0499 -90.1439,27.895 C-90.4,27.7401 -90.683,27.6626 -90.9929,27.6626 C-91.3186,27.6626 -91.619,27.7322 -91.8942,27.8713 C-92.1693,28.0104 -92.408,28.1978 -92.6104,28.4334 C-92.8128,28.6689 -92.9693,28.9369 -93.08,29.2373 C-93.1906,29.5378 -93.246,29.8492 -93.246,30.1718 C-93.246,30.5987 -93.1511,30.9979 -92.9614,31.3694 C-92.7717,31.741 -92.5108,32.0406 -92.1787,32.2683 C-91.8467,32.496 -91.4657,32.6098 -91.0356,32.6098 Z M-91.0214,31.8983 C-91.3218,31.8983 -91.585,31.8185 -91.8111,31.6588 C-92.0372,31.4991 -92.2127,31.2888 -92.3376,31.0279 C-92.4626,30.767 -92.525,30.4864 -92.525,30.186 C-92.525,29.8824 -92.4618,29.5923 -92.3353,29.3156 C-92.2088,29.0389 -92.0317,28.8128 -91.804,28.6373 C-91.5764,28.4618 -91.3091,28.3741 -91.0024,28.3741 C-90.683,28.3741 -90.4095,28.4571 -90.1818,28.6231 C-89.9542,28.7891 -89.7794,29.0033 -89.6577,29.2658 C-89.536,29.5283 -89.4751,29.8081 -89.4751,30.1054 C-89.4751,30.4026 -89.5367,30.6888 -89.6601,30.9639 C-89.7834,31.239 -89.9605,31.4635 -90.1913,31.6374 C-90.4222,31.8114 -90.6988,31.8983 -91.0214,31.8983 Z M-85.2583,32.6051 C-84.901,32.6051 -84.5571,32.5276 -84.2267,32.3726 C-83.8962,32.2177 -83.6172,32.0011 -83.3895,31.7228 C-83.3326,31.6532 -83.3041,31.5758 -83.3041,31.4904 C-83.3041,31.3924 -83.3389,31.3086 -83.4085,31.239 C-83.478,31.1694 -83.5618,31.1347 -83.6598,31.1347 C-83.7768,31.1347 -83.8701,31.1805 -83.9397,31.2722 C-84.0946,31.4651 -84.2923,31.6169 -84.5326,31.7276 C-84.7729,31.8382 -85.018,31.8936 -85.2678,31.8936 C-85.5619,31.8936 -85.8283,31.8256 -86.0671,31.6896 C-86.3058,31.5536 -86.5034,31.3742 -86.66,31.1513 C-86.8165,30.9283 -86.92,30.6856 -86.9706,30.4232 L-83.5175,30.4232 C-83.3784,30.4232 -83.2828,30.371 -83.2306,30.2666 C-83.1784,30.1623 -83.1523,30.0374 -83.1523,29.8919 C-83.1523,29.4808 -83.2543,29.1069 -83.4583,28.7701 C-83.6622,28.4334 -83.9326,28.1654 -84.2694,27.9662 C-84.6061,27.7669 -84.9753,27.6673 -85.3769,27.6673 C-85.8133,27.6673 -86.2086,27.7796 -86.5627,28.0041 C-86.9169,28.2286 -87.1975,28.5251 -87.4047,28.8935 C-87.6118,29.2619 -87.7153,29.6627 -87.7153,30.0959 C-87.7153,30.5512 -87.6062,30.9694 -87.3881,31.3505 C-87.1699,31.7315 -86.875,32.0359 -86.5034,32.2635 C-86.1319,32.4912 -85.7168,32.6051 -85.2583,32.6051 Z M-86.9612,29.7212 C-86.9074,29.4777 -86.807,29.2547 -86.66,29.0524 C-86.5129,28.85 -86.3287,28.6871 -86.1074,28.5638 C-85.886,28.4405 -85.6409,28.3788 -85.3722,28.3788 C-85.1129,28.3788 -84.8757,28.4389 -84.6607,28.5591 C-84.4456,28.6792 -84.2686,28.8413 -84.1294,29.0452 C-83.9903,29.2492 -83.9065,29.4745 -83.878,29.7212 L-86.9612,29.7212 Z " fill="#800102" fill-opacity="1.00" />			<path d="M-21.7949,27.4681 C-21.7949,27.544 -21.7839,27.6041 -21.7617,27.6484 L-19.0059,33.5727 C-18.9395,33.715 -18.832,33.7861 -18.6834,33.7861 C-18.6106,33.7861 -18.5426,33.7616 -18.4794,33.7126 C-18.4162,33.6636 -18.3735,33.6122 -18.3513,33.5585 L-15.8754,27.5725 C-15.8595,27.5314 -15.8516,27.4744 -15.8516,27.4017 C-15.8516,27.3226 -15.8864,27.2491 -15.956,27.1811 C-16.0256,27.1132 -16.1014,27.0792 -16.1837,27.0792 C-16.3576,27.0792 -16.4762,27.1551 -16.5394,27.3068 L-18.7023,32.5149 L-21.1119,27.359 C-21.172,27.2167 -21.289,27.1456 -21.4629,27.1456 C-21.542,27.1456 -21.6171,27.1804 -21.6882,27.2499 C-21.7594,27.3195 -21.7949,27.3922 -21.7949,27.4681 Z M-12.8207,28.782 C-13.1527,28.782 -13.4595,28.85 -13.7409,28.986 C-14.0223,29.1219 -14.2682,29.3061 -14.4785,29.5385 C-14.6887,29.771 -14.8516,30.0366 -14.967,30.3354 C-15.0824,30.6342 -15.1401,30.9449 -15.1401,31.2675 C-15.1401,31.5932 -15.0824,31.9038 -14.967,32.1995 C-14.8516,32.4952 -14.6895,32.7584 -14.4808,32.9893 C-14.2721,33.2201 -14.0286,33.4027 -13.7504,33.5371 C-13.4721,33.6715 -13.1701,33.7387 -12.8444,33.7387 C-12.5282,33.7387 -12.227,33.647 -11.9408,33.4636 C-11.6546,33.2802 -11.4072,33.0746 -11.1985,32.847 L-11.1985,33.3877 C-11.1985,33.4794 -11.1661,33.5577 -11.1013,33.6225 C-11.0364,33.6873 -10.9582,33.7197 -10.8665,33.7197 C-10.7748,33.7197 -10.6965,33.6873 -10.6317,33.6225 C-10.5669,33.5577 -10.5344,33.4794 -10.5344,33.3877 L-10.5344,29.0998 C-10.5344,29.0081 -10.5669,28.9298 -10.6317,28.865 C-10.6965,28.8002 -10.7748,28.7678 -10.8665,28.7678 C-10.9582,28.7678 -11.0293,28.8002 -11.0799,28.865 C-11.1305,28.9298 -11.1558,29.0081 -11.1558,29.0998 L-11.1985,29.6974 C-11.4009,29.4793 -11.6372,29.2721 -11.9076,29.0761 C-12.178,28.88 -12.4823,28.782 -12.8207,28.782 Z M-11.1748,31.239 C-11.1748,31.5457 -11.2507,31.8359 -11.4025,32.1094 C-11.5542,32.3829 -11.7566,32.6043 -12.0096,32.7734 C-12.2626,32.9426 -12.5408,33.0272 -12.8444,33.0272 C-13.1448,33.0272 -13.4144,32.9442 -13.6531,32.7782 C-13.8919,32.6122 -14.0808,32.3948 -14.22,32.126 C-14.3591,31.8572 -14.4287,31.571 -14.4287,31.2675 C-14.4287,30.9607 -14.3583,30.6722 -14.2176,30.4018 C-14.0769,30.1315 -13.8848,29.9125 -13.6413,29.7449 C-13.3978,29.5773 -13.1227,29.4935 -12.8159,29.4935 C-12.5124,29.4935 -12.2365,29.5757 -11.9882,29.7401 C-11.74,29.9046 -11.5424,30.1188 -11.3953,30.3828 C-11.2483,30.6469 -11.1748,30.9323 -11.1748,31.239 Z M-6.60227,29.2373 C-6.60227,29.0603 -6.68923,28.9393 -6.86315,28.8745 C-7.03707,28.8097 -7.24578,28.7772 -7.48926,28.7772 C-7.66002,28.7772 -7.82841,28.8255 -7.99442,28.9219 C-8.16044,29.0184 -8.30432,29.1377 -8.42606,29.28 C-8.5478,29.4223 -8.63081,29.5662 -8.67508,29.7117 L-8.71777,29.1899 C-8.71777,29.0698 -8.74702,28.9741 -8.80552,28.9029 C-8.86402,28.8318 -8.93912,28.7962 -9.03082,28.7962 C-9.11937,28.7962 -9.20237,28.8326 -9.27985,28.9053 C-9.35732,28.978 -9.39606,29.0729 -9.39606,29.1899 L-9.39606,33.3972 C-9.39606,33.4952 -9.36602,33.5798 -9.30593,33.651 C-9.24585,33.7221 -9.15731,33.7577 -9.04031,33.7577 C-8.92015,33.7577 -8.83082,33.7221 -8.77232,33.651 C-8.71382,33.5798 -8.68457,33.4952 -8.68457,33.3972 L-8.68457,30.8121 C-8.68457,30.5813 -8.64741,30.3623 -8.5731,30.1552 C-8.49879,29.948 -8.37309,29.7781 -8.19601,29.6453 C-8.01893,29.5125 -7.77544,29.446 -7.46555,29.446 C-7.34222,29.446 -7.23708,29.469 -7.15012,29.5148 C-7.06316,29.5607 -6.97067,29.5836 -6.87264,29.5836 C-6.80623,29.5836 -6.74457,29.5472 -6.68765,29.4745 C-6.63073,29.4018 -6.60227,29.3227 -6.60227,29.2373 Z M-5.56824,28.061 C-5.42911,28.061 -5.30894,28.012 -5.20775,27.914 C-5.10657,27.8159 -5.05597,27.6974 -5.05597,27.5582 C-5.05597,27.4191 -5.10657,27.3005 -5.20775,27.2025 C-5.30894,27.1045 -5.42911,27.0554 -5.56824,27.0554 C-5.70422,27.0554 -5.82359,27.1045 -5.92636,27.2025 C-6.02913,27.3005 -6.08052,27.4191 -6.08052,27.5582 C-6.08052,27.6974 -6.02913,27.8159 -5.92636,27.914 C-5.82359,28.012 -5.70422,28.061 -5.56824,28.061 Z M-5.90501,33.3924 C-5.90501,33.4905 -5.87023,33.5751 -5.80066,33.6462 C-5.73109,33.7174 -5.6473,33.7529 -5.54927,33.7529 C-5.45124,33.7529 -5.36744,33.7181 -5.29788,33.6486 C-5.22831,33.579 -5.19352,33.4952 -5.19352,33.3972 L-5.20301,29.1425 C-5.20301,29.035 -5.23938,28.948 -5.31211,28.8816 C-5.38484,28.8152 -5.47654,28.782 -5.58722,28.782 C-5.65362,28.782 -5.72477,28.8128 -5.80066,28.8745 C-5.87655,28.9361 -5.9145,29.0081 -5.9145,29.0903 L-5.90501,33.3924 Z M-3.22981,27.4776 C-3.29622,27.5377 -3.32942,27.6167 -3.32942,27.7148 C-3.32942,27.8065 -3.29701,27.8847 -3.23219,27.9495 C-3.16736,28.0144 -3.0891,28.0468 -2.99739,28.0468 C-2.89937,28.0468 -2.81873,28.012 -2.75549,27.9424 L-1.5507,26.7187 L-0.279504,27.9329 C-0.216261,27.9962 -0.138788,28.0278 -0.0470845,28.0278 C0.0446186,28.0278 0.122882,27.9954 0.187707,27.9306 C0.252532,27.8658 0.284944,27.7875 0.284944,27.6958 C0.284944,27.6009 0.248579,27.5203 0.175849,27.4539 L-1.32777,26.0119 C-1.38785,25.9518 -1.46532,25.9218 -1.56019,25.9218 C-1.65505,25.9218 -1.73252,25.955 -1.79261,26.0214 L-3.22981,27.4776 Z M-1.693,28.782 C-2.02503,28.782 -2.33176,28.85 -2.61319,28.986 C-2.89462,29.1219 -3.14048,29.3061 -3.35077,29.5385 C-3.56105,29.771 -3.7239,30.0366 -3.83932,30.3354 C-3.95474,30.6342 -4.01245,30.9449 -4.01245,31.2675 C-4.01245,31.5932 -3.95474,31.9038 -3.83932,32.1995 C-3.7239,32.4952 -3.56184,32.7584 -3.35314,32.9893 C-3.14444,33.2201 -2.90095,33.4027 -2.62268,33.5371 C-2.3444,33.6715 -2.04242,33.7387 -1.71671,33.7387 C-1.4005,33.7387 -1.0993,33.647 -0.813122,33.4636 C-0.526945,33.2802 -0.279504,33.0746 -0.0708008,32.847 L-0.0708008,33.3877 C-0.0708008,33.4794 -0.0383885,33.5577 0.0264361,33.6225 C0.0912607,33.6873 0.169524,33.7197 0.261228,33.7197 C0.352931,33.7197 0.431195,33.6873 0.496019,33.6225 C0.560844,33.5577 0.593256,33.4794 0.593256,33.3877 L0.593256,29.0998 C0.593256,29.0081 0.560844,28.9298 0.496019,28.865 C0.431195,28.8002 0.352931,28.7678 0.261228,28.7678 C0.169524,28.7678 0.0983755,28.8002 0.0477807,28.865 C-0.00281406,28.9298 -0.0281115,29.0081 -0.0281115,29.0998 L-0.0708008,29.6974 C-0.27318,29.4793 -0.509553,29.2721 -0.779919,29.0761 C-1.05028,28.88 -1.35464,28.782 -1.693,28.782 Z M-0.0470845,31.239 C-0.0470845,31.5457 -0.122977,31.8359 -0.274761,32.1094 C-0.426546,32.3829 -0.628925,32.6043 -0.881899,32.7734 C-1.13487,32.9426 -1.41314,33.0272 -1.71671,33.0272 C-2.01712,33.0272 -2.2867,32.9442 -2.52544,32.7782 C-2.76418,32.6122 -2.95312,32.3948 -3.09226,32.126 C-3.2314,31.8572 -3.30096,31.571 -3.30096,31.2675 C-3.30096,30.9607 -3.2306,30.6722 -3.08989,30.4018 C-2.94917,30.1315 -2.75707,29.9125 -2.51358,29.7449 C-2.27009,29.5773 -1.99498,29.4935 -1.68825,29.4935 C-1.38468,29.4935 -1.10878,29.5757 -0.860554,29.7401 C-0.612323,29.9046 -0.414687,30.1188 -0.267646,30.3828 C-0.120605,30.6469 -0.0470845,30.9323 -0.0470845,31.239 Z M2.08738,28.7725 C1.98619,28.7725 1.90161,28.8073 1.83362,28.8769 C1.76563,28.9464 1.73164,29.0318 1.73164,29.133 L1.73638,33.3924 C1.73638,33.4905 1.77117,33.5751 1.84073,33.6462 C1.9103,33.7174 1.9941,33.7529 2.09213,33.7529 C2.19015,33.7529 2.27395,33.7181 2.34352,33.6486 C2.41309,33.579 2.44787,33.4952 2.44787,33.3972 L2.44787,31.073 C2.44787,30.5734 2.5791,30.186 2.84156,29.9109 C3.10402,29.6358 3.49297,29.4982 4.00841,29.4982 C4.28351,29.4982 4.49538,29.5725 4.644,29.7212 C4.79262,29.8698 4.8954,30.0643 4.95231,30.3046 C5.00923,30.5449 5.03769,30.8058 5.03769,31.0872 L5.03295,33.383 C5.03295,33.481 5.06773,33.5656 5.1373,33.6367 C5.20687,33.7079 5.29067,33.7434 5.38869,33.7434 C5.48672,33.7434 5.57052,33.7087 5.64009,33.6391 C5.70966,33.5695 5.74444,33.4857 5.74444,33.3877 L5.74918,31.0872 C5.74918,30.6825 5.69147,30.3054 5.57605,29.9559 C5.46063,29.6065 5.27565,29.3243 5.02109,29.1093 C4.76654,28.8942 4.42897,28.7867 4.00841,28.7867 C3.76808,28.7867 3.55068,28.8334 3.35621,28.9267 C3.16173,29.0199 2.98939,29.1362 2.83919,29.2753 C2.68899,29.4144 2.55697,29.5536 2.44313,29.6927 L2.41941,29.1283 C2.41941,29.0302 2.38858,28.9464 2.32692,28.8769 C2.26526,28.8073 2.18541,28.7725 2.08738,28.7725 Z M6.7927,31.258 C6.7927,31.6975 6.89626,32.1046 7.10338,32.4794 C7.31051,32.8541 7.59115,33.1553 7.94531,33.383 C8.29948,33.6106 8.69633,33.7245 9.13587,33.7245 C9.45841,33.7245 9.75329,33.6644 10.0205,33.5442 C10.2877,33.4241 10.5185,33.2652 10.713,33.0675 C10.9075,32.8699 11.0569,32.6557 11.1612,32.4248 C11.1834,32.3805 11.1944,32.3315 11.1944,32.2778 C11.1944,32.1797 11.1597,32.096 11.0901,32.0264 C11.0205,31.9568 10.9367,31.922 10.8387,31.922 C10.7755,31.922 10.7122,31.9426 10.649,31.9837 C10.5857,32.0248 10.5415,32.0754 10.5162,32.1355 C10.4086,32.3726 10.2339,32.579 9.99203,32.7545 C9.75013,32.93 9.46474,33.0177 9.13587,33.0177 C8.82914,33.0177 8.55166,32.9363 8.30343,32.7734 C8.0552,32.6106 7.85914,32.3956 7.71527,32.1284 C7.57139,31.8612 7.49945,31.5726 7.49945,31.2627 C7.49945,30.9528 7.57218,30.6643 7.71764,30.3971 C7.8631,30.1299 8.05915,29.9148 8.3058,29.752 C8.55245,29.5891 8.82914,29.5077 9.13587,29.5077 C9.46474,29.5077 9.74933,29.5963 9.98966,29.7733 C10.23,29.9504 10.4039,30.1575 10.5114,30.3947 C10.5367,30.4548 10.581,30.5046 10.6442,30.5441 C10.7075,30.5836 10.7707,30.6034 10.834,30.6034 C10.932,30.6034 11.0158,30.5694 11.0854,30.5014 C11.1549,30.4334 11.1897,30.3504 11.1897,30.2524 C11.1897,30.2018 11.1771,30.1512 11.1518,30.1006 C11.0474,29.8666 10.8988,29.6516 10.7059,29.4555 C10.513,29.2595 10.2837,29.1014 10.0181,28.9812 C9.7525,28.861 9.45841,28.801 9.13587,28.801 C8.69949,28.801 8.30422,28.9148 7.95006,29.1425 C7.59589,29.3702 7.31446,29.6698 7.10576,30.0413 C6.89705,30.4129 6.7927,30.8184 6.7927,31.258 Z M12.6554,28.061 C12.7945,28.061 12.9147,28.012 13.0159,27.914 C13.1171,27.8159 13.1676,27.6974 13.1676,27.5582 C13.1676,27.4191 13.1171,27.3005 13.0159,27.2025 C12.9147,27.1045 12.7945,27.0554 12.6554,27.0554 C12.5194,27.0554 12.4,27.1045 12.2973,27.2025 C12.1945,27.3005 12.1431,27.4191 12.1431,27.5582 C12.1431,27.6974 12.1945,27.8159 12.2973,27.914 C12.4,28.012 12.5194,28.061 12.6554,28.061 Z M12.3186,33.3924 C12.3186,33.4905 12.3534,33.5751 12.423,33.6462 C12.4925,33.7174 12.5763,33.7529 12.6743,33.7529 C12.7724,33.7529 12.8562,33.7181 12.9257,33.6486 C12.9953,33.579 13.0301,33.4952 13.0301,33.3972 L13.0206,29.1425 C13.0206,29.035 12.9842,28.948 12.9115,28.8816 C12.8388,28.8152 12.7471,28.782 12.6364,28.782 C12.57,28.782 12.4988,28.8128 12.423,28.8745 C12.3471,28.9361 12.3091,29.0081 12.3091,29.0903 L12.3186,33.3924 Z M16.5306,28.782 C16.1986,28.782 15.8919,28.85 15.6104,28.986 C15.329,29.1219 15.0831,29.3061 14.8728,29.5385 C14.6626,29.771 14.4997,30.0366 14.3843,30.3354 C14.2689,30.6342 14.2112,30.9449 14.2112,31.2675 C14.2112,31.5932 14.2689,31.9038 14.3843,32.1995 C14.4997,32.4952 14.6618,32.7584 14.8705,32.9893 C15.0792,33.2201 15.3227,33.4027 15.6009,33.5371 C15.8792,33.6715 16.1812,33.7387 16.5069,33.7387 C16.8231,33.7387 17.1243,33.647 17.4105,33.4636 C17.6967,33.2802 17.9441,33.0746 18.1528,32.847 L18.1528,33.3877 C18.1528,33.4794 18.1852,33.5577 18.2501,33.6225 C18.3149,33.6873 18.3931,33.7197 18.4848,33.7197 C18.5765,33.7197 18.6548,33.6873 18.7196,33.6225 C18.7845,33.5577 18.8169,33.4794 18.8169,33.3877 L18.8169,29.0998 C18.8169,29.0081 18.7845,28.9298 18.7196,28.865 C18.6548,28.8002 18.5765,28.7678 18.4848,28.7678 C18.3931,28.7678 18.322,28.8002 18.2714,28.865 C18.2208,28.9298 18.1955,29.0081 18.1955,29.0998 L18.1528,29.6974 C17.9504,29.4793 17.7141,29.2721 17.4437,29.0761 C17.1733,28.88 16.869,28.782 16.5306,28.782 Z M18.1765,31.239 C18.1765,31.5457 18.1006,31.8359 17.9489,32.1094 C17.7971,32.3829 17.5947,32.6043 17.3417,32.7734 C17.0887,32.9426 16.8105,33.0272 16.5069,33.0272 C16.2065,33.0272 15.9369,32.9442 15.6982,32.7782 C15.4594,32.6122 15.2705,32.3948 15.1314,32.126 C14.9922,31.8572 14.9227,31.571 14.9227,31.2675 C14.9227,30.9607 14.993,30.6722 15.1337,30.4018 C15.2744,30.1315 15.4665,29.9125 15.71,29.7449 C15.9535,29.5773 16.2286,29.4935 16.5354,29.4935 C16.8389,29.4935 17.1148,29.5757 17.3631,29.7401 C17.6113,29.9046 17.8089,30.1188 17.956,30.3828 C18.103,30.6469 18.1765,30.9323 18.1765,31.239 Z " fill="#800102" fill-opacity="1.00" />			<path d="M73.6682,26.989 C73.5733,26.9922 73.4919,27.0317 73.4239,27.1076 C73.3559,27.1835 73.3219,27.2689 73.3219,27.3638 L73.2887,33.2122 C73.2887,33.3102 73.3235,33.3909 73.3931,33.4541 C73.4626,33.5173 73.5448,33.5506 73.6397,33.5537 L75.907,33.5632 C76.3623,33.56 76.7639,33.4683 77.1118,33.2881 C77.4596,33.1078 77.7529,32.8644 77.9916,32.5576 C78.2304,32.2509 78.4106,31.907 78.5324,31.526 C78.6541,31.1449 78.715,30.752 78.715,30.3473 C78.715,29.9267 78.647,29.5156 78.511,29.114 C78.3751,28.7124 78.1687,28.3504 77.892,28.0278 C77.6153,27.7053 77.2651,27.4491 76.8414,27.2594 C76.4177,27.0697 75.9165,26.9764 75.3378,26.9796 L73.6682,26.989 Z M78.0604,30.2429 C78.0604,31.1283 77.8264,31.7908 77.3584,32.2303 C76.8904,32.6699 76.2011,32.8833 75.2904,32.8707 L74.0002,32.8612 L74.0287,27.7148 L74.9251,27.6958 C75.5512,27.68 76.0999,27.7574 76.571,27.9282 C77.0422,28.099 77.4082,28.3741 77.6691,28.7535 C77.93,29.133 78.0604,29.6295 78.0604,30.2429 Z M82.1207,33.6391 C82.478,33.6391 82.8219,33.5616 83.1523,33.4067 C83.4828,33.2517 83.7618,33.0351 83.9895,32.7568 C84.0464,32.6873 84.0749,32.6098 84.0749,32.5244 C84.0749,32.4264 84.0401,32.3426 83.9705,32.273 C83.901,32.2035 83.8172,32.1687 83.7191,32.1687 C83.6021,32.1687 83.5089,32.2145 83.4393,32.3062 C83.2843,32.4991 83.0867,32.6509 82.8464,32.7616 C82.6061,32.8723 82.361,32.9276 82.1112,32.9276 C81.8171,32.9276 81.5507,32.8596 81.3119,32.7236 C81.0732,32.5877 80.8756,32.4082 80.719,32.1853 C80.5625,31.9624 80.4589,31.7197 80.4083,31.4572 L83.8614,31.4572 C84.0006,31.4572 84.0962,31.405 84.1484,31.3007 C84.2006,31.1963 84.2267,31.0714 84.2267,30.9259 C84.2267,30.5149 84.1247,30.1409 83.9207,29.8042 C83.7168,29.4674 83.4464,29.1994 83.1096,29.0002 C82.7729,28.801 82.4037,28.7014 82.0021,28.7014 C81.5657,28.7014 81.1704,28.8136 80.8163,29.0381 C80.4621,29.2626 80.1815,29.5591 79.9743,29.9275 C79.7672,30.2959 79.6636,30.6967 79.6636,31.1299 C79.6636,31.5853 79.7727,32.0035 79.9909,32.3845 C80.2091,32.7655 80.504,33.0699 80.8756,33.2976 C81.2471,33.5253 81.6621,33.6391 82.1207,33.6391 Z M80.4178,30.7552 C80.4716,30.5117 80.572,30.2888 80.719,30.0864 C80.8661,29.884 81.0503,29.7212 81.2716,29.5978 C81.493,29.4745 81.738,29.4128 82.0068,29.4128 C82.2661,29.4128 82.5033,29.4729 82.7183,29.5931 C82.9333,29.7133 83.1104,29.8753 83.2496,30.0793 C83.3887,30.2832 83.4725,30.5085 83.5009,30.7552 L80.4178,30.7552 Z M87.5185,28.6587 C87.2718,28.6587 87.0204,28.6871 86.7643,28.744 C86.5082,28.801 86.2734,28.8903 86.0599,29.012 C85.8465,29.1338 85.6742,29.2887 85.5429,29.4769 C85.4117,29.665 85.3461,29.8919 85.3461,30.1575 C85.3461,30.4738 85.4362,30.7188 85.6164,30.8927 C85.7967,31.0667 86.022,31.1924 86.2924,31.2698 C86.5627,31.3473 86.8323,31.4019 87.1011,31.4335 C87.2529,31.4524 87.4339,31.4683 87.6442,31.4809 C87.8545,31.4936 88.0624,31.5189 88.2679,31.5568 C88.4735,31.5947 88.6442,31.6572 88.7802,31.7442 C88.9162,31.8311 88.9842,31.9568 88.9842,32.1212 C88.9842,32.33 88.9091,32.496 88.7589,32.6193 C88.6087,32.7426 88.4221,32.8304 88.1991,32.8825 C87.9762,32.9347 87.7557,32.9608 87.5375,32.9608 C87.158,32.9608 86.8276,32.8999 86.5461,32.7782 C86.2647,32.6564 86.056,32.4659 85.92,32.2066 C85.8947,32.1529 85.852,32.1078 85.7919,32.0714 C85.7319,32.0351 85.6718,32.0169 85.6117,32.0169 C85.5168,32.0169 85.4362,32.0501 85.3698,32.1165 C85.3034,32.1829 85.2702,32.2635 85.2702,32.3584 C85.2702,32.4217 85.2828,32.4754 85.3081,32.5197 C85.4979,32.8897 85.7935,33.1703 86.1951,33.3616 C86.5967,33.5529 87.0442,33.6486 87.5375,33.6486 C87.8885,33.6486 88.2268,33.5956 88.5525,33.4897 C88.8782,33.3837 89.1454,33.2177 89.3541,32.9916 C89.5628,32.7655 89.6672,32.4754 89.6672,32.1212 C89.6672,31.7924 89.5755,31.541 89.3921,31.3671 C89.2087,31.1932 88.9778,31.0682 88.6996,30.9924 C88.4213,30.9165 88.1383,30.8643 87.8505,30.8358 C87.7051,30.82 87.5303,30.8042 87.3264,30.7884 C87.1224,30.7726 86.9216,30.7449 86.724,30.7054 C86.5264,30.6659 86.3611,30.6034 86.2283,30.518 C86.0955,30.4326 86.0291,30.3125 86.0291,30.1575 C86.0291,29.9583 86.1121,29.7994 86.2781,29.6808 C86.4441,29.5623 86.6426,29.4769 86.8734,29.4247 C87.1042,29.3725 87.3177,29.3464 87.5137,29.3464 C87.8236,29.3464 88.0948,29.4026 88.3272,29.5148 C88.5596,29.6271 88.7328,29.7907 88.8466,30.0058 C88.8719,30.0563 88.9146,30.0998 88.9747,30.1362 C89.0348,30.1726 89.0933,30.1907 89.1502,30.1907 C89.245,30.1907 89.3265,30.1575 89.3945,30.0911 C89.4624,30.0247 89.4964,29.9441 89.4964,29.8492 C89.4964,29.7891 89.4822,29.7338 89.4537,29.6832 C89.2861,29.367 89.0276,29.1172 88.6782,28.9338 C88.3288,28.7504 87.9422,28.6587 87.5185,28.6587 Z M90.4735,29.0144 C90.4735,29.0713 90.483,29.1188 90.502,29.1567 L92.3993,33.4541 C92.4246,33.5079 92.4665,33.5545 92.525,33.594 C92.5835,33.6336 92.6428,33.6533 92.7029,33.6533 C92.763,33.6533 92.823,33.6336 92.8831,33.594 C92.9432,33.5545 92.9843,33.5079 93.0064,33.4541 L94.9038,29.1709 C94.9259,29.1267 94.937,29.0808 94.937,29.0334 C94.937,28.9417 94.9045,28.8634 94.8397,28.7986 C94.7749,28.7338 94.6966,28.7014 94.6049,28.7014 C94.5448,28.7014 94.4848,28.7219 94.4247,28.763 C94.3646,28.8041 94.3219,28.8516 94.2966,28.9053 L92.7076,32.5007 L91.1091,28.8863 C91.087,28.8294 91.0467,28.7812 90.9882,28.7417 C90.9297,28.7021 90.8688,28.6824 90.8056,28.6824 C90.7139,28.6824 90.6356,28.7148 90.5708,28.7796 C90.506,28.8444 90.4735,28.9227 90.4735,29.0144 Z M96.156,27.9614 C96.2951,27.9614 96.4153,27.9124 96.5165,27.8144 C96.6177,27.7163 96.6682,27.5978 96.6682,27.4586 C96.6682,27.3195 96.6177,27.2009 96.5165,27.1029 C96.4153,27.0048 96.2951,26.9558 96.156,26.9558 C96.02,26.9558 95.9006,27.0048 95.7979,27.1029 C95.6951,27.2009 95.6437,27.3195 95.6437,27.4586 C95.6437,27.5978 95.6951,27.7163 95.7979,27.8144 C95.9006,27.9124 96.02,27.9614 96.156,27.9614 Z M95.8192,33.2928 C95.8192,33.3909 95.854,33.4755 95.9236,33.5466 C95.9931,33.6177 96.0769,33.6533 96.1749,33.6533 C96.273,33.6533 96.3568,33.6185 96.4263,33.549 C96.4959,33.4794 96.5307,33.3956 96.5307,33.2976 L96.5212,29.0429 C96.5212,28.9354 96.4848,28.8484 96.4121,28.782 C96.3394,28.7156 96.2477,28.6824 96.137,28.6824 C96.0706,28.6824 95.9994,28.7132 95.9236,28.7749 C95.8477,28.8365 95.8097,28.9085 95.8097,28.9907 L95.8192,33.2928 Z M100.079,28.6776 C99.7466,28.6776 99.4375,28.744 99.1513,28.8769 C98.8652,29.0097 98.6146,29.1923 98.3995,29.4247 C98.1845,29.6571 98.0161,29.9227 97.8944,30.2216 C97.7726,30.5204 97.7118,30.8342 97.7118,31.1631 C97.7118,31.6058 97.8169,32.0161 98.0272,32.394 C98.2375,32.7719 98.5229,33.0762 98.8833,33.3071 C99.2438,33.5379 99.6486,33.6533 100.098,33.6533 C100.54,33.6502 100.94,33.5324 101.295,33.3 C101.651,33.0675 101.933,32.7632 102.142,32.3869 C102.351,32.0106 102.455,31.6027 102.455,31.1631 C102.455,30.8311 102.394,30.5164 102.272,30.2192 C102.151,29.922 101.981,29.6571 101.765,29.4247 C101.548,29.1923 101.296,29.0097 101.008,28.8769 C100.721,28.744 100.411,28.6776 100.079,28.6776 Z M100.079,29.3891 C100.392,29.3891 100.674,29.4713 100.925,29.6358 C101.177,29.8002 101.376,30.0176 101.523,30.288 C101.67,30.5583 101.744,30.8501 101.744,31.1631 C101.744,31.4762 101.671,31.7671 101.525,32.0359 C101.38,32.3047 101.183,32.5221 100.935,32.6881 C100.687,32.8541 100.406,32.9387 100.093,32.9418 C99.7767,32.9418 99.4921,32.8588 99.2391,32.6928 C98.9861,32.5268 98.7869,32.3078 98.6414,32.0359 C98.496,31.7639 98.4233,31.4698 98.4233,31.1536 C98.4233,30.8406 98.4968,30.5504 98.6438,30.2832 C98.7909,30.016 98.9893,29.8002 99.2391,29.6358 C99.4889,29.4713 99.7688,29.3891 100.079,29.3891 Z M106.235,33.6154 C106.333,33.6154 106.417,33.5806 106.487,33.511 C106.556,33.4415 106.591,33.3577 106.591,33.2596 L106.591,33.2549 L106.586,31.1963 L107.511,31.1773 C108.02,31.1615 108.469,31.0801 108.856,30.9331 C109.243,30.786 109.546,30.5536 109.764,30.2358 C109.983,29.918 110.092,29.4982 110.092,28.9765 C110.092,28.5243 109.987,28.1503 109.779,27.8547 C109.57,27.559 109.287,27.3385 108.93,27.193 C108.572,27.0475 108.167,26.9748 107.715,26.9748 L106.221,26.9843 C106.114,26.9875 106.028,27.0317 105.965,27.1171 C105.902,27.2025 105.87,27.2768 105.87,27.34 L105.88,33.2549 L105.88,33.2596 C105.88,33.3577 105.914,33.4415 105.984,33.511 C106.054,33.5806 106.137,33.6154 106.235,33.6154 Z M109.38,28.9812 C109.38,29.3575 109.302,29.6524 109.145,29.8658 C108.989,30.0793 108.77,30.2303 108.488,30.3188 C108.207,30.4074 107.877,30.4564 107.497,30.4659 L106.586,30.4848 L106.582,27.691 L107.682,27.691 C108.188,27.691 108.598,27.7899 108.911,27.9875 C109.224,28.1851 109.38,28.5164 109.38,28.9812 Z M113.36,28.6824 C113.028,28.6824 112.721,28.7504 112.44,28.8863 C112.158,29.0223 111.912,29.2065 111.702,29.4389 C111.492,29.6714 111.329,29.937 111.213,30.2358 C111.098,30.5346 111.04,30.8453 111.04,31.1679 C111.04,31.4936 111.098,31.8042 111.213,32.0999 C111.329,32.3956 111.491,32.6588 111.7,32.8897 C111.908,33.1205 112.152,33.3031 112.43,33.4375 C112.708,33.5719 113.01,33.6391 113.336,33.6391 C113.652,33.6391 113.953,33.5474 114.24,33.364 C114.526,33.1806 114.773,32.975 114.982,32.7474 L114.982,33.2881 C114.982,33.3798 115.014,33.4581 115.079,33.5229 C115.144,33.5877 115.222,33.6201 115.314,33.6201 C115.406,33.6201 115.484,33.5877 115.549,33.5229 C115.614,33.4581 115.646,33.3798 115.646,33.2881 L115.646,29.0002 C115.646,28.9085 115.614,28.8302 115.549,28.7654 C115.484,28.7006 115.406,28.6682 115.314,28.6682 C115.222,28.6682 115.151,28.7006 115.101,28.7654 C115.05,28.8302 115.025,28.9085 115.025,29.0002 L114.982,29.5978 C114.78,29.3796 114.543,29.1725 114.273,28.9765 C114.003,28.7804 113.698,28.6824 113.36,28.6824 Z M115.006,31.1394 C115.006,31.4461 114.93,31.7363 114.778,32.0098 C114.626,32.2833 114.424,32.5047 114.171,32.6738 C113.918,32.843 113.64,32.9276 113.336,32.9276 C113.036,32.9276 112.766,32.8446 112.527,32.6786 C112.289,32.5126 112.1,32.2952 111.961,32.0264 C111.821,31.7576 111.752,31.4714 111.752,31.1679 C111.752,30.8611 111.822,30.5726 111.963,30.3022 C112.104,30.0318 112.296,29.8129 112.539,29.6453 C112.783,29.4777 113.058,29.3939 113.365,29.3939 C113.668,29.3939 113.944,29.4761 114.192,29.6405 C114.44,29.805 114.638,30.0192 114.785,30.2832 C114.932,30.5473 115.006,30.8327 115.006,31.1394 Z M118.9,33.6438 C119.232,33.6438 119.531,33.5553 119.796,33.3782 C120.062,33.2011 120.285,33.0209 120.465,32.8375 L120.489,33.2928 C120.489,33.3909 120.52,33.4747 120.581,33.5442 C120.643,33.6138 120.723,33.6486 120.821,33.6486 C120.919,33.6486 121.003,33.6138 121.072,33.5442 C121.142,33.4747 121.177,33.3909 121.177,33.2928 L121.177,27.3211 C121.177,27.223 121.143,27.1392 121.075,27.0697 C121.007,27.0001 120.922,26.9653 120.821,26.9653 C120.723,26.9653 120.639,27.0001 120.57,27.0697 C120.5,27.1392 120.465,27.223 120.465,27.3211 L120.465,29.465 C120.272,29.2626 120.048,29.084 119.792,28.929 C119.536,28.7741 119.253,28.6966 118.943,28.6966 C118.617,28.6966 118.316,28.7662 118.041,28.9053 C117.766,29.0445 117.528,29.2318 117.325,29.4674 C117.123,29.703 116.966,29.971 116.856,30.2714 C116.745,30.5718 116.69,30.8833 116.69,31.2058 C116.69,31.6327 116.784,32.0319 116.974,32.4035 C117.164,32.775 117.425,33.0746 117.757,33.3023 C118.089,33.53 118.47,33.6438 118.9,33.6438 Z M118.914,32.9323 C118.614,32.9323 118.35,32.8525 118.124,32.6928 C117.898,32.5331 117.723,32.3228 117.598,32.062 C117.473,31.8011 117.411,31.5204 117.411,31.22 C117.411,30.9165 117.474,30.6263 117.6,30.3496 C117.727,30.073 117.904,29.8469 118.132,29.6714 C118.359,29.4959 118.626,29.4081 118.933,29.4081 C119.253,29.4081 119.526,29.4911 119.754,29.6571 C119.981,29.8231 120.156,30.0374 120.278,30.2998 C120.4,30.5623 120.46,30.8421 120.46,31.1394 C120.46,31.4366 120.399,31.7228 120.275,31.9979 C120.152,32.273 119.975,32.4975 119.744,32.6715 C119.513,32.8454 119.237,32.9323 118.914,32.9323 Z M125.109,29.1377 C125.109,28.9607 125.022,28.8397 124.848,28.7749 C124.674,28.7101 124.465,28.6776 124.222,28.6776 C124.051,28.6776 123.883,28.7259 123.717,28.8223 C123.551,28.9188 123.407,29.0381 123.285,29.1804 C123.163,29.3227 123.08,29.4666 123.036,29.6121 L122.993,29.0903 C122.993,28.9701 122.964,28.8745 122.906,28.8033 C122.847,28.7322 122.772,28.6966 122.68,28.6966 C122.592,28.6966 122.509,28.733 122.431,28.8057 C122.354,28.8784 122.315,28.9733 122.315,29.0903 L122.315,33.2976 C122.315,33.3956 122.345,33.4802 122.405,33.5513 C122.465,33.6225 122.554,33.6581 122.671,33.6581 C122.791,33.6581 122.88,33.6225 122.939,33.5513 C122.997,33.4802 123.027,33.3956 123.027,33.2976 L123.027,30.7125 C123.027,30.4817 123.064,30.2627 123.138,30.0556 C123.212,29.8484 123.338,29.6785 123.515,29.5457 C123.692,29.4128 123.936,29.3464 124.246,29.3464 C124.369,29.3464 124.474,29.3694 124.561,29.4152 C124.648,29.4611 124.74,29.484 124.838,29.484 C124.905,29.484 124.967,29.4476 125.023,29.3749 C125.08,29.3022 125.109,29.2231 125.109,29.1377 Z M129.292,26.9416 C129.292,27.046 129.256,27.1345 129.183,27.2072 C129.111,27.28 129.022,27.3163 128.918,27.3163 C128.867,27.3163 128.821,27.3076 128.78,27.2902 C128.739,27.2728 128.695,27.2483 128.647,27.2167 C128.524,27.1377 128.405,27.0436 128.289,26.9345 C128.174,26.8254 128.044,26.7289 127.9,26.6452 C127.756,26.5614 127.58,26.5195 127.371,26.5195 C127.185,26.5195 127.012,26.5669 126.854,26.6618 C126.696,26.7566 126.571,26.8823 126.477,27.0388 C126.384,27.1954 126.337,27.3669 126.337,27.5535 C126.337,27.6705 126.367,27.7685 126.425,27.8476 C126.484,27.9266 126.567,27.9662 126.674,27.9662 C126.766,27.9662 126.844,27.9337 126.909,27.8689 C126.974,27.8041 127.006,27.7258 127.006,27.6341 C127.006,27.6215 127.005,27.6096 127.004,27.5985 C127.002,27.5875 127.001,27.5756 127.001,27.563 C127.001,27.4586 127.038,27.3693 127.111,27.295 C127.183,27.2207 127.273,27.1835 127.381,27.1835 C127.466,27.1835 127.561,27.2183 127.665,27.2879 C127.789,27.3669 127.907,27.461 128.021,27.5701 C128.135,27.6792 128.263,27.7748 128.405,27.8571 C128.548,27.9393 128.722,27.9804 128.927,27.9804 C129.114,27.9804 129.285,27.9337 129.439,27.8405 C129.594,27.7472 129.719,27.6231 129.814,27.4681 C129.909,27.3132 129.956,27.1424 129.956,26.9558 C129.956,26.8262 129.929,26.7163 129.873,26.6262 C129.818,26.5361 129.73,26.491 129.61,26.491 C129.519,26.491 129.44,26.5234 129.375,26.5882 C129.311,26.6531 129.278,26.7313 129.278,26.823 C129.278,26.8452 129.281,26.8649 129.285,26.8823 C129.29,26.8997 129.292,26.9195 129.292,26.9416 Z M127.95,28.6824 C127.618,28.6824 127.311,28.7504 127.03,28.8863 C126.748,29.0223 126.503,29.2065 126.292,29.4389 C126.082,29.6714 125.919,29.937 125.804,30.2358 C125.688,30.5346 125.631,30.8453 125.631,31.1679 C125.631,31.4936 125.688,31.8042 125.804,32.0999 C125.919,32.3956 126.081,32.6588 126.29,32.8897 C126.499,33.1205 126.742,33.3031 127.02,33.4375 C127.299,33.5719 127.601,33.6391 127.926,33.6391 C128.243,33.6391 128.544,33.5474 128.83,33.364 C129.116,33.1806 129.364,32.975 129.572,32.7474 L129.572,33.2881 C129.572,33.3798 129.605,33.4581 129.669,33.5229 C129.734,33.5877 129.813,33.6201 129.904,33.6201 C129.996,33.6201 130.074,33.5877 130.139,33.5229 C130.204,33.4581 130.236,33.3798 130.236,33.2881 L130.236,29.0002 C130.236,28.9085 130.204,28.8302 130.139,28.7654 C130.074,28.7006 129.996,28.6682 129.904,28.6682 C129.813,28.6682 129.741,28.7006 129.691,28.7654 C129.64,28.8302 129.615,28.9085 129.615,29.0002 L129.572,29.5978 C129.37,29.3796 129.134,29.1725 128.863,28.9765 C128.593,28.7804 128.288,28.6824 127.95,28.6824 Z M129.596,31.1394 C129.596,31.4461 129.52,31.7363 129.368,32.0098 C129.217,32.2833 129.014,32.5047 128.761,32.6738 C128.508,32.843 128.23,32.9276 127.926,32.9276 C127.626,32.9276 127.356,32.8446 127.118,32.6786 C126.879,32.5126 126.69,32.2952 126.551,32.0264 C126.412,31.7576 126.342,31.4714 126.342,31.1679 C126.342,30.8611 126.412,30.5726 126.553,30.3022 C126.694,30.0318 126.886,29.8129 127.129,29.6453 C127.373,29.4777 127.648,29.3939 127.955,29.3939 C128.258,29.3939 128.534,29.4761 128.783,29.6405 C129.031,29.805 129.228,30.0192 129.375,30.2832 C129.522,30.5473 129.596,30.8327 129.596,31.1394 Z M133.647,28.6776 C133.315,28.6776 133.006,28.744 132.719,28.8769 C132.433,29.0097 132.183,29.1923 131.968,29.4247 C131.753,29.6571 131.584,29.9227 131.462,30.2216 C131.341,30.5204 131.28,30.8342 131.28,31.1631 C131.28,31.6058 131.385,32.0161 131.595,32.394 C131.806,32.7719 132.091,33.0762 132.451,33.3071 C132.812,33.5379 133.217,33.6533 133.666,33.6533 C134.108,33.6502 134.508,33.5324 134.863,33.3 C135.219,33.0675 135.501,32.7632 135.71,32.3869 C135.919,32.0106 136.023,31.6027 136.023,31.1631 C136.023,30.8311 135.962,30.5164 135.84,30.2192 C135.719,29.922 135.55,29.6571 135.333,29.4247 C135.116,29.1923 134.864,29.0097 134.576,28.8769 C134.289,28.744 133.979,28.6776 133.647,28.6776 Z M133.647,29.3891 C133.96,29.3891 134.242,29.4713 134.493,29.6358 C134.745,29.8002 134.944,30.0176 135.091,30.288 C135.238,30.5583 135.312,30.8501 135.312,31.1631 C135.312,31.4762 135.239,31.7671 135.093,32.0359 C134.948,32.3047 134.751,32.5221 134.503,32.6881 C134.255,32.8541 133.974,32.9387 133.661,32.9418 C133.345,32.9418 133.06,32.8588 132.807,32.6928 C132.554,32.5268 132.355,32.3078 132.21,32.0359 C132.064,31.7639 131.991,31.4698 131.991,31.1536 C131.991,30.8406 132.065,30.5504 132.212,30.2832 C132.359,30.016 132.557,29.8002 132.807,29.6358 C133.057,29.4713 133.337,29.3891 133.647,29.3891 Z " fill="#800102" fill-opacity="1.00" />		</g>	</svg>