<?xml version="1.0" encoding="utf-8" ?>	<!-- Generator: Assembly 2.4 - http://assemblyapp.co -->	<svg version="1.1" xmlns="http://www.w3.org/2000/svg" xmlns:xlink="http://www.w3.org/1999/xlink" width="500.00" height="500.00" viewBox="0 0 500.0 500.0">		<g id="document" transform="scale(1.6666666666666667 1.6666666666666667) translate(150.0 150.0)">			<path d="M9.16007e-07,64.1621 C52.4434,64.1621 94.8976,21.7079 94.8976,-30.7355 C94.8976,-83.179 52.4434,-125.633 9.16007e-07,-125.633 C-52.4434,-125.633 -94.8976,-83.179 -94.8976,-30.7355 C-94.8976,21.7079 -52.4434,64.1621 9.16007e-07,64.1621 Z " fill="#24682c" fill-opacity="1.00" />			<path d="M44.5167,-7.26376 L27.952,-32.7929 L24.4441,-38.6393 C22.8851,-40.9779 20.3517,-42.5369 17.6234,-42.7318 C17.4285,-42.7318 17.2336,-42.7318 17.2336,-42.7318 L11.1924,-42.7318 C10.6077,-42.7318 10.0231,-43.3164 10.0231,-43.9011 L10.0231,-45.2652 C10.0231,-45.4601 10.0231,-45.655 10.0231,-45.8499 L-10.829,-45.8499 C-10.829,-45.8499 -10.829,-45.8499 -10.829,-45.655 L-10.829,-44.0959 C-10.829,-43.5113 -11.4136,-42.9267 -11.9983,-42.9267 L-13.5573,-42.9267 C-14.3368,-42.9267 -15.1163,-43.1215 -15.8959,-43.1215 C-16.0907,-43.1215 -16.4805,-43.1215 -16.6754,-43.1215 C-19.5986,-43.1215 -22.3269,-41.7574 -24.0808,-39.0291 L-27.7835,-33.1827 L-44.3482,-7.8484 C-45.1277,-6.67913 -44.738,-5.31497 -43.5687,-4.53545 L-32.6555,2.67508 C-32.2657,2.86996 -31.876,3.06484 -31.2913,3.06484 C-30.5118,3.06484 -29.7323,2.67508 -29.3425,2.09044 L-22.3269,-8.62792 C-22.3269,-8.8228 -22.132,-8.8228 -22.132,-8.8228 C-21.9371,-8.8228 -21.7422,-8.62792 -21.7422,-8.43304 L-21.7422,2.4802 C-20.3781,2.86996 -18.819,3.25972 -17.4549,3.84435 C-11.8034,5.79315 -5.95701,9.10609 -2.25431,11.2498 C-1.27991,11.8344 -0.500396,12.419 0.0842418,12.6139 C0.474,12.419 1.05864,12.0293 1.83815,11.6395 C5.34598,9.49585 11.5821,6.1829 17.6234,4.03923 C18.9875,3.64947 20.3517,3.25972 21.521,2.86996 L21.521,-8.43304 C21.521,-8.62792 21.7158,-8.8228 21.9107,-8.8228 C22.1056,-8.8228 22.1056,-8.8228 22.1056,-8.62792 L29.511,2.67508 C29.9008,3.4546 30.6803,3.84435 31.4598,3.84435 C31.8496,3.84435 32.4342,3.64947 32.824,3.4546 L43.7372,-3.56106 C44.9065,-4.73033 45.1013,-6.28937 44.5167,-7.26376 Z M12.7514,-17.2026 C12.7514,-15.2538 11.1924,-13.6948 9.24357,-13.6948 L-9.8546,-13.6948 C-11.8034,-13.6948 -13.3624,-15.2538 -13.3624,-17.2026 L-13.3624,-26.5568 C-13.3624,-28.5056 -11.8034,-30.0646 -9.8546,-30.0646 L9.24357,-30.0646 C11.1924,-30.0646 12.7514,-28.5056 12.7514,-26.3619 L12.7514,-17.2026 Z M-20.9627,57.2413 C-21.3525,58.2157 -20.7678,59.3849 -19.5986,59.3849 L-3.61846,59.3849 C-2.44919,59.3849 -1.66967,58.2157 -2.25431,57.2413 L-4.39798,52.3693 C-4.59286,51.7847 -4.59286,51.0051 -4.2031,50.4205 L-4.00822,50.0307 C-3.03383,48.8615 -2.64407,47.3024 -2.64407,45.7434 L-2.64407,15.9269 L-2.64407,14.9525 C-3.03383,14.7576 -3.61846,14.3678 -4.00822,14.173 C-4.98262,13.5883 -5.95701,13.0037 -7.12629,12.419 C-11.4136,10.0805 -17.0651,7.1573 -22.132,5.98802 L-22.132,9.30097 L-22.132,13.0037 L-22.132,15.1474 L-22.132,45.7434 C-22.132,47.3024 -21.5474,48.6666 -20.3781,49.641 L-19.4037,50.4205 C-18.819,50.8103 -18.6242,51.5898 -19.0139,52.3693 L-20.9627,57.2413 Z M19.3773,49.641 C20.5466,48.6666 21.1312,47.1075 21.1312,45.7434 L21.1312,15.3422 L21.1312,13.1986 L21.1312,10.4702 C21.3261,10.0805 21.3261,9.69073 21.3261,9.30097 L21.3261,6.1829 L21.1312,6.1829 C16.2592,7.54706 10.8026,10.2754 6.71014,12.419 C5.54086,13.0037 4.56646,13.5883 3.59207,14.173 C2.81255,14.7576 2.03303,15.1474 1.4484,15.3422 L1.4484,15.9269 L1.4484,45.7434 C1.4484,47.3024 1.83815,48.8615 2.81255,50.0307 L3.00743,50.4205 C3.39719,51.0051 3.59207,51.7847 3.20231,52.3693 L1.05864,57.2413 C0.668879,58.2157 1.25352,59.3849 2.42279,59.3849 L18.4029,59.3849 C19.5722,59.3849 20.3517,58.2157 19.767,57.2413 L17.6234,52.3693 C17.4285,51.7847 17.4285,51.0051 18.0131,50.4205 L19.3773,49.641 Z M53.2863,4.42899 L49.1938,1.70068 C48.6092,1.31092 48.2194,0.531407 48.2194,-0.248111 L48.2194,-1.41739 C48.2194,-2.00202 47.8297,-2.58666 47.245,-2.58666 C46.8553,-2.78154 46.4655,-2.58666 46.2706,-2.39178 L33.2137,5.98802 C32.824,6.1829 32.6291,6.57266 32.6291,6.96242 C32.6291,7.35218 32.824,7.93682 33.4086,7.93682 L34.9676,8.32658 C35.7471,8.52146 36.1369,9.10609 36.3318,9.88561 L37.5011,14.5627 C37.6959,15.732 39.0601,16.1217 40.0345,15.5371 L53.0914,7.1573 C54.0658,6.37778 54.0658,5.01363 53.2863,4.42899 Z M-53.1178,6.76754 L-40.0609,15.1474 C-39.0865,15.732 -37.7223,15.3422 -37.5275,14.173 L-36.3582,9.49585 C-36.1633,8.71634 -35.5787,8.1317 -34.994,7.93682 L-33.435,7.54706 C-32.8504,7.35218 -32.6555,6.76754 -32.6555,6.1829 C-32.6555,5.98802 -32.8504,5.59827 -33.0452,5.59827 L-46.1021,-2.78154 C-46.297,-2.97642 -46.6868,-2.97642 -46.8817,-2.97642 C-47.4663,-2.97642 -48.0509,-2.39178 -48.0509,-1.80715 L-48.0509,-0.637869 C-48.0509,0.141647 -48.4407,0.726285 -49.0253,1.11604 L-53.1178,3.84435 C-54.0922,4.81875 -54.0922,6.1829 -53.1178,6.76754 Z M-25.2501,-57.9324 C-25.0552,-57.9324 -24.6654,-57.9324 -24.4705,-57.9324 C-20.573,-47.9935 -11.0239,-40.9779 0.279121,-40.9779 C11.5821,-40.9779 21.1312,-47.9935 25.0288,-57.9324 C25.2237,-57.9324 25.2237,-57.9324 25.4185,-57.9324 C28.9264,-57.9324 31.8496,-62.2197 31.8496,-67.4814 C31.8496,-71.7688 29.9008,-75.4715 27.3673,-76.6408 L27.3673,-88.9182 C29.1212,-89.5028 30.4854,-91.2567 30.4854,-93.2055 C30.4854,-95.7389 28.5366,-97.6877 26.0032,-97.6877 C23.4698,-97.6877 21.521,-95.7389 21.521,-93.2055 C21.521,-91.2567 22.8851,-89.5028 24.639,-88.9182 L24.639,-78.0049 C20.5466,-87.3591 11.1924,-93.985 0.279121,-93.985 C-11.0239,-93.985 -20.573,-86.9694 -24.4705,-77.0305 C-24.6654,-77.0305 -25.0552,-77.0305 -25.2501,-77.0305 C-28.7579,-77.0305 -31.6811,-72.7432 -31.6811,-67.4814 C-31.6811,-62.2197 -28.7579,-57.9324 -25.2501,-57.9324 Z M-18.0395,-77.4203 C-6.54165,-82.682 6.71014,-82.682 18.208,-77.4203 C19.767,-74.4971 20.7414,-70.9893 20.7414,-67.4814 C20.7414,-64.3634 19.9619,-61.4402 18.7926,-58.7119 C6.90502,-53.0604 -6.93141,-53.0604 -18.819,-58.7119 C-19.9883,-61.4402 -20.7678,-64.3634 -20.7678,-67.4814 C-20.573,-70.9893 -19.7934,-74.4971 -18.0395,-77.4203 Z " fill="#ffffff" fill-opacity="1.00" />			<path d="M-59.9201,111.535 C-59.6544,111.535 -59.4273,111.441 -59.2388,111.252 C-59.0502,111.064 -58.9559,110.837 -58.9559,110.571 L-58.9559,110.558 L-58.9688,94.4116 L-58.9688,94.3987 C-58.9688,94.1245 -59.0609,93.8952 -59.2452,93.711 C-59.4295,93.5267 -59.6801,93.4346 -59.9972,93.4346 C-60.2286,93.4346 -60.4365,93.5331 -60.6207,93.7302 C-60.805,93.9274 -60.8971,94.1502 -60.8971,94.3987 L-60.8971,94.4116 L-60.8843,110.558 L-60.8843,110.571 C-60.8843,110.837 -60.79,111.064 -60.6015,111.252 C-60.4129,111.441 -60.1858,111.535 -59.9201,111.535 Z M-50.137,111.535 C-49.2371,111.535 -48.4272,111.295 -47.7073,110.815 C-46.9873,110.335 -46.3831,109.847 -45.8946,109.35 L-45.8303,110.584 C-45.8303,110.85 -45.7468,111.077 -45.5796,111.265 C-45.4125,111.454 -45.1961,111.548 -44.9304,111.548 C-44.6648,111.548 -44.4376,111.454 -44.2491,111.265 C-44.0605,111.077 -43.9663,110.85 -43.9663,110.584 L-43.9663,94.3987 C-43.9663,94.1331 -44.0584,93.9059 -44.2427,93.7174 C-44.4269,93.5288 -44.6562,93.4346 -44.9304,93.4346 C-45.1961,93.4346 -45.4232,93.5288 -45.6118,93.7174 C-45.8003,93.9059 -45.8946,94.1331 -45.8946,94.3987 L-45.8946,100.209 C-46.4174,99.661 -47.0259,99.1768 -47.7201,98.7568 C-48.4143,98.3369 -49.1814,98.1269 -50.0213,98.1269 C-50.904,98.1269 -51.7182,98.3154 -52.4638,98.6925 C-53.2095,99.0696 -53.8565,99.5774 -54.405,100.216 C-54.9535,100.854 -55.3778,101.581 -55.6777,102.395 C-55.9777,103.209 -56.1277,104.053 -56.1277,104.928 C-56.1277,106.085 -55.8706,107.167 -55.3564,108.174 C-54.8421,109.181 -54.1351,109.993 -53.2352,110.61 C-52.3353,111.227 -51.3025,111.535 -50.137,111.535 Z M-50.0984,109.607 C-50.9126,109.607 -51.6261,109.391 -52.2389,108.958 C-52.8517,108.525 -53.3273,107.955 -53.6658,107.248 C-54.0044,106.541 -54.1736,105.78 -54.1736,104.966 C-54.1736,104.143 -54.0022,103.357 -53.6594,102.607 C-53.3166,101.857 -52.8367,101.244 -52.2196,100.769 C-51.6025,100.293 -50.8783,100.055 -50.047,100.055 C-49.1814,100.055 -48.44,100.28 -47.823,100.73 C-47.2059,101.18 -46.7324,101.761 -46.4024,102.472 C-46.0724,103.183 -45.9075,103.942 -45.9075,104.748 C-45.9075,105.553 -46.0746,106.329 -46.4088,107.074 C-46.7431,107.82 -47.223,108.429 -47.8487,108.9 C-48.4743,109.371 -49.2242,109.607 -50.0984,109.607 Z M-34.4788,111.522 C-33.5104,111.522 -32.5783,111.312 -31.6827,110.893 C-30.7871,110.473 -30.0308,109.885 -29.4137,109.131 C-29.2594,108.943 -29.1823,108.733 -29.1823,108.501 C-29.1823,108.236 -29.2766,108.009 -29.4651,107.82 C-29.6537,107.631 -29.8808,107.537 -30.1465,107.537 C-30.4636,107.537 -30.7164,107.661 -30.9049,107.91 C-31.3249,108.433 -31.8605,108.844 -32.5119,109.144 C-33.1632,109.444 -33.8275,109.594 -34.5045,109.594 C-35.3016,109.594 -36.0236,109.41 -36.6707,109.041 C-37.3178,108.673 -37.8534,108.186 -38.2776,107.582 C-38.7019,106.978 -38.9826,106.32 -39.1197,105.609 L-29.7608,105.609 C-29.3837,105.609 -29.1244,105.467 -28.983,105.185 C-28.8416,104.902 -28.7709,104.563 -28.7709,104.169 C-28.7709,103.055 -29.0473,102.041 -29.6001,101.129 C-30.1529,100.216 -30.8857,99.4896 -31.7984,98.9496 C-32.7112,98.4097 -33.7118,98.1397 -34.8002,98.1397 C-35.9829,98.1397 -37.0542,98.444 -38.0141,99.0525 C-38.974,99.661 -39.7346,100.464 -40.296,101.463 C-40.8573,102.461 -41.138,103.548 -41.138,104.722 C-41.138,105.956 -40.8423,107.089 -40.251,108.122 C-39.6596,109.155 -38.8604,109.98 -37.8534,110.597 C-36.8464,111.214 -35.7215,111.522 -34.4788,111.522 Z M-39.094,103.706 C-38.9483,103.046 -38.6762,102.442 -38.2776,101.894 C-37.8791,101.345 -37.3799,100.904 -36.78,100.569 C-36.18,100.235 -35.5158,100.068 -34.7873,100.068 C-34.0846,100.068 -33.4418,100.231 -32.859,100.557 C-32.2762,100.882 -31.7963,101.322 -31.4192,101.874 C-31.0421,102.427 -30.815,103.038 -30.7378,103.706 L-39.094,103.706 Z M-24.9785,98.0626 C-25.2527,98.0626 -25.482,98.1569 -25.6663,98.3454 C-25.8505,98.534 -25.9427,98.7654 -25.9427,99.0396 L-25.9298,110.584 C-25.9298,110.85 -25.8355,111.079 -25.647,111.272 C-25.4584,111.465 -25.2313,111.561 -24.9656,111.561 C-24.7,111.561 -24.4728,111.467 -24.2843,111.278 C-24.0957,111.09 -24.0015,110.863 -24.0015,110.597 L-24.0015,104.298 C-24.0015,102.943 -23.6458,101.894 -22.9345,101.148 C-22.2231,100.402 -21.1689,100.03 -19.772,100.03 C-19.0263,100.03 -18.4521,100.231 -18.0493,100.634 C-17.6465,101.037 -17.368,101.564 -17.2137,102.215 C-17.0594,102.866 -16.9823,103.573 -16.9823,104.336 L-16.9951,110.558 C-16.9951,110.824 -16.9009,111.053 -16.7123,111.246 C-16.5238,111.439 -16.2967,111.535 -16.031,111.535 C-15.7653,111.535 -15.5382,111.441 -15.3496,111.252 C-15.1611,111.064 -15.0668,110.837 -15.0668,110.571 L-15.0539,104.336 C-15.0539,103.239 -15.2104,102.217 -15.5232,101.27 C-15.836,100.323 -16.3374,99.5581 -17.0273,98.9753 C-17.7172,98.3926 -18.6321,98.1012 -19.772,98.1012 C-20.4233,98.1012 -21.0125,98.2276 -21.5396,98.4804 C-22.0667,98.7332 -22.5338,99.0482 -22.9409,99.4253 C-23.348,99.8024 -23.7058,100.179 -24.0143,100.557 L-24.0786,99.0268 C-24.0786,98.7611 -24.1622,98.534 -24.3293,98.3454 C-24.4964,98.1569 -24.7128,98.0626 -24.9785,98.0626 Z M-9.98883,98.294 L-11.9686,98.294 C-12.2171,98.294 -12.4293,98.3818 -12.6049,98.5575 C-12.7806,98.7332 -12.8685,98.9454 -12.8685,99.1939 C-12.8685,99.4424 -12.7806,99.6546 -12.6049,99.8302 C-12.4293,100.006 -12.2171,100.094 -11.9686,100.094 L-9.98883,100.094 L-10.0017,108.077 C-10.0017,109.106 -9.74671,109.943 -9.23677,110.59 C-8.72683,111.237 -7.96621,111.561 -6.9549,111.561 C-6.62922,111.561 -6.25855,111.52 -5.84289,111.439 C-5.42722,111.357 -5.06512,111.214 -4.75658,111.008 C-4.44805,110.803 -4.29378,110.52 -4.29378,110.16 C-4.29378,109.894 -4.38806,109.667 -4.57661,109.478 C-4.76515,109.29 -4.99227,109.196 -5.25795,109.196 C-5.57506,109.196 -5.85574,109.266 -6.1,109.408 C-6.34426,109.549 -6.65493,109.62 -7.03203,109.62 C-7.45198,109.62 -7.73052,109.481 -7.86765,109.202 C-8.00477,108.923 -8.07334,108.557 -8.07334,108.103 L-8.06048,100.081 L-5.55363,100.094 C-5.30509,100.094 -5.09297,100.006 -4.91728,99.8302 C-4.74159,99.6546 -4.65374,99.4424 -4.65374,99.1939 C-4.65374,98.9454 -4.74159,98.7332 -4.91728,98.5575 C-5.09297,98.3818 -5.30509,98.294 -5.55363,98.294 L-8.06048,98.2811 L-8.04763,95.4015 C-8.04763,95.1358 -8.1419,94.9087 -8.33045,94.7201 C-8.519,94.5316 -8.74612,94.4373 -9.0118,94.4373 C-9.27748,94.4373 -9.5046,94.5316 -9.69315,94.7201 C-9.8817,94.9087 -9.97597,95.1358 -9.97597,95.4015 L-9.98883,98.294 Z M-0.977028,96.1343 C-0.59993,96.1343 -0.274254,96.0014 -1.75486e-13,95.7357 C0.274254,95.47 0.41138,95.1487 0.41138,94.7716 C0.41138,94.3945 0.274254,94.0731 -1.75486e-13,93.8074 C-0.274254,93.5417 -0.59993,93.4089 -0.977028,93.4089 C-1.34556,93.4089 -1.66909,93.5417 -1.94763,93.8074 C-2.22617,94.0731 -2.36544,94.3945 -2.36544,94.7716 C-2.36544,95.1487 -2.22617,95.47 -1.94763,95.7357 C-1.66909,96.0014 -1.34556,96.1343 -0.977028,96.1343 Z M-1.88978,110.584 C-1.88978,110.85 -1.7955,111.079 -1.60695,111.272 C-1.4184,111.465 -1.19129,111.561 -0.925606,111.561 C-0.659923,111.561 -0.432806,111.467 -0.244257,111.278 C-0.0557077,111.09 0.0385669,110.863 0.0385669,110.597 L0.0128556,99.0653 C0.0128556,98.7739 -0.0857042,98.5383 -0.282824,98.3583 C-0.479944,98.1783 -0.728486,98.0883 -1.02845,98.0883 C-1.20843,98.0883 -1.40126,98.1719 -1.60695,98.339 C-1.81264,98.5061 -1.91549,98.7011 -1.91549,98.9239 L-1.88978,110.584 Z M9.23034,111.535 C10.1302,111.535 10.9401,111.295 11.6601,110.815 C12.38,110.335 12.9842,109.847 13.4727,109.35 L13.537,110.584 C13.537,110.85 13.6205,111.077 13.7877,111.265 C13.9548,111.454 14.1712,111.548 14.4369,111.548 C14.7026,111.548 14.9297,111.454 15.1182,111.265 C15.3068,111.077 15.401,110.85 15.401,110.584 L15.401,94.3987 C15.401,94.1331 15.3089,93.9059 15.1247,93.7174 C14.9404,93.5288 14.7111,93.4346 14.4369,93.4346 C14.1712,93.4346 13.9441,93.5288 13.7555,93.7174 C13.567,93.9059 13.4727,94.1331 13.4727,94.3987 L13.4727,100.209 C12.9499,99.661 12.3414,99.1768 11.6472,98.7568 C10.953,98.3369 10.1859,98.1269 9.34605,98.1269 C8.46329,98.1269 7.6491,98.3154 6.90348,98.6925 C6.15785,99.0696 5.51078,99.5774 4.96227,100.216 C4.41377,100.854 3.98953,101.581 3.68957,102.395 C3.3896,103.209 3.23962,104.053 3.23962,104.928 C3.23962,106.085 3.49673,107.167 4.01096,108.174 C4.52518,109.181 5.23224,109.993 6.13214,110.61 C7.03203,111.227 8.06477,111.535 9.23034,111.535 Z M9.26891,109.607 C8.45472,109.607 7.74123,109.391 7.12845,108.958 C6.51566,108.525 6.04001,107.955 5.70147,107.248 C5.36294,106.541 5.19368,105.78 5.19368,104.966 C5.19368,104.143 5.36508,103.357 5.7079,102.607 C6.05072,101.857 6.53066,101.244 7.14773,100.769 C7.7648,100.293 8.489,100.055 9.32033,100.055 C10.1859,100.055 10.9273,100.28 11.5444,100.73 C12.1614,101.18 12.6349,101.761 12.9649,102.472 C13.2949,103.183 13.4598,103.942 13.4598,104.748 C13.4598,105.553 13.2927,106.329 12.9585,107.074 C12.6242,107.82 12.1443,108.429 11.5186,108.9 C10.893,109.371 10.1431,109.607 9.26891,109.607 Z M24.5157,98.0883 C23.6158,98.0883 22.7845,98.2726 22.0217,98.6411 C21.2589,99.0096 20.5926,99.5089 20.0226,100.139 C19.4527,100.769 19.0113,101.489 18.6985,102.299 C18.3857,103.108 18.2293,103.95 18.2293,104.825 C18.2293,105.707 18.3857,106.549 18.6985,107.351 C19.0113,108.152 19.4506,108.866 20.0162,109.491 C20.5819,110.117 21.2418,110.612 21.996,110.976 C22.7502,111.34 23.5687,111.522 24.4514,111.522 C25.3085,111.522 26.1248,111.274 26.9004,110.777 C27.676,110.28 28.3467,109.723 28.9123,109.106 L28.9123,110.571 C28.9123,110.82 29.0002,111.032 29.1759,111.207 C29.3516,111.383 29.5637,111.471 29.8122,111.471 C30.0608,111.471 30.2729,111.383 30.4486,111.207 C30.6243,111.032 30.7121,110.82 30.7121,110.571 L30.7121,98.9496 C30.7121,98.7011 30.6243,98.489 30.4486,98.3133 C30.2729,98.1376 30.0608,98.0497 29.8122,98.0497 C29.5637,98.0497 29.3708,98.1376 29.2337,98.3133 C29.0966,98.489 29.028,98.7011 29.028,98.9496 L28.9123,100.569 C28.3638,99.9781 27.7232,99.4167 26.9904,98.8854 C26.2576,98.354 25.4327,98.0883 24.5157,98.0883 Z M28.9766,104.748 C28.9766,105.579 28.7709,106.365 28.3595,107.107 C27.9481,107.848 27.3996,108.448 26.714,108.906 C26.0284,109.365 25.2742,109.594 24.4514,109.594 C23.6372,109.594 22.9066,109.369 22.2595,108.919 C21.6125,108.469 21.1004,107.88 20.7233,107.152 C20.3462,106.423 20.1576,105.647 20.1576,104.825 C20.1576,103.993 20.3483,103.211 20.7297,102.479 C21.1111,101.746 21.6317,101.152 22.2917,100.698 C22.9516,100.244 23.6972,100.017 24.5285,100.017 C25.3513,100.017 26.0991,100.239 26.7719,100.685 C27.4446,101.131 27.9803,101.711 28.3788,102.427 C28.7773,103.143 28.9766,103.916 28.9766,104.748 Z M39.5311,111.535 C40.431,111.535 41.2409,111.295 41.9608,110.815 C42.6807,110.335 43.2849,109.847 43.7734,109.35 L43.8377,110.584 C43.8377,110.85 43.9213,111.077 44.0884,111.265 C44.2555,111.454 44.4719,111.548 44.7376,111.548 C45.0033,111.548 45.2304,111.454 45.419,111.265 C45.6075,111.077 45.7018,110.85 45.7018,110.584 L45.7018,94.3987 C45.7018,94.1331 45.6096,93.9059 45.4254,93.7174 C45.2411,93.5288 45.0119,93.4346 44.7376,93.4346 C44.4719,93.4346 44.2448,93.5288 44.0563,93.7174 C43.8677,93.9059 43.7734,94.1331 43.7734,94.3987 L43.7734,100.209 C43.2506,99.661 42.6421,99.1768 41.9479,98.7568 C41.2537,98.3369 40.4867,98.1269 39.6468,98.1269 C38.764,98.1269 37.9498,98.3154 37.2042,98.6925 C36.4586,99.0696 35.8115,99.5774 35.263,100.216 C34.7145,100.854 34.2903,101.581 33.9903,102.395 C33.6903,103.209 33.5403,104.053 33.5403,104.928 C33.5403,106.085 33.7975,107.167 34.3117,108.174 C34.8259,109.181 35.533,109.993 36.4329,110.61 C37.3328,111.227 38.3655,111.535 39.5311,111.535 Z M39.5696,109.607 C38.7555,109.607 38.042,109.391 37.4292,108.958 C36.8164,108.525 36.3407,107.955 36.0022,107.248 C35.6637,106.541 35.4944,105.78 35.4944,104.966 C35.4944,104.143 35.6658,103.357 36.0086,102.607 C36.3514,101.857 36.8314,101.244 37.4485,100.769 C38.0655,100.293 38.7897,100.055 39.6211,100.055 C40.4867,100.055 41.228,100.28 41.8451,100.73 C42.4622,101.18 42.9357,101.761 43.2656,102.472 C43.5956,103.183 43.7606,103.942 43.7606,104.748 C43.7606,105.553 43.5935,106.329 43.2592,107.074 C42.925,107.82 42.445,108.429 41.8194,108.9 C41.1937,109.371 40.4438,109.607 39.5696,109.607 Z M55.1892,111.522 C56.1577,111.522 57.0897,111.312 57.9853,110.893 C58.8809,110.473 59.6373,109.885 60.2544,109.131 C60.4086,108.943 60.4858,108.733 60.4858,108.501 C60.4858,108.236 60.3915,108.009 60.2029,107.82 C60.0144,107.631 59.7873,107.537 59.5216,107.537 C59.2045,107.537 58.9517,107.661 58.7631,107.91 C58.3432,108.433 57.8075,108.844 57.1561,109.144 C56.5048,109.444 55.8406,109.594 55.1635,109.594 C54.3665,109.594 53.6444,109.41 52.9973,109.041 C52.3503,108.673 51.8146,108.186 51.3904,107.582 C50.9662,106.978 50.6855,106.32 50.5484,105.609 L59.9073,105.609 C60.2844,105.609 60.5436,105.467 60.685,105.185 C60.8264,104.902 60.8971,104.563 60.8971,104.169 C60.8971,103.055 60.6207,102.041 60.0679,101.129 C59.5152,100.216 58.7824,99.4896 57.8696,98.9496 C56.9569,98.4097 55.9563,98.1397 54.8678,98.1397 C53.6851,98.1397 52.6138,98.444 51.6539,99.0525 C50.694,99.661 49.9334,100.464 49.3721,101.463 C48.8107,102.461 48.53,103.548 48.53,104.722 C48.53,105.956 48.8257,107.089 49.4171,108.122 C50.0084,109.155 50.8076,109.98 51.8146,110.597 C52.8217,111.214 53.9465,111.522 55.1892,111.522 Z M50.5741,103.706 C50.7198,103.046 50.9919,102.442 51.3904,101.894 C51.7889,101.345 52.2881,100.904 52.8881,100.569 C53.488,100.235 54.1522,100.068 54.8807,100.068 C55.5835,100.068 56.2263,100.231 56.809,100.557 C57.3918,100.882 57.8718,101.322 58.2489,101.874 C58.626,102.427 58.8531,103.038 58.9302,103.706 L50.5741,103.706 Z " fill="#24682c" fill-opacity="1.00" />		</g>	</svg>