<?xml version="1.0" encoding="utf-8" ?>	<!-- Generator: Assembly 2.4 - http://assemblyapp.co -->	<svg version="1.1" xmlns="http://www.w3.org/2000/svg" xmlns:xlink="http://www.w3.org/1999/xlink" width="500.00" height="500.00" viewBox="0 0 500.0 500.0">		<g id="document" transform="scale(1.6666666666666667 1.6666666666666667) translate(150.0 150.0)">			<g>				<path d="M8.32965e-07,71.0705 C47.6891,71.0705 86.2946,32.465 86.2946,-15.2241 C86.2946,-62.9133 47.6891,-101.519 8.32965e-07,-101.519 C-47.6891,-101.519 -86.2946,-62.9133 -86.2946,-15.2241 C-86.2946,32.465 -47.6891,71.0705 8.32965e-07,71.0705 Z " fill="#24682c" fill-opacity="1.00" />				<path d="M40.481,6.11979 L25.418,-17.095 L22.2281,-22.4114 C20.8105,-24.5379 18.5067,-25.9556 16.0257,-26.1329 C15.8485,-26.1329 15.6713,-26.1329 15.6713,-26.1329 L10.1777,-26.1329 C9.64607,-26.1329 9.11443,-26.6645 9.11443,-27.1961 L9.11443,-28.4366 C9.11443,-28.6138 9.11443,-28.791 9.11443,-28.9683 L-9.84729,-28.9683 C-9.84729,-28.9683 -9.84729,-28.9683 -9.84729,-28.791 L-9.84729,-27.3733 C-9.84729,-26.8417 -10.3789,-26.3101 -10.9106,-26.3101 L-12.3283,-26.3101 C-13.0371,-26.3101 -13.746,-26.4873 -14.4548,-26.4873 C-14.632,-26.4873 -14.9864,-26.4873 -15.1637,-26.4873 C-17.8218,-26.4873 -20.3028,-25.2468 -21.8977,-22.7658 L-25.2648,-17.4495 L-40.3278,5.58815 C-41.0367,6.65143 -40.6822,7.89191 -39.619,8.60076 L-29.6951,15.1576 C-29.3406,15.3348 -28.9862,15.512 -28.4546,15.512 C-27.7457,15.512 -27.0369,15.1576 -26.6825,14.626 L-20.3028,4.8793 C-20.3028,4.70209 -20.1256,4.70209 -20.1256,4.70209 C-19.9484,4.70209 -19.7712,4.8793 -19.7712,5.05652 L-19.7712,14.9804 C-18.5307,15.3348 -17.113,15.6893 -15.8725,16.2209 C-10.7333,17.993 -5.41698,21.0056 -2.04994,22.955 C-1.16388,23.4866 -0.455032,24.0182 0.0766048,24.1954 C0.43103,24.0182 0.962666,23.6638 1.67152,23.3094 C4.86134,21.3601 10.5321,18.3474 16.0257,16.3981 C17.2662,16.0437 18.5067,15.6893 19.57,15.3348 L19.57,5.05652 C19.57,4.8793 19.7472,4.70209 19.9244,4.70209 C20.1016,4.70209 20.1016,4.70209 20.1016,4.8793 L26.8357,15.1576 C27.1901,15.8665 27.8989,16.2209 28.6078,16.2209 C28.9622,16.2209 29.4939,16.0437 29.8483,15.8665 L39.7722,9.48682 C40.8354,8.42355 41.0127,7.00585 40.481,6.11979 Z M11.5954,-2.91804 C11.5954,-1.14592 10.1777,0.271782 8.40558,0.271782 L-8.96122,0.271782 C-10.7333,0.271782 -12.151,-1.14592 -12.151,-2.91804 L-12.151,-11.4242 C-12.151,-13.1964 -10.7333,-14.6141 -8.96122,-14.6141 L8.40558,-14.6141 C10.1777,-14.6141 11.5954,-13.1964 11.5954,-11.247 L11.5954,-2.91804 Z M-19.0623,64.7771 C-19.4168,65.6631 -18.8851,66.7264 -17.8218,66.7264 L-3.29043,66.7264 C-2.22716,66.7264 -1.51831,65.6631 -2.04994,64.7771 L-3.99928,60.3468 C-4.17649,59.8151 -4.17649,59.1063 -3.82207,58.5746 L-3.64485,58.2202 C-2.75879,57.1569 -2.40437,55.7392 -2.40437,54.3215 L-2.40437,27.2081 L-2.40437,26.322 C-2.75879,26.1448 -3.29043,25.7904 -3.64485,25.6131 C-4.53092,25.0815 -5.41698,24.5499 -6.48025,24.0182 C-10.3789,21.8917 -15.5181,19.2335 -20.1256,18.1702 L-20.1256,21.1828 L-20.1256,24.5499 L-20.1256,26.4992 L-20.1256,54.3215 C-20.1256,55.7392 -19.594,56.9797 -18.5307,57.8658 L-17.6446,58.5746 C-17.113,58.9291 -16.9358,59.6379 -17.2902,60.3468 L-19.0623,64.7771 Z M17.6206,57.8658 C18.6839,56.9797 19.2155,55.562 19.2155,54.3215 L19.2155,26.6764 L19.2155,24.7271 L19.2155,22.2461 C19.3928,21.8917 19.3928,21.5373 19.3928,21.1828 L19.3928,18.3474 L19.2155,18.3474 C14.7852,19.5879 9.82328,22.0689 6.10182,24.0182 C5.03855,24.5499 4.15249,25.0815 3.26643,25.6131 C2.55758,26.1448 1.84873,26.4992 1.31709,26.6764 L1.31709,27.2081 L1.31709,54.3215 C1.31709,55.7392 1.67152,57.1569 2.55758,58.2202 L2.73479,58.5746 C3.08921,59.1063 3.26643,59.8151 2.912,60.3468 L0.962666,64.7771 C0.608242,65.6631 1.13988,66.7264 2.20315,66.7264 L16.7346,66.7264 C17.7978,66.7264 18.5067,65.6631 17.9751,64.7771 L16.0257,60.3468 C15.8485,59.8151 15.8485,59.1063 16.3801,58.5746 L17.6206,57.8658 Z M48.4556,16.7525 L44.7341,14.2716 C44.2025,13.9171 43.8481,13.2083 43.8481,12.4994 L43.8481,11.4362 C43.8481,10.9045 43.4936,10.3729 42.962,10.3729 C42.6076,10.1957 42.2531,10.3729 42.0759,10.5501 L30.2027,18.1702 C29.8483,18.3474 29.6711,18.7019 29.6711,19.0563 C29.6711,19.4107 29.8483,19.9424 30.3799,19.9424 L31.7976,20.2968 C32.5065,20.474 32.8609,21.0056 33.0381,21.7145 L34.1014,25.9676 C34.2786,27.0308 35.5191,27.3853 36.4051,26.8536 L48.2784,19.2335 C49.1644,18.5247 49.1644,17.2842 48.4556,16.7525 Z M-48.3024,18.8791 L-36.4291,26.4992 C-35.5431,27.0308 -34.3026,26.6764 -34.1254,25.6131 L-33.0621,21.3601 C-32.8849,20.6512 -32.3533,20.1196 -31.8216,19.9424 L-30.4039,19.5879 C-29.8723,19.4107 -29.6951,18.8791 -29.6951,18.3474 C-29.6951,18.1702 -29.8723,17.8158 -30.0495,17.8158 L-41.9227,10.1957 C-42.0999,10.0185 -42.4544,10.0185 -42.6316,10.0185 C-43.1632,10.0185 -43.6948,10.5501 -43.6948,11.0817 L-43.6948,12.145 C-43.6948,12.8539 -44.0493,13.3855 -44.5809,13.7399 L-48.3024,16.2209 C-49.1884,17.107 -49.1884,18.3474 -48.3024,18.8791 Z M-22.961,-39.9554 C-22.7838,-39.9554 -22.4294,-39.9554 -22.2522,-39.9554 C-18.7079,-30.9176 -10.0245,-24.5379 0.253817,-24.5379 C10.5321,-24.5379 19.2155,-30.9176 22.7598,-39.9554 C22.937,-39.9554 22.937,-39.9554 23.1142,-39.9554 C26.304,-39.9554 28.9622,-43.8541 28.9622,-48.6388 C28.9622,-52.5375 27.1901,-55.9045 24.8863,-56.9678 L24.8863,-68.1322 C26.4812,-68.6638 27.7217,-70.2587 27.7217,-72.0309 C27.7217,-74.3346 25.9496,-76.1067 23.6458,-76.1067 C21.3421,-76.1067 19.57,-74.3346 19.57,-72.0309 C19.57,-70.2587 20.8105,-68.6638 22.4054,-68.1322 L22.4054,-58.2083 C18.6839,-66.7145 10.1777,-72.7397 0.253817,-72.7397 C-10.0245,-72.7397 -18.7079,-66.3601 -22.2522,-57.3222 C-22.4294,-57.3222 -22.7838,-57.3222 -22.961,-57.3222 C-26.1508,-57.3222 -28.809,-53.4236 -28.809,-48.6388 C-28.809,-43.8541 -26.1508,-39.9554 -22.961,-39.9554 Z M-16.4041,-57.6767 C-5.94862,-62.4614 6.10182,-62.4614 16.5574,-57.6767 C17.9751,-55.0185 18.8611,-51.8286 18.8611,-48.6388 C18.8611,-45.8034 18.1523,-43.1452 17.089,-40.6643 C6.27904,-35.5251 -6.30304,-35.5251 -17.113,-40.6643 C-18.1763,-43.1452 -18.8851,-45.8034 -18.8851,-48.6388 C-18.7079,-51.8286 -17.9991,-55.0185 -16.4041,-57.6767 Z " fill="#ffffff" fill-opacity="1.00" />				<path d="M-39.1505,101.332 L-36.7189,101.332 L-36.7189,83.2821 L-39.1505,83.2821 L-39.1505,101.332 Z M-29.3892,81.4701 L-29.3892,90.6001 C-29.545,90.304 -29.7048,90.0546 -29.8685,89.8519 C-30.0321,89.6493 -30.1919,89.4934 -30.3478,89.3843 C-30.6673,89.1505 -31.0725,89.0336 -31.5635,89.0336 C-32.0779,89.0336 -32.5221,89.1525 -32.8962,89.3902 C-33.2703,89.6279 -33.5762,89.9961 -33.8139,90.4949 C-34.0516,90.9937 -34.2289,91.6289 -34.3458,92.4004 C-34.4627,93.172 -34.5212,94.0877 -34.5212,95.1476 C-34.5212,97.3454 -34.2874,98.9567 -33.8197,99.9815 C-33.3521,101.006 -32.6196,101.519 -31.622,101.519 C-31.092,101.519 -30.6673,101.394 -30.3478,101.145 C-30.0282,100.895 -29.7087,100.439 -29.3892,99.7769 L-29.3892,101.332 L-27.1563,101.332 L-27.1563,81.4701 L-29.3892,81.4701 Z M-32.2065,95.2294 C-32.2065,93.6474 -32.0974,92.568 -31.8792,91.9912 C-31.6532,91.3678 -31.2752,91.056 -30.7452,91.056 C-30.2464,91.056 -29.884,91.3834 -29.658,92.038 C-29.432,92.7394 -29.319,93.8227 -29.319,95.2879 C-29.319,96.7453 -29.432,97.8247 -29.658,98.5261 C-29.884,99.1807 -30.2464,99.508 -30.7452,99.508 C-31.2908,99.508 -31.6726,99.1924 -31.8909,98.5611 C-32.1013,97.9299 -32.2065,96.8193 -32.2065,95.2294 Z M-19.9435,97.2518 C-19.9435,98.8183 -20.4111,99.6016 -21.3463,99.6016 C-22.375,99.6016 -22.8894,98.3079 -22.8894,95.7204 L-17.7808,95.7204 L-17.7808,95.4399 C-17.7808,91.169 -18.9927,89.0336 -21.4164,89.0336 C-22.6634,89.0336 -23.585,89.548 -24.1812,90.5767 C-24.7774,91.6055 -25.0755,93.1875 -25.0755,95.323 C-25.0755,96.3985 -25.0034,97.3259 -24.8592,98.1052 C-24.715,98.8846 -24.491,99.5275 -24.187,100.034 C-23.8831,100.541 -23.4992,100.915 -23.0355,101.156 C-22.5718,101.398 -22.0165,101.519 -21.3697,101.519 C-19.1953,101.519 -18.0263,100.096 -17.8626,97.2518 L-19.9435,97.2518 Z M-22.8894,94.1072 C-22.7959,92.8368 -22.6517,92.0029 -22.4569,91.6055 C-22.262,91.1612 -21.9347,90.9391 -21.4749,90.9391 C-21.0229,90.9391 -20.6955,91.1612 -20.4929,91.6055 C-20.2981,92.0029 -20.1539,92.8368 -20.0604,94.1072 L-22.8894,94.1072 Z M-15.7935,101.332 L-13.5606,101.332 L-13.5606,93.511 C-13.5606,93.0434 -13.5353,92.6498 -13.4846,92.3303 C-13.434,92.0107 -13.3541,91.7516 -13.245,91.5529 C-13.1359,91.3541 -12.9937,91.21 -12.8183,91.1203 C-12.6429,91.0307 -12.4267,90.9859 -12.1695,90.9859 C-11.6941,90.9859 -11.359,91.1573 -11.1641,91.5003 C-10.9693,91.8432 -10.8719,92.4238 -10.8719,93.2421 L-10.8602,101.332 L-8.62737,101.332 L-8.62737,92.7277 C-8.62737,91.473 -8.74427,90.6274 -8.97807,90.191 C-9.39892,89.4194 -10.1003,89.0336 -11.0823,89.0336 C-12.0955,89.0336 -12.9216,89.5636 -13.5606,90.6235 L-13.5606,89.2324 L-15.7935,89.2324 L-15.7935,101.332 Z M-5.83341,89.2324 L-7.06088,89.2324 L-7.06088,91.0093 L-5.83341,91.0093 L-5.83341,101.332 L-3.60058,101.332 L-3.60058,91.0093 L-2.3848,91.0093 L-2.3848,89.2324 L-3.60058,89.2324 L-3.60058,85.8422 L-5.83341,85.8422 L-5.83341,89.2324 Z M-0.783243,101.332 L1.46127,101.332 L1.46127,89.2324 L-0.783243,89.2324 L-0.783243,101.332 Z M0.268875,84.0887 C-0.136386,84.0887 -0.498782,84.2368 -0.818314,84.5329 C-1.11447,84.8291 -1.26254,85.1798 -1.26254,85.585 C-1.26254,86.0215 -1.11836,86.3839 -0.830004,86.6722 C-0.533852,86.9684 -0.175353,87.1164 0.245494,87.1164 C0.666341,87.1164 1.02484,86.9684 1.32099,86.6722 C1.61714,86.3761 1.76522,86.0176 1.76522,85.5967 C1.76522,85.1837 1.61714,84.8291 1.32099,84.5329 C1.02484,84.2368 0.674135,84.0887 0.268875,84.0887 Z M8.65075,81.4701 L8.65075,90.6001 C8.49488,90.304 8.33511,90.0546 8.17145,89.8519 C8.00779,89.6493 7.84802,89.4934 7.69215,89.3843 C7.37262,89.1505 6.96736,89.0336 6.47637,89.0336 C5.962,89.0336 5.51777,89.1525 5.14369,89.3902 C4.7696,89.6279 4.46371,89.9961 4.22601,90.4949 C3.98831,90.9937 3.811,91.6289 3.6941,92.4004 C3.5772,93.172 3.51875,94.0877 3.51875,95.1476 C3.51875,97.3454 3.75255,98.9567 4.22016,99.9815 C4.68777,101.006 5.42036,101.519 6.41792,101.519 C6.94787,101.519 7.37262,101.394 7.69215,101.145 C8.01168,100.895 8.33121,100.439 8.65075,99.7769 L8.65075,101.332 L10.8836,101.332 L10.8836,81.4701 L8.65075,81.4701 Z M5.83341,95.2294 C5.83341,93.6474 5.94252,92.568 6.16073,91.9912 C6.38675,91.3678 6.76473,91.056 7.29468,91.056 C7.79347,91.056 8.15586,91.3834 8.38187,92.038 C8.60788,92.7394 8.72089,93.8227 8.72089,95.2879 C8.72089,96.7453 8.60788,97.8247 8.38187,98.5261 C8.15586,99.1807 7.79347,99.508 7.29468,99.508 C6.74914,99.508 6.36726,99.1924 6.14904,98.5611 C5.93862,97.9299 5.83341,96.8193 5.83341,95.2294 Z M18.0964,89.2324 L18.0964,90.6001 C17.5353,89.5558 16.7949,89.0336 15.8753,89.0336 C14.8699,89.0336 14.1334,89.5266 13.6658,90.5124 C13.1982,91.4983 12.9644,93.0395 12.9644,95.1359 C12.9644,97.3337 13.1982,98.9469 13.6658,99.9757 C14.1334,101.004 14.8699,101.519 15.8753,101.519 C16.3975,101.519 16.8183,101.394 17.1378,101.145 C17.4574,100.895 17.7769,100.439 18.0964,99.7769 L18.0964,101.332 L20.3293,101.332 L20.3293,89.2324 L18.0964,89.2324 Z M15.2791,95.2294 C15.2791,93.6474 15.3882,92.568 15.6064,91.9912 C15.8324,91.3678 16.2104,91.056 16.7404,91.056 C17.2391,91.056 17.6015,91.3834 17.8276,92.038 C18.0536,92.7394 18.1666,93.8227 18.1666,95.2879 C18.1666,96.7453 18.0536,97.8247 17.8276,98.5261 C17.6015,99.1807 17.2391,99.508 16.7404,99.508 C16.1948,99.508 15.8129,99.1924 15.5947,98.5611 C15.3843,97.9299 15.2791,96.8193 15.2791,95.2294 Z M27.5421,81.4701 L27.5421,90.6001 C27.3862,90.304 27.2265,90.0546 27.0628,89.8519 C26.8991,89.6493 26.7394,89.4934 26.5835,89.3843 C26.264,89.1505 25.8587,89.0336 25.3677,89.0336 C24.8534,89.0336 24.4091,89.1525 24.035,89.3902 C23.661,89.6279 23.3551,89.9961 23.1174,90.4949 C22.8797,90.9937 22.7024,91.6289 22.5855,92.4004 C22.4686,93.172 22.4101,94.0877 22.4101,95.1476 C22.4101,97.3454 22.6439,98.9567 23.1115,99.9815 C23.5791,101.006 24.3117,101.519 25.3093,101.519 C25.8392,101.519 26.264,101.394 26.5835,101.145 C26.903,100.895 27.2226,100.439 27.5421,99.7769 L27.5421,101.332 L29.7749,101.332 L29.7749,81.4701 L27.5421,81.4701 Z M24.7248,95.2294 C24.7248,93.6474 24.8339,92.568 25.0521,91.9912 C25.2781,91.3678 25.6561,91.056 26.186,91.056 C26.6848,91.056 27.0472,91.3834 27.2732,92.038 C27.4992,92.7394 27.6122,93.8227 27.6122,95.2879 C27.6122,96.7453 27.4992,97.8247 27.2732,98.5261 C27.0472,99.1807 26.6848,99.508 26.186,99.508 C25.6405,99.508 25.2586,99.1924 25.0404,98.5611 C24.83,97.9299 24.7248,96.8193 24.7248,95.2294 Z M36.9878,97.2518 C36.9878,98.8183 36.5202,99.6016 35.585,99.6016 C34.5562,99.6016 34.0419,98.3079 34.0419,95.7204 L39.1505,95.7204 L39.1505,95.4399 C39.1505,91.169 37.9386,89.0336 35.5148,89.0336 C34.2679,89.0336 33.3463,89.548 32.7501,90.5767 C32.1539,91.6055 31.8558,93.1875 31.8558,95.323 C31.8558,96.3985 31.9279,97.3259 32.0721,98.1052 C32.2162,98.8846 32.4403,99.5275 32.7442,100.034 C33.0482,100.541 33.432,100.915 33.8957,101.156 C34.3594,101.398 34.9147,101.519 35.5616,101.519 C37.736,101.519 38.905,100.096 39.0686,97.2518 L36.9878,97.2518 Z M34.0419,94.1072 C34.1354,92.8368 34.2796,92.0029 34.4744,91.6055 C34.6692,91.1612 34.9966,90.9391 35.4564,90.9391 C35.9084,90.9391 36.2357,91.1612 36.4383,91.6055 C36.6332,92.0029 36.7774,92.8368 36.8709,94.1072 L34.0419,94.1072 Z " fill="#24682c" fill-opacity="1.00" />			</g>		</g>	</svg>