<?xml version="1.0" encoding="utf-8" ?>	<!-- Generator: Assembly 2.4 - http://assemblyapp.co -->	<svg version="1.1" xmlns="http://www.w3.org/2000/svg" xmlns:xlink="http://www.w3.org/1999/xlink" width="800.00" height="450.00" viewBox="0 0 800.0 450.0">		<g id="document" transform="scale(2.6666666666666665 2.6666666666666665) translate(150.0 84.37499937135726)">			<g>				<path d="M-104.565,19.1419 L-104.565,-1.49926 L-1.58026,-1.49926 L-1.58026,-13.2532 " fill="none" stroke-width="3.05" stroke="#000000" stroke-linecap="square" stroke-linejoin="miter" />				<path d="M-1.48904,20.6676 L-1.48904,-7.86902 " fill="none" stroke-width="2.62" stroke="#000000" stroke-linecap="square" stroke-linejoin="miter" />				<path d="M101.495,19.1419 L101.495,-1.49926 L-1.48904,-1.49926 L-1.48904,-13.2532 " fill="none" stroke-width="3.05" stroke="#000000" stroke-linecap="square" stroke-linejoin="miter" />				<defs>					<filter id="ktbi6uGu" x="-8.01%" y="-23.74%" width="124.02%" height="171.22%" filterUnits="objectBoundingBox">						<feOffset dx="0.00" dy="0.00" in="SourceAlpha" result="shadowOffsetOuter1" />						<feGaussianBlur stdDeviation="2.58" in="shadowOffsetOuter1" result="shadowBlurOuter1" />						<feFlood flood-color="#000000" flood-opacity="0.34" />						<feComposite in2="shadowBlurOuter1" operator="in" />						<feMerge>							<feMergeNode />							<feMergeNode in="SourceGraphic" />						</feMerge>					</filter>				</defs>				<path d="M29.0835,40.8981 C30.8266,40.8981 32.2469,39.4778 32.2469,37.7347 L32.2469,22.3053 C32.2469,20.5622 30.8266,19.1419 29.0835,19.1419 L-29.0835,19.1419 C-30.8266,19.1419 -32.2469,20.5622 -32.2469,22.3053 L-32.2469,37.7347 C-32.2469,39.4778 -30.8266,40.8981 -29.0835,40.8981 L29.0835,40.8981 Z " fill="#bfef45" fill-opacity="1.00" filter="url(#ktbi6uGu)" />				<defs>					<filter id="fcvX9E8F" x="-8.01%" y="-23.74%" width="124.02%" height="171.22%" filterUnits="objectBoundingBox">						<feOffset dx="0.00" dy="0.00" in="SourceAlpha" result="shadowOffsetOuter1" />						<feGaussianBlur stdDeviation="2.58" in="shadowOffsetOuter1" result="shadowBlurOuter1" />						<feFlood flood-color="#000000" flood-opacity="0.34" />						<feComposite in2="shadowBlurOuter1" operator="in" />						<feMerge>							<feMergeNode />							<feMergeNode in="SourceGraphic" />						</feMerge>					</filter>				</defs>				<path d="M133.739,40.8981 C135.483,40.8981 136.903,39.4778 136.903,37.7347 L136.903,22.3053 C136.903,20.5622 135.483,19.1419 133.739,19.1419 L75.5724,19.1419 C73.8293,19.1419 72.409,20.5622 72.409,22.3053 L72.409,37.7347 C72.409,39.4778 73.8293,40.8981 75.5724,40.8981 L133.739,40.8981 Z " fill="#bfef45" fill-opacity="1.00" filter="url(#fcvX9E8F)" />				<defs>					<filter id="q9nfQfTs" x="-8.01%" y="-23.74%" width="124.02%" height="171.22%" filterUnits="objectBoundingBox">						<feOffset dx="0.00" dy="0.00" in="SourceAlpha" result="shadowOffsetOuter1" />						<feGaussianBlur stdDeviation="2.58" in="shadowOffsetOuter1" result="shadowBlurOuter1" />						<feFlood flood-color="#000000" flood-opacity="0.34" />						<feComposite in2="shadowBlurOuter1" operator="in" />						<feMerge>							<feMergeNode />							<feMergeNode in="SourceGraphic" />						</feMerge>					</filter>				</defs>				<path d="M-75.5724,40.8981 C-73.8293,40.8981 -72.409,39.4778 -72.409,37.7347 L-72.409,22.3053 C-72.409,20.5622 -73.8293,19.1419 -75.5724,19.1419 L-133.739,19.1419 C-135.483,19.1419 -136.903,20.5622 -136.903,22.3053 L-136.903,37.7347 C-136.903,39.4778 -135.483,40.8981 -133.739,40.8981 L-75.5724,40.8981 Z " fill="#bfef45" fill-opacity="1.00" filter="url(#q9nfQfTs)" />				<g>					<defs>						<filter id="712PUA5E" x="-8.01%" y="-23.74%" width="124.02%" height="171.22%" filterUnits="objectBoundingBox">							<feOffset dx="0.00" dy="0.00" in="SourceAlpha" result="shadowOffsetOuter1" />							<feGaussianBlur stdDeviation="3.22" in="shadowOffsetOuter1" result="shadowBlurOuter1" />							<feFlood flood-color="#000000" flood-opacity="0.23" />							<feComposite in2="shadowBlurOuter1" operator="in" />							<feMerge>								<feMergeNode />								<feMergeNode in="SourceGraphic" />							</feMerge>						</filter>					</defs>					<path d="M36.2159,-13.8065 C38.3865,-13.8065 40.1551,-15.575 40.1551,-17.7456 L40.1551,-36.9589 C40.1551,-39.1295 38.3865,-40.8981 36.2159,-40.8981 L-36.2159,-40.8981 C-38.3865,-40.8981 -40.1551,-39.1295 -40.1551,-36.9589 L-40.1551,-17.7456 C-40.1551,-15.575 -38.3865,-13.8065 -36.2159,-13.8065 L36.2159,-13.8065 Z " fill="#e1f9a4" fill-opacity="1.00" filter="url(#712PUA5E)" />					<defs>						<filter id="qm4wEp1p" x="-2.91%" y="-9.48%" width="108.74%" height="128.45%" filterUnits="objectBoundingBox">							<feOffset dx="0.00" dy="0.00" in="SourceAlpha" result="shadowOffsetOuter1" />							<feGaussianBlur stdDeviation="0.81" in="shadowOffsetOuter1" result="shadowBlurOuter1" />							<feFlood flood-color="#000000" flood-opacity="0.23" />							<feComposite in2="shadowBlurOuter1" operator="in" />							<feMerge>								<feMergeNode />								<feMergeNode in="SourceGraphic" />							</feMerge>						</filter>					</defs>					<path d="M-24.9496,-29.5852 C-24.9496,-29.4872 -24.9148,-29.4034 -24.8452,-29.3338 C-24.7756,-29.2643 -24.6918,-29.2295 -24.5938,-29.2295 C-24.4958,-29.2295 -24.412,-29.2643 -24.3424,-29.3338 C-24.2729,-29.4034 -24.2381,-29.4872 -24.2381,-29.5852 L-24.2381,-34.2431 L-21.9281,-30.4675 C-21.8585,-30.3536 -21.7573,-30.2967 -21.6245,-30.2967 C-21.4917,-30.2967 -21.3905,-30.3536 -21.321,-30.4675 L-19.0015,-34.2479 L-19.0015,-29.5663 C-19.0015,-29.4682 -18.9667,-29.3844 -18.8972,-29.3149 C-18.8276,-29.2453 -18.7438,-29.2105 -18.6458,-29.2105 C-18.5477,-29.2105 -18.4639,-29.2453 -18.3944,-29.3149 C-18.3248,-29.3844 -18.29,-29.4682 -18.29,-29.5663 L-18.29,-35.5096 C-18.29,-35.6076 -18.3248,-35.6914 -18.3944,-35.761 C-18.4639,-35.8305 -18.5477,-35.8653 -18.6458,-35.8653 C-18.7786,-35.8653 -18.8798,-35.8084 -18.9493,-35.6946 L-21.6245,-31.3355 L-24.2713,-35.6661 C-24.3029,-35.7198 -24.3488,-35.7673 -24.4088,-35.8084 C-24.4689,-35.8495 -24.5306,-35.8701 -24.5938,-35.8701 C-24.6982,-35.8701 -24.7835,-35.8329 -24.85,-35.7586 C-24.9164,-35.6843 -24.9496,-35.6028 -24.9496,-35.5143 L-24.9496,-29.5852 Z M-14.7895,-29.2058 C-15.248,-29.2058 -15.663,-29.3196 -16.0346,-29.5473 C-16.4062,-29.775 -16.701,-30.0793 -16.9192,-30.4604 C-17.1374,-30.8414 -17.2465,-31.2596 -17.2465,-31.715 C-17.2465,-32.1482 -17.1429,-32.549 -16.9358,-32.9174 C-16.7287,-33.2858 -16.4481,-33.5822 -16.0939,-33.8067 C-15.7397,-34.0312 -15.3445,-34.1435 -14.9081,-34.1435 C-14.5065,-34.1435 -14.1373,-34.0439 -13.8005,-33.8447 C-13.4638,-33.6455 -13.1934,-33.3775 -12.9894,-33.0407 C-12.7855,-32.7039 -12.6835,-32.33 -12.6835,-31.9189 C-12.6835,-31.7735 -12.7096,-31.6485 -12.7617,-31.5442 C-12.8139,-31.4398 -12.9096,-31.3877 -13.0487,-31.3877 L-16.5018,-31.3877 C-16.4512,-31.1252 -16.3477,-30.8825 -16.1911,-30.6596 C-16.0346,-30.4366 -15.837,-30.2572 -15.5982,-30.1212 C-15.3595,-29.9852 -15.0931,-29.9173 -14.799,-29.9173 C-14.5492,-29.9173 -14.3041,-29.9726 -14.0638,-30.0833 C-13.8234,-30.1939 -13.6258,-30.3457 -13.4709,-30.5386 C-13.4013,-30.6303 -13.308,-30.6762 -13.191,-30.6762 C-13.093,-30.6762 -13.0092,-30.6414 -12.9396,-30.5718 C-12.8701,-30.5023 -12.8353,-30.4185 -12.8353,-30.3204 C-12.8353,-30.2351 -12.8637,-30.1576 -12.9206,-30.088 C-13.1483,-29.8097 -13.4274,-29.5931 -13.7578,-29.4382 C-14.0883,-29.2832 -14.4322,-29.2058 -14.7895,-29.2058 Z M-13.4092,-32.0897 C-13.4377,-32.3363 -13.5215,-32.5616 -13.6606,-32.7656 C-13.7997,-32.9695 -13.9768,-33.1316 -14.1918,-33.2518 C-14.4069,-33.3719 -14.644,-33.432 -14.9033,-33.432 C-15.1721,-33.432 -15.4172,-33.3704 -15.6385,-33.247 C-15.8599,-33.1237 -16.0441,-32.9609 -16.1911,-32.7585 C-16.3382,-32.5561 -16.4386,-32.3332 -16.4923,-32.0897 L-13.4092,-32.0897 Z M-9.52447,-29.201 C-9.19244,-29.201 -8.89362,-29.2896 -8.628,-29.4666 C-8.36237,-29.6437 -8.13944,-29.824 -7.9592,-30.0074 L-7.93548,-29.552 C-7.93548,-29.454 -7.90465,-29.3702 -7.84299,-29.3006 C-7.78132,-29.2311 -7.70148,-29.1963 -7.60345,-29.1963 C-7.50542,-29.1963 -7.42163,-29.2311 -7.35206,-29.3006 C-7.28249,-29.3702 -7.24771,-29.454 -7.24771,-29.552 L-7.24771,-35.5238 C-7.24771,-35.6218 -7.2817,-35.7056 -7.34969,-35.7752 C-7.41767,-35.8448 -7.50226,-35.8795 -7.60345,-35.8795 C-7.70148,-35.8795 -7.78528,-35.8448 -7.85484,-35.7752 C-7.92441,-35.7056 -7.9592,-35.6218 -7.9592,-35.5238 L-7.9592,-33.3798 C-8.15209,-33.5822 -8.3766,-33.7609 -8.63274,-33.9158 C-8.88888,-34.0708 -9.17189,-34.1482 -9.48178,-34.1482 C-9.80749,-34.1482 -10.1079,-34.0787 -10.383,-33.9395 C-10.6581,-33.8004 -10.8969,-33.613 -11.0992,-33.3775 C-11.3016,-33.1419 -11.4581,-32.8739 -11.5688,-32.5735 C-11.6795,-32.2731 -11.7348,-31.9616 -11.7348,-31.6391 C-11.7348,-31.2122 -11.64,-30.8129 -11.4502,-30.4414 C-11.2605,-30.0698 -10.9996,-29.7702 -10.6676,-29.5425 C-10.3356,-29.3149 -9.95453,-29.201 -9.52447,-29.201 Z M-9.51024,-29.9125 C-9.81065,-29.9125 -10.0739,-29.9924 -10.3,-30.152 C-10.5261,-30.3117 -10.7016,-30.522 -10.8265,-30.7829 C-10.9514,-31.0438 -11.0139,-31.3244 -11.0139,-31.6248 C-11.0139,-31.9284 -10.9506,-32.2185 -10.8241,-32.4952 C-10.6976,-32.7719 -10.5206,-32.998 -10.2929,-33.1735 C-10.0652,-33.349 -9.798,-33.4368 -9.49127,-33.4368 C-9.17189,-33.4368 -8.89836,-33.3538 -8.67068,-33.1877 C-8.44301,-33.0217 -8.2683,-32.8075 -8.14655,-32.545 C-8.02481,-32.2826 -7.96394,-32.0027 -7.96394,-31.7055 C-7.96394,-31.4082 -8.0256,-31.122 -8.14893,-30.8469 C-8.27225,-30.5718 -8.44933,-30.3473 -8.68017,-30.1734 C-8.91101,-29.9995 -9.1877,-29.9125 -9.51024,-29.9125 Z M-5.69192,-34.8835 C-5.55278,-34.8835 -5.43262,-34.9325 -5.33143,-35.0305 C-5.23024,-35.1285 -5.17964,-35.2471 -5.17964,-35.3862 C-5.17964,-35.5254 -5.23024,-35.644 -5.33143,-35.742 C-5.43262,-35.84 -5.55278,-35.889 -5.69192,-35.889 C-5.82789,-35.889 -5.94726,-35.84 -6.05003,-35.742 C-6.1528,-35.644 -6.20419,-35.5254 -6.20419,-35.3862 C-6.20419,-35.2471 -6.1528,-35.1285 -6.05003,-35.0305 C-5.94726,-34.9325 -5.82789,-34.8835 -5.69192,-34.8835 Z M-6.02869,-29.552 C-6.02869,-29.454 -5.9939,-29.3694 -5.92434,-29.2983 C-5.85477,-29.2271 -5.77097,-29.1915 -5.67294,-29.1915 C-5.57492,-29.1915 -5.49112,-29.2263 -5.42155,-29.2959 C-5.35198,-29.3655 -5.3172,-29.4493 -5.3172,-29.5473 L-5.32668,-33.802 C-5.32668,-33.9095 -5.36305,-33.9965 -5.43578,-34.0629 C-5.50851,-34.1293 -5.60021,-34.1625 -5.71089,-34.1625 C-5.77729,-34.1625 -5.84844,-34.1316 -5.92434,-34.07 C-6.00023,-34.0083 -6.03817,-33.9364 -6.03817,-33.8542 L-6.02869,-29.552 Z M-1.92576,-29.201 C-1.59374,-29.201 -1.29491,-29.2896 -1.02929,-29.4666 C-0.763665,-29.6437 -0.540732,-29.824 -0.360488,-30.0074 L-0.336772,-29.552 C-0.336772,-29.454 -0.30594,-29.3702 -0.244278,-29.3006 C-0.182616,-29.2311 -0.102771,-29.1963 -0.00474326,-29.1963 C0.0932842,-29.1963 0.177082,-29.2311 0.24665,-29.3006 C0.316218,-29.3702 0.351001,-29.454 0.351001,-29.552 L0.351001,-35.5238 C0.351001,-35.6218 0.317008,-35.7056 0.249021,-35.7752 C0.181035,-35.8448 0.0964463,-35.8795 -0.00474326,-35.8795 C-0.102771,-35.8795 -0.186568,-35.8448 -0.256136,-35.7752 C-0.325704,-35.7056 -0.360488,-35.6218 -0.360488,-35.5238 L-0.360488,-33.3798 C-0.553381,-33.5822 -0.777895,-33.7609 -1.03403,-33.9158 C-1.29017,-34.0708 -1.57318,-34.1482 -1.88308,-34.1482 C-2.20878,-34.1482 -2.50919,-34.0787 -2.7843,-33.9395 C-3.0594,-33.8004 -3.29815,-33.613 -3.50053,-33.3775 C-3.70291,-33.1419 -3.85944,-32.8739 -3.97011,-32.5735 C-4.08079,-32.2731 -4.13613,-31.9616 -4.13613,-31.6391 C-4.13613,-31.2122 -4.04126,-30.8129 -3.85153,-30.4414 C-3.6618,-30.0698 -3.40092,-29.7702 -3.06889,-29.5425 C-2.73686,-29.3149 -2.35582,-29.201 -1.92576,-29.201 Z M-1.91154,-29.9125 C-2.21194,-29.9125 -2.47519,-29.9924 -2.70129,-30.152 C-2.92738,-30.3117 -3.10288,-30.522 -3.22779,-30.7829 C-3.3527,-31.0438 -3.41515,-31.3244 -3.41515,-31.6248 C-3.41515,-31.9284 -3.35191,-32.2185 -3.22542,-32.4952 C-3.09893,-32.7719 -2.92185,-32.998 -2.69417,-33.1735 C-2.4665,-33.349 -2.19929,-33.4368 -1.89256,-33.4368 C-1.57318,-33.4368 -1.29965,-33.3538 -1.07198,-33.1877 C-0.844301,-33.0217 -0.669591,-32.8075 -0.547847,-32.545 C-0.426103,-32.2826 -0.365231,-32.0027 -0.365231,-31.7055 C-0.365231,-31.4082 -0.426894,-31.122 -0.550219,-30.8469 C-0.673543,-30.5718 -0.850625,-30.3473 -1.08146,-30.1734 C-1.3123,-29.9995 -1.58899,-29.9125 -1.91154,-29.9125 Z M3.71397,-34.1625 C3.38195,-34.1625 3.07522,-34.0945 2.79378,-33.9585 C2.51235,-33.8225 2.26649,-33.6383 2.0562,-33.4059 C1.84592,-33.1735 1.68307,-32.9079 1.56765,-32.6091 C1.45223,-32.3102 1.39452,-31.9995 1.39452,-31.677 C1.39452,-31.3513 1.45223,-31.0406 1.56765,-30.745 C1.68307,-30.4493 1.84513,-30.186 2.05383,-29.9552 C2.26254,-29.7244 2.50602,-29.5417 2.7843,-29.4074 C3.06257,-29.273 3.36455,-29.2058 3.69026,-29.2058 C4.00648,-29.2058 4.30767,-29.2975 4.59385,-29.4809 C4.88003,-29.6643 5.12747,-29.8698 5.33617,-30.0975 L5.33617,-29.5568 C5.33617,-29.4651 5.36858,-29.3868 5.43341,-29.322 C5.49823,-29.2572 5.5765,-29.2247 5.6682,-29.2247 C5.7599,-29.2247 5.83817,-29.2572 5.90299,-29.322 C5.96782,-29.3868 6.00023,-29.4651 6.00023,-29.5568 L6.00023,-33.8447 C6.00023,-33.9364 5.96782,-34.0146 5.90299,-34.0795 C5.83817,-34.1443 5.7599,-34.1767 5.6682,-34.1767 C5.5765,-34.1767 5.50535,-34.1443 5.45475,-34.0795 C5.40416,-34.0146 5.37886,-33.9364 5.37886,-33.8447 L5.33617,-33.247 C5.13379,-33.4652 4.89742,-33.6723 4.62705,-33.8684 C4.35669,-34.0644 4.05233,-34.1625 3.71397,-34.1625 Z M5.35989,-31.7055 C5.35989,-31.3987 5.284,-31.1086 5.13221,-30.8351 C4.98043,-30.5615 4.77805,-30.3402 4.52507,-30.171 C4.2721,-30.0018 3.99383,-29.9173 3.69026,-29.9173 C3.38985,-29.9173 3.12028,-30.0003 2.88153,-30.1663 C2.64279,-30.3323 2.45385,-30.5497 2.31471,-30.8185 C2.17558,-31.0873 2.10601,-31.3734 2.10601,-31.677 C2.10601,-31.9837 2.17637,-32.2723 2.31708,-32.5427 C2.4578,-32.813 2.6499,-33.032 2.89339,-33.1996 C3.13688,-33.3672 3.41199,-33.451 3.71872,-33.451 C4.02229,-33.451 4.29819,-33.3688 4.54642,-33.2043 C4.79465,-33.0399 4.99228,-32.8257 5.13933,-32.5616 C5.28637,-32.2976 5.35989,-32.0122 5.35989,-31.7055 Z M9.38692,-34.1862 C9.14027,-34.1862 8.88888,-34.1577 8.63274,-34.1008 C8.3766,-34.0439 8.14181,-33.9546 7.92836,-33.8328 C7.71492,-33.7111 7.54258,-33.5561 7.41135,-33.368 C7.28012,-33.1798 7.2145,-32.9529 7.2145,-32.6873 C7.2145,-32.3711 7.30463,-32.126 7.48487,-31.9521 C7.66511,-31.7782 7.89042,-31.6525 8.16078,-31.575 C8.43115,-31.4976 8.70073,-31.443 8.96951,-31.4114 C9.12129,-31.3924 9.30233,-31.3766 9.51261,-31.364 C9.7229,-31.3513 9.93081,-31.326 10.1364,-31.2881 C10.3419,-31.2501 10.5127,-31.1877 10.6486,-31.1007 C10.7846,-31.0137 10.8526,-30.888 10.8526,-30.7236 C10.8526,-30.5149 10.7775,-30.3489 10.6273,-30.2256 C10.4771,-30.1022 10.2905,-30.0145 10.0676,-29.9623 C9.84464,-29.9101 9.62408,-29.8841 9.40589,-29.8841 C9.02643,-29.8841 8.69598,-29.9449 8.41455,-30.0667 C8.13312,-30.1884 7.92441,-30.3789 7.78844,-30.6382 C7.76314,-30.692 7.72045,-30.7371 7.66037,-30.7734 C7.60029,-30.8098 7.54021,-30.828 7.48013,-30.828 C7.38526,-30.828 7.30463,-30.7948 7.23822,-30.7284 C7.17181,-30.6619 7.13861,-30.5813 7.13861,-30.4864 C7.13861,-30.4232 7.15126,-30.3694 7.17656,-30.3252 C7.36629,-29.9552 7.66195,-29.6746 8.06355,-29.4832 C8.46514,-29.2919 8.91259,-29.1963 9.40589,-29.1963 C9.75689,-29.1963 10.0952,-29.2492 10.4209,-29.3552 C10.7467,-29.4611 11.0139,-29.6271 11.2226,-29.8532 C11.4313,-30.0793 11.5356,-30.3694 11.5356,-30.7236 C11.5356,-31.0525 11.4439,-31.3039 11.2605,-31.4778 C11.0771,-31.6517 10.8463,-31.7766 10.568,-31.8525 C10.2897,-31.9284 10.0067,-31.9806 9.71895,-32.009 C9.57349,-32.0248 9.39878,-32.0407 9.19482,-32.0565 C8.99086,-32.0723 8.79006,-32.0999 8.59242,-32.1395 C8.39479,-32.179 8.22956,-32.2415 8.09675,-32.3268 C7.96394,-32.4122 7.89753,-32.5324 7.89753,-32.6873 C7.89753,-32.8865 7.98054,-33.0454 8.14655,-33.164 C8.31257,-33.2826 8.511,-33.368 8.74183,-33.4202 C8.97267,-33.4723 9.18612,-33.4984 9.38217,-33.4984 C9.69207,-33.4984 9.96322,-33.4423 10.1956,-33.33 C10.4281,-33.2178 10.6012,-33.0541 10.715,-32.8391 C10.7403,-32.7885 10.783,-32.745 10.8431,-32.7087 C10.9032,-32.6723 10.9617,-32.6541 11.0186,-32.6541 C11.1135,-32.6541 11.1949,-32.6873 11.2629,-32.7537 C11.3309,-32.8201 11.3649,-32.9008 11.3649,-32.9956 C11.3649,-33.0557 11.3506,-33.1111 11.3222,-33.1616 C11.1546,-33.4779 10.8961,-33.7277 10.5466,-33.9111 C10.1972,-34.0945 9.81065,-34.1862 9.38692,-34.1862 Z M17.1611,-29.201 C17.4932,-29.201 17.792,-29.2896 18.0576,-29.4666 C18.3232,-29.6437 18.5462,-29.824 18.7264,-30.0074 L18.7501,-29.552 C18.7501,-29.454 18.781,-29.3702 18.8426,-29.3006 C18.9043,-29.2311 18.9841,-29.1963 19.0821,-29.1963 C19.1802,-29.1963 19.264,-29.2311 19.3335,-29.3006 C19.4031,-29.3702 19.4379,-29.454 19.4379,-29.552 L19.4379,-35.5238 C19.4379,-35.6218 19.4039,-35.7056 19.3359,-35.7752 C19.2679,-35.8448 19.1833,-35.8795 19.0821,-35.8795 C18.9841,-35.8795 18.9003,-35.8448 18.8308,-35.7752 C18.7612,-35.7056 18.7264,-35.6218 18.7264,-35.5238 L18.7264,-33.3798 C18.5335,-33.5822 18.309,-33.7609 18.0529,-33.9158 C17.7967,-34.0708 17.5137,-34.1482 17.2038,-34.1482 C16.8781,-34.1482 16.5777,-34.0787 16.3026,-33.9395 C16.0275,-33.8004 15.7887,-33.613 15.5864,-33.3775 C15.384,-33.1419 15.2275,-32.8739 15.1168,-32.5735 C15.0061,-32.2731 14.9508,-31.9616 14.9508,-31.6391 C14.9508,-31.2122 15.0456,-30.8129 15.2354,-30.4414 C15.4251,-30.0698 15.686,-29.7702 16.018,-29.5425 C16.35,-29.3149 16.7311,-29.201 17.1611,-29.201 Z M17.1754,-29.9125 C16.8749,-29.9125 16.6117,-29.9924 16.3856,-30.152 C16.1595,-30.3117 15.984,-30.522 15.8591,-30.7829 C15.7342,-31.0438 15.6717,-31.3244 15.6717,-31.6248 C15.6717,-31.9284 15.735,-32.2185 15.8615,-32.4952 C15.988,-32.7719 16.165,-32.998 16.3927,-33.1735 C16.6204,-33.349 16.8876,-33.4368 17.1943,-33.4368 C17.5137,-33.4368 17.7872,-33.3538 18.0149,-33.1877 C18.2426,-33.0217 18.4173,-32.8075 18.539,-32.545 C18.6608,-32.2826 18.7217,-32.0027 18.7217,-31.7055 C18.7217,-31.4082 18.66,-31.122 18.5367,-30.8469 C18.4133,-30.5718 18.2363,-30.3473 18.0054,-30.1734 C17.7746,-29.9995 17.4979,-29.9125 17.1754,-29.9125 Z M22.9384,-29.2058 C22.4799,-29.2058 22.0649,-29.3196 21.6933,-29.5473 C21.3218,-29.775 21.0269,-30.0793 20.8087,-30.4604 C20.5905,-30.8414 20.4814,-31.2596 20.4814,-31.715 C20.4814,-32.1482 20.585,-32.549 20.7921,-32.9174 C20.9992,-33.2858 21.2799,-33.5822 21.634,-33.8067 C21.9882,-34.0312 22.3835,-34.1435 22.8198,-34.1435 C23.2214,-34.1435 23.5906,-34.0439 23.9274,-33.8447 C24.2642,-33.6455 24.5345,-33.3775 24.7385,-33.0407 C24.9424,-32.7039 25.0444,-32.33 25.0444,-31.9189 C25.0444,-31.7735 25.0183,-31.6485 24.9662,-31.5442 C24.914,-31.4398 24.8183,-31.3877 24.6792,-31.3877 L21.2261,-31.3877 C21.2767,-31.1252 21.3803,-30.8825 21.5368,-30.6596 C21.6933,-30.4366 21.8909,-30.2572 22.1297,-30.1212 C22.3684,-29.9852 22.6349,-29.9173 22.9289,-29.9173 C23.1787,-29.9173 23.4238,-29.9726 23.6641,-30.0833 C23.9045,-30.1939 24.1021,-30.3457 24.257,-30.5386 C24.3266,-30.6303 24.4199,-30.6762 24.5369,-30.6762 C24.6349,-30.6762 24.7187,-30.6414 24.7883,-30.5718 C24.8579,-30.5023 24.8926,-30.4185 24.8926,-30.3204 C24.8926,-30.2351 24.8642,-30.1576 24.8073,-30.088 C24.5796,-29.8097 24.3005,-29.5931 23.9701,-29.4382 C23.6396,-29.2832 23.2957,-29.2058 22.9384,-29.2058 Z M24.3187,-32.0897 C24.2903,-32.3363 24.2065,-32.5616 24.0673,-32.7656 C23.9282,-32.9695 23.7511,-33.1316 23.5361,-33.2518 C23.321,-33.3719 23.0839,-33.432 22.8246,-33.432 C22.5558,-33.432 22.3107,-33.3704 22.0894,-33.247 C21.868,-33.1237 21.6838,-32.9609 21.5368,-32.7585 C21.3897,-32.5561 21.2893,-32.3332 21.2356,-32.0897 L24.3187,-32.0897 Z M-22.0514,-21.2583 C-22.2222,-21.2583 -22.3392,-21.1855 -22.4024,-21.0401 C-22.5194,-20.7776 -22.6894,-20.5326 -22.9123,-20.3049 C-23.1353,-20.0772 -23.3977,-19.8946 -23.6997,-19.757 C-24.0017,-19.6195 -24.3361,-19.5507 -24.7029,-19.5507 C-25.1931,-19.5507 -25.616,-19.6685 -25.9717,-19.9041 C-26.3275,-20.1397 -26.6002,-20.4575 -26.7899,-20.8575 C-26.9797,-21.2575 -27.0745,-21.701 -27.0745,-22.188 C-27.0745,-22.6749 -26.9789,-23.1153 -26.7876,-23.5089 C-26.5963,-23.9026 -26.3235,-24.2165 -25.9694,-24.4505 C-25.6152,-24.6845 -25.1946,-24.8015 -24.7077,-24.8015 C-24.1574,-24.8015 -23.6831,-24.6647 -23.2847,-24.3912 C-22.8862,-24.1177 -22.5937,-23.7833 -22.4072,-23.388 C-22.3439,-23.2489 -22.2174,-23.1793 -22.0277,-23.1793 C-21.9581,-23.1793 -21.8909,-23.2149 -21.8261,-23.286 C-21.7613,-23.3572 -21.7289,-23.4386 -21.7289,-23.5303 C-21.7289,-23.5872 -21.7415,-23.641 -21.7668,-23.6916 C-21.9249,-24.0268 -22.1455,-24.3319 -22.4285,-24.607 C-22.7115,-24.8821 -23.0451,-25.1019 -23.4293,-25.2663 C-23.8136,-25.4308 -24.2397,-25.513 -24.7077,-25.513 C-25.1693,-25.513 -25.5891,-25.4276 -25.967,-25.2568 C-26.3449,-25.0861 -26.6698,-24.8497 -26.9417,-24.5477 C-27.2137,-24.2457 -27.4224,-23.8947 -27.5678,-23.4947 C-27.7133,-23.0947 -27.786,-22.6639 -27.786,-22.2022 C-27.786,-21.7342 -27.7141,-21.297 -27.5702,-20.8907 C-27.4263,-20.4843 -27.2192,-20.127 -26.9488,-19.8187 C-26.6785,-19.5104 -26.3528,-19.2693 -25.9717,-19.0953 C-25.5907,-18.9214 -25.1646,-18.8345 -24.6934,-18.8345 C-24.2159,-18.8345 -23.7843,-18.923 -23.3985,-19.1001 C-23.0127,-19.2772 -22.6799,-19.5112 -22.4001,-19.8021 C-22.1202,-20.093 -21.9044,-20.4092 -21.7526,-20.7507 C-21.7305,-20.795 -21.7194,-20.8567 -21.7194,-20.9357 C-21.7194,-21.0116 -21.755,-21.0844 -21.8261,-21.1539 C-21.8973,-21.2235 -21.9724,-21.2583 -22.0514,-21.2583 Z M-18.3137,-18.844 C-17.9564,-18.844 -17.6125,-18.9214 -17.2821,-19.0764 C-16.9516,-19.2313 -16.6726,-19.4479 -16.4449,-19.7262 C-16.388,-19.7958 -16.3595,-19.8732 -16.3595,-19.9586 C-16.3595,-20.0566 -16.3943,-20.1404 -16.4639,-20.21 C-16.5334,-20.2796 -16.6172,-20.3144 -16.7153,-20.3144 C-16.8323,-20.3144 -16.9255,-20.2685 -16.9951,-20.1768 C-17.1501,-19.9839 -17.3477,-19.8321 -17.588,-19.7215 C-17.8283,-19.6108 -18.0734,-19.5554 -18.3232,-19.5554 C-18.6173,-19.5554 -18.8837,-19.6234 -19.1225,-19.7594 C-19.3612,-19.8954 -19.5588,-20.0748 -19.7154,-20.2978 C-19.8719,-20.5207 -19.9755,-20.7634 -20.0261,-21.0259 L-16.573,-21.0259 C-16.4338,-21.0259 -16.3382,-21.078 -16.286,-21.1824 C-16.2338,-21.2867 -16.2077,-21.4116 -16.2077,-21.5571 C-16.2077,-21.9682 -16.3097,-22.3421 -16.5137,-22.6789 C-16.7176,-23.0157 -16.988,-23.2836 -17.3248,-23.4829 C-17.6615,-23.6821 -18.0307,-23.7817 -18.4323,-23.7817 C-18.8687,-23.7817 -19.264,-23.6694 -19.6181,-23.4449 C-19.9723,-23.2204 -20.2529,-22.9239 -20.4601,-22.5556 C-20.6672,-22.1872 -20.7707,-21.7864 -20.7707,-21.3531 C-20.7707,-20.8978 -20.6617,-20.4796 -20.4435,-20.0985 C-20.2253,-19.7175 -19.9304,-19.4131 -19.5588,-19.1855 C-19.1873,-18.9578 -18.7723,-18.844 -18.3137,-18.844 Z M-20.0166,-21.7279 C-19.9628,-21.9713 -19.8624,-22.1943 -19.7154,-22.3967 C-19.5683,-22.599 -19.3841,-22.7619 -19.1628,-22.8852 C-18.9414,-23.0085 -18.6964,-23.0702 -18.4276,-23.0702 C-18.1683,-23.0702 -17.9311,-23.0101 -17.7161,-22.89 C-17.5011,-22.7698 -17.324,-22.6077 -17.1848,-22.4038 C-17.0457,-22.1998 -16.9619,-21.9745 -16.9334,-21.7279 L-20.0166,-21.7279 Z M-14.8085,-23.8101 C-14.9097,-23.8101 -14.9942,-23.7754 -15.0622,-23.7058 C-15.1302,-23.6362 -15.1642,-23.5508 -15.1642,-23.4497 L-15.1595,-19.1902 C-15.1595,-19.0922 -15.1247,-19.0076 -15.0551,-18.9364 C-14.9855,-18.8653 -14.9018,-18.8297 -14.8037,-18.8297 C-14.7057,-18.8297 -14.6219,-18.8645 -14.5523,-18.9341 C-14.4828,-19.0036 -14.448,-19.0874 -14.448,-19.1855 L-14.448,-21.5097 C-14.448,-22.0093 -14.3167,-22.3967 -14.0543,-22.6718 C-13.7918,-22.9469 -13.4029,-23.0844 -12.8874,-23.0844 C-12.6123,-23.0844 -12.4005,-23.0101 -12.2518,-22.8615 C-12.1032,-22.7129 -12.0005,-22.5184 -11.9435,-22.2781 C-11.8866,-22.0377 -11.8582,-21.7769 -11.8582,-21.4954 L-11.8629,-19.1997 C-11.8629,-19.1017 -11.8281,-19.0171 -11.7585,-18.9459 C-11.689,-18.8748 -11.6052,-18.8392 -11.5072,-18.8392 C-11.4091,-18.8392 -11.3253,-18.874 -11.2558,-18.9436 C-11.1862,-19.0131 -11.1514,-19.0969 -11.1514,-19.195 L-11.1467,-21.4954 C-11.1467,-21.9002 -11.2044,-22.2773 -11.3198,-22.6267 C-11.4352,-22.9761 -11.6202,-23.2583 -11.8748,-23.4734 C-12.1293,-23.6884 -12.4669,-23.7959 -12.8874,-23.7959 C-13.1278,-23.7959 -13.3452,-23.7493 -13.5396,-23.656 C-13.7341,-23.5627 -13.9065,-23.4465 -14.0567,-23.3074 C-14.2069,-23.1682 -14.3389,-23.0291 -14.4527,-22.89 L-14.4764,-23.4544 C-14.4764,-23.5524 -14.5073,-23.6362 -14.5689,-23.7058 C-14.6306,-23.7754 -14.7104,-23.8101 -14.8085,-23.8101 Z M-9.27782,-23.7248 L-10.0083,-23.7248 C-10.1,-23.7248 -10.1783,-23.6924 -10.2431,-23.6275 C-10.3079,-23.5627 -10.3403,-23.4844 -10.3403,-23.3927 C-10.3403,-23.301 -10.3079,-23.2228 -10.2431,-23.1579 C-10.1783,-23.0931 -10.1,-23.0607 -10.0083,-23.0607 L-9.27782,-23.0607 L-9.28257,-20.1151 C-9.28257,-19.7357 -9.18849,-19.4266 -9.00034,-19.1878 C-8.81219,-18.9491 -8.53155,-18.8297 -8.15841,-18.8297 C-8.03825,-18.8297 -7.90149,-18.8447 -7.74812,-18.8748 C-7.59475,-18.9048 -7.46115,-18.9578 -7.34731,-19.0337 C-7.23348,-19.1096 -7.17656,-19.2139 -7.17656,-19.3467 C-7.17656,-19.4448 -7.21134,-19.5286 -7.28091,-19.5981 C-7.35048,-19.6677 -7.43427,-19.7025 -7.5323,-19.7025 C-7.6493,-19.7025 -7.75286,-19.6764 -7.84299,-19.6242 C-7.93311,-19.572 -8.04774,-19.546 -8.18687,-19.546 C-8.34182,-19.546 -8.44459,-19.5973 -8.49518,-19.7001 C-8.54578,-19.8029 -8.57108,-19.9381 -8.57108,-20.1057 L-8.56633,-23.0655 L-7.6414,-23.0607 C-7.54969,-23.0607 -7.47143,-23.0931 -7.40661,-23.1579 C-7.34178,-23.2228 -7.30937,-23.301 -7.30937,-23.3927 C-7.30937,-23.4844 -7.34178,-23.5627 -7.40661,-23.6275 C-7.47143,-23.6924 -7.54969,-23.7248 -7.6414,-23.7248 L-8.56633,-23.7295 L-8.56159,-24.792 C-8.56159,-24.89 -8.59637,-24.9738 -8.66594,-25.0434 C-8.73551,-25.113 -8.81931,-25.1477 -8.91733,-25.1477 C-9.01536,-25.1477 -9.09916,-25.113 -9.16873,-25.0434 C-9.2383,-24.9738 -9.27308,-24.89 -9.27308,-24.792 L-9.27782,-23.7248 Z M-3.57642,-23.3453 C-3.57642,-23.5224 -3.66338,-23.6433 -3.8373,-23.7082 C-4.01122,-23.773 -4.21992,-23.8054 -4.46341,-23.8054 C-4.63417,-23.8054 -4.80255,-23.7572 -4.96857,-23.6607 C-5.13458,-23.5643 -5.27846,-23.4449 -5.40021,-23.3026 C-5.52195,-23.1603 -5.60496,-23.0164 -5.64923,-22.871 L-5.69192,-23.3927 C-5.69192,-23.5129 -5.72117,-23.6086 -5.77967,-23.6797 C-5.83817,-23.7509 -5.91327,-23.7864 -6.00497,-23.7864 C-6.09351,-23.7864 -6.17652,-23.7501 -6.25399,-23.6773 C-6.33147,-23.6046 -6.3702,-23.5097 -6.3702,-23.3927 L-6.3702,-19.1855 C-6.3702,-19.0874 -6.34016,-19.0028 -6.28008,-18.9317 C-6.22,-18.8606 -6.13146,-18.825 -6.01446,-18.825 C-5.89429,-18.825 -5.80496,-18.8606 -5.74646,-18.9317 C-5.68796,-19.0028 -5.65871,-19.0874 -5.65871,-19.1855 L-5.65871,-21.7705 C-5.65871,-22.0014 -5.62156,-22.2204 -5.54725,-22.4275 C-5.47294,-22.6346 -5.34724,-22.8046 -5.17016,-22.9374 C-4.99307,-23.0702 -4.74959,-23.1366 -4.43969,-23.1366 C-4.31637,-23.1366 -4.21123,-23.1137 -4.12427,-23.0678 C-4.03731,-23.022 -3.94481,-22.999 -3.84679,-22.999 C-3.78038,-22.999 -3.71872,-23.0354 -3.6618,-23.1081 C-3.60488,-23.1809 -3.57642,-23.2599 -3.57642,-23.3453 Z M-0.735206,-23.8007 C-1.06723,-23.8007 -1.37397,-23.7327 -1.6554,-23.5967 C-1.93683,-23.4607 -2.18269,-23.2765 -2.39298,-23.0441 C-2.60326,-22.8117 -2.76611,-22.5461 -2.88153,-22.2472 C-2.99695,-21.9484 -3.05466,-21.6377 -3.05466,-21.3152 C-3.05466,-20.9895 -2.99695,-20.6788 -2.88153,-20.3831 C-2.76611,-20.0875 -2.60405,-19.8242 -2.39535,-19.5934 C-2.18664,-19.3625 -1.94316,-19.1799 -1.66489,-19.0455 C-1.38661,-18.9111 -1.08463,-18.844 -0.758922,-18.844 C-0.442705,-18.844 -0.141507,-18.9357 0.14467,-19.1191 C0.430846,-19.3025 0.678287,-19.508 0.88699,-19.7357 L0.88699,-19.195 C0.88699,-19.1032 0.919402,-19.025 0.984227,-18.9602 C1.04905,-18.8953 1.12732,-18.8629 1.21902,-18.8629 C1.31072,-18.8629 1.38899,-18.8953 1.45381,-18.9602 C1.51863,-19.025 1.55105,-19.1032 1.55105,-19.195 L1.55105,-23.4829 C1.55105,-23.5746 1.51863,-23.6528 1.45381,-23.7177 C1.38899,-23.7825 1.31072,-23.8149 1.21902,-23.8149 C1.12732,-23.8149 1.05617,-23.7825 1.00557,-23.7177 C0.954977,-23.6528 0.92968,-23.5746 0.92968,-23.4829 L0.88699,-22.8852 C0.684611,-23.1034 0.448238,-23.3105 0.177872,-23.5066 C-0.0924936,-23.7026 -0.396853,-23.8007 -0.735206,-23.8007 Z M0.910707,-21.3436 C0.910707,-21.0369 0.834814,-20.7468 0.68303,-20.4733 C0.531245,-20.1997 0.328866,-19.9784 0.0758922,-19.8092 C-0.177082,-19.64 -0.455353,-19.5554 -0.758922,-19.5554 C-1.05933,-19.5554 -1.3289,-19.6384 -1.56765,-19.8045 C-1.80639,-19.9705 -1.99533,-20.1879 -2.13447,-20.4567 C-2.2736,-20.7254 -2.34317,-21.0116 -2.34317,-21.3152 C-2.34317,-21.6219 -2.27281,-21.9105 -2.1321,-22.1808 C-1.99138,-22.4512 -1.79928,-22.6702 -1.55579,-22.8378 C-1.3123,-23.0054 -1.03719,-23.0892 -0.730463,-23.0892 C-0.426894,-23.0892 -0.150994,-23.007 0.0972369,-22.8425 C0.345468,-22.6781 0.543104,-22.4639 0.690145,-22.1998 C0.837186,-21.9358 0.910707,-21.6504 0.910707,-21.3436 Z M3.02146,-25.5035 C2.93292,-25.5035 2.85544,-25.4648 2.78904,-25.3873 C2.72263,-25.3098 2.68943,-25.2252 2.68943,-25.1335 L2.68943,-19.1712 C2.68943,-19.0669 2.72659,-18.9815 2.8009,-18.9151 C2.87521,-18.8487 2.96612,-18.8155 3.07363,-18.8155 C3.1432,-18.8155 3.21514,-18.8455 3.28945,-18.9056 C3.36376,-18.9657 3.40092,-19.0368 3.40092,-19.1191 L3.40092,-25.143 C3.40092,-25.2284 3.36693,-25.3098 3.29894,-25.3873 C3.23095,-25.4648 3.13846,-25.5035 3.02146,-25.5035 Z M4.95671,-24.5216 C5.09585,-24.5216 5.21601,-24.5706 5.3172,-24.6687 C5.41839,-24.7667 5.46898,-24.8853 5.46898,-25.0244 C5.46898,-25.1636 5.41839,-25.2821 5.3172,-25.3802 C5.21601,-25.4782 5.09585,-25.5272 4.95671,-25.5272 C4.82074,-25.5272 4.70136,-25.4782 4.59859,-25.3802 C4.49582,-25.2821 4.44444,-25.1636 4.44444,-25.0244 C4.44444,-24.8853 4.49582,-24.7667 4.59859,-24.6687 C4.70136,-24.5706 4.82074,-24.5216 4.95671,-24.5216 Z M4.61994,-19.1902 C4.61994,-19.0922 4.65472,-19.0076 4.72429,-18.9364 C4.79386,-18.8653 4.87766,-18.8297 4.97568,-18.8297 C5.07371,-18.8297 5.15751,-18.8645 5.22708,-18.9341 C5.29664,-19.0036 5.33143,-19.0874 5.33143,-19.1855 L5.32194,-23.4402 C5.32194,-23.5477 5.28558,-23.6346 5.21285,-23.7011 C5.14012,-23.7675 5.04841,-23.8007 4.93774,-23.8007 C4.87133,-23.8007 4.80018,-23.7698 4.72429,-23.7082 C4.6484,-23.6465 4.61045,-23.5746 4.61045,-23.4923 L4.61994,-19.1902 Z M8.72286,-18.8392 C9.05489,-18.8392 9.35371,-18.9277 9.61934,-19.1048 C9.88496,-19.2819 10.1079,-19.4622 10.2881,-19.6456 L10.3119,-19.1902 C10.3119,-19.0922 10.3427,-19.0084 10.4043,-18.9388 C10.466,-18.8692 10.5459,-18.8345 10.6439,-18.8345 C10.7419,-18.8345 10.8257,-18.8692 10.8953,-18.9388 C10.9648,-19.0084 10.9996,-19.0922 10.9996,-19.1902 L10.9996,-25.162 C10.9996,-25.26 10.9656,-25.3438 10.8976,-25.4134 C10.8297,-25.4829 10.7451,-25.5177 10.6439,-25.5177 C10.5459,-25.5177 10.4621,-25.4829 10.3925,-25.4134 C10.3229,-25.3438 10.2881,-25.26 10.2881,-25.162 L10.2881,-23.018 C10.0952,-23.2204 9.87073,-23.3991 9.61459,-23.554 C9.35846,-23.709 9.07544,-23.7864 8.76555,-23.7864 C8.43985,-23.7864 8.13944,-23.7169 7.86433,-23.5777 C7.58922,-23.4386 7.35048,-23.2512 7.1481,-23.0157 C6.94572,-22.7801 6.78919,-22.5121 6.67851,-22.2117 C6.56784,-21.9113 6.5125,-21.5998 6.5125,-21.2772 C6.5125,-20.8504 6.60737,-20.4511 6.7971,-20.0796 C6.98683,-19.708 7.24771,-19.4084 7.57973,-19.1807 C7.91176,-18.953 8.2928,-18.8392 8.72286,-18.8392 Z M8.73709,-19.5507 C8.43668,-19.5507 8.17343,-19.6305 7.94734,-19.7902 C7.72124,-19.9499 7.54574,-20.1602 7.42084,-20.4211 C7.29593,-20.682 7.23348,-20.9626 7.23348,-21.263 C7.23348,-21.5666 7.29672,-21.8567 7.42321,-22.1334 C7.54969,-22.4101 7.72678,-22.6362 7.95445,-22.8117 C8.18213,-22.9872 8.44933,-23.0749 8.75606,-23.0749 C9.07544,-23.0749 9.34897,-22.9919 9.57665,-22.8259 C9.80432,-22.6599 9.97903,-22.4457 10.1008,-22.1832 C10.2225,-21.9207 10.2834,-21.6409 10.2834,-21.3436 C10.2834,-21.0464 10.2217,-20.7602 10.0984,-20.4851 C9.97508,-20.21 9.798,-19.9855 9.56716,-19.8116 C9.33632,-19.6377 9.05963,-19.5507 8.73709,-19.5507 Z M14.3626,-23.8007 C14.0306,-23.8007 13.7238,-23.7327 13.4424,-23.5967 C13.161,-23.4607 12.9151,-23.2765 12.7048,-23.0441 C12.4945,-22.8117 12.3317,-22.5461 12.2163,-22.2472 C12.1009,-21.9484 12.0431,-21.6377 12.0431,-21.3152 C12.0431,-20.9895 12.1009,-20.6788 12.2163,-20.3831 C12.3317,-20.0875 12.4938,-19.8242 12.7025,-19.5934 C12.9112,-19.3625 13.1546,-19.1799 13.4329,-19.0455 C13.7112,-18.9111 14.0132,-18.844 14.3389,-18.844 C14.6551,-18.844 14.9563,-18.9357 15.2425,-19.1191 C15.5287,-19.3025 15.7761,-19.508 15.9848,-19.7357 L15.9848,-19.195 C15.9848,-19.1032 16.0172,-19.025 16.082,-18.9602 C16.1469,-18.8953 16.2251,-18.8629 16.3168,-18.8629 C16.4085,-18.8629 16.4868,-18.8953 16.5516,-18.9602 C16.6164,-19.025 16.6489,-19.1032 16.6489,-19.195 L16.6489,-23.4829 C16.6489,-23.5746 16.6164,-23.6528 16.5516,-23.7177 C16.4868,-23.7825 16.4085,-23.8149 16.3168,-23.8149 C16.2251,-23.8149 16.154,-23.7825 16.1034,-23.7177 C16.0528,-23.6528 16.0275,-23.5746 16.0275,-23.4829 L15.9848,-22.8852 C15.7824,-23.1034 15.546,-23.3105 15.2757,-23.5066 C15.0053,-23.7026 14.701,-23.8007 14.3626,-23.8007 Z M16.0085,-21.3436 C16.0085,-21.0369 15.9326,-20.7468 15.7808,-20.4733 C15.6291,-20.1997 15.4267,-19.9784 15.1737,-19.8092 C14.9207,-19.64 14.6425,-19.5554 14.3389,-19.5554 C14.0385,-19.5554 13.7689,-19.6384 13.5302,-19.8045 C13.2914,-19.9705 13.1025,-20.1879 12.9633,-20.4567 C12.8242,-20.7254 12.7546,-21.0116 12.7546,-21.3152 C12.7546,-21.6219 12.825,-21.9105 12.9657,-22.1808 C13.1064,-22.4512 13.2985,-22.6702 13.542,-22.8378 C13.7855,-23.0054 14.0606,-23.0892 14.3673,-23.0892 C14.6709,-23.0892 14.9468,-23.007 15.195,-22.8425 C15.4433,-22.6781 15.6409,-22.4639 15.788,-22.1998 C15.935,-21.9358 16.0085,-21.6504 16.0085,-21.3436 Z M19.9027,-18.8392 C20.2348,-18.8392 20.5336,-18.9277 20.7992,-19.1048 C21.0648,-19.2819 21.2878,-19.4622 21.468,-19.6456 L21.4917,-19.1902 C21.4917,-19.0922 21.5226,-19.0084 21.5842,-18.9388 C21.6459,-18.8692 21.7257,-18.8345 21.8238,-18.8345 C21.9218,-18.8345 22.0056,-18.8692 22.0751,-18.9388 C22.1447,-19.0084 22.1795,-19.0922 22.1795,-19.1902 L22.1795,-25.162 C22.1795,-25.26 22.1455,-25.3438 22.0775,-25.4134 C22.0095,-25.4829 21.9249,-25.5177 21.8238,-25.5177 C21.7257,-25.5177 21.6419,-25.4829 21.5724,-25.4134 C21.5028,-25.3438 21.468,-25.26 21.468,-25.162 L21.468,-23.018 C21.2751,-23.2204 21.0506,-23.3991 20.7945,-23.554 C20.5383,-23.709 20.2553,-23.7864 19.9454,-23.7864 C19.6197,-23.7864 19.3193,-23.7169 19.0442,-23.5777 C18.7691,-23.4386 18.5303,-23.2512 18.328,-23.0157 C18.1256,-22.7801 17.9691,-22.5121 17.8584,-22.2117 C17.7477,-21.9113 17.6924,-21.5998 17.6924,-21.2772 C17.6924,-20.8504 17.7872,-20.4511 17.977,-20.0796 C18.1667,-19.708 18.4276,-19.4084 18.7596,-19.1807 C19.0916,-18.953 19.4727,-18.8392 19.9027,-18.8392 Z M19.917,-19.5507 C19.6166,-19.5507 19.3533,-19.6305 19.1272,-19.7902 C18.9011,-19.9499 18.7256,-20.1602 18.6007,-20.4211 C18.4758,-20.682 18.4133,-20.9626 18.4133,-21.263 C18.4133,-21.5666 18.4766,-21.8567 18.6031,-22.1334 C18.7296,-22.4101 18.9066,-22.6362 19.1343,-22.8117 C19.362,-22.9872 19.6292,-23.0749 19.9359,-23.0749 C20.2553,-23.0749 20.5288,-22.9919 20.7565,-22.8259 C20.9842,-22.6599 21.1589,-22.4457 21.2806,-22.1832 C21.4024,-21.9207 21.4633,-21.6409 21.4633,-21.3436 C21.4633,-21.0464 21.4016,-20.7602 21.2783,-20.4851 C21.155,-20.21 20.9779,-19.9855 20.747,-19.8116 C20.5162,-19.6377 20.2395,-19.5507 19.917,-19.5507 Z M25.68,-18.844 C26.0374,-18.844 26.3812,-18.9214 26.7117,-19.0764 C27.0421,-19.2313 27.3212,-19.4479 27.5489,-19.7262 C27.6058,-19.7958 27.6343,-19.8732 27.6343,-19.9586 C27.6343,-20.0566 27.5995,-20.1404 27.5299,-20.21 C27.4603,-20.2796 27.3765,-20.3144 27.2785,-20.3144 C27.1615,-20.3144 27.0682,-20.2685 26.9987,-20.1768 C26.8437,-19.9839 26.6461,-19.8321 26.4057,-19.7215 C26.1654,-19.6108 25.9204,-19.5554 25.6705,-19.5554 C25.3765,-19.5554 25.11,-19.6234 24.8713,-19.7594 C24.6326,-19.8954 24.4349,-20.0748 24.2784,-20.2978 C24.1219,-20.5207 24.0183,-20.7634 23.9677,-21.0259 L27.4208,-21.0259 C27.5599,-21.0259 27.6556,-21.078 27.7078,-21.1824 C27.7599,-21.2867 27.786,-21.4116 27.786,-21.5571 C27.786,-21.9682 27.6841,-22.3421 27.4801,-22.6789 C27.2761,-23.0157 27.0058,-23.2836 26.669,-23.4829 C26.3322,-23.6821 25.963,-23.7817 25.5614,-23.7817 C25.1251,-23.7817 24.7298,-23.6694 24.3756,-23.4449 C24.0215,-23.2204 23.7408,-22.9239 23.5337,-22.5556 C23.3266,-22.1872 23.223,-21.7864 23.223,-21.3531 C23.223,-20.8978 23.3321,-20.4796 23.5503,-20.0985 C23.7685,-19.7175 24.0634,-19.4131 24.4349,-19.1855 C24.8065,-18.9578 25.2215,-18.844 25.68,-18.844 Z M23.9772,-21.7279 C24.031,-21.9713 24.1314,-22.1943 24.2784,-22.3967 C24.4254,-22.599 24.6096,-22.7619 24.831,-22.8852 C25.0523,-23.0085 25.2974,-23.0702 25.5662,-23.0702 C25.8255,-23.0702 26.0626,-23.0101 26.2777,-22.89 C26.4927,-22.7698 26.6698,-22.6077 26.8089,-22.4038 C26.9481,-22.1998 27.0319,-21.9745 27.0603,-21.7279 L23.9772,-21.7279 Z " fill="#24682c" fill-opacity="1.00" filter="url(#qm4wEp1p)" />				</g>				<path d="M-116.953,34.0897 C-116.823,34.0897 -116.712,34.0431 -116.618,33.9498 C-116.525,33.8565 -116.478,33.745 -116.478,33.6154 L-116.478,33.6106 L-116.493,29.3749 L-114.401,32.7948 C-114.303,32.9466 -114.162,33.0225 -113.979,33.0225 C-113.893,33.0225 -113.814,32.9964 -113.742,32.9442 C-113.669,32.892 -113.615,32.8375 -113.58,32.7806 L-111.716,29.3939 L-111.716,33.6344 C-111.716,33.764 -111.67,33.8755 -111.576,33.9688 C-111.483,34.062 -111.372,34.1087 -111.242,34.1087 C-111.112,34.1087 -111.001,34.062 -110.908,33.9688 C-110.814,33.8755 -110.768,33.764 -110.768,33.6344 L-110.768,27.7005 C-110.768,27.5614 -110.818,27.4476 -110.919,27.359 C-111.021,27.2705 -111.139,27.2262 -111.275,27.2262 C-111.436,27.2262 -111.564,27.3053 -111.659,27.4634 L-114.007,31.609 L-116.545,27.4681 C-116.63,27.291 -116.787,27.2025 -117.014,27.2025 C-117.157,27.2025 -117.266,27.2641 -117.342,27.3875 C-117.37,27.4317 -117.395,27.4744 -117.415,27.5155 C-117.436,27.5566 -117.446,27.5993 -117.446,27.6436 C-117.446,27.6721 -117.445,27.7005 -117.441,27.729 L-117.427,33.6154 C-117.427,33.745 -117.38,33.8565 -117.287,33.9498 C-117.194,34.0431 -117.082,34.0897 -116.953,34.0897 Z M-106.28,26.0404 C-106.42,26.0404 -106.535,26.091 -106.627,26.1922 L-107.974,27.7954 C-108.1,27.9219 -108.164,28.0405 -108.164,28.1511 C-108.164,28.227 -108.129,28.2998 -108.059,28.3693 C-107.99,28.4389 -107.915,28.4737 -107.836,28.4737 C-107.722,28.4737 -107.602,28.4057 -107.476,28.2697 L-105.939,26.8467 C-105.85,26.755 -105.806,26.6475 -105.806,26.5242 C-105.806,26.404 -105.849,26.2934 -105.934,26.1922 C-106.02,26.091 -106.135,26.0404 -106.28,26.0404 Z M-107.651,28.9101 C-107.996,28.9101 -108.318,28.9804 -108.619,29.1211 C-108.919,29.2619 -109.183,29.454 -109.409,29.6974 C-109.635,29.9409 -109.811,30.2184 -109.938,30.5299 C-110.064,30.8414 -110.127,31.1694 -110.127,31.5141 C-110.127,31.8714 -110.063,32.2106 -109.935,32.5315 C-109.807,32.8525 -109.628,33.1363 -109.397,33.383 C-109.166,33.6296 -108.895,33.8241 -108.583,33.9664 C-108.272,34.1087 -107.934,34.1798 -107.571,34.1798 C-107.118,34.1798 -106.721,34.0747 -106.378,33.8644 C-106.035,33.6541 -105.765,33.4051 -105.569,33.1173 C-105.512,33.0383 -105.484,32.9482 -105.484,32.847 C-105.484,32.7173 -105.53,32.6051 -105.624,32.5102 C-105.717,32.4153 -105.828,32.3679 -105.958,32.3679 C-106.027,32.3679 -106.101,32.3885 -106.178,32.4296 C-106.256,32.4707 -106.314,32.5213 -106.352,32.5813 C-106.472,32.7553 -106.639,32.9086 -106.854,33.0414 C-107.069,33.1743 -107.313,33.2407 -107.585,33.2407 C-107.838,33.2407 -108.071,33.179 -108.284,33.0557 C-108.498,32.9323 -108.679,32.7711 -108.828,32.5719 C-108.976,32.3726 -109.077,32.1592 -109.131,31.9315 L-105.816,31.9268 C-105.699,31.9268 -105.593,31.8865 -105.5,31.8058 C-105.407,31.7252 -105.354,31.6264 -105.341,31.5094 C-105.332,31.4177 -105.327,31.3275 -105.327,31.239 C-105.327,30.8089 -105.434,30.4176 -105.647,30.065 C-105.861,29.7125 -106.143,29.4318 -106.494,29.2231 C-106.845,29.0144 -107.231,28.9101 -107.651,28.9101 Z M-109.098,30.9829 C-109.006,30.6825 -108.828,30.42 -108.564,30.1955 C-108.3,29.971 -107.996,29.8587 -107.651,29.8587 C-107.313,29.8587 -107.019,29.9678 -106.769,30.186 C-106.519,30.4042 -106.364,30.6682 -106.304,30.9781 L-109.098,30.9829 Z M-104.81,31.5378 C-104.81,31.8888 -104.748,32.2224 -104.625,32.5387 C-104.502,32.8549 -104.328,33.1355 -104.103,33.3806 C-103.879,33.6257 -103.616,33.8193 -103.314,33.9616 C-103.012,34.1039 -102.682,34.1751 -102.325,34.1751 C-102.031,34.1751 -101.736,34.1008 -101.44,33.9521 C-101.144,33.8035 -100.906,33.5996 -100.726,33.3403 L-100.669,33.7245 C-100.65,33.8541 -100.608,33.9656 -100.543,34.0589 C-100.479,34.1522 -100.381,34.1988 -100.252,34.1988 C-100.122,34.1988 -100.011,34.1522 -99.9174,34.0589 C-99.8241,33.9656 -99.7775,33.8541 -99.7775,33.7245 L-99.7775,27.6673 C-99.7775,27.5377 -99.8241,27.4262 -99.9174,27.3329 C-100.011,27.2396 -100.122,27.193 -100.252,27.193 C-100.381,27.193 -100.493,27.2396 -100.586,27.3329 C-100.679,27.4262 -100.726,27.5377 -100.726,27.6673 L-100.726,29.6642 C-100.928,29.4271 -101.158,29.2389 -101.414,29.0998 C-101.67,28.9607 -101.963,28.8911 -102.291,28.8911 C-102.614,28.8911 -102.925,28.9527 -103.226,29.0761 C-103.526,29.1994 -103.792,29.3733 -104.023,29.5978 C-104.282,29.8571 -104.478,30.156 -104.611,30.4943 C-104.744,30.8327 -104.81,31.1805 -104.81,31.5378 Z M-102.334,33.2264 C-102.625,33.2264 -102.887,33.1474 -103.119,32.9893 C-103.352,32.8312 -103.534,32.6232 -103.667,32.3655 C-103.8,32.1078 -103.866,31.8319 -103.866,31.5378 C-103.866,31.2437 -103.799,30.9663 -103.665,30.7054 C-103.53,30.4445 -103.345,30.2326 -103.11,30.0698 C-102.874,29.9069 -102.608,29.8255 -102.31,29.8255 C-102.007,29.8255 -101.739,29.903 -101.506,30.0579 C-101.274,30.2129 -101.091,30.4184 -100.959,30.6746 C-100.826,30.9307 -100.759,31.2105 -100.759,31.5141 C-100.759,31.7355 -100.798,31.9521 -100.876,32.1639 C-100.953,32.3758 -101.063,32.5608 -101.205,32.7189 C-101.347,32.8738 -101.52,32.9972 -101.722,33.0889 C-101.925,33.1806 -102.129,33.2264 -102.334,33.2264 Z M-98.3402,28.4073 C-98.2106,28.4073 -98.1047,28.3583 -98.0224,28.2602 C-97.9402,28.1622 -97.8991,28.0515 -97.8991,27.9282 L-97.9039,27.6436 C-97.907,27.514 -97.9537,27.4033 -98.0438,27.3116 C-98.1339,27.2199 -98.2454,27.174 -98.3782,27.174 C-98.4762,27.174 -98.579,27.2112 -98.6865,27.2855 C-98.794,27.3598 -98.8478,27.457 -98.8478,27.5772 L-98.8383,27.9377 C-98.8351,28.0705 -98.7877,28.182 -98.696,28.2721 C-98.6043,28.3622 -98.4857,28.4073 -98.3402,28.4073 Z M-98.843,33.7387 C-98.843,33.8652 -98.7972,33.9735 -98.7055,34.0636 C-98.6138,34.1537 -98.5015,34.1988 -98.3687,34.1988 C-98.2391,34.1988 -98.1276,34.1545 -98.0343,34.066 C-97.941,33.9774 -97.8944,33.8699 -97.8944,33.7434 L-97.9039,29.3512 L-97.9039,29.3464 C-97.9039,29.2105 -97.9529,29.1014 -98.0509,29.0192 C-98.1489,28.9369 -98.2675,28.8958 -98.4067,28.8958 C-98.5015,28.8958 -98.5995,28.9338 -98.7007,29.0097 C-98.8019,29.0856 -98.8525,29.1836 -98.8525,29.3038 L-98.843,33.7387 Z M-94.4887,28.8721 C-94.8587,28.8721 -95.201,28.9441 -95.5156,29.0879 C-95.8303,29.2318 -96.1054,29.4294 -96.341,29.6808 C-96.5765,29.9322 -96.7599,30.2184 -96.8912,30.5394 C-97.0224,30.8603 -97.088,31.1963 -97.088,31.5473 C-97.088,31.9015 -97.0208,32.2382 -96.8864,32.5576 C-96.752,32.877 -96.5663,33.16 -96.3291,33.4067 C-96.0919,33.6533 -95.8168,33.847 -95.5038,33.9877 C-95.1907,34.1284 -94.8555,34.1988 -94.4982,34.1988 C-94.1788,34.1988 -93.861,34.13 -93.5448,33.9925 C-93.2286,33.8549 -92.9883,33.6454 -92.8238,33.364 L-92.7717,33.7434 C-92.7717,33.8731 -92.7337,33.9846 -92.6578,34.0778 C-92.5819,34.1711 -92.4792,34.2178 -92.3495,34.2178 C-92.2199,34.2178 -92.1084,34.1711 -92.0151,34.0778 C-91.9218,33.9846 -91.8752,33.8731 -91.8752,33.7434 L-91.8657,29.3512 L-91.8657,29.3417 C-91.8657,29.212 -91.9123,29.1006 -92.0056,29.0073 C-92.0989,28.914 -92.2104,28.8674 -92.34,28.8674 C-92.4697,28.8674 -92.5724,28.914 -92.6483,29.0073 C-92.7242,29.1006 -92.7622,29.212 -92.7622,29.3417 L-92.8143,29.7971 C-92.8997,29.6484 -93.0302,29.5038 -93.2057,29.363 C-93.3812,29.2223 -93.5804,29.1053 -93.8033,29.012 C-94.0262,28.9188 -94.2547,28.8721 -94.4887,28.8721 Z M-92.8523,31.5378 C-92.8523,31.8414 -92.9258,32.1236 -93.0729,32.3845 C-93.2199,32.6454 -93.4175,32.8549 -93.6658,33.013 C-93.914,33.1711 -94.1899,33.2501 -94.4935,33.2501 C-94.797,33.2501 -95.0745,33.1711 -95.3259,33.013 C-95.5773,32.8549 -95.7773,32.6454 -95.9259,32.3845 C-96.0745,32.1236 -96.1489,31.8398 -96.1489,31.5331 C-96.1489,31.2295 -96.0761,30.9473 -95.9307,30.6864 C-95.7852,30.4255 -95.5876,30.216 -95.3378,30.0579 C-95.0879,29.8998 -94.8081,29.8208 -94.4982,29.8208 C-94.182,29.8208 -93.9006,29.8998 -93.6539,30.0579 C-93.4073,30.216 -93.212,30.4247 -93.0681,30.684 C-92.9242,30.9433 -92.8523,31.2279 -92.8523,31.5378 Z " fill="#24682c" fill-opacity="1.00" />				<path d="M-18.1122,32.975 C-18.1122,33.0731 -18.0774,33.1569 -18.0078,33.2264 C-17.9382,33.296 -17.8544,33.3308 -17.7564,33.3308 C-17.6584,33.3308 -17.5746,33.296 -17.505,33.2264 C-17.4354,33.1569 -17.4007,33.0731 -17.4007,32.975 L-17.4007,28.3172 L-15.0907,32.0928 C-15.0211,32.2066 -14.9199,32.2635 -14.7871,32.2635 C-14.6543,32.2635 -14.5531,32.2066 -14.4836,32.0928 L-12.1641,28.3124 L-12.1641,32.994 C-12.1641,33.092 -12.1293,33.1758 -12.0597,33.2454 C-11.9902,33.315 -11.9064,33.3498 -11.8084,33.3498 C-11.7103,33.3498 -11.6265,33.315 -11.557,33.2454 C-11.4874,33.1758 -11.4526,33.092 -11.4526,32.994 L-11.4526,27.0507 C-11.4526,26.9527 -11.4874,26.8689 -11.557,26.7993 C-11.6265,26.7297 -11.7103,26.695 -11.8084,26.695 C-11.9412,26.695 -12.0424,26.7519 -12.1119,26.8657 L-14.7871,31.2248 L-17.4339,26.8942 C-17.4655,26.8404 -17.5113,26.793 -17.5714,26.7519 C-17.6315,26.7108 -17.6932,26.6902 -17.7564,26.6902 C-17.8608,26.6902 -17.9461,26.7274 -18.0125,26.8017 C-18.0789,26.876 -18.1122,26.9574 -18.1122,27.046 L-18.1122,32.975 Z M-7.95208,33.3545 C-7.59475,33.3545 -7.25087,33.277 -6.92042,33.1221 C-6.58997,32.9671 -6.31091,32.7505 -6.08323,32.4723 C-6.02632,32.4027 -5.99786,32.3252 -5.99786,32.2398 C-5.99786,32.1418 -6.03264,32.058 -6.10221,31.9884 C-6.17178,31.9189 -6.25557,31.8841 -6.3536,31.8841 C-6.4706,31.8841 -6.56389,31.9299 -6.63345,32.0216 C-6.7884,32.2145 -6.98604,32.3663 -7.22636,32.477 C-7.46669,32.5877 -7.71176,32.643 -7.96157,32.643 C-8.25565,32.643 -8.52206,32.575 -8.76081,32.439 C-8.99955,32.3031 -9.19719,32.1236 -9.35371,31.9007 C-9.51024,31.6778 -9.6138,31.4351 -9.6644,31.1726 L-6.2113,31.1726 C-6.07217,31.1726 -5.97651,31.1204 -5.92434,31.0161 C-5.87216,30.9117 -5.84607,30.7868 -5.84607,30.6414 C-5.84607,30.2303 -5.94805,29.8563 -6.15201,29.5196 C-6.35597,29.1828 -6.62634,28.9148 -6.96311,28.7156 C-7.29988,28.5164 -7.66907,28.4168 -8.07066,28.4168 C-8.50704,28.4168 -8.90231,28.529 -9.25648,28.7535 C-9.61064,28.978 -9.89128,29.2745 -10.0984,29.6429 C-10.3055,30.0113 -10.4091,30.4121 -10.4091,30.8453 C-10.4091,31.3007 -10.3,31.7189 -10.0818,32.0999 C-9.86362,32.4809 -9.56874,32.7853 -9.19719,33.013 C-8.82563,33.2407 -8.4106,33.3545 -7.95208,33.3545 Z M-9.65491,30.4706 C-9.60116,30.2271 -9.50076,30.0042 -9.35371,29.8018 C-9.20667,29.5994 -9.02248,29.4366 -8.80112,29.3132 C-8.57977,29.1899 -8.3347,29.1283 -8.06592,29.1283 C-7.80662,29.1283 -7.56946,29.1883 -7.35443,29.3085 C-7.1394,29.4287 -6.96232,29.5907 -6.82318,29.7947 C-6.68405,29.9986 -6.60025,30.2239 -6.57179,30.4706 L-9.65491,30.4706 Z M-2.68706,33.3592 C-2.35503,33.3592 -2.0562,33.2707 -1.79058,33.0936 C-1.52496,32.9165 -1.30203,32.7363 -1.12178,32.5529 L-1.09807,33.0082 C-1.09807,33.1063 -1.06723,33.1901 -1.00557,33.2596 C-0.943909,33.3292 -0.864064,33.364 -0.766037,33.364 C-0.66801,33.364 -0.584212,33.3292 -0.514644,33.2596 C-0.445076,33.1901 -0.410292,33.1063 -0.410292,33.0082 L-0.410292,27.0365 C-0.410292,26.9384 -0.444286,26.8546 -0.512272,26.7851 C-0.580259,26.7155 -0.664847,26.6807 -0.766037,26.6807 C-0.864064,26.6807 -0.947862,26.7155 -1.01743,26.7851 C-1.087,26.8546 -1.12178,26.9384 -1.12178,27.0365 L-1.12178,29.1804 C-1.31467,28.978 -1.53919,28.7994 -1.79533,28.6444 C-2.05146,28.4895 -2.33448,28.412 -2.64437,28.412 C-2.97007,28.412 -3.27048,28.4816 -3.54559,28.6207 C-3.8207,28.7599 -4.05944,28.9472 -4.26182,29.1828 C-4.4642,29.4184 -4.62073,29.6864 -4.7314,29.9868 C-4.84208,30.2872 -4.89742,30.5987 -4.89742,30.9212 C-4.89742,31.3481 -4.80255,31.7473 -4.61282,32.1189 C-4.42309,32.4904 -4.16221,32.79 -3.83018,33.0177 C-3.49816,33.2454 -3.11711,33.3592 -2.68706,33.3592 Z M-2.67283,32.6478 C-2.97324,32.6478 -3.23649,32.5679 -3.46258,32.4082 C-3.68868,32.2485 -3.86418,32.0382 -3.98908,31.7774 C-4.11399,31.5165 -4.17644,31.2358 -4.17644,30.9354 C-4.17644,30.6319 -4.1132,30.3417 -3.98671,30.065 C-3.86023,29.7884 -3.68314,29.5623 -3.45547,29.3868 C-3.22779,29.2113 -2.96059,29.1235 -2.65386,29.1235 C-2.33448,29.1235 -2.06095,29.2065 -1.83327,29.3725 C-1.60559,29.5385 -1.43088,29.7528 -1.30914,30.0152 C-1.1874,30.2777 -1.12652,30.5576 -1.12652,30.8548 C-1.12652,31.152 -1.18819,31.4382 -1.31151,31.7133 C-1.43484,31.9884 -1.61192,32.213 -1.84276,32.3869 C-2.0736,32.5608 -2.35029,32.6478 -2.67283,32.6478 Z M1.1455,27.6768 C1.28463,27.6768 1.4048,27.6278 1.50599,27.5298 C1.60718,27.4317 1.65777,27.3132 1.65777,27.174 C1.65777,27.0349 1.60718,26.9163 1.50599,26.8183 C1.4048,26.7203 1.28463,26.6712 1.1455,26.6712 C1.00952,26.6712 0.890152,26.7203 0.787382,26.8183 C0.684611,26.9163 0.633226,27.0349 0.633226,27.174 C0.633226,27.3132 0.684611,27.4317 0.787382,27.5298 C0.890152,27.6278 1.00952,27.6768 1.1455,27.6768 Z M0.808726,33.0082 C0.808726,33.1063 0.84351,33.1909 0.913078,33.262 C0.982646,33.3332 1.06644,33.3687 1.16447,33.3687 C1.2625,33.3687 1.3463,33.3339 1.41586,33.2644 C1.48543,33.1948 1.52022,33.111 1.52022,33.013 L1.51073,28.7583 C1.51073,28.6508 1.47436,28.5638 1.40163,28.4974 C1.3289,28.431 1.2372,28.3978 1.12652,28.3978 C1.06012,28.3978 0.98897,28.4286 0.913078,28.4903 C0.837186,28.5519 0.79924,28.6239 0.79924,28.7061 L0.808726,33.0082 Z M5.02074,28.3978 C4.68872,28.3978 4.38198,28.4658 4.10055,28.6017 C3.81912,28.7377 3.57326,28.9219 3.36297,29.1543 C3.15269,29.3868 2.98984,29.6524 2.87442,29.9512 C2.759,30.25 2.70129,30.5607 2.70129,30.8833 C2.70129,31.209 2.759,31.5196 2.87442,31.8153 C2.98984,32.111 3.1519,32.3742 3.3606,32.6051 C3.56931,32.8359 3.81279,33.0185 4.09106,33.1529 C4.36934,33.2873 4.67132,33.3545 4.99703,33.3545 C5.31325,33.3545 5.61444,33.2628 5.90062,33.0794 C6.1868,32.896 6.43424,32.6904 6.64294,32.4628 L6.64294,33.0035 C6.64294,33.0952 6.67535,33.1735 6.74018,33.2383 C6.805,33.3031 6.88327,33.3355 6.97497,33.3355 C7.06667,33.3355 7.14494,33.3031 7.20976,33.2383 C7.27458,33.1735 7.307,33.0952 7.307,33.0035 L7.307,28.7156 C7.307,28.6239 7.27458,28.5456 7.20976,28.4808 C7.14494,28.416 7.06667,28.3836 6.97497,28.3836 C6.88327,28.3836 6.81212,28.416 6.76152,28.4808 C6.71093,28.5456 6.68563,28.6239 6.68563,28.7156 L6.64294,29.3132 C6.44056,29.095 6.20419,28.8879 5.93382,28.6919 C5.66346,28.4958 5.3591,28.3978 5.02074,28.3978 Z M6.66666,30.8548 C6.66666,31.1615 6.59076,31.4517 6.43898,31.7252 C6.2872,31.9987 6.08482,32.2201 5.83184,32.3892 C5.57887,32.5584 5.3006,32.643 4.99703,32.643 C4.69662,32.643 4.42705,32.56 4.1883,32.394 C3.94956,32.228 3.76062,32.0106 3.62148,31.7418 C3.48235,31.473 3.41278,31.1868 3.41278,30.8833 C3.41278,30.5765 3.48314,30.288 3.62385,30.0176 C3.76457,29.7472 3.95667,29.5283 4.20016,29.3607 C4.44365,29.1931 4.71876,29.1093 5.02549,29.1093 C5.32906,29.1093 5.60496,29.1915 5.85319,29.3559 C6.10142,29.5204 6.29905,29.7346 6.44609,29.9986 C6.59314,30.2627 6.66666,30.5481 6.66666,30.8548 Z M8.80112,28.3883 C8.69994,28.3883 8.61535,28.4231 8.54736,28.4927 C8.47937,28.5622 8.44538,28.6476 8.44538,28.7488 L8.45012,33.0082 C8.45012,33.1063 8.48491,33.1909 8.55447,33.262 C8.62404,33.3332 8.70784,33.3687 8.80587,33.3687 C8.9039,33.3687 8.98769,33.3339 9.05726,33.2644 C9.12683,33.1948 9.16161,33.111 9.16161,33.013 L9.16161,30.6888 C9.16161,30.1892 9.29284,29.8018 9.5553,29.5267 C9.81776,29.2516 10.2067,29.114 10.7221,29.114 C10.9973,29.114 11.2091,29.1883 11.3577,29.337 C11.5064,29.4856 11.6091,29.6801 11.6661,29.9204 C11.723,30.1607 11.7514,30.4216 11.7514,30.703 L11.7467,32.9988 C11.7467,33.0968 11.7815,33.1814 11.851,33.2525 C11.9206,33.3237 12.0044,33.3592 12.1024,33.3592 C12.2005,33.3592 12.2843,33.3245 12.3538,33.2549 C12.4234,33.1853 12.4582,33.1015 12.4582,33.0035 L12.4629,30.703 C12.4629,30.2983 12.4052,29.9212 12.2898,29.5717 C12.1744,29.2223 11.9894,28.9401 11.7348,28.7251 C11.4803,28.51 11.1427,28.4025 10.7221,28.4025 C10.4818,28.4025 10.2644,28.4492 10.0699,28.5425 C9.87547,28.6357 9.70314,28.752 9.55293,28.8911 C9.40273,29.0302 9.27071,29.1694 9.15687,29.3085 L9.13315,28.744 C9.13315,28.646 9.10232,28.5622 9.04066,28.4927 C8.979,28.4231 8.89915,28.3883 8.80112,28.3883 Z M15.8259,28.3978 C15.4939,28.3978 15.1871,28.4658 14.9057,28.6017 C14.6243,28.7377 14.3784,28.9219 14.1681,29.1543 C13.9578,29.3868 13.795,29.6524 13.6796,29.9512 C13.5642,30.25 13.5064,30.5607 13.5064,30.8833 C13.5064,31.209 13.5642,31.5196 13.6796,31.8153 C13.795,32.111 13.9571,32.3742 14.1658,32.6051 C14.3745,32.8359 14.6179,33.0185 14.8962,33.1529 C15.1745,33.2873 15.4765,33.3545 15.8022,33.3545 C16.1184,33.3545 16.4196,33.2628 16.7058,33.0794 C16.9919,32.896 17.2394,32.6904 17.4481,32.4628 L17.4481,33.0035 C17.4481,33.0952 17.4805,33.1735 17.5453,33.2383 C17.6102,33.3031 17.6884,33.3355 17.7801,33.3355 C17.8718,33.3355 17.9501,33.3031 18.0149,33.2383 C18.0797,33.1735 18.1122,33.0952 18.1122,33.0035 L18.1122,28.7156 C18.1122,28.6239 18.0797,28.5456 18.0149,28.4808 C17.9501,28.416 17.8718,28.3836 17.7801,28.3836 C17.6884,28.3836 17.6173,28.416 17.5667,28.4808 C17.5161,28.5456 17.4908,28.6239 17.4908,28.7156 L17.4481,29.3132 C17.2457,29.095 17.0093,28.8879 16.739,28.6919 C16.4686,28.4958 16.1643,28.3978 15.8259,28.3978 Z M17.4718,30.8548 C17.4718,31.1615 17.3959,31.4517 17.2441,31.7252 C17.0923,31.9987 16.89,32.2201 16.637,32.3892 C16.384,32.5584 16.1057,32.643 15.8022,32.643 C15.5018,32.643 15.2322,32.56 14.9935,32.394 C14.7547,32.228 14.5658,32.0106 14.4266,31.7418 C14.2875,31.473 14.2179,31.1868 14.2179,30.8833 C14.2179,30.5765 14.2883,30.288 14.429,30.0176 C14.5697,29.7472 14.7618,29.5283 15.0053,29.3607 C15.2488,29.1931 15.5239,29.1093 15.8306,29.1093 C16.1342,29.1093 16.4101,29.1915 16.6583,29.3559 C16.9066,29.5204 17.1042,29.7346 17.2512,29.9986 C17.3983,30.2627 17.4718,30.5481 17.4718,30.8548 Z " fill="#24682c" fill-opacity="1.00" />				<path d="M92.8902,32.8659 C92.8902,32.964 92.925,33.0478 92.9946,33.1173 C93.0642,33.1869 93.148,33.2217 93.246,33.2217 C93.344,33.2217 93.4278,33.1869 93.4974,33.1173 C93.5669,33.0478 93.6017,32.964 93.6017,32.8659 L93.6017,28.2081 L95.9117,31.9837 C95.9813,32.0975 96.0825,32.1545 96.2153,32.1545 C96.3481,32.1545 96.4493,32.0975 96.5188,31.9837 L98.8383,28.2033 L98.8383,32.8849 C98.8383,32.9829 98.8731,33.0667 98.9426,33.1363 C99.0122,33.2059 99.096,33.2407 99.194,33.2407 C99.2921,33.2407 99.3759,33.2059 99.4454,33.1363 C99.515,33.0667 99.5498,32.9829 99.5498,32.8849 L99.5498,26.9416 C99.5498,26.8436 99.515,26.7598 99.4454,26.6902 C99.3759,26.6206 99.2921,26.5859 99.194,26.5859 C99.0612,26.5859 98.96,26.6428 98.8905,26.7566 L96.2153,31.1157 L93.5685,26.7851 C93.5369,26.7313 93.4911,26.6839 93.431,26.6428 C93.3709,26.6017 93.3092,26.5811 93.246,26.5811 C93.1416,26.5811 93.0563,26.6183 92.9898,26.6926 C92.9234,26.7669 92.8902,26.8483 92.8902,26.9369 L92.8902,32.8659 Z M102.96,28.2839 C102.628,28.2839 102.319,28.3504 102.033,28.4832 C101.747,28.616 101.496,28.7986 101.281,29.031 C101.066,29.2634 100.898,29.5291 100.776,29.8279 C100.654,30.1267 100.593,30.4406 100.593,30.7694 C100.593,31.2121 100.698,31.6224 100.909,32.0003 C101.119,32.3782 101.404,32.6825 101.765,32.9134 C102.125,33.1442 102.53,33.2596 102.979,33.2596 C103.422,33.2565 103.821,33.1387 104.177,32.9063 C104.533,32.6738 104.815,32.3695 105.024,31.9932 C105.232,31.6169 105.337,31.209 105.337,30.7694 C105.337,30.4374 105.276,30.1228 105.154,29.8255 C105.032,29.5283 104.863,29.2634 104.646,29.031 C104.43,28.7986 104.178,28.616 103.89,28.4832 C103.602,28.3504 103.292,28.2839 102.96,28.2839 Z M102.96,28.9954 C103.273,28.9954 103.555,29.0777 103.807,29.2421 C104.058,29.4065 104.257,29.6239 104.405,29.8943 C104.552,30.1647 104.625,30.4564 104.625,30.7694 C104.625,31.0825 104.552,31.3734 104.407,31.6422 C104.261,31.911 104.065,32.1284 103.816,32.2944 C103.568,32.4604 103.287,32.545 102.974,32.5481 C102.658,32.5481 102.374,32.4651 102.121,32.2991 C101.868,32.1331 101.668,31.9141 101.523,31.6422 C101.378,31.3702 101.305,31.0762 101.305,30.7599 C101.305,30.4469 101.378,30.1567 101.525,29.8895 C101.672,29.6223 101.871,29.4065 102.121,29.2421 C102.37,29.0777 102.65,28.9954 102.96,28.9954 Z M108.496,33.2501 C108.828,33.2501 109.126,33.1616 109.392,32.9845 C109.658,32.8074 109.881,32.6272 110.061,32.4438 L110.085,32.8991 C110.085,32.9972 110.115,33.081 110.177,33.1505 C110.239,33.2201 110.319,33.2549 110.417,33.2549 C110.515,33.2549 110.598,33.2201 110.668,33.1505 C110.738,33.081 110.772,32.9972 110.772,32.8991 L110.772,26.9274 C110.772,26.8293 110.738,26.7456 110.67,26.676 C110.602,26.6064 110.518,26.5716 110.417,26.5716 C110.319,26.5716 110.235,26.6064 110.165,26.676 C110.096,26.7456 110.061,26.8293 110.061,26.9274 L110.061,29.0713 C109.868,28.869 109.643,28.6903 109.387,28.5353 C109.131,28.3804 108.848,28.3029 108.538,28.3029 C108.213,28.3029 107.912,28.3725 107.637,28.5116 C107.362,28.6508 107.123,28.8381 106.921,29.0737 C106.718,29.3093 106.562,29.5773 106.451,29.8777 C106.341,30.1781 106.285,30.4896 106.285,30.8121 C106.285,31.239 106.38,31.6382 106.57,32.0098 C106.76,32.3813 107.02,32.681 107.352,32.9086 C107.684,33.1363 108.066,33.2501 108.496,33.2501 Z M108.51,32.5387 C108.209,32.5387 107.946,32.4588 107.72,32.2991 C107.494,32.1394 107.318,31.9291 107.194,31.6683 C107.069,31.4074 107.006,31.1267 107.006,30.8263 C107.006,30.5228 107.069,30.2326 107.196,29.9559 C107.322,29.6793 107.499,29.4532 107.727,29.2777 C107.955,29.1022 108.222,29.0144 108.529,29.0144 C108.848,29.0144 109.122,29.0974 109.349,29.2634 C109.577,29.4294 109.752,29.6437 109.873,29.9061 C109.995,30.1686 110.056,30.4485 110.056,30.7457 C110.056,31.0429 109.994,31.3291 109.871,31.6042 C109.748,31.8793 109.571,32.1039 109.34,32.2778 C109.109,32.4517 108.832,32.5387 108.51,32.5387 Z M114.135,28.2887 C113.803,28.2887 113.497,28.3567 113.215,28.4927 C112.934,28.6286 112.688,28.8128 112.478,29.0452 C112.267,29.2777 112.104,29.5433 111.989,29.8421 C111.874,30.1409 111.816,30.4516 111.816,30.7742 C111.816,31.0999 111.874,31.4106 111.989,31.7062 C112.104,32.0019 112.266,32.2651 112.475,32.496 C112.684,32.7268 112.927,32.9094 113.206,33.0438 C113.484,33.1782 113.786,33.2454 114.112,33.2454 C114.428,33.2454 114.729,33.1537 115.015,32.9703 C115.301,32.7869 115.549,32.5813 115.758,32.3537 L115.758,32.8944 C115.758,32.9861 115.79,33.0644 115.855,33.1292 C115.92,33.194 115.998,33.2264 116.09,33.2264 C116.181,33.2264 116.26,33.194 116.324,33.1292 C116.389,33.0644 116.422,32.9861 116.422,32.8944 L116.422,28.6065 C116.422,28.5148 116.389,28.4365 116.324,28.3717 C116.26,28.3069 116.181,28.2745 116.09,28.2745 C115.998,28.2745 115.927,28.3069 115.876,28.3717 C115.825,28.4365 115.8,28.5148 115.8,28.6065 L115.758,29.2041 C115.555,28.986 115.319,28.7788 115.048,28.5828 C114.778,28.3867 114.474,28.2887 114.135,28.2887 Z M115.781,30.7457 C115.781,31.0524 115.705,31.3426 115.554,31.6161 C115.402,31.8896 115.199,32.111 114.946,32.2801 C114.693,32.4493 114.415,32.5339 114.112,32.5339 C113.811,32.5339 113.542,32.4509 113.303,32.2849 C113.064,32.1189 112.875,31.9015 112.736,31.6327 C112.597,31.3639 112.527,31.0777 112.527,30.7742 C112.527,30.4674 112.598,30.1789 112.738,29.9085 C112.879,29.6382 113.071,29.4192 113.315,29.2516 C113.558,29.084 113.833,29.0002 114.14,29.0002 C114.444,29.0002 114.72,29.0824 114.968,29.2468 C115.216,29.4113 115.414,29.6255 115.561,29.8895 C115.708,30.1536 115.781,30.439 115.781,30.7457 Z " fill="#24682c" fill-opacity="1.00" />			</g>		</g>	</svg>