<?xml version="1.0" encoding="utf-8" ?>	<!-- Generator: Assembly 2.4 - http://assemblyapp.co -->	<svg version="1.1" xmlns="http://www.w3.org/2000/svg" xmlns:xlink="http://www.w3.org/1999/xlink" width="500.00" height="500.00" viewBox="0 0 500.0 500.0">		<g id="document" transform="scale(1.6666666666666667 1.6666666666666667) translate(150.0 150.0)">			<g>				<path d="M8.32965e-07,68.6214 C47.6891,68.6214 86.2946,30.0159 86.2946,-17.6732 C86.2946,-65.3624 47.6891,-103.968 8.32965e-07,-103.968 C-47.6891,-103.968 -86.2946,-65.3624 -86.2946,-17.6732 C-86.2946,30.0159 -47.6891,68.6214 8.32965e-07,68.6214 Z " fill="#015e6c" fill-opacity="1.00" />				<path d="M4.46932,45.2221 C39.2273,42.7523 65.3652,12.6154 62.8954,-22.1425 C60.4255,-56.9005 30.2886,-83.0385 -4.46932,-80.5686 C-39.2273,-78.0987 -65.3652,-47.9619 -62.8954,-13.2039 C-60.4255,21.5541 -30.2886,47.692 4.46932,45.2221 Z " fill="none" stroke-width="2.89" stroke="#ffffff" stroke-linecap="square" stroke-linejoin="miter" />				<path d="M14.6973,-17.6732 C14.6973,-38.6419 -2.30119,-55.6404 -23.2699,-55.6404 C-44.2386,-55.6404 -61.2371,-38.6419 -61.2371,-17.6732 C-61.2371,3.2955 -44.2386,20.294 -23.2699,20.294 C-2.30119,20.294 14.6973,3.2955 14.6973,-17.6732 Z " fill="none" stroke-width="2.89" stroke="#ffffff" stroke-linecap="square" stroke-linejoin="miter" />				<path d="M-39.4193,98.8826 L-37.1281,98.8826 L-36.4267,86.4442 C-36.302,87.4574 -36.1636,88.4257 -36.0117,89.3493 C-35.8597,90.2728 -35.6863,91.1827 -35.4914,92.0789 L-34.0652,98.8826 L-32.4286,98.8826 L-30.9089,91.0034 L-30.792,90.3838 L-30.488,88.7355 C-30.4491,88.5173 -30.4043,88.2484 -30.3536,87.9289 C-30.3029,87.6094 -30.2464,87.2353 -30.1841,86.8066 L-30.1256,86.4442 C-30.1178,86.53 -30.112,86.5982 -30.1081,86.6488 C-30.1042,86.6995 -30.1023,86.7326 -30.1023,86.7482 L-30.0438,88.9693 L-29.9386,91.3892 C-29.9386,91.5373 -29.9328,91.7243 -29.9211,91.9503 C-29.9094,92.1763 -29.8957,92.4452 -29.8801,92.757 L-29.471,98.8826 L-27.1446,98.8826 L-28.8046,80.833 L-30.9089,80.833 L-32.3234,88.0692 L-32.5923,89.3668 L-32.8962,91.3308 L-33.2352,93.3999 C-33.243,93.4311 -33.2508,93.4837 -33.2586,93.5577 C-33.2664,93.6318 -33.2781,93.735 -33.2937,93.8675 C-33.4262,92.8544 -33.5723,91.886 -33.7321,90.9625 C-33.8918,90.039 -34.0691,89.1174 -34.264,88.1978 L-35.8538,80.833 L-37.9347,80.833 L-39.4193,98.8826 Z M-20.5864,86.7833 L-20.5864,88.151 C-21.1476,87.1067 -21.8879,86.5845 -22.8076,86.5845 C-23.8129,86.5845 -24.5494,87.0775 -25.017,88.0633 C-25.4846,89.0492 -25.7184,90.5904 -25.7184,92.6868 C-25.7184,94.8846 -25.4846,96.4978 -25.017,97.5266 C-24.5494,98.5553 -23.8129,99.0697 -22.8076,99.0697 C-22.2854,99.0697 -21.8646,98.945 -21.545,98.6956 C-21.2255,98.4462 -20.906,97.9903 -20.5864,97.3278 L-20.5864,98.8826 L-18.3536,98.8826 L-18.3536,86.7833 L-20.5864,86.7833 Z M-23.4038,92.7803 C-23.4038,91.1983 -23.2947,90.1189 -23.0765,89.5422 C-22.8504,88.9187 -22.4725,88.6069 -21.9425,88.6069 C-21.4437,88.6069 -21.0813,88.9343 -20.8553,89.5889 C-20.6293,90.2903 -20.5163,91.3736 -20.5163,92.8388 C-20.5163,94.2962 -20.6293,95.3756 -20.8553,96.077 C-21.0813,96.7316 -21.4437,97.0589 -21.9425,97.0589 C-22.488,97.0589 -22.8699,96.7433 -23.0881,96.112 C-23.2986,95.4808 -23.4038,94.3702 -23.4038,92.7803 Z M-11.1291,88.2328 C-11.472,87.6172 -11.7993,87.1885 -12.111,86.9469 C-12.4228,86.7053 -12.828,86.5845 -13.3268,86.5845 C-14.3789,86.5845 -15.131,87.0872 -15.583,88.0926 C-16.0428,89.1447 -16.2728,90.7774 -16.2728,92.9908 C-16.2728,95.0794 -16.0331,96.6147 -15.5538,97.5967 C-15.0745,98.5787 -14.3283,99.0697 -13.3151,99.0697 C-12.3332,99.0697 -11.6045,98.5163 -11.1291,97.4097 L-11.1291,99.736 C-11.1291,100.663 -11.2265,101.283 -11.4213,101.595 C-11.6084,101.922 -11.963,102.086 -12.4851,102.086 C-13.4437,102.086 -13.923,101.443 -13.923,100.157 L-16.0857,100.157 L-16.0974,100.531 C-16.0974,101.583 -15.7857,102.421 -15.1622,103.044 C-14.5465,103.66 -13.697,103.968 -12.6137,103.968 C-10.9693,103.968 -9.87432,103.438 -9.32878,102.378 C-9.03263,101.801 -8.88455,100.765 -8.88455,99.2684 L-8.88455,86.7833 L-11.1291,86.7833 L-11.1291,88.2328 Z M-11.094,92.944 C-11.094,94.5417 -11.1914,95.6172 -11.3863,96.1705 C-11.5811,96.7628 -11.9357,97.0589 -12.4501,97.0589 C-12.9956,97.0589 -13.3853,96.7277 -13.6191,96.0653 C-13.8451,95.3483 -13.9581,94.2299 -13.9581,92.7102 C-13.9581,91.2762 -13.849,90.2338 -13.6308,89.5831 C-13.4126,88.9323 -13.0657,88.6069 -12.5903,88.6069 C-11.5928,88.6069 -11.094,90.0526 -11.094,92.944 Z M-6.35947,98.8826 L-4.12664,98.8826 L-4.12664,91.0619 C-4.12664,90.5943 -4.10131,90.2007 -4.05065,89.8812 C-4,89.5616 -3.92011,89.3025 -3.811,89.1038 C-3.7019,88.905 -3.55967,88.7609 -3.38431,88.6712 C-3.20896,88.5816 -2.99269,88.5368 -2.73551,88.5368 C-2.26011,88.5368 -1.92499,88.7083 -1.73015,89.0512 C-1.53531,89.3941 -1.43789,89.9747 -1.43789,90.793 L-1.4262,98.8826 L0.806624,98.8826 L0.806624,90.2786 C0.806624,89.0239 0.689722,88.1783 0.455918,87.7419 C0.0350706,86.9703 -0.666341,86.5845 -1.64832,86.5845 C-2.66147,86.5845 -3.48758,87.1145 -4.12664,88.1744 L-4.12664,86.7833 L-6.35947,86.7833 L-6.35947,98.8826 Z M3.33171,98.8826 L5.57622,98.8826 L5.57622,86.7833 L3.33171,86.7833 L3.33171,98.8826 Z M4.38382,81.6396 C3.97856,81.6396 3.61617,81.7877 3.29664,82.0838 C3.00048,82.38 2.85241,82.7307 2.85241,83.1359 C2.85241,83.5724 2.99659,83.9348 3.28495,84.2231 C3.5811,84.5193 3.9396,84.6673 4.36044,84.6673 C4.78129,84.6673 5.13979,84.5193 5.43594,84.2231 C5.73209,83.927 5.88017,83.5685 5.88017,83.1476 C5.88017,82.7346 5.73209,82.38 5.43594,82.0838 C5.13979,81.7877 4.78908,81.6396 4.38382,81.6396 Z M8.35849,86.7833 L7.13102,86.7833 L7.13102,88.5602 L8.35849,88.5602 L8.35849,98.8826 L10.5913,98.8826 L10.5913,88.5602 L11.8071,88.5602 L11.8071,86.7833 L10.5913,86.7833 L10.5913,83.3931 L8.35849,83.3931 L8.35849,86.7833 Z M13.4087,94.7794 C13.4087,96.3225 13.6814,97.4252 14.227,98.0877 C14.7725,98.7423 15.6921,99.0697 16.9859,99.0697 C18.6303,99.0697 19.7136,98.5163 20.2357,97.4097 C20.4851,96.8407 20.6098,95.7107 20.6098,94.0195 L20.6098,86.7833 L18.377,86.7833 L18.377,94.0195 L18.377,94.9898 C18.377,95.7224 18.2757,96.2367 18.073,96.5329 C17.8704,96.8135 17.5158,96.9537 17.0092,96.9537 C16.526,96.9537 16.1812,96.794 15.9747,96.4744 C15.7681,96.1549 15.6571,95.6211 15.6415,94.8729 L15.6415,86.7833 L13.4087,86.7833 L13.4087,94.7794 Z M27.811,79.021 L27.811,88.151 C27.6551,87.8549 27.4953,87.6055 27.3317,87.4028 C27.168,87.2002 27.0083,87.0443 26.8524,86.9352 C26.5329,86.7014 26.1276,86.5845 25.6366,86.5845 C25.1222,86.5845 24.678,86.7034 24.3039,86.9411 C23.9298,87.1788 23.6239,87.547 23.3862,88.0458 C23.1485,88.5446 22.9712,89.1798 22.8543,89.9513 C22.7374,90.7229 22.679,91.6386 22.679,92.6985 C22.679,94.8963 22.9128,96.5076 23.3804,97.5324 C23.848,98.5572 24.5806,99.0697 25.5782,99.0697 C26.1081,99.0697 26.5329,98.945 26.8524,98.6956 C27.1719,98.4462 27.4914,97.9903 27.811,97.3278 L27.811,98.8826 L30.0438,98.8826 L30.0438,79.021 L27.811,79.021 Z M24.9936,92.7803 C24.9936,91.1983 25.1028,90.1189 25.321,89.5422 C25.547,88.9187 25.925,88.6069 26.4549,88.6069 C26.9537,88.6069 27.3161,88.9343 27.5421,89.5889 C27.7681,90.2903 27.8811,91.3736 27.8811,92.8388 C27.8811,94.2962 27.7681,95.3756 27.5421,96.077 C27.3161,96.7316 26.9537,97.0589 26.4549,97.0589 C25.9094,97.0589 25.5275,96.7433 25.3093,96.112 C25.0989,95.4808 24.9936,94.3702 24.9936,92.7803 Z M37.2567,94.8027 C37.2567,96.3692 36.7891,97.1525 35.8538,97.1525 C34.8251,97.1525 34.3107,95.8588 34.3107,93.2713 L39.4193,93.2713 L39.4193,92.9908 C39.4193,88.7199 38.2075,86.5845 35.7837,86.5845 C34.5367,86.5845 33.6152,87.0989 33.019,88.1276 C32.4228,89.1564 32.1247,90.7384 32.1247,92.8739 C32.1247,93.9494 32.1968,94.8768 32.3409,95.6561 C32.4851,96.4355 32.7092,97.0784 33.0131,97.585 C33.3171,98.0916 33.7009,98.4657 34.1646,98.7073 C34.6283,98.9489 35.1836,99.0697 35.8305,99.0697 C38.0048,99.0697 39.1739,97.6474 39.3375,94.8027 L37.2567,94.8027 Z M34.3107,91.6581 C34.4043,90.3877 34.5484,89.5538 34.7433,89.1564 C34.9381,88.7121 35.2654,88.49 35.7252,88.49 C36.1773,88.49 36.5046,88.7121 36.7072,89.1564 C36.9021,89.5538 37.0462,90.3877 37.1398,91.6581 L34.3107,91.6581 Z " fill="#015e6c" fill-opacity="1.00" />			</g>		</g>	</svg>