<?xml version="1.0" encoding="utf-8" ?>	<!-- Generator: Assembly 2.4 - http://assemblyapp.co -->	<svg version="1.1" xmlns="http://www.w3.org/2000/svg" xmlns:xlink="http://www.w3.org/1999/xlink" width="500.00" height="500.00" viewBox="0 0 500.0 500.0">		<g id="document" transform="scale(1.6666666666666667 1.6666666666666667) translate(150.0 150.0)">			<path d="M1.12121e-06,77.9411 C53.1032,77.9411 96.0914,34.9529 96.0914,-18.1503 C96.0914,-71.2534 53.1032,-114.242 9.3305e-07,-114.242 C-53.1032,-114.242 -96.0914,-71.2534 -96.0914,-18.1503 C-96.0914,34.9529 -53.1032,77.9411 1.12121e-06,77.9411 Z " fill="#015e6c" fill-opacity="1.00" />			<path d="M7.74881e-07,52.062 C38.8015,52.062 70.2123,20.6512 70.2123,-18.1503 C70.2123,-56.9518 38.8015,-88.3626 7.79775e-07,-88.3626 C-38.8015,-88.3626 -70.2123,-56.9518 -70.2123,-18.1503 C-70.2123,20.6512 -38.8015,52.062 7.74881e-07,52.062 Z " fill="none" stroke-width="2.00" stroke="#ffffff" stroke-linecap="square" stroke-linejoin="miter" />			<path d="M18.0776,-18.1503 C18.0776,-42.3926 -1.57465,-62.0448 -25.8169,-62.0448 C-50.0592,-62.0448 -69.7114,-42.3926 -69.7114,-18.1503 C-69.7114,6.09198 -50.0592,25.7442 -25.8169,25.7442 C-1.57465,25.7442 18.0776,6.09198 18.0776,-18.1503 Z " fill="none" stroke-width="2.00" stroke="#ffffff" stroke-linecap="square" stroke-linejoin="miter" />			<path d="M-60.9798,122.942 C-60.624,122.942 -60.3181,122.814 -60.0621,122.558 C-59.8061,122.302 -59.6781,121.996 -59.6781,121.641 L-59.6781,121.628 L-59.7171,110.003 L-53.9765,119.389 C-53.7074,119.805 -53.3212,120.013 -52.8179,120.013 C-52.5836,120.013 -52.3666,119.942 -52.167,119.799 C-51.9674,119.655 -51.8199,119.506 -51.7245,119.349 L-46.6086,110.055 L-46.6086,121.693 C-46.6086,122.048 -46.4806,122.354 -46.2246,122.61 C-45.9686,122.866 -45.6627,122.994 -45.3069,122.994 C-44.9511,122.994 -44.6452,122.866 -44.3892,122.61 C-44.1332,122.354 -44.0052,122.048 -44.0052,121.693 L-44.0052,105.408 C-44.0052,105.026 -44.144,104.714 -44.4217,104.471 C-44.6994,104.228 -45.0249,104.106 -45.398,104.106 C-45.8406,104.106 -46.1921,104.323 -46.4524,104.757 L-52.896,116.134 L-59.8603,104.77 C-60.0946,104.284 -60.5242,104.041 -61.149,104.041 C-61.5395,104.041 -61.8389,104.21 -62.0472,104.549 C-62.1253,104.67 -62.1926,104.787 -62.249,104.9 C-62.3054,105.013 -62.3336,105.13 -62.3336,105.252 C-62.3336,105.33 -62.3293,105.408 -62.3206,105.486 L-62.2815,121.641 C-62.2815,121.996 -62.1535,122.302 -61.8975,122.558 C-61.6415,122.814 -61.3356,122.942 -60.9798,122.942 Z M-34.919,108.623 C-35.9344,108.623 -36.8738,108.821 -37.7373,109.215 C-38.6008,109.61 -39.3558,110.153 -40.0023,110.843 C-40.6489,111.533 -41.1522,112.318 -41.5123,113.199 C-41.8725,114.08 -42.0526,115.002 -42.0526,115.965 C-42.0526,116.937 -41.8681,117.861 -41.4993,118.738 C-41.1305,119.614 -40.6206,120.391 -39.9698,121.068 C-39.3189,121.745 -38.5639,122.276 -37.7048,122.662 C-36.8456,123.049 -35.9257,123.242 -34.9451,123.242 C-34.0686,123.242 -33.1964,123.053 -32.3286,122.675 C-31.4608,122.298 -30.8012,121.723 -30.35,120.951 L-30.2068,121.992 C-30.2068,122.348 -30.1026,122.654 -29.8944,122.91 C-29.6861,123.166 -29.404,123.294 -29.0482,123.294 C-28.6924,123.294 -28.3865,123.166 -28.1305,122.91 C-27.8745,122.654 -27.7465,122.348 -27.7465,121.992 L-27.7205,109.938 L-27.7205,109.912 C-27.7205,109.556 -27.8485,109.25 -28.1045,108.994 C-28.3605,108.738 -28.6664,108.61 -29.0222,108.61 C-29.378,108.61 -29.66,108.738 -29.8683,108.994 C-30.0766,109.25 -30.1807,109.556 -30.1807,109.912 L-30.3239,111.162 C-30.5582,110.754 -30.9162,110.357 -31.3979,109.97 C-31.8795,109.584 -32.4262,109.263 -33.038,109.007 C-33.6499,108.751 -34.2769,108.623 -34.919,108.623 Z M-30.4281,115.939 C-30.4281,116.772 -30.6298,117.547 -31.0334,118.263 C-31.4369,118.978 -31.9793,119.553 -32.6605,119.987 C-33.3418,120.421 -34.099,120.638 -34.9321,120.638 C-35.7652,120.638 -36.5267,120.421 -37.2166,119.987 C-37.9065,119.553 -38.4554,118.978 -38.8633,118.263 C-39.2712,117.547 -39.4751,116.768 -39.4751,115.926 C-39.4751,115.093 -39.2755,114.318 -38.8763,113.602 C-38.4771,112.886 -37.9347,112.311 -37.2492,111.878 C-36.5636,111.444 -35.7956,111.227 -34.9451,111.227 C-34.0773,111.227 -33.3049,111.444 -32.628,111.878 C-31.9511,112.311 -31.4152,112.884 -31.0204,113.596 C-30.6255,114.307 -30.4281,115.088 -30.4281,115.939 Z M-13.3233,108.636 C-13.6877,108.636 -13.9481,108.766 -14.1043,109.027 C-14.2605,109.287 -14.3733,109.595 -14.4428,109.951 L-14.638,110.992 C-15.1414,110.211 -15.7532,109.63 -16.4735,109.248 C-17.1938,108.866 -17.9661,108.675 -18.7905,108.675 C-19.7452,108.675 -20.626,108.871 -21.4331,109.261 C-22.2401,109.652 -22.9431,110.181 -23.5419,110.849 C-24.1407,111.517 -24.6071,112.279 -24.9412,113.134 C-25.2754,113.989 -25.4424,114.885 -25.4424,115.822 C-25.4424,116.759 -25.2754,117.668 -24.9412,118.549 C-24.6071,119.43 -24.1407,120.217 -23.5419,120.912 C-22.9431,121.606 -22.238,122.157 -21.4266,122.565 C-20.6151,122.973 -19.7365,123.177 -18.7905,123.177 C-18.0355,123.177 -17.2957,123.027 -16.5711,122.727 C-15.8465,122.428 -15.2281,121.879 -14.7161,121.081 L-14.7161,122.357 C-14.7161,123.181 -14.9309,123.94 -15.3605,124.635 C-15.79,125.329 -16.3585,125.884 -17.0657,126.301 C-17.773,126.717 -18.5476,126.926 -19.3893,126.926 C-20.0749,126.926 -20.7497,126.765 -21.4135,126.444 C-22.0774,126.123 -22.6263,125.693 -23.0602,125.155 C-23.1731,125.008 -23.3314,124.886 -23.5354,124.791 C-23.7393,124.695 -23.9281,124.648 -24.1016,124.648 C-24.4574,124.648 -24.7633,124.776 -25.0194,125.032 C-25.2754,125.288 -25.4034,125.593 -25.4034,125.949 C-25.4034,126.253 -25.3036,126.531 -25.104,126.782 C-24.4097,127.65 -23.5614,128.325 -22.5591,128.807 C-21.5567,129.288 -20.5045,129.529 -19.4024,129.529 C-18.4217,129.529 -17.4953,129.342 -16.6232,128.969 C-15.751,128.596 -14.9765,128.08 -14.2996,127.42 C-13.6227,126.761 -13.0911,126.001 -12.7049,125.142 C-12.3188,124.283 -12.1213,123.368 -12.1126,122.396 L-12.0215,109.964 L-12.0215,109.938 C-12.0215,109.582 -12.1495,109.276 -12.4055,109.02 C-12.6615,108.764 -12.9675,108.636 -13.3233,108.636 Z M-14.7422,115.835 C-14.7422,116.625 -14.9179,117.382 -15.2694,118.106 C-15.6208,118.831 -16.1025,119.423 -16.7143,119.883 C-17.3261,120.343 -18.0182,120.573 -18.7905,120.573 C-19.5716,120.573 -20.2658,120.339 -20.8733,119.87 C-21.4808,119.402 -21.9581,118.805 -22.3052,118.08 C-22.6524,117.356 -22.8259,116.603 -22.8259,115.822 C-22.8259,115.032 -22.6502,114.292 -22.2987,113.602 C-21.9473,112.912 -21.4656,112.353 -20.8538,111.923 C-20.242,111.494 -19.5412,111.279 -18.7515,111.279 C-17.9791,111.279 -17.2914,111.496 -16.6882,111.93 C-16.0851,112.364 -15.61,112.925 -15.2628,113.615 C-14.9157,114.305 -14.7422,115.045 -14.7422,115.835 Z M-7.11398,109.964 C-7.21812,109.608 -7.36565,109.302 -7.55657,109.046 C-7.74749,108.79 -8.02086,108.662 -8.37667,108.662 C-8.73247,108.662 -9.00801,108.79 -9.20327,109.046 C-9.39853,109.302 -9.49616,109.608 -9.49616,109.964 L-9.47012,121.927 C-9.47012,122.291 -9.34429,122.602 -9.09262,122.858 C-8.84095,123.114 -8.53287,123.242 -8.16839,123.242 C-7.81258,123.242 -7.50667,123.114 -7.25067,122.858 C-6.99466,122.602 -6.86665,122.296 -6.86665,121.94 L-6.87967,116.746 C-6.88835,115.08 -6.54773,113.756 -5.85781,112.776 C-5.16789,111.795 -4.18074,111.305 -2.89636,111.305 C-2.35831,111.305 -1.91572,111.454 -1.56859,111.754 C-1.22146,112.053 -0.965454,112.394 -0.800567,112.776 C-0.653037,113.106 -0.555407,113.487 -0.507677,113.921 C-0.459946,114.355 -0.436081,114.828 -0.436081,115.34 L-0.436081,121.914 C-0.436081,122.27 -0.308077,122.576 -0.0520693,122.832 C0.203939,123.088 0.509846,123.216 0.865654,123.216 C1.22146,123.216 1.52737,123.088 1.78338,122.832 C2.03939,122.576 2.16739,122.27 2.16739,121.914 L2.16739,115.34 C2.16739,114.793 2.13919,114.21 2.08278,113.589 C2.02637,112.969 1.85931,112.342 1.58161,111.708 C1.2258,110.91 0.670394,110.209 -0.0846127,109.606 C-0.839619,109.003 -1.78555,108.701 -2.9224,108.701 C-3.79022,108.701 -4.55173,108.927 -5.20694,109.378 C-5.86215,109.829 -6.42406,110.285 -6.89269,110.745 L-7.11398,109.964 Z M6.04656,107.347 C6.40237,107.347 6.69309,107.213 6.91872,106.944 C7.14436,106.675 7.25717,106.371 7.25717,106.033 L7.24416,105.252 C7.23548,104.896 7.10747,104.592 6.86015,104.34 C6.61282,104.089 6.30691,103.963 5.94242,103.963 C5.6734,103.963 5.39135,104.065 5.09629,104.269 C4.80123,104.473 4.6537,104.74 4.6537,105.069 L4.67974,106.059 C4.68842,106.423 4.81859,106.729 5.07026,106.976 C5.32193,107.224 5.64736,107.347 6.04656,107.347 Z M4.66672,121.979 C4.66672,122.326 4.79256,122.623 5.04422,122.871 C5.29589,123.118 5.60397,123.242 5.96846,123.242 C6.32426,123.242 6.63017,123.12 6.88618,122.877 C7.14219,122.634 7.27019,122.339 7.27019,121.992 L7.24416,109.938 L7.24416,109.925 C7.24416,109.552 7.10964,109.252 6.84062,109.027 C6.57159,108.801 6.24616,108.688 5.86432,108.688 C5.60397,108.688 5.33495,108.792 5.05724,109.001 C4.77954,109.209 4.64069,109.478 4.64069,109.808 L4.66672,121.979 Z M11.7612,108.962 L10.0689,108.962 C9.73047,108.962 9.43975,109.083 9.19676,109.326 C8.95377,109.569 8.83227,109.86 8.83227,110.198 C8.83227,110.537 8.95377,110.827 9.19676,111.07 C9.43975,111.313 9.73047,111.435 10.0689,111.435 L11.7482,111.435 L11.7351,119.597 L11.7351,119.714 C11.7351,120.721 12.0302,121.56 12.6203,122.233 C13.2104,122.905 14.0522,123.242 15.1457,123.242 C15.6317,123.242 16.0873,123.159 16.5125,122.994 C16.9377,122.829 17.3152,122.621 17.645,122.37 C17.9922,122.109 18.1657,121.766 18.1657,121.341 C18.1657,120.985 18.0377,120.682 17.7817,120.43 C17.5257,120.178 17.2198,120.052 16.864,120.052 C16.7251,120.052 16.5819,120.081 16.4344,120.137 C16.2869,120.193 16.161,120.256 16.0569,120.326 C15.7705,120.525 15.4408,120.625 15.0676,120.625 C14.7725,120.625 14.5773,120.545 14.4818,120.384 C14.3863,120.224 14.3386,119.931 14.3386,119.506 L14.3386,119.48 L14.3516,111.422 L16.109,111.422 C16.4474,111.422 16.7381,111.3 16.9811,111.057 C17.2241,110.814 17.3456,110.524 17.3456,110.185 C17.3456,109.847 17.2241,109.556 16.9811,109.313 C16.7381,109.07 16.4474,108.949 16.109,108.949 L14.3646,108.949 L14.3646,106.358 C14.3646,106.002 14.2366,105.696 13.9806,105.44 C13.7246,105.184 13.4187,105.056 13.0629,105.056 C12.6984,105.056 12.3904,105.184 12.1387,105.44 C11.887,105.696 11.7612,106.002 11.7612,106.358 L11.7612,108.962 Z M29.0092,121.966 C29.1133,122.322 29.2608,122.628 29.4518,122.884 C29.6427,123.14 29.916,123.268 30.2719,123.268 C30.6277,123.268 30.9032,123.14 31.0985,122.884 C31.2937,122.628 31.3913,122.322 31.3913,121.966 L31.3653,110.003 C31.3653,109.639 31.2395,109.328 30.9878,109.072 C30.7361,108.816 30.4281,108.688 30.0636,108.688 C29.7078,108.688 29.4019,108.816 29.1459,109.072 C28.8898,109.328 28.7618,109.634 28.7618,109.99 L28.7749,115.184 C28.7835,116.85 28.4429,118.174 27.753,119.154 C27.0631,120.135 26.0759,120.625 24.7915,120.625 C24.2622,120.625 23.8239,120.475 23.4768,120.176 C23.1297,119.877 22.8693,119.536 22.6958,119.154 C22.5482,118.824 22.4506,118.44 22.4029,118.002 C22.3551,117.564 22.3313,117.093 22.3313,116.59 L22.3313,110.016 C22.3313,109.66 22.2033,109.354 21.9473,109.098 C21.6912,108.842 21.3853,108.714 21.0295,108.714 C20.6737,108.714 20.3678,108.842 20.1118,109.098 C19.8558,109.354 19.7278,109.66 19.7278,110.016 L19.7278,116.59 C19.7278,117.137 19.756,117.72 19.8124,118.341 C19.8688,118.961 20.0359,119.588 20.3136,120.222 C20.6694,121.02 21.2248,121.721 21.9798,122.324 C22.7348,122.927 23.6807,123.229 24.8176,123.229 C25.6941,123.229 26.4578,123.001 27.1086,122.545 C27.7595,122.09 28.3193,121.636 28.7879,121.185 L29.0092,121.966 Z M33.2658,115.939 C33.2658,116.902 33.4351,117.818 33.7735,118.686 C34.112,119.553 34.5893,120.324 35.2054,120.996 C35.8216,121.669 36.544,122.2 37.3728,122.591 C38.2016,122.981 39.1063,123.177 40.0869,123.177 C40.894,123.177 41.7033,122.973 42.5147,122.565 C43.3261,122.157 43.9791,121.597 44.4738,120.886 L44.63,121.94 C44.6821,122.296 44.7971,122.602 44.975,122.858 C45.1529,123.114 45.4197,123.242 45.7755,123.242 C46.1313,123.242 46.4372,123.114 46.6932,122.858 C46.9493,122.602 47.0773,122.296 47.0773,121.94 L47.0773,105.317 C47.0773,104.961 46.9493,104.655 46.6932,104.399 C46.4372,104.143 46.1313,104.015 45.7755,104.015 C45.4197,104.015 45.1138,104.143 44.8578,104.399 C44.6018,104.655 44.4738,104.961 44.4738,105.317 L44.4738,110.797 C43.9184,110.146 43.2892,109.63 42.5863,109.248 C41.8833,108.866 41.0806,108.675 40.1781,108.675 C39.2929,108.675 38.4381,108.844 37.6136,109.183 C36.7892,109.521 36.0602,109.999 35.4267,110.615 C34.7151,111.326 34.1771,112.147 33.8126,113.075 C33.4481,114.004 33.2658,114.958 33.2658,115.939 Z M40.0609,120.573 C39.2625,120.573 38.5444,120.356 37.9065,119.922 C37.2687,119.488 36.7675,118.918 36.403,118.21 C36.0385,117.503 35.8563,116.746 35.8563,115.939 C35.8563,115.132 36.0407,114.37 36.4095,113.654 C36.7784,112.938 37.286,112.357 37.9326,111.91 C38.5791,111.463 39.3102,111.24 40.126,111.24 C40.9591,111.24 41.6946,111.452 42.3324,111.878 C42.9703,112.303 43.4714,112.867 43.8359,113.57 C44.2004,114.273 44.3827,115.041 44.3827,115.874 C44.3827,116.481 44.2764,117.076 44.0637,117.657 C43.8511,118.239 43.5496,118.746 43.159,119.18 C42.7685,119.606 42.2955,119.944 41.7401,120.196 C41.1847,120.447 40.625,120.573 40.0609,120.573 Z M55.9551,108.727 C55.0092,108.727 54.124,108.92 53.2996,109.307 C52.4751,109.693 51.7527,110.22 51.1322,110.888 C50.5117,111.556 50.0279,112.318 49.6807,113.173 C49.3336,114.028 49.16,114.928 49.16,115.874 C49.16,116.855 49.3358,117.785 49.6872,118.666 C50.0387,119.547 50.5312,120.326 51.1647,121.003 C51.7982,121.68 52.5424,122.213 53.3972,122.604 C54.252,122.994 55.1784,123.19 56.1764,123.19 C57.4174,123.19 58.5087,122.901 59.4503,122.324 C60.3918,121.747 61.1317,121.063 61.6697,120.274 C61.8259,120.057 61.904,119.809 61.904,119.532 C61.904,119.176 61.776,118.868 61.52,118.608 C61.264,118.347 60.9581,118.217 60.6023,118.217 C60.4114,118.217 60.2096,118.273 59.997,118.386 C59.7844,118.499 59.626,118.638 59.5218,118.803 C59.1921,119.28 58.7321,119.701 58.142,120.065 C57.5519,120.43 56.8837,120.612 56.1373,120.612 C55.4431,120.612 54.8031,120.443 54.2173,120.104 C53.6315,119.766 53.1347,119.323 52.7268,118.777 C52.3189,118.23 52.0412,117.644 51.8937,117.019 L60.9928,117.006 C61.3139,117.006 61.6025,116.896 61.8585,116.674 C62.1145,116.453 62.2598,116.182 62.2945,115.861 C62.3206,115.609 62.3336,115.362 62.3336,115.119 C62.3336,113.939 62.0407,112.865 61.4549,111.897 C60.8691,110.929 60.0946,110.159 59.1313,109.586 C58.168,109.014 57.1093,108.727 55.9551,108.727 Z M51.9848,114.416 C52.2365,113.591 52.7246,112.871 53.4493,112.255 C54.1739,111.639 55.0092,111.331 55.9551,111.331 C56.8837,111.331 57.6907,111.63 58.3763,112.229 C59.0619,112.828 59.4871,113.552 59.652,114.403 L51.9848,114.416 Z " fill="#015e6c" fill-opacity="1.00" />		</g>	</svg>