<?xml version="1.0" encoding="UTF-8"?>
<!DOCTYPE svg PUBLIC "-//W3C//DTD SVG 1.1//EN" "http://www.w3.org/Graphics/SVG/1.1/DTD/svg11.dtd">
<svg version="1.1" id="IMG" xmlns:x="http://ns.adobe.com/Extensibility/1.0/" xmlns:i="http://ns.adobe.com/AdobeIllustrator/10.0/" xmlns:graph="http://ns.adobe.com/Graphs/1.0/" xmlns="http://www.w3.org/2000/svg" xmlns:xlink="http://www.w3.org/1999/xlink" x="0px" y="0px" width="800px" height="480px" viewBox="0 0 200 120" enable-background="new 0 0 200 120" xml:space="preserve">
  <switch>
    <g i:extraneous="self">
      <g id="Fire"/>
      <g>
        <rect fill="none" width="200" height="120"/>
      </g>
      <g>
        <text x="-20" y = "30" text-anchor="middle" style="fill:black;font: 10px 'Montserrat', sans-serif;font-weight:400;" transform="translate(80)">População</text>
        <text x="-20" y = "40" style="fill:#3c763d;font: 8px 'Montserrat', sans-serif;font-weight:400;" transform="translate(80)" text-anchor="middle">(parâmetros)</text>     </g>
      <g>
        <text x="85" y = "100" text-anchor="middle" style="fill:black;font: 10px 'Montserrat', sans-serif;font-weight:400;" transform="translate(80)">Amostra</text>
        <text x="85" y = "110" style="fill:#3c763d;font: 8px 'Montserrat', sans-serif;font-weight:400;" transform="translate(80)" text-anchor="middle">(estatísticas)</text>
      </g>
      <ellipse fill="#d6e9c6" cx="66.5923" cy="77.1442" rx="57.9199" ry="23.4384"/>
      <ellipse fill="#3c763d" cx="92.4983" cy="77.1442" rx="22.5361" ry="9.2672"/>
      <ellipse fill="#3c763d" cx="163.7334" cy="77.082" rx="22.5361" ry="9.2672"/>
      <g>
        <g>
          <defs>
      <marker id="red-arrowhead" viewBox="0 0 10 10" refX="7" refY="5" markerUnits="strokeWidth" markerWidth="5" markerHeight="3" orient="auto">
        <path d="M 0 0 L 10 5 L 0 10 z" stroke="none" fill="#bf6300"/>
      </marker>
    </defs>
         <path d="M 110,50 Q 130,0 150,50" stroke="#bf6300" stroke-width="1.5" fill="none" marker-end="url(#red-arrowhead)"/> 
        </g>
      </g>
      <g id="Layer_1">
        <g>
          <path fill="#222222" d="M29.6224,56.068c-0.1751,0.2728-0.3502,0.5456-0.5254,0.8183      c-0.3033,0.4721-0.6051,0.9452-0.9106,1.4159c-0.1391,0.2142-0.3595,0.3034-0.5913,0.2493      c-0.2381-0.0555-0.4118-0.2402-0.4445-0.4762c-0.016-0.1154,0.0179-0.2221,0.0725-0.3215      c0.2413-0.4394,0.4859-0.8771,0.7262-1.317c0.2279-0.4172,0.4503-0.8374,0.6787-1.2544c0.1233-0.225,0.2475-0.45,0.3834-0.6674      c0.1372-0.2195,0.2768-0.4396,0.438-0.6413c0.2029-0.2537,0.4667-0.432,0.7971-0.4716c0.158-0.0189,0.3225-0.0092,0.4813,0.0101      c0.3177,0.0386,0.6329,0.0307,0.9485-0.013c0.4235-0.0586,0.7816,0.072,1.0836,0.3698c0.2607,0.257,0.4427,0.5693,0.6199,0.8842      c0.205,0.3643,0.4049,0.7315,0.6058,1.0981c0.3607,0.6582,0.7187,1.3179,1.0816,1.9748      c0.1406,0.2546,0.1095,0.5076-0.0977,0.6919c-0.2047,0.1821-0.5075,0.204-0.7158,0.0311      c-0.0932-0.0774-0.163-0.1873-0.2303-0.2911c-0.345-0.5317-0.6856-1.0662-1.0278-1.5997      c-0.105-0.1638-0.2102-0.3275-0.3153-0.4912c-0.0071,0.0005-0.0142,0.001-0.0213,0.0015c0,0.1039-0.001,0.2078,0.0002,0.3117      c0.008,0.6839,0.0118,1.3679,0.0257,2.0517c0.0245,1.2036,0.0593,2.4071,0.082,3.6107c0.0177,0.936,0.0241,1.8722,0.0343,2.8083      c0.0033,0.3036-0.1105,0.5444-0.3969,0.6748c-0.46,0.2094-1.065-0.0468-1.0658-0.6342      c-0.0009-0.6859,0.0136-1.3719,0.0085-2.0578c-0.0062-0.8373-0.0209-1.6747-0.0424-2.5117      c-0.0063-0.2459-0.0457-0.4913-0.0759-0.7362c-0.0068-0.0551-0.0386-0.1071-0.0589-0.1605      c-0.0116-0.0002-0.0233-0.0004-0.0349-0.0006c-0.0205,0.053-0.053,0.1045-0.0596,0.1592      c-0.0307,0.2553-0.0722,0.511-0.0773,0.7672c-0.0199,1.0009-0.0303,2.002-0.0384,3.0031      c-0.004,0.4962,0.0037,0.9926,0.0078,1.4889c0.0017,0.2058-0.0488,0.391-0.1987,0.5399      c-0.2108,0.2094-0.5642,0.2777-0.8402,0.1577c-0.2925-0.1272-0.4279-0.3589-0.4257-0.6728      c0.0045-0.6632,0.0087-1.3265,0.0186-1.9896c0.0108-0.7201,0.029-1.44,0.0424-2.16c0.0273-1.4611,0.0536-2.9222,0.0799-4.3832      c0.0016-0.0875,0.0002-0.1751,0.0002-0.2626C29.6367,56.0711,29.6296,56.0695,29.6224,56.068z"/>
          <path fill="#222222" d="M31.1434,53.2124c-0.8208-0.0032-1.5195-0.7128-1.516-1.5397c0.0035-0.8343,0.7025-1.5319,1.5322-1.5291      c0.8235,0.0028,1.5178,0.7069,1.5161,1.5376C32.674,52.5123,31.9701,53.2156,31.1434,53.2124z"/>
        </g>
        <g>
          <path fill="#222222" d="M19.0174,68.3982c-0.1751,0.2728-0.3502,0.5456-0.5254,0.8183      c-0.3033,0.4721-0.6051,0.9452-0.9106,1.4159c-0.1391,0.2142-0.3595,0.3034-0.5913,0.2493      c-0.2381-0.0555-0.4118-0.2402-0.4445-0.4762c-0.016-0.1154,0.0179-0.2221,0.0725-0.3215      c0.2413-0.4394,0.4859-0.8771,0.7262-1.317c0.2279-0.4172,0.4503-0.8374,0.6787-1.2544c0.1233-0.225,0.2475-0.45,0.3834-0.6674      c0.1372-0.2195,0.2768-0.4397,0.438-0.6413c0.2029-0.2537,0.4667-0.432,0.7971-0.4716c0.158-0.0189,0.3225-0.0092,0.4813,0.0101      c0.3177,0.0386,0.6329,0.0307,0.9485-0.013c0.4235-0.0586,0.7816,0.072,1.0837,0.3698c0.2607,0.257,0.4427,0.5693,0.6199,0.8842      c0.205,0.3643,0.4049,0.7315,0.6058,1.0981c0.3607,0.6582,0.7187,1.3179,1.0816,1.9748      c0.1406,0.2546,0.1095,0.5076-0.0977,0.6919c-0.2047,0.1821-0.5075,0.204-0.7158,0.0311      c-0.0932-0.0774-0.163-0.1873-0.2303-0.2911c-0.345-0.5317-0.6856-1.0662-1.0278-1.5997      c-0.105-0.1638-0.2102-0.3275-0.3153-0.4912c-0.0071,0.0005-0.0142,0.001-0.0213,0.0015c0,0.1039-0.001,0.2078,0.0002,0.3117      c0.008,0.6839,0.0118,1.3679,0.0257,2.0517c0.0245,1.2036,0.0593,2.4071,0.082,3.6107c0.0177,0.936,0.0241,1.8722,0.0343,2.8083      c0.0033,0.3036-0.1105,0.5444-0.3969,0.6748c-0.46,0.2094-1.065-0.0468-1.0658-0.6342      c-0.0009-0.6859,0.0136-1.3719,0.0085-2.0578c-0.0062-0.8373-0.0209-1.6747-0.0424-2.5117      c-0.0063-0.2459-0.0457-0.4913-0.0759-0.7362c-0.0068-0.0551-0.0386-0.1071-0.0589-0.1605      c-0.0116-0.0002-0.0233-0.0004-0.0349-0.0006c-0.0205,0.053-0.053,0.1045-0.0596,0.1592      c-0.0307,0.2553-0.0722,0.511-0.0773,0.7672c-0.0199,1.0009-0.0303,2.002-0.0384,3.0031      c-0.004,0.4962,0.0037,0.9926,0.0078,1.4889c0.0017,0.2058-0.0488,0.391-0.1987,0.5399      c-0.2109,0.2094-0.5642,0.2777-0.8402,0.1577c-0.2925-0.1272-0.4279-0.3589-0.4257-0.6728      c0.0045-0.6632,0.0087-1.3265,0.0186-1.9896c0.0108-0.7201,0.029-1.44,0.0424-2.16c0.0273-1.4611,0.0536-2.9221,0.0799-4.3832      c0.0016-0.0875,0.0002-0.1751,0.0002-0.2626C19.0317,68.4013,19.0245,68.3997,19.0174,68.3982z"/>
          <path fill="#222222" d="M20.5383,65.5426c-0.8208-0.0032-1.5195-0.7128-1.516-1.5397c0.0035-0.8343,0.7025-1.5319,1.5322-1.5291      c0.8235,0.0028,1.5178,0.7069,1.5161,1.5376C22.0689,64.8425,21.3651,65.5458,20.5383,65.5426z"/>
        </g>
        <g>
          <path fill="#222222" d="M27.0239,79.5943c-0.1751,0.2728-0.3502,0.5456-0.5254,0.8183      c-0.3033,0.4721-0.6051,0.9452-0.9106,1.4159c-0.1391,0.2142-0.3595,0.3034-0.5913,0.2493      c-0.2381-0.0555-0.4118-0.2402-0.4445-0.4762c-0.016-0.1154,0.0179-0.2221,0.0725-0.3215      c0.2413-0.4394,0.4859-0.8771,0.7262-1.317c0.2279-0.4172,0.4503-0.8374,0.6787-1.2544c0.1233-0.225,0.2475-0.45,0.3834-0.6674      c0.1372-0.2195,0.2768-0.4397,0.438-0.6413c0.2029-0.2537,0.4667-0.432,0.7971-0.4716c0.158-0.0189,0.3225-0.0092,0.4813,0.0101      c0.3177,0.0386,0.6329,0.0307,0.9485-0.013c0.4235-0.0586,0.7816,0.072,1.0837,0.3698c0.2607,0.257,0.4427,0.5693,0.6199,0.8842      c0.205,0.3643,0.4049,0.7315,0.6058,1.0981c0.3607,0.6582,0.7187,1.3179,1.0816,1.9748      c0.1406,0.2546,0.1095,0.5076-0.0977,0.6919c-0.2047,0.1821-0.5075,0.204-0.7158,0.0311      c-0.0932-0.0774-0.163-0.1874-0.2303-0.2911c-0.345-0.5317-0.6856-1.0662-1.0278-1.5997      c-0.105-0.1638-0.2102-0.3275-0.3153-0.4912c-0.0071,0.0005-0.0142,0.001-0.0213,0.0015c0,0.1039-0.001,0.2078,0.0002,0.3117      c0.008,0.6839,0.0118,1.3679,0.0257,2.0517c0.0245,1.2036,0.0593,2.4071,0.082,3.6107c0.0177,0.936,0.0241,1.8722,0.0343,2.8083      c0.0033,0.3036-0.1105,0.5444-0.3969,0.6748c-0.46,0.2094-1.065-0.0468-1.0658-0.6342      c-0.0009-0.6859,0.0136-1.3719,0.0085-2.0578c-0.0062-0.8373-0.0209-1.6747-0.0424-2.5117      c-0.0063-0.2459-0.0457-0.4913-0.0759-0.7362c-0.0068-0.0551-0.0386-0.1071-0.0589-0.1605      c-0.0116-0.0002-0.0233-0.0004-0.0349-0.0006c-0.0205,0.053-0.053,0.1045-0.0596,0.1592      c-0.0307,0.2553-0.0722,0.511-0.0773,0.7672c-0.0199,1.0009-0.0303,2.002-0.0384,3.0031      c-0.004,0.4962,0.0037,0.9926,0.0078,1.4889c0.0017,0.2058-0.0488,0.391-0.1987,0.5399      c-0.2109,0.2094-0.5642,0.2777-0.8402,0.1577c-0.2925-0.1272-0.4279-0.3589-0.4257-0.6728      c0.0045-0.6632,0.0087-1.3265,0.0186-1.9896c0.0108-0.7201,0.029-1.44,0.0424-2.16c0.0273-1.4611,0.0536-2.9221,0.0799-4.3832      c0.0016-0.0875,0.0002-0.1751,0.0002-0.2626C27.0382,79.5974,27.0311,79.5958,27.0239,79.5943z"/>
          <path fill="#222222" d="M28.5449,76.7387c-0.8208-0.0032-1.5195-0.7128-1.516-1.5397c0.0035-0.8343,0.7025-1.5319,1.5322-1.5291      c0.8235,0.0028,1.5178,0.7069,1.5161,1.5376C30.0755,76.0386,29.3717,76.7419,28.5449,76.7387z"/>
        </g>
        <g>
          <path fill="#222222" d="M40.8681,85.4907c-0.1751,0.2728-0.3502,0.5456-0.5254,0.8183      c-0.3033,0.4721-0.6051,0.9452-0.9106,1.4159c-0.1391,0.2142-0.3595,0.3033-0.5913,0.2493      c-0.2381-0.0555-0.4118-0.2402-0.4445-0.4762c-0.016-0.1154,0.0179-0.2221,0.0725-0.3215      c0.2413-0.4394,0.4859-0.8771,0.7262-1.317c0.2279-0.4172,0.4503-0.8374,0.6787-1.2544c0.1233-0.225,0.2475-0.45,0.3834-0.6674      c0.1372-0.2195,0.2768-0.4397,0.438-0.6413c0.2029-0.2537,0.4667-0.432,0.7971-0.4716c0.158-0.0189,0.3225-0.0092,0.4813,0.0101      c0.3177,0.0386,0.6329,0.0307,0.9485-0.013c0.4235-0.0586,0.7816,0.072,1.0836,0.3698c0.2607,0.257,0.4427,0.5693,0.6199,0.8842      c0.205,0.3643,0.4049,0.7315,0.6058,1.0981c0.3607,0.6582,0.7187,1.3179,1.0816,1.9748      c0.1406,0.2546,0.1095,0.5076-0.0977,0.6919c-0.2047,0.1821-0.5075,0.204-0.7158,0.0311      c-0.0932-0.0774-0.163-0.1874-0.2303-0.2911c-0.345-0.5317-0.6856-1.0662-1.0278-1.5997      c-0.105-0.1638-0.2102-0.3275-0.3153-0.4912c-0.0071,0.0005-0.0142,0.001-0.0213,0.0015c0,0.1039-0.001,0.2078,0.0002,0.3117      c0.008,0.6839,0.0118,1.3679,0.0257,2.0517c0.0245,1.2036,0.0593,2.4071,0.082,3.6107c0.0177,0.936,0.0241,1.8722,0.0343,2.8083      c0.0033,0.3036-0.1105,0.5444-0.3969,0.6748c-0.46,0.2094-1.065-0.0468-1.0658-0.6342      c-0.0009-0.6859,0.0136-1.3719,0.0085-2.0578c-0.0062-0.8373-0.0209-1.6747-0.0424-2.5117      c-0.0063-0.2459-0.0457-0.4913-0.0759-0.7362c-0.0068-0.0551-0.0386-0.1071-0.0589-0.1605      c-0.0116-0.0002-0.0233-0.0004-0.0349-0.0006c-0.0205,0.053-0.053,0.1045-0.0596,0.1592      c-0.0307,0.2552-0.0722,0.511-0.0773,0.7672c-0.0199,1.0009-0.0303,2.002-0.0384,3.0031      c-0.004,0.4962,0.0037,0.9926,0.0078,1.4889c0.0017,0.2058-0.0488,0.391-0.1987,0.5399      c-0.2109,0.2094-0.5642,0.2777-0.8402,0.1577c-0.2925-0.1272-0.4279-0.3589-0.4257-0.6728      c0.0045-0.6632,0.0087-1.3265,0.0186-1.9896c0.0108-0.7201,0.029-1.44,0.0424-2.16c0.0273-1.4611,0.0536-2.9221,0.0799-4.3832      c0.0016-0.0875,0.0002-0.1751,0.0002-0.2626C40.8825,85.4938,40.8753,85.4922,40.8681,85.4907z"/>
          <path fill="#222222" d="M42.3891,82.6351c-0.8208-0.0032-1.5195-0.7128-1.516-1.5397c0.0035-0.8343,0.7025-1.5319,1.5322-1.5291      c0.8235,0.0028,1.5178,0.7069,1.5161,1.5376C43.9197,81.935,43.2159,82.6383,42.3891,82.6351z"/>
        </g>
        <g>
          <path fill="#222222" d="M54.5311,87.3224c-0.1751,0.2728-0.3502,0.5456-0.5254,0.8183      c-0.3033,0.4721-0.6051,0.9452-0.9106,1.4159c-0.1391,0.2142-0.3595,0.3034-0.5913,0.2493      c-0.2381-0.0555-0.4118-0.2402-0.4445-0.4762c-0.016-0.1154,0.0179-0.2221,0.0725-0.3215      c0.2413-0.4394,0.4859-0.8771,0.7262-1.317c0.2279-0.4172,0.4503-0.8374,0.6787-1.2544c0.1233-0.225,0.2475-0.45,0.3834-0.6674      c0.1372-0.2195,0.2768-0.4397,0.438-0.6413c0.2029-0.2537,0.4667-0.432,0.7971-0.4716c0.158-0.0189,0.3225-0.0092,0.4813,0.0101      c0.3177,0.0386,0.6329,0.0307,0.9485-0.013c0.4235-0.0586,0.7816,0.072,1.0836,0.3698c0.2607,0.257,0.4427,0.5693,0.6199,0.8842      c0.205,0.3643,0.4049,0.7315,0.6058,1.0981c0.3607,0.6582,0.7187,1.3179,1.0816,1.9748      c0.1406,0.2546,0.1095,0.5076-0.0977,0.6919c-0.2047,0.1821-0.5075,0.204-0.7158,0.0311      c-0.0932-0.0774-0.163-0.1874-0.2303-0.2911c-0.345-0.5317-0.6856-1.0662-1.0278-1.5997      c-0.105-0.1638-0.2102-0.3275-0.3153-0.4912c-0.0071,0.0005-0.0142,0.001-0.0213,0.0015c0,0.1039-0.001,0.2078,0.0002,0.3117      c0.008,0.6839,0.0118,1.3679,0.0257,2.0517c0.0245,1.2036,0.0593,2.4071,0.082,3.6107c0.0177,0.936,0.0241,1.8722,0.0343,2.8083      c0.0033,0.3036-0.1105,0.5444-0.3969,0.6748c-0.46,0.2094-1.065-0.0468-1.0658-0.6342      c-0.0009-0.6859,0.0136-1.3719,0.0085-2.0578c-0.0062-0.8373-0.0209-1.6747-0.0424-2.5117      c-0.0063-0.2459-0.0457-0.4913-0.0759-0.7362c-0.0068-0.0551-0.0386-0.1071-0.0589-0.1605      c-0.0116-0.0002-0.0233-0.0004-0.0349-0.0006c-0.0205,0.053-0.053,0.1045-0.0596,0.1592      c-0.0307,0.2552-0.0722,0.511-0.0773,0.7672c-0.0199,1.0009-0.0303,2.002-0.0384,3.0031      c-0.004,0.4962,0.0037,0.9926,0.0078,1.4889c0.0017,0.2058-0.0488,0.391-0.1987,0.5399      c-0.2109,0.2094-0.5642,0.2777-0.8402,0.1577c-0.2925-0.1272-0.4278-0.3589-0.4257-0.6728      c0.0045-0.6632,0.0087-1.3265,0.0186-1.9896c0.0108-0.7201,0.029-1.44,0.0424-2.16c0.0273-1.4611,0.0536-2.9222,0.0799-4.3832      c0.0016-0.0875,0.0002-0.1751,0.0002-0.2626C54.5454,87.3255,54.5382,87.324,54.5311,87.3224z"/>
          <path fill="#222222" d="M56.0521,84.4668c-0.8208-0.0032-1.5195-0.7128-1.516-1.5397c0.0035-0.8343,0.7025-1.5319,1.5322-1.5291      c0.8235,0.0028,1.5178,0.7069,1.5161,1.5376C57.5826,83.7667,56.8788,84.47,56.0521,84.4668z"/>
        </g>
        <g>
          <path fill="#222222" d="M40.8698,63.7961c-0.1751,0.2728-0.3502,0.5456-0.5254,0.8183      c-0.3033,0.4721-0.6051,0.9452-0.9106,1.4159c-0.1391,0.2142-0.3595,0.3034-0.5913,0.2493      c-0.2381-0.0555-0.4118-0.2402-0.4445-0.4762c-0.016-0.1154,0.0179-0.2221,0.0725-0.3215      c0.2413-0.4394,0.4859-0.8771,0.7262-1.317c0.2279-0.4172,0.4503-0.8374,0.6787-1.2544c0.1233-0.225,0.2475-0.45,0.3834-0.6674      c0.1372-0.2195,0.2768-0.4396,0.438-0.6413c0.2029-0.2537,0.4667-0.432,0.7971-0.4716c0.158-0.0189,0.3225-0.0092,0.4813,0.0101      c0.3177,0.0386,0.6329,0.0307,0.9485-0.013c0.4235-0.0586,0.7816,0.072,1.0836,0.3698c0.2607,0.257,0.4427,0.5693,0.6199,0.8842      c0.205,0.3643,0.4049,0.7315,0.6058,1.0981c0.3607,0.6582,0.7187,1.3179,1.0816,1.9748      c0.1406,0.2546,0.1095,0.5076-0.0977,0.6919c-0.2047,0.1821-0.5075,0.204-0.7158,0.0311      c-0.0932-0.0774-0.163-0.1874-0.2303-0.2911c-0.345-0.5317-0.6856-1.0662-1.0278-1.5997      c-0.105-0.1638-0.2102-0.3275-0.3153-0.4912c-0.0071,0.0005-0.0142,0.001-0.0213,0.0015c0,0.1039-0.001,0.2078,0.0002,0.3117      c0.008,0.6839,0.0118,1.3679,0.0257,2.0517c0.0245,1.2036,0.0593,2.4071,0.082,3.6107c0.0177,0.936,0.0241,1.8722,0.0343,2.8083      c0.0033,0.3036-0.1105,0.5444-0.3969,0.6748c-0.46,0.2094-1.065-0.0468-1.0658-0.6342      c-0.0009-0.6859,0.0136-1.3719,0.0085-2.0578c-0.0062-0.8373-0.0209-1.6747-0.0424-2.5117      c-0.0063-0.2459-0.0457-0.4913-0.0759-0.7362c-0.0068-0.0551-0.0386-0.1071-0.0589-0.1605      c-0.0116-0.0002-0.0233-0.0004-0.0349-0.0006c-0.0205,0.053-0.053,0.1045-0.0596,0.1592      c-0.0307,0.2553-0.0722,0.511-0.0773,0.7672c-0.0199,1.0009-0.0303,2.002-0.0384,3.0031      c-0.004,0.4962,0.0037,0.9926,0.0078,1.4889c0.0017,0.2058-0.0488,0.391-0.1987,0.5399      c-0.2109,0.2094-0.5642,0.2777-0.8402,0.1577c-0.2925-0.1272-0.4278-0.3589-0.4257-0.6728      c0.0045-0.6632,0.0087-1.3265,0.0186-1.9896c0.0108-0.7201,0.029-1.44,0.0424-2.16c0.0273-1.4611,0.0536-2.9221,0.0799-4.3832      c0.0016-0.0875,0.0002-0.1751,0.0002-0.2626C40.8841,63.7992,40.877,63.7977,40.8698,63.7961z"/>
          <path fill="#222222" d="M42.3908,60.9405c-0.8208-0.0032-1.5195-0.7128-1.516-1.5397c0.0035-0.8343,0.7025-1.5319,1.5322-1.5291      c0.8235,0.0028,1.5178,0.7069,1.5161,1.5376C43.9213,60.2404,43.2175,60.9437,42.3908,60.9405z"/>
        </g>
        <g>
          <path fill="#222222" d="M51.2835,51.4087c-0.1751,0.2728-0.3502,0.5456-0.5254,0.8183      c-0.3033,0.4721-0.6051,0.9452-0.9106,1.4159c-0.1391,0.2142-0.3595,0.3034-0.5913,0.2493      c-0.2381-0.0555-0.4118-0.2402-0.4445-0.4762c-0.016-0.1154,0.0179-0.2221,0.0725-0.3215      c0.2413-0.4394,0.4859-0.8771,0.7262-1.317c0.2279-0.4172,0.4503-0.8374,0.6787-1.2544c0.1233-0.225,0.2475-0.45,0.3834-0.6674      c0.1372-0.2195,0.2768-0.4396,0.438-0.6413c0.2029-0.2537,0.4667-0.432,0.7971-0.4716c0.158-0.0189,0.3225-0.0092,0.4813,0.0101      c0.3177,0.0386,0.6329,0.0307,0.9485-0.013c0.4235-0.0586,0.7816,0.072,1.0837,0.3698c0.2607,0.257,0.4427,0.5693,0.6199,0.8842      c0.205,0.3643,0.4049,0.7315,0.6058,1.0981c0.3607,0.6582,0.7187,1.3179,1.0816,1.9748      c0.1406,0.2546,0.1095,0.5076-0.0977,0.6919c-0.2047,0.1821-0.5075,0.204-0.7158,0.0311      c-0.0933-0.0774-0.163-0.1874-0.2303-0.2911c-0.345-0.5317-0.6856-1.0662-1.0278-1.5997      c-0.105-0.1638-0.2102-0.3275-0.3153-0.4912c-0.0071,0.0005-0.0142,0.001-0.0213,0.0015c0,0.1039-0.001,0.2078,0.0002,0.3117      c0.008,0.6839,0.0118,1.3679,0.0257,2.0517c0.0245,1.2036,0.0593,2.4071,0.082,3.6107c0.0177,0.936,0.0241,1.8722,0.0343,2.8083      c0.0033,0.3036-0.1105,0.5444-0.3969,0.6748c-0.46,0.2094-1.065-0.0468-1.0658-0.6342      c-0.0009-0.6859,0.0136-1.3719,0.0085-2.0578c-0.0062-0.8373-0.0209-1.6747-0.0424-2.5117      c-0.0063-0.2459-0.0457-0.4913-0.0759-0.7362c-0.0068-0.0551-0.0386-0.1071-0.0589-0.1605      c-0.0116-0.0002-0.0233-0.0004-0.0349-0.0006c-0.0205,0.053-0.053,0.1045-0.0596,0.1592      c-0.0307,0.2553-0.0722,0.511-0.0773,0.7672c-0.0199,1.0009-0.0303,2.002-0.0384,3.0031      c-0.004,0.4962,0.0037,0.9926,0.0078,1.4889c0.0017,0.2058-0.0488,0.391-0.1987,0.5399      c-0.2108,0.2094-0.5642,0.2777-0.8402,0.1577c-0.2925-0.1272-0.4278-0.3589-0.4257-0.6728      c0.0045-0.6632,0.0087-1.3265,0.0186-1.9896c0.0108-0.7201,0.029-1.44,0.0424-2.16c0.0273-1.4611,0.0536-2.9222,0.0799-4.3832      c0.0016-0.0875,0.0002-0.1751,0.0002-0.2626C51.2978,51.4117,51.2907,51.4102,51.2835,51.4087z"/>
          <path fill="#222222" d="M52.8045,48.553c-0.8208-0.0032-1.5195-0.7128-1.516-1.5397c0.0035-0.8343,0.7025-1.5319,1.5322-1.5291      c0.8235,0.0028,1.5178,0.7069,1.5161,1.5376C54.3351,47.8529,53.6313,48.5562,52.8045,48.553z"/>
        </g>
        <g>
          <path fill="#222222" d="M56.0569,65.4171c-0.1751,0.2728-0.3502,0.5456-0.5254,0.8183      c-0.3033,0.4721-0.6051,0.9452-0.9106,1.4159c-0.1391,0.2142-0.3595,0.3034-0.5913,0.2493      c-0.2381-0.0555-0.4118-0.2402-0.4445-0.4762c-0.016-0.1154,0.0179-0.2221,0.0725-0.3215      c0.2413-0.4394,0.4859-0.8771,0.7262-1.317c0.2279-0.4172,0.4503-0.8374,0.6787-1.2544c0.1233-0.225,0.2475-0.45,0.3834-0.6674      c0.1372-0.2195,0.2768-0.4396,0.438-0.6413c0.2029-0.2537,0.4667-0.432,0.7971-0.4716c0.158-0.0189,0.3225-0.0092,0.4813,0.0101      c0.3177,0.0386,0.6329,0.0307,0.9485-0.013c0.4235-0.0586,0.7816,0.072,1.0836,0.3698c0.2607,0.257,0.4427,0.5693,0.6199,0.8842      c0.205,0.3643,0.4049,0.7315,0.6058,1.0981c0.3607,0.6582,0.7187,1.3179,1.0816,1.9748      c0.1406,0.2546,0.1095,0.5076-0.0977,0.6919c-0.2047,0.1821-0.5075,0.204-0.7158,0.0311      c-0.0932-0.0774-0.163-0.1874-0.2303-0.2911c-0.345-0.5317-0.6856-1.0662-1.0278-1.5997      c-0.105-0.1638-0.2102-0.3275-0.3153-0.4912c-0.0071,0.0005-0.0142,0.001-0.0213,0.0015c0,0.1039-0.001,0.2078,0.0002,0.3117      c0.008,0.6839,0.0118,1.3679,0.0257,2.0517c0.0245,1.2036,0.0593,2.4071,0.082,3.6107c0.0177,0.936,0.0241,1.8722,0.0343,2.8083      c0.0033,0.3036-0.1105,0.5444-0.3969,0.6748c-0.46,0.2094-1.065-0.0468-1.0658-0.6342      c-0.0009-0.6859,0.0136-1.3719,0.0085-2.0578c-0.0062-0.8373-0.0209-1.6747-0.0424-2.5117      c-0.0063-0.2459-0.0457-0.4913-0.0759-0.7362c-0.0068-0.0551-0.0386-0.1071-0.0589-0.1605      c-0.0116-0.0002-0.0233-0.0004-0.0349-0.0006c-0.0205,0.053-0.053,0.1045-0.0596,0.1592      c-0.0307,0.2553-0.0722,0.511-0.0773,0.7672c-0.0199,1.0009-0.0303,2.002-0.0384,3.0031      c-0.004,0.4962,0.0037,0.9926,0.0078,1.4889c0.0017,0.2058-0.0488,0.391-0.1987,0.5399      c-0.2109,0.2094-0.5642,0.2777-0.8402,0.1577c-0.2925-0.1272-0.4278-0.3589-0.4257-0.6728      c0.0045-0.6632,0.0087-1.3265,0.0186-1.9896c0.0108-0.7201,0.029-1.44,0.0424-2.16c0.0273-1.4611,0.0536-2.9221,0.0799-4.3832      c0.0016-0.0875,0.0002-0.1751,0.0002-0.2626C56.0712,65.4202,56.064,65.4186,56.0569,65.4171z"/>
          <path fill="#222222" d="M57.5779,62.5615c-0.8208-0.0032-1.5195-0.7128-1.516-1.5397c0.0035-0.8343,0.7025-1.5319,1.5322-1.5291      c0.8235,0.0028,1.5178,0.7069,1.5161,1.5376C59.1084,61.8614,58.4046,62.5647,57.5779,62.5615z"/>
        </g>
        <g>
          <path fill="#222222" d="M68.4348,53.0296c-0.1751,0.2728-0.3502,0.5456-0.5254,0.8183      c-0.3033,0.4721-0.6051,0.9452-0.9106,1.4159c-0.1391,0.2142-0.3595,0.3034-0.5913,0.2493      c-0.2381-0.0555-0.4118-0.2402-0.4445-0.4762c-0.016-0.1154,0.0179-0.2221,0.0725-0.3215      c0.2413-0.4394,0.4859-0.8771,0.7262-1.317c0.2279-0.4172,0.4502-0.8374,0.6787-1.2544c0.1233-0.225,0.2475-0.45,0.3834-0.6674      c0.1372-0.2195,0.2768-0.4396,0.438-0.6413c0.2029-0.2537,0.4667-0.432,0.7971-0.4716c0.158-0.0189,0.3225-0.0092,0.4813,0.0101      c0.3177,0.0386,0.6329,0.0307,0.9485-0.013c0.4235-0.0586,0.7816,0.072,1.0837,0.3698c0.2607,0.257,0.4427,0.5693,0.6199,0.8842      c0.205,0.3643,0.4049,0.7315,0.6058,1.0981c0.3607,0.6582,0.7187,1.3179,1.0816,1.9748      c0.1406,0.2546,0.1095,0.5076-0.0977,0.6919c-0.2047,0.1821-0.5075,0.204-0.7158,0.0311      c-0.0933-0.0774-0.163-0.1873-0.2303-0.2911c-0.345-0.5317-0.6856-1.0662-1.0278-1.5997      c-0.105-0.1638-0.2102-0.3275-0.3153-0.4912c-0.0071,0.0005-0.0142,0.001-0.0213,0.0015c0,0.1039-0.001,0.2078,0.0002,0.3117      c0.008,0.6839,0.0118,1.3679,0.0257,2.0517c0.0245,1.2036,0.0593,2.4071,0.082,3.6107c0.0177,0.936,0.0241,1.8722,0.0343,2.8083      c0.0033,0.3036-0.1105,0.5444-0.3969,0.6748c-0.46,0.2094-1.065-0.0468-1.0658-0.6342      c-0.0009-0.6859,0.0136-1.3719,0.0085-2.0578c-0.0062-0.8373-0.0209-1.6747-0.0424-2.5117      c-0.0063-0.2459-0.0457-0.4913-0.0759-0.7362c-0.0068-0.0551-0.0386-0.1071-0.0589-0.1605      c-0.0116-0.0002-0.0233-0.0004-0.0349-0.0006c-0.0205,0.053-0.053,0.1045-0.0596,0.1592      c-0.0307,0.2553-0.0722,0.511-0.0773,0.7672c-0.0199,1.0009-0.0303,2.002-0.0384,3.0031      c-0.004,0.4962,0.0037,0.9926,0.0078,1.4889c0.0017,0.2058-0.0488,0.391-0.1987,0.5399      c-0.2108,0.2094-0.5642,0.2777-0.8402,0.1577c-0.2925-0.1272-0.4279-0.3589-0.4257-0.6728      c0.0045-0.6632,0.0087-1.3265,0.0186-1.9896c0.0108-0.7201,0.029-1.44,0.0424-2.16c0.0273-1.4611,0.0536-2.9222,0.0799-4.3832      c0.0016-0.0875,0.0002-0.1751,0.0002-0.2626C68.4491,53.0327,68.4419,53.0312,68.4348,53.0296z"/>
          <path fill="#222222" d="M69.9557,50.174c-0.8208-0.0032-1.5195-0.7128-1.516-1.5397c0.0035-0.8343,0.7025-1.5319,1.5322-1.5291      c0.8235,0.0028,1.5178,0.7069,1.5161,1.5376C71.4863,49.4739,70.7825,50.1772,69.9557,50.174z"/>
        </g>
        <g>
          <path fill="#222222" d="M66.9123,87.1117c-0.1751,0.2728-0.3502,0.5456-0.5254,0.8183      c-0.3033,0.4721-0.6051,0.9452-0.9106,1.4159c-0.1391,0.2142-0.3595,0.3033-0.5913,0.2493      c-0.2381-0.0555-0.4118-0.2402-0.4445-0.4762c-0.016-0.1154,0.0179-0.2221,0.0725-0.3215      c0.2413-0.4394,0.4859-0.8771,0.7262-1.317c0.2279-0.4172,0.4503-0.8374,0.6787-1.2544c0.1233-0.225,0.2475-0.45,0.3834-0.6674      c0.1372-0.2195,0.2768-0.4397,0.438-0.6413c0.2029-0.2537,0.4667-0.432,0.7971-0.4716c0.158-0.0189,0.3225-0.0092,0.4813,0.0101      c0.3177,0.0386,0.6329,0.0307,0.9485-0.013c0.4235-0.0586,0.7816,0.072,1.0836,0.3698c0.2607,0.257,0.4427,0.5693,0.6199,0.8842      c0.205,0.3643,0.4049,0.7315,0.6058,1.0981c0.3607,0.6582,0.7187,1.3179,1.0816,1.9748      c0.1406,0.2546,0.1095,0.5076-0.0976,0.6919c-0.2047,0.1821-0.5076,0.204-0.7158,0.0311      c-0.0932-0.0774-0.163-0.1874-0.2303-0.2911c-0.345-0.5317-0.6856-1.0662-1.0278-1.5997      c-0.105-0.1638-0.2102-0.3275-0.3153-0.4912c-0.0071,0.0005-0.0142,0.001-0.0213,0.0015c0,0.1039-0.001,0.2078,0.0002,0.3117      c0.008,0.6839,0.0118,1.3679,0.0257,2.0517c0.0245,1.2036,0.0593,2.4071,0.082,3.6107c0.0177,0.936,0.0241,1.8722,0.0343,2.8083      c0.0033,0.3036-0.1105,0.5444-0.3969,0.6748c-0.46,0.2094-1.065-0.0468-1.0658-0.6342      c-0.0009-0.6859,0.0136-1.3719,0.0085-2.0578c-0.0062-0.8373-0.0209-1.6747-0.0424-2.5117      c-0.0063-0.2459-0.0457-0.4913-0.0759-0.7362c-0.0068-0.0551-0.0386-0.1071-0.0589-0.1605      c-0.0116-0.0002-0.0233-0.0004-0.0349-0.0006c-0.0205,0.053-0.053,0.1045-0.0596,0.1592      c-0.0307,0.2552-0.0722,0.511-0.0773,0.7672c-0.0199,1.0009-0.0303,2.002-0.0384,3.0031      c-0.004,0.4962,0.0037,0.9926,0.0078,1.4889c0.0017,0.2058-0.0488,0.391-0.1987,0.5399      c-0.2109,0.2094-0.5642,0.2777-0.8402,0.1577c-0.2925-0.1272-0.4278-0.3589-0.4257-0.6728      c0.0045-0.6632,0.0087-1.3265,0.0186-1.9896c0.0108-0.7201,0.029-1.44,0.0424-2.16c0.0273-1.4611,0.0536-2.9221,0.0799-4.3832      c0.0016-0.0875,0.0002-0.1751,0.0002-0.2626C66.9266,87.1147,66.9195,87.1132,66.9123,87.1117z"/>
          <path fill="#222222" d="M68.4333,84.256c-0.8208-0.0032-1.5195-0.7128-1.516-1.5397c0.0035-0.8343,0.7025-1.5319,1.5322-1.5291      c0.8235,0.0028,1.5178,0.7069,1.5161,1.5376C69.9639,83.5559,69.26,84.2592,68.4333,84.256z"/>
        </g>
        <g>
          <path fill="#222222" d="M81.714,88.7326c-0.1751,0.2728-0.3502,0.5456-0.5254,0.8183      c-0.3033,0.4721-0.6051,0.9452-0.9106,1.4159c-0.1391,0.2142-0.3595,0.3033-0.5913,0.2493      c-0.2381-0.0555-0.4118-0.2402-0.4445-0.4762c-0.016-0.1154,0.0179-0.2221,0.0725-0.3215      c0.2413-0.4394,0.4859-0.8771,0.7262-1.317c0.2279-0.4172,0.4502-0.8374,0.6787-1.2544c0.1233-0.225,0.2475-0.45,0.3834-0.6674      c0.1372-0.2195,0.2768-0.4397,0.438-0.6413c0.2029-0.2537,0.4667-0.432,0.7971-0.4716c0.158-0.0189,0.3225-0.0092,0.4813,0.0101      c0.3177,0.0386,0.6329,0.0307,0.9485-0.013c0.4235-0.0586,0.7816,0.072,1.0837,0.3698c0.2607,0.257,0.4427,0.5693,0.6199,0.8842      c0.205,0.3643,0.4049,0.7315,0.6058,1.0982c0.3607,0.6582,0.7187,1.3179,1.0816,1.9748      c0.1406,0.2546,0.1095,0.5076-0.0977,0.6919c-0.2047,0.1821-0.5075,0.204-0.7158,0.0311      c-0.0933-0.0774-0.163-0.1874-0.2303-0.2911c-0.345-0.5317-0.6856-1.0662-1.0278-1.5997      c-0.105-0.1638-0.2102-0.3275-0.3153-0.4912c-0.0071,0.0005-0.0142,0.001-0.0213,0.0015c0,0.1039-0.001,0.2078,0.0002,0.3117      c0.008,0.6839,0.0118,1.3679,0.0257,2.0517c0.0245,1.2036,0.0593,2.4071,0.082,3.6107c0.0177,0.936,0.0241,1.8722,0.0343,2.8083      c0.0033,0.3036-0.1105,0.5444-0.3969,0.6748c-0.46,0.2094-1.065-0.0468-1.0658-0.6342      c-0.0009-0.6859,0.0136-1.3719,0.0085-2.0578c-0.0062-0.8373-0.0209-1.6747-0.0424-2.5117      c-0.0063-0.2459-0.0457-0.4913-0.0759-0.7362c-0.0068-0.0551-0.0386-0.1071-0.0589-0.1605      c-0.0116-0.0002-0.0233-0.0004-0.0349-0.0006c-0.0205,0.053-0.053,0.1045-0.0596,0.1592      c-0.0307,0.2552-0.0722,0.511-0.0773,0.7672c-0.0199,1.0009-0.0303,2.002-0.0384,3.0031      c-0.004,0.4962,0.0037,0.9926,0.0078,1.4889c0.0017,0.2058-0.0488,0.391-0.1987,0.5399      c-0.2108,0.2094-0.5642,0.2777-0.8402,0.1577c-0.2925-0.1272-0.4279-0.3589-0.4257-0.6728      c0.0045-0.6632,0.0087-1.3265,0.0186-1.9896c0.0108-0.7201,0.029-1.44,0.0424-2.16c0.0273-1.4611,0.0536-2.9221,0.0799-4.3832      c0.0016-0.0875,0.0002-0.1751,0.0002-0.2626C81.7283,88.7357,81.7211,88.7342,81.714,88.7326z"/>
          <path fill="#222222" d="M83.2349,85.877c-0.8208-0.0032-1.5195-0.7128-1.516-1.5397c0.0035-0.8343,0.7025-1.5319,1.5322-1.5291      c0.8235,0.0028,1.5178,0.7069,1.5161,1.5376C84.7655,85.1769,84.0617,85.8802,83.2349,85.877z"/>
        </g>
        <g>
          <path fill="#222222" d="M101.6503,84.0733c-0.1751,0.2728-0.3502,0.5456-0.5254,0.8183      c-0.3033,0.4721-0.6051,0.9452-0.9106,1.4159c-0.1391,0.2142-0.3595,0.3034-0.5913,0.2493      c-0.2381-0.0555-0.4118-0.2402-0.4445-0.4762c-0.016-0.1154,0.0179-0.2221,0.0725-0.3215      c0.2413-0.4394,0.4859-0.8771,0.7262-1.317c0.2279-0.4172,0.4502-0.8374,0.6787-1.2544c0.1233-0.225,0.2475-0.45,0.3834-0.6674      c0.1372-0.2195,0.2768-0.4396,0.438-0.6413c0.2029-0.2537,0.4667-0.432,0.7971-0.4716c0.158-0.0189,0.3225-0.0092,0.4813,0.0101      c0.3177,0.0386,0.6329,0.0307,0.9485-0.0129c0.4235-0.0586,0.7816,0.072,1.0837,0.3698      c0.2607,0.257,0.4427,0.5693,0.6199,0.8842c0.205,0.3643,0.4049,0.7315,0.6058,1.0981      c0.3607,0.6582,0.7187,1.3179,1.0816,1.9748c0.1406,0.2546,0.1095,0.5076-0.0977,0.6919      c-0.2047,0.1821-0.5075,0.2039-0.7158,0.0311c-0.0933-0.0774-0.163-0.1873-0.2303-0.2911      c-0.345-0.5317-0.6856-1.0662-1.0278-1.5997c-0.105-0.1638-0.2102-0.3275-0.3153-0.4912      c-0.0071,0.0005-0.0142,0.001-0.0213,0.0015c0,0.1039-0.001,0.2078,0.0002,0.3117c0.008,0.6839,0.0118,1.3679,0.0257,2.0517      c0.0245,1.2036,0.0593,2.4071,0.082,3.6107c0.0177,0.936,0.0241,1.8722,0.0343,2.8083      c0.0033,0.3036-0.1105,0.5444-0.3969,0.6748c-0.46,0.2094-1.065-0.0468-1.0658-0.6342      c-0.0009-0.6859,0.0136-1.3719,0.0085-2.0578c-0.0062-0.8373-0.0209-1.6747-0.0424-2.5117      c-0.0063-0.2459-0.0457-0.4913-0.0759-0.7362c-0.0068-0.0551-0.0386-0.1071-0.0589-0.1605      c-0.0116-0.0002-0.0233-0.0004-0.0349-0.0006c-0.0205,0.053-0.053,0.1045-0.0596,0.1592      c-0.0307,0.2553-0.0722,0.511-0.0773,0.7672c-0.0199,1.0009-0.0303,2.002-0.0384,3.0031      c-0.004,0.4962,0.0037,0.9926,0.0078,1.4889c0.0017,0.2058-0.0488,0.391-0.1987,0.5399      c-0.2108,0.2094-0.5642,0.2777-0.8402,0.1577c-0.2925-0.1272-0.4279-0.3589-0.4257-0.6728      c0.0045-0.6632,0.0087-1.3265,0.0186-1.9896c0.0108-0.7201,0.029-1.44,0.0424-2.16c0.0273-1.4611,0.0536-2.9221,0.0799-4.3832      c0.0016-0.0875,0.0002-0.1751,0.0002-0.2626C101.6646,84.0764,101.6575,84.0748,101.6503,84.0733z"/>
          <path fill="#222222" d="M103.1713,81.2177c-0.8208-0.0032-1.5195-0.7128-1.516-1.5397      c0.0035-0.8343,0.7025-1.5319,1.5322-1.5291c0.8235,0.0028,1.5178,0.7069,1.5161,1.5376      C104.7019,80.5176,103.998,81.2209,103.1713,81.2177z"/>
        </g>
        <g>
          <path fill="#222222" d="M84.1114,53.0296c-0.1751,0.2728-0.3502,0.5456-0.5254,0.8183      c-0.3033,0.4721-0.6051,0.9452-0.9106,1.4159c-0.1391,0.2142-0.3595,0.3034-0.5913,0.2493      c-0.2381-0.0555-0.4118-0.2402-0.4445-0.4762c-0.016-0.1154,0.0179-0.2221,0.0725-0.3215      c0.2413-0.4394,0.4859-0.8771,0.7262-1.317c0.2279-0.4172,0.4503-0.8374,0.6787-1.2544c0.1233-0.225,0.2475-0.45,0.3834-0.6674      c0.1372-0.2195,0.2768-0.4396,0.438-0.6413c0.2029-0.2537,0.4667-0.432,0.7971-0.4716c0.158-0.0189,0.3225-0.0092,0.4813,0.0101      c0.3177,0.0386,0.6329,0.0307,0.9485-0.013c0.4235-0.0586,0.7816,0.072,1.0836,0.3698c0.2607,0.257,0.4427,0.5693,0.6199,0.8842      c0.205,0.3643,0.4049,0.7315,0.6058,1.0981c0.3607,0.6582,0.7187,1.3179,1.0816,1.9748      c0.1406,0.2546,0.1095,0.5076-0.0976,0.6919c-0.2047,0.1821-0.5076,0.204-0.7158,0.0311      c-0.0932-0.0774-0.163-0.1873-0.2303-0.2911c-0.345-0.5317-0.6856-1.0662-1.0278-1.5997      c-0.105-0.1638-0.2102-0.3275-0.3153-0.4912c-0.0071,0.0005-0.0142,0.001-0.0213,0.0015c0,0.1039-0.001,0.2078,0.0002,0.3117      c0.008,0.6839,0.0118,1.3679,0.0257,2.0517c0.0245,1.2036,0.0593,2.4071,0.082,3.6107c0.0177,0.936,0.0241,1.8722,0.0343,2.8083      c0.0033,0.3036-0.1105,0.5444-0.3969,0.6748c-0.46,0.2094-1.065-0.0468-1.0658-0.6342      c-0.0009-0.6859,0.0136-1.3719,0.0085-2.0578c-0.0062-0.8373-0.0209-1.6747-0.0424-2.5117      c-0.0063-0.2459-0.0457-0.4913-0.0759-0.7362c-0.0068-0.0551-0.0386-0.1071-0.0589-0.1605      c-0.0116-0.0002-0.0233-0.0004-0.0349-0.0006c-0.0205,0.053-0.053,0.1045-0.0596,0.1592      c-0.0307,0.2553-0.0722,0.511-0.0773,0.7672c-0.0199,1.0009-0.0303,2.002-0.0384,3.0031      c-0.004,0.4962,0.0037,0.9926,0.0078,1.4889c0.0017,0.2058-0.0488,0.391-0.1987,0.5399      c-0.2109,0.2094-0.5642,0.2777-0.8402,0.1577c-0.2925-0.1272-0.4278-0.3589-0.4257-0.6728      c0.0045-0.6632,0.0087-1.3265,0.0186-1.9896c0.0108-0.7201,0.029-1.44,0.0424-2.16c0.0273-1.4611,0.0536-2.9222,0.0799-4.3832      c0.0016-0.0875,0.0002-0.1751,0.0002-0.2626C84.1257,53.0327,84.1185,53.0312,84.1114,53.0296z"/>
          <path fill="#222222" d="M85.6324,50.174c-0.8208-0.0032-1.5195-0.7128-1.516-1.5397c0.0035-0.8343,0.7025-1.5319,1.5322-1.5291      c0.8235,0.0028,1.5178,0.7069,1.5161,1.5376C87.1629,49.4739,86.4591,50.1772,85.6324,50.174z"/>
        </g>
        <g>
          <g>
            <path fill="#222222" d="M77.7107,71.5242c-0.1751,0.2728-0.3502,0.5456-0.5254,0.8183       c-0.3033,0.4721-0.6051,0.9452-0.9106,1.4159c-0.1391,0.2142-0.3595,0.3034-0.5913,0.2493       c-0.2381-0.0555-0.4118-0.2402-0.4445-0.4762c-0.016-0.1154,0.0179-0.2221,0.0725-0.3215       c0.2413-0.4394,0.4859-0.8771,0.7262-1.317c0.2279-0.4172,0.4502-0.8374,0.6787-1.2544c0.1233-0.225,0.2475-0.45,0.3834-0.6674       c0.1372-0.2195,0.2768-0.4397,0.438-0.6413c0.2029-0.2537,0.4667-0.432,0.7971-0.4716       c0.158-0.0189,0.3225-0.0092,0.4813,0.0101c0.3177,0.0386,0.6329,0.0307,0.9485-0.013       c0.4235-0.0586,0.7816,0.072,1.0837,0.3698c0.2607,0.257,0.4427,0.5693,0.6199,0.8842       c0.205,0.3643,0.4049,0.7315,0.6058,1.0981c0.3607,0.6582,0.7187,1.3179,1.0816,1.9748       c0.1406,0.2546,0.1095,0.5076-0.0977,0.6919c-0.2047,0.1821-0.5075,0.204-0.7158,0.0311       c-0.0933-0.0774-0.163-0.1874-0.2303-0.2911c-0.345-0.5317-0.6856-1.0662-1.0278-1.5997       c-0.105-0.1638-0.2102-0.3275-0.3153-0.4912c-0.0071,0.0005-0.0142,0.001-0.0213,0.0015c0,0.1039-0.001,0.2078,0.0002,0.3117       c0.008,0.6839,0.0118,1.3679,0.0257,2.0517c0.0245,1.2036,0.0593,2.4071,0.082,3.6107       c0.0177,0.936,0.0241,1.8722,0.0343,2.8083c0.0033,0.3036-0.1105,0.5444-0.3969,0.6748       c-0.46,0.2094-1.065-0.0468-1.0658-0.6342c-0.0009-0.6859,0.0136-1.3719,0.0085-2.0578       c-0.0062-0.8373-0.0209-1.6747-0.0424-2.5117c-0.0063-0.2459-0.0457-0.4913-0.0759-0.7362       c-0.0068-0.0551-0.0386-0.1071-0.0589-0.1605c-0.0116-0.0002-0.0233-0.0004-0.0349-0.0006       c-0.0205,0.053-0.053,0.1045-0.0596,0.1592c-0.0307,0.2552-0.0722,0.511-0.0773,0.7672       c-0.0199,1.0009-0.0303,2.002-0.0384,3.0031c-0.004,0.4962,0.0037,0.9926,0.0078,1.4889       c0.0017,0.2058-0.0488,0.391-0.1987,0.5399c-0.2108,0.2094-0.5642,0.2777-0.8402,0.1577       c-0.2925-0.1272-0.4279-0.3589-0.4257-0.6728c0.0045-0.6632,0.0087-1.3265,0.0186-1.9896c0.0108-0.7201,0.029-1.44,0.0424-2.16       c0.0273-1.4611,0.0536-2.9221,0.0799-4.3832c0.0016-0.0875,0.0002-0.1751,0.0002-0.2626       C77.725,71.5273,77.7178,71.5258,77.7107,71.5242z"/>
            <path fill="#222222" d="M79.2316,68.6686c-0.8208-0.0032-1.5195-0.7128-1.516-1.5397       c0.0035-0.8343,0.7025-1.5319,1.5322-1.5291c0.8235,0.0028,1.5178,0.7069,1.5161,1.5376       C80.7622,67.9685,80.0584,68.6718,79.2316,68.6686z"/>
          </g>
          <g>
            <path fill="#222222" d="M88.1147,74.935c-0.1751,0.2728-0.3502,0.5456-0.5254,0.8183       c-0.3033,0.4721-0.6051,0.9452-0.9106,1.4159c-0.1391,0.2142-0.3595,0.3034-0.5913,0.2493       c-0.2381-0.0555-0.4118-0.2402-0.4445-0.4762c-0.016-0.1154,0.0179-0.2221,0.0725-0.3215       c0.2413-0.4394,0.4859-0.8771,0.7262-1.317c0.2279-0.4172,0.4503-0.8374,0.6787-1.2544c0.1233-0.225,0.2475-0.45,0.3834-0.6674       c0.1372-0.2195,0.2768-0.4397,0.438-0.6413c0.2029-0.2537,0.4667-0.432,0.7971-0.4716       c0.158-0.0189,0.3225-0.0092,0.4813,0.0101c0.3177,0.0386,0.6329,0.0307,0.9485-0.013       c0.4235-0.0586,0.7816,0.072,1.0836,0.3698c0.2607,0.257,0.4427,0.5693,0.6199,0.8842       c0.205,0.3643,0.4049,0.7315,0.6058,1.0981c0.3607,0.6582,0.7187,1.3179,1.0816,1.9748       c0.1406,0.2546,0.1095,0.5076-0.0976,0.6919c-0.2047,0.1821-0.5076,0.2039-0.7158,0.0311       c-0.0932-0.0774-0.163-0.1873-0.2303-0.2911c-0.345-0.5317-0.6856-1.0662-1.0278-1.5997       c-0.105-0.1638-0.2102-0.3275-0.3153-0.4912c-0.0071,0.0005-0.0142,0.001-0.0213,0.0015c0,0.1039-0.001,0.2078,0.0002,0.3117       c0.008,0.6839,0.0118,1.3679,0.0257,2.0517c0.0245,1.2036,0.0593,2.4071,0.082,3.6107       c0.0177,0.936,0.0241,1.8722,0.0343,2.8083c0.0033,0.3036-0.1105,0.5444-0.3969,0.6748       c-0.46,0.2094-1.065-0.0468-1.0658-0.6342c-0.0009-0.6859,0.0136-1.3719,0.0085-2.0578       c-0.0062-0.8373-0.0209-1.6747-0.0424-2.5117c-0.0063-0.2459-0.0457-0.4913-0.0759-0.7362       c-0.0068-0.0551-0.0386-0.1071-0.0589-0.1605c-0.0116-0.0002-0.0233-0.0004-0.0349-0.0006       c-0.0205,0.053-0.053,0.1045-0.0596,0.1592c-0.0307,0.2553-0.0722,0.511-0.0773,0.7672       c-0.0199,1.0009-0.0303,2.002-0.0384,3.0031c-0.004,0.4962,0.0037,0.9926,0.0078,1.4889       c0.0017,0.2058-0.0488,0.391-0.1987,0.5399c-0.2109,0.2094-0.5642,0.2777-0.8402,0.1577       c-0.2925-0.1272-0.4278-0.3589-0.4257-0.6728c0.0045-0.6632,0.0087-1.3265,0.0186-1.9896c0.0108-0.7201,0.029-1.44,0.0424-2.16       c0.0273-1.4611,0.0536-2.9221,0.0799-4.3832c0.0016-0.0875,0.0002-0.1751,0.0002-0.2626       C88.129,74.938,88.1218,74.9365,88.1147,74.935z"/>
            <path fill="#222222" d="M89.6356,72.0793c-0.8208-0.0032-1.5195-0.7128-1.516-1.5397       c0.0035-0.8343,0.7025-1.5319,1.5322-1.5291c0.8235,0.0028,1.5178,0.7069,1.5161,1.5376       C91.1662,71.3792,90.4624,72.0825,89.6356,72.0793z"/>
          </g>
          <g>
            <path fill="#222222" d="M92.1213,63.7961c-0.1751,0.2728-0.3502,0.5456-0.5254,0.8183       c-0.3033,0.4721-0.6051,0.9452-0.9106,1.4159c-0.1391,0.2142-0.3595,0.3034-0.5913,0.2493       c-0.2381-0.0555-0.4118-0.2402-0.4445-0.4762c-0.016-0.1154,0.0179-0.2221,0.0725-0.3215       c0.2413-0.4394,0.4859-0.8771,0.7262-1.317c0.2279-0.4172,0.4503-0.8374,0.6787-1.2544c0.1233-0.225,0.2475-0.45,0.3834-0.6674       c0.1372-0.2195,0.2768-0.4396,0.438-0.6413c0.2029-0.2537,0.4667-0.432,0.7971-0.4716       c0.158-0.0189,0.3225-0.0092,0.4813,0.0101c0.3177,0.0386,0.6329,0.0307,0.9485-0.013       c0.4235-0.0586,0.7816,0.072,1.0836,0.3698c0.2607,0.257,0.4427,0.5693,0.6199,0.8842       c0.205,0.3643,0.4049,0.7315,0.6058,1.0981c0.3607,0.6582,0.7187,1.3179,1.0816,1.9748       c0.1406,0.2546,0.1095,0.5076-0.0976,0.6919c-0.2047,0.1821-0.5076,0.204-0.7158,0.0311       c-0.0932-0.0774-0.163-0.1874-0.2303-0.2911c-0.345-0.5317-0.6856-1.0662-1.0278-1.5997       c-0.105-0.1638-0.2102-0.3275-0.3153-0.4912c-0.0071,0.0005-0.0142,0.001-0.0213,0.0015c0,0.1039-0.001,0.2078,0.0002,0.3117       c0.008,0.6839,0.0118,1.3679,0.0257,2.0517c0.0245,1.2036,0.0593,2.4071,0.082,3.6107       c0.0177,0.936,0.0241,1.8722,0.0343,2.8083c0.0033,0.3036-0.1105,0.5444-0.3969,0.6748       c-0.46,0.2094-1.065-0.0468-1.0658-0.6342c-0.0009-0.6859,0.0136-1.3719,0.0085-2.0578       c-0.0062-0.8373-0.0209-1.6747-0.0424-2.5117c-0.0063-0.2459-0.0457-0.4913-0.0759-0.7362       c-0.0068-0.0551-0.0386-0.1071-0.0589-0.1605c-0.0116-0.0002-0.0233-0.0004-0.0349-0.0006       c-0.0205,0.053-0.053,0.1045-0.0596,0.1592c-0.0307,0.2553-0.0722,0.511-0.0773,0.7672       c-0.0199,1.0009-0.0303,2.002-0.0384,3.0031c-0.004,0.4962,0.0037,0.9926,0.0078,1.4889       c0.0017,0.2058-0.0488,0.391-0.1987,0.5399c-0.2109,0.2094-0.5642,0.2777-0.8402,0.1577       c-0.2925-0.1272-0.4278-0.3589-0.4257-0.6728c0.0045-0.6632,0.0087-1.3265,0.0186-1.9896c0.0108-0.7201,0.029-1.44,0.0424-2.16       c0.0273-1.4611,0.0536-2.9221,0.0799-4.3832c0.0016-0.0875,0.0002-0.1751,0.0002-0.2626       C92.1356,63.7992,92.1284,63.7977,92.1213,63.7961z"/>
            <path fill="#222222" d="M93.6422,60.9405c-0.8208-0.0032-1.5195-0.7128-1.516-1.5397       c0.0035-0.8343,0.7025-1.5319,1.5322-1.5291c0.8235,0.0028,1.5178,0.7069,1.5161,1.5376       C95.1728,60.2404,94.469,60.9437,93.6422,60.9405z"/>
          </g>
          <g>
            <path fill="#222222" d="M97.647,73.1452c-0.1751,0.2728-0.3502,0.5456-0.5254,0.8183       c-0.3033,0.4721-0.6051,0.9452-0.9106,1.4159c-0.1391,0.2142-0.3595,0.3033-0.5913,0.2493       c-0.2381-0.0555-0.4118-0.2402-0.4445-0.4762c-0.016-0.1154,0.0179-0.2221,0.0725-0.3215       c0.2413-0.4394,0.4859-0.8771,0.7262-1.317c0.2279-0.4172,0.4502-0.8374,0.6787-1.2544c0.1233-0.225,0.2475-0.45,0.3834-0.6674       c0.1372-0.2195,0.2768-0.4397,0.438-0.6413c0.2029-0.2537,0.4667-0.432,0.7971-0.4716       c0.158-0.0189,0.3225-0.0092,0.4813,0.0101c0.3177,0.0386,0.6329,0.0307,0.9485-0.013       c0.4235-0.0586,0.7816,0.072,1.0837,0.3698c0.2607,0.257,0.4427,0.5693,0.6199,0.8842       c0.205,0.3643,0.4049,0.7315,0.6058,1.0981c0.3607,0.6582,0.7187,1.3179,1.0816,1.9748       c0.1406,0.2546,0.1095,0.5076-0.0977,0.6919c-0.2047,0.1821-0.5075,0.204-0.7158,0.0311       c-0.0933-0.0774-0.163-0.1874-0.2303-0.2911c-0.345-0.5317-0.6856-1.0662-1.0278-1.5997       c-0.105-0.1638-0.2102-0.3275-0.3153-0.4912c-0.0071,0.0005-0.0142,0.001-0.0213,0.0015c0,0.1039-0.001,0.2078,0.0002,0.3117       c0.008,0.6839,0.0118,1.3679,0.0257,2.0517c0.0245,1.2036,0.0593,2.4071,0.082,3.6107       c0.0177,0.936,0.0241,1.8722,0.0343,2.8083c0.0033,0.3036-0.1105,0.5444-0.3969,0.6748       c-0.46,0.2094-1.065-0.0468-1.0658-0.6342c-0.0009-0.6859,0.0136-1.3719,0.0085-2.0578       c-0.0062-0.8373-0.0209-1.6747-0.0424-2.5117c-0.0063-0.2459-0.0457-0.4913-0.0759-0.7362       c-0.0068-0.0551-0.0386-0.1071-0.0589-0.1605c-0.0116-0.0002-0.0233-0.0004-0.0349-0.0006       c-0.0205,0.053-0.053,0.1045-0.0596,0.1592c-0.0307,0.2552-0.0722,0.511-0.0773,0.7672       c-0.0199,1.0009-0.0303,2.002-0.0384,3.0031c-0.004,0.4962,0.0037,0.9926,0.0078,1.4889       c0.0017,0.2058-0.0488,0.391-0.1987,0.5399c-0.2108,0.2094-0.5642,0.2777-0.8402,0.1577       c-0.2925-0.1272-0.4279-0.3589-0.4257-0.6728c0.0045-0.6632,0.0087-1.3265,0.0186-1.9896c0.0108-0.7201,0.029-1.44,0.0424-2.16       c0.0273-1.4611,0.0536-2.9221,0.0799-4.3832c0.0016-0.0875,0.0002-0.1751,0.0002-0.2626       C97.6613,73.1483,97.6542,73.1468,97.647,73.1452z"/>
            <path fill="#222222" d="M99.168,70.2896c-0.8208-0.0032-1.5195-0.7128-1.516-1.5397c0.0035-0.8343,0.7025-1.5319,1.5322-1.5291       c0.8235,0.0028,1.5178,0.7069,1.5161,1.5376C100.6986,69.5895,99.9948,70.2928,99.168,70.2896z"/>
          </g>
          <g>
            <path fill="#222222" d="M105.6536,70.0345c-0.1751,0.2728-0.3502,0.5456-0.5254,0.8183       c-0.3033,0.4721-0.6051,0.9452-0.9106,1.4159c-0.139,0.2142-0.3595,0.3034-0.5913,0.2493       c-0.2381-0.0555-0.4118-0.2402-0.4445-0.4762c-0.016-0.1154,0.0179-0.2221,0.0725-0.3215       c0.2413-0.4394,0.4859-0.8771,0.7262-1.317c0.2279-0.4172,0.4502-0.8374,0.6787-1.2544c0.1233-0.225,0.2475-0.45,0.3834-0.6674       c0.1372-0.2195,0.2768-0.4397,0.438-0.6413c0.2029-0.2537,0.4667-0.432,0.7971-0.4716       c0.158-0.0189,0.3225-0.0092,0.4813,0.0101c0.3177,0.0386,0.6329,0.0307,0.9485-0.0129       c0.4235-0.0586,0.7816,0.072,1.0837,0.3698c0.2607,0.257,0.4427,0.5693,0.6199,0.8842       c0.205,0.3643,0.4049,0.7315,0.6058,1.0981c0.3607,0.6582,0.7187,1.3179,1.0816,1.9748       c0.1406,0.2546,0.1095,0.5076-0.0977,0.6919c-0.2047,0.1821-0.5075,0.2039-0.7158,0.0311       c-0.0933-0.0774-0.163-0.1873-0.2303-0.2911c-0.345-0.5317-0.6856-1.0662-1.0278-1.5997       c-0.105-0.1638-0.2102-0.3275-0.3153-0.4912c-0.0071,0.0005-0.0142,0.001-0.0213,0.0015c0,0.1039-0.001,0.2078,0.0002,0.3117       c0.008,0.6839,0.0118,1.3679,0.0257,2.0517c0.0245,1.2036,0.0593,2.4071,0.082,3.6107       c0.0177,0.936,0.0241,1.8722,0.0343,2.8083c0.0033,0.3036-0.1105,0.5444-0.3969,0.6748       c-0.46,0.2094-1.065-0.0468-1.0658-0.6342c-0.0009-0.6859,0.0136-1.3719,0.0085-2.0578       c-0.0062-0.8373-0.0209-1.6747-0.0424-2.5117c-0.0063-0.2459-0.0457-0.4913-0.0759-0.7362       c-0.0068-0.0551-0.0386-0.1071-0.0589-0.1605c-0.0116-0.0002-0.0233-0.0004-0.0349-0.0006       c-0.0205,0.053-0.053,0.1045-0.0596,0.1592c-0.0307,0.2553-0.0722,0.511-0.0773,0.7672       c-0.0199,1.0009-0.0303,2.002-0.0384,3.0031c-0.004,0.4962,0.0037,0.9926,0.0078,1.4889       c0.0017,0.2058-0.0488,0.391-0.1987,0.5399c-0.2108,0.2094-0.5642,0.2777-0.8402,0.1577       c-0.2925-0.1272-0.4278-0.3589-0.4257-0.6728c0.0045-0.6632,0.0087-1.3265,0.0186-1.9896c0.0108-0.7201,0.029-1.44,0.0424-2.16       c0.0273-1.4611,0.0536-2.9221,0.0799-4.3832c0.0016-0.0875,0.0002-0.1751,0.0002-0.2626       C105.6679,70.0375,105.6607,70.036,105.6536,70.0345z"/>
            <path fill="#222222" d="M107.1746,67.1788c-0.8208-0.0032-1.5195-0.7128-1.516-1.5397       c0.0035-0.8343,0.7025-1.5319,1.5322-1.5291c0.8235,0.0028,1.5178,0.7069,1.5161,1.5376       C108.7051,66.4787,108.0013,67.182,107.1746,67.1788z"/>
          </g>
        </g>
        <g>
          <g>
            <path fill="#222222" d="M148.9457,71.462c-0.1751,0.2728-0.3502,0.5456-0.5254,0.8183       c-0.3033,0.4721-0.6051,0.9452-0.9106,1.4159c-0.1391,0.2142-0.3595,0.3034-0.5913,0.2493       c-0.2381-0.0555-0.4118-0.2402-0.4445-0.4762c-0.016-0.1154,0.0179-0.2221,0.0725-0.3215       c0.2413-0.4394,0.4859-0.8771,0.7262-1.317c0.2279-0.4172,0.4503-0.8374,0.6787-1.2544c0.1233-0.225,0.2475-0.45,0.3834-0.6674       c0.1372-0.2195,0.2768-0.4396,0.438-0.6413c0.2029-0.2537,0.4667-0.432,0.7971-0.4716       c0.158-0.0189,0.3225-0.0092,0.4813,0.0101c0.3177,0.0386,0.6329,0.0307,0.9485-0.0129       c0.4235-0.0586,0.7816,0.072,1.0836,0.3698c0.2607,0.257,0.4427,0.5693,0.6199,0.8842       c0.205,0.3643,0.4049,0.7315,0.6058,1.0981c0.3607,0.6582,0.7187,1.3179,1.0816,1.9748       c0.1406,0.2546,0.1095,0.5076-0.0977,0.6919c-0.2047,0.1821-0.5076,0.2039-0.7158,0.0311       c-0.0932-0.0774-0.163-0.1873-0.2303-0.2911c-0.345-0.5317-0.6856-1.0662-1.0278-1.5997       c-0.105-0.1638-0.2102-0.3275-0.3153-0.4912c-0.0071,0.0005-0.0142,0.001-0.0213,0.0015c0,0.1039-0.0011,0.2078,0.0002,0.3117       c0.008,0.6839,0.0118,1.3679,0.0257,2.0517c0.0245,1.2036,0.0593,2.4071,0.082,3.6107       c0.0177,0.936,0.0241,1.8722,0.0343,2.8083c0.0033,0.3036-0.1105,0.5444-0.3969,0.6748       c-0.46,0.2094-1.065-0.0468-1.0658-0.6342c-0.0009-0.6859,0.0135-1.3719,0.0085-2.0578       c-0.0062-0.8373-0.0209-1.6747-0.0424-2.5117c-0.0063-0.2459-0.0457-0.4913-0.0759-0.7362       c-0.0068-0.0551-0.0386-0.1071-0.0589-0.1605c-0.0116-0.0002-0.0233-0.0004-0.0349-0.0006       c-0.0205,0.053-0.053,0.1045-0.0596,0.1592c-0.0307,0.2553-0.0722,0.511-0.0773,0.7672       c-0.0199,1.0009-0.0303,2.002-0.0384,3.0031c-0.004,0.4962,0.0037,0.9926,0.0078,1.4889       c0.0017,0.2058-0.0488,0.391-0.1987,0.5399c-0.2108,0.2094-0.5642,0.2777-0.8402,0.1577       c-0.2925-0.1272-0.4279-0.3589-0.4257-0.6728c0.0045-0.6632,0.0087-1.3265,0.0186-1.9896c0.0108-0.7201,0.029-1.44,0.0424-2.16       c0.0273-1.4611,0.0536-2.9221,0.0799-4.3832c0.0016-0.0875,0.0002-0.1751,0.0002-0.2626       C148.96,71.4651,148.9529,71.4636,148.9457,71.462z"/>
            <path fill="#222222" d="M150.4667,68.6064c-0.8208-0.0032-1.5195-0.7128-1.516-1.5397       c0.0035-0.8343,0.7025-1.5319,1.5322-1.5291c0.8235,0.0028,1.5178,0.7069,1.5161,1.5376       C151.9972,67.9063,151.2934,68.6096,150.4667,68.6064z"/>
          </g>
          <g>
            <path fill="#222222" d="M159.3497,74.8727c-0.1751,0.2728-0.3502,0.5456-0.5254,0.8183       c-0.3033,0.4721-0.6051,0.9452-0.9106,1.4159c-0.1391,0.2142-0.3595,0.3034-0.5913,0.2493       c-0.2381-0.0555-0.4118-0.2402-0.4445-0.4762c-0.016-0.1154,0.0179-0.2221,0.0724-0.3215       c0.2413-0.4394,0.4859-0.8771,0.7262-1.317c0.2279-0.4172,0.4502-0.8374,0.6787-1.2544c0.1233-0.225,0.2475-0.45,0.3834-0.6674       c0.1372-0.2195,0.2768-0.4396,0.438-0.6413c0.2029-0.2537,0.4667-0.432,0.7971-0.4716       c0.158-0.0189,0.3225-0.0092,0.4813,0.0101c0.3177,0.0386,0.6329,0.0307,0.9485-0.013       c0.4235-0.0586,0.7816,0.072,1.0837,0.3698c0.2607,0.257,0.4427,0.5693,0.6199,0.8842       c0.205,0.3643,0.4049,0.7315,0.6058,1.0981c0.3607,0.6582,0.7187,1.3179,1.0816,1.9748       c0.1406,0.2546,0.1095,0.5076-0.0977,0.6919c-0.2047,0.1821-0.5076,0.204-0.7158,0.0311       c-0.0932-0.0774-0.163-0.1874-0.2303-0.2911c-0.345-0.5317-0.6856-1.0662-1.0278-1.5997       c-0.1051-0.1638-0.2102-0.3275-0.3153-0.4912c-0.0071,0.0005-0.0142,0.001-0.0213,0.0015c0,0.1039-0.001,0.2078,0.0002,0.3117       c0.008,0.6839,0.0118,1.3679,0.0257,2.0517c0.0245,1.2036,0.0593,2.4071,0.082,3.6107       c0.0177,0.936,0.0241,1.8722,0.0343,2.8083c0.0033,0.3036-0.1105,0.5444-0.3969,0.6748       c-0.46,0.2094-1.065-0.0468-1.0658-0.6342c-0.0009-0.6859,0.0136-1.3719,0.0085-2.0578       c-0.0062-0.8373-0.0209-1.6747-0.0424-2.5117c-0.0063-0.2459-0.0457-0.4913-0.0759-0.7362       c-0.0068-0.0551-0.0386-0.1071-0.0589-0.1605c-0.0116-0.0002-0.0233-0.0004-0.0349-0.0006       c-0.0205,0.053-0.053,0.1045-0.0596,0.1592c-0.0307,0.2553-0.0722,0.511-0.0773,0.7672       c-0.0199,1.0009-0.0303,2.002-0.0384,3.0031c-0.004,0.4962,0.0037,0.9926,0.0078,1.4889       c0.0017,0.2058-0.0488,0.391-0.1987,0.5399c-0.2108,0.2094-0.5642,0.2777-0.8402,0.1577       c-0.2925-0.1272-0.4279-0.3589-0.4257-0.6728c0.0045-0.6632,0.0087-1.3265,0.0186-1.9896c0.0108-0.7201,0.029-1.44,0.0424-2.16       c0.0273-1.4611,0.0536-2.9221,0.0799-4.3832c0.0016-0.0875,0.0002-0.1751,0.0002-0.2626       C159.364,74.8758,159.3568,74.8743,159.3497,74.8727z"/>
            <path fill="#222222" d="M160.8707,72.0171c-0.8208-0.0032-1.5195-0.7128-1.516-1.5397       c0.0035-0.8343,0.7025-1.5319,1.5322-1.5291c0.8235,0.0028,1.5178,0.7069,1.5161,1.5376       C162.4012,71.317,161.6974,72.0203,160.8707,72.0171z"/>
          </g>
          <g>
            <path fill="#222222" d="M163.3563,63.7339c-0.1751,0.2728-0.3502,0.5456-0.5254,0.8183       c-0.3033,0.4721-0.6051,0.9452-0.9106,1.4159c-0.1391,0.2142-0.3595,0.3034-0.5913,0.2493       c-0.2381-0.0555-0.4118-0.2402-0.4445-0.4762c-0.016-0.1154,0.0179-0.2221,0.0724-0.3215       c0.2413-0.4394,0.4859-0.8771,0.7262-1.317c0.2279-0.4172,0.4502-0.8374,0.6787-1.2544c0.1233-0.225,0.2475-0.45,0.3834-0.6674       c0.1372-0.2195,0.2768-0.4397,0.438-0.6413c0.2029-0.2537,0.4667-0.432,0.7971-0.4716       c0.158-0.0189,0.3225-0.0092,0.4813,0.0101c0.3177,0.0386,0.6329,0.0307,0.9485-0.013       c0.4236-0.0586,0.7816,0.072,1.0837,0.3698c0.2607,0.257,0.4427,0.5693,0.6199,0.8842       c0.205,0.3643,0.4049,0.7315,0.6058,1.0981c0.3607,0.6582,0.7187,1.3179,1.0816,1.9748       c0.1406,0.2546,0.1095,0.5076-0.0977,0.6919c-0.2047,0.1821-0.5076,0.204-0.7158,0.0311       c-0.0932-0.0774-0.163-0.1873-0.2303-0.2911c-0.345-0.5317-0.6856-1.0662-1.0278-1.5997       c-0.1051-0.1638-0.2102-0.3275-0.3153-0.4912c-0.0071,0.0005-0.0142,0.001-0.0213,0.0015c0,0.1039-0.001,0.2078,0.0002,0.3117       c0.008,0.6839,0.0118,1.3679,0.0257,2.0517c0.0245,1.2036,0.0593,2.4071,0.082,3.6107       c0.0177,0.936,0.0241,1.8722,0.0343,2.8083c0.0033,0.3036-0.1105,0.5444-0.3969,0.6748       c-0.46,0.2094-1.065-0.0468-1.0658-0.6342c-0.0009-0.6859,0.0135-1.3719,0.0085-2.0578       c-0.0062-0.8373-0.0209-1.6747-0.0424-2.5117c-0.0063-0.2459-0.0457-0.4913-0.0759-0.7362       c-0.0068-0.0551-0.0386-0.1071-0.0589-0.1605c-0.0116-0.0002-0.0233-0.0004-0.0349-0.0006       c-0.0205,0.053-0.053,0.1045-0.0596,0.1592c-0.0307,0.2552-0.0722,0.511-0.0773,0.7672       c-0.0199,1.0009-0.0303,2.002-0.0384,3.0031c-0.004,0.4962,0.0037,0.9926,0.0078,1.4889       c0.0017,0.2058-0.0488,0.391-0.1987,0.5399c-0.2108,0.2094-0.5642,0.2777-0.8402,0.1577       c-0.2925-0.1272-0.4279-0.3589-0.4257-0.6728c0.0045-0.6632,0.0087-1.3265,0.0186-1.9896c0.0108-0.7201,0.029-1.44,0.0424-2.16       c0.0273-1.4611,0.0536-2.9222,0.0799-4.3832c0.0016-0.0875,0.0002-0.1751,0.0002-0.2626       C163.3706,63.737,163.3634,63.7354,163.3563,63.7339z"/>
            <path fill="#222222" d="M164.8773,60.8783c-0.8208-0.0032-1.5195-0.7128-1.516-1.5397       c0.0035-0.8343,0.7025-1.5319,1.5322-1.5291c0.8235,0.0028,1.5178,0.7069,1.5161,1.5376       C166.4078,60.1782,165.704,60.8815,164.8773,60.8783z"/>
          </g>
          <g>
            <path fill="#222222" d="M168.882,73.083c-0.1751,0.2728-0.3502,0.5456-0.5254,0.8183       c-0.3033,0.4721-0.6051,0.9452-0.9106,1.4159c-0.1391,0.2142-0.3595,0.3034-0.5913,0.2493       c-0.2381-0.0555-0.4117-0.2402-0.4445-0.4762c-0.016-0.1154,0.0179-0.2221,0.0724-0.3215       c0.2413-0.4394,0.4859-0.8771,0.7262-1.317c0.2279-0.4172,0.4503-0.8374,0.6787-1.2544c0.1233-0.225,0.2475-0.45,0.3834-0.6674       c0.1372-0.2195,0.2768-0.4396,0.438-0.6413c0.2029-0.2537,0.4667-0.432,0.797-0.4716c0.158-0.0189,0.3225-0.0092,0.4813,0.0101       c0.3177,0.0386,0.6329,0.0307,0.9485-0.0129c0.4235-0.0586,0.7816,0.072,1.0836,0.3698       c0.2607,0.257,0.4427,0.5693,0.6199,0.8842c0.205,0.3643,0.4049,0.7315,0.6058,1.0981       c0.3607,0.6582,0.7187,1.3179,1.0816,1.9748c0.1406,0.2546,0.1095,0.5076-0.0977,0.6919       c-0.2047,0.1821-0.5075,0.2039-0.7158,0.0311c-0.0932-0.0774-0.163-0.1873-0.2303-0.2911       c-0.345-0.5317-0.6856-1.0662-1.0278-1.5997c-0.105-0.1638-0.2102-0.3275-0.3153-0.4912       c-0.0071,0.0005-0.0142,0.001-0.0213,0.0015c0,0.1039-0.001,0.2078,0.0002,0.3117c0.008,0.6839,0.0118,1.3679,0.0257,2.0517       c0.0245,1.2036,0.0593,2.4071,0.082,3.6107c0.0177,0.936,0.0241,1.8722,0.0343,2.8083       c0.0033,0.3036-0.1105,0.5444-0.3969,0.6748c-0.46,0.2094-1.065-0.0468-1.0658-0.6342       c-0.0009-0.6859,0.0136-1.3719,0.0085-2.0578c-0.0062-0.8373-0.0209-1.6747-0.0424-2.5117       c-0.0063-0.2459-0.0457-0.4913-0.0759-0.7362c-0.0068-0.0551-0.0386-0.1071-0.0589-0.1605       c-0.0116-0.0002-0.0233-0.0004-0.0349-0.0006c-0.0205,0.053-0.053,0.1045-0.0596,0.1592       c-0.0307,0.2553-0.0722,0.511-0.0773,0.7672c-0.0199,1.0009-0.0303,2.002-0.0384,3.0031       c-0.004,0.4962,0.0037,0.9926,0.0078,1.4889c0.0017,0.2058-0.0488,0.391-0.1987,0.5399       c-0.2109,0.2094-0.5642,0.2777-0.8402,0.1577c-0.2925-0.1272-0.4278-0.3589-0.4257-0.6728       c0.0045-0.6632,0.0087-1.3265,0.0186-1.9896c0.0108-0.7201,0.029-1.44,0.0424-2.16c0.0273-1.4611,0.0536-2.9221,0.0799-4.3832       c0.0016-0.0875,0.0002-0.1751,0.0002-0.2626C168.8964,73.0861,168.8892,73.0845,168.882,73.083z"/>
            <path fill="#222222" d="M170.403,70.2274c-0.8208-0.0032-1.5195-0.7128-1.516-1.5397       c0.0035-0.8343,0.7025-1.5319,1.5322-1.5291c0.8235,0.0028,1.5178,0.7069,1.5161,1.5376       C171.9336,69.5273,171.2298,70.2306,170.403,70.2274z"/>
          </g>
          <g>
            <path fill="#222222" d="M176.8886,69.9722c-0.1751,0.2728-0.3502,0.5456-0.5254,0.8183       c-0.3033,0.4721-0.6051,0.9452-0.9106,1.4159c-0.1391,0.2142-0.3595,0.3034-0.5913,0.2493       c-0.2381-0.0555-0.4117-0.2402-0.4445-0.4762c-0.016-0.1154,0.0179-0.2221,0.0724-0.3215       c0.2413-0.4394,0.4859-0.8771,0.7262-1.317c0.2279-0.4172,0.4503-0.8374,0.6787-1.2544c0.1233-0.225,0.2475-0.45,0.3834-0.6674       c0.1372-0.2195,0.2768-0.4397,0.438-0.6413c0.2029-0.2537,0.4667-0.432,0.797-0.4716c0.158-0.0189,0.3225-0.0092,0.4813,0.0101       c0.3177,0.0386,0.6329,0.0307,0.9485-0.013c0.4235-0.0586,0.7816,0.072,1.0836,0.3698       c0.2607,0.257,0.4427,0.5693,0.6199,0.8842c0.205,0.3643,0.4049,0.7315,0.6058,1.0981       c0.3607,0.6582,0.7187,1.3179,1.0816,1.9748c0.1406,0.2546,0.1095,0.5076-0.0977,0.6919       c-0.2047,0.1821-0.5075,0.204-0.7158,0.0311c-0.0932-0.0774-0.163-0.1874-0.2303-0.2911       c-0.345-0.5317-0.6856-1.0662-1.0278-1.5997c-0.105-0.1638-0.2102-0.3275-0.3153-0.4912       c-0.0071,0.0005-0.0142,0.001-0.0213,0.0015c0,0.1039-0.001,0.2078,0.0002,0.3117c0.008,0.6839,0.0118,1.3679,0.0257,2.0517       c0.0245,1.2036,0.0593,2.4071,0.082,3.6107c0.0177,0.936,0.0241,1.8722,0.0343,2.8083       c0.0033,0.3036-0.1105,0.5444-0.3969,0.6748c-0.46,0.2094-1.065-0.0468-1.0658-0.6342       c-0.0009-0.6859,0.0136-1.3719,0.0085-2.0578c-0.0062-0.8373-0.0209-1.6747-0.0424-2.5117       c-0.0063-0.2459-0.0457-0.4913-0.0759-0.7362c-0.0068-0.0551-0.0386-0.1071-0.0589-0.1605       c-0.0116-0.0002-0.0233-0.0004-0.0349-0.0006c-0.0205,0.053-0.053,0.1045-0.0596,0.1592       c-0.0307,0.2553-0.0722,0.511-0.0773,0.7672c-0.0199,1.0009-0.0303,2.002-0.0384,3.0031       c-0.004,0.4962,0.0037,0.9926,0.0078,1.4889c0.0017,0.2058-0.0488,0.391-0.1987,0.5399       c-0.2109,0.2094-0.5642,0.2777-0.8402,0.1577c-0.2925-0.1272-0.4278-0.3589-0.4257-0.6728       c0.0045-0.6632,0.0087-1.3265,0.0186-1.9896c0.0108-0.7201,0.029-1.44,0.0424-2.16c0.0273-1.4611,0.0536-2.9221,0.0799-4.3832       c0.0016-0.0875,0.0002-0.1751,0.0002-0.2626C176.9029,69.9753,176.8958,69.9738,176.8886,69.9722z"/>
            <path fill="#222222" d="M178.4096,67.1166c-0.8208-0.0032-1.5195-0.7128-1.516-1.5397       c0.0035-0.8343,0.7025-1.5319,1.5322-1.5291c0.8235,0.0028,1.5178,0.7069,1.5161,1.5376       C179.9402,66.4165,179.2363,67.1198,178.4096,67.1166z"/>
          </g>
        </g>
      </g>
      <g/>
      <g/>
      <g/>
      <g/>
      <g/>
      <g/>
      <g/>
      <g/>
      <g/>
      <g/>
      <g/>
      <g/>
      <g/>
      <g/>
      <g/>
      <g/>
      <g/>
    </g>
  </switch>
</svg>

