<?xml version="1.0" encoding="utf-8" ?>	<!-- Generator: Assembly 2.4 - http://assemblyapp.co -->	<svg version="1.1" xmlns="http://www.w3.org/2000/svg" xmlns:xlink="http://www.w3.org/1999/xlink" width="4096.00" height="4096.00" viewBox="0 0 4096.0 4096.0">		<g id="document" transform="scale(13.653333333333334 13.653333333333334) translate(150.0 150.0)">			<path d="M1.2457e-06,124.011 C71.3191,124.011 129.054,66.2764 129.054,-5.04262 C129.054,-76.3617 71.3191,-134.096 1.2457e-06,-134.096 C-71.319,-134.096 -129.054,-76.3617 -129.054,-5.04262 C-129.054,66.2764 -71.319,124.011 1.2457e-06,124.011 Z " fill="#24682c" fill-opacity="1.00" />			<path d="M-84.0593,-0.500847 L84.0593,-0.500847 " fill="none" stroke-width="2.99" stroke="#ffffff" stroke-linecap="square" stroke-linejoin="miter" />			<path d="M-88.751,20.6075 C-88.751,22.4657 -88.4561,23.8545 -87.8661,24.7741 C-87.2762,25.6936 -86.3411,26.1534 -85.0609,26.1534 C-83.7951,26.1534 -82.8636,25.7008 -82.2665,24.7956 C-81.6694,23.8904 -81.3709,22.4896 -81.3709,20.5932 C-81.3709,18.7111 -81.6658,17.3163 -82.2558,16.4087 C-82.8457,15.5011 -83.7808,15.0473 -85.0609,15.0473 C-86.322,15.0473 -87.2523,15.4951 -87.8518,16.3907 C-88.4513,17.2864 -88.751,18.692 -88.751,20.6075 Z M-86.8666,17.3545 C-86.7042,16.9771 -86.4749,16.6953 -86.1787,16.509 C-85.8826,16.3227 -85.51,16.2295 -85.0609,16.2295 C-84.5833,16.2295 -84.1999,16.3274 -83.9109,16.5233 C-83.6219,16.7191 -83.3986,17.0034 -83.241,17.376 C-83.069,17.7724 -82.9568,18.2215 -82.9042,18.723 C-82.8517,19.2246 -82.8254,19.848 -82.8254,20.5932 C-82.8254,21.2715 -82.8552,21.8948 -82.915,22.4633 C-82.9747,23.0317 -83.0857,23.4927 -83.2481,23.8462 C-83.4201,24.2235 -83.653,24.5054 -83.9468,24.6917 C-84.2405,24.878 -84.6119,24.9711 -85.0609,24.9711 C-85.5147,24.9711 -85.8861,24.878 -86.1751,24.6917 C-86.4641,24.5054 -86.6922,24.2283 -86.8594,23.8605 C-87.0314,23.4879 -87.1472,23.0341 -87.2069,22.4991 C-87.2666,21.9641 -87.2965,21.3336 -87.2965,20.6075 C-87.2965,19.8719 -87.2666,19.2425 -87.2069,18.7194 C-87.1472,18.1964 -87.0338,17.7414 -86.8666,17.3545 Z " fill="#ffffff" fill-opacity="1.00" />			<path d="M-85.061,-10.3329 L-85.061,9.33124 " fill="none" stroke-width="2.99" stroke="#ffffff" stroke-linecap="square" stroke-linejoin="miter" />			<path d="M85.061,-10.3329 L85.061,9.33124 " fill="none" stroke-width="2.99" stroke="#ffffff" stroke-linecap="square" stroke-linejoin="miter" />			<path d="M58.9934,-3.56075 L58.9934,2.55906 " fill="none" stroke-width="3" stroke="#ffffff" stroke-linecap="square" stroke-linejoin="miter" />		</g>	</svg>