<?xml version="1.0" encoding="utf-8" ?>	<!-- Generator: Assembly 2.4 - http://assemblyapp.co -->	<svg version="1.1" xmlns="http://www.w3.org/2000/svg" xmlns:xlink="http://www.w3.org/1999/xlink" width="500.00" height="286.00" viewBox="0 0 500.0 286.0">		<g id="document" transform="scale(1.66958432018673 1.66958432018673) translate(149.77449115953948 85.71428571428571)">			<path d="M100.363,23.1635 C116.884,23.1635 130.258,9.78939 130.258,-6.7316 C130.258,-23.2526 116.884,-36.6267 100.363,-36.6267 C83.8417,-36.6267 70.4675,-23.2526 70.4675,-6.7316 C70.4675,9.78939 83.8417,23.1635 100.363,23.1635 Z " fill="#ff7502" fill-opacity="1.00" />			<path d="M-33.7274,23.7681 C-17.2065,23.7681 -3.83233,10.394 -3.83233,-6.12702 C-3.83233,-22.648 -17.2065,-36.0221 -33.7274,-36.0221 C-50.2484,-36.0221 -63.6226,-22.648 -63.6226,-6.12702 C-63.6226,10.394 -50.2484,23.7681 -33.7274,23.7681 Z " fill="#015e6c" fill-opacity="1.00" />			<path d="M-100.363,23.7681 C-83.8417,23.7681 -70.4675,10.394 -70.4675,-6.12702 C-70.4675,-22.648 -83.8417,-36.0221 -100.363,-36.0221 C-116.884,-36.0221 -130.258,-22.648 -130.258,-6.12702 C-130.258,10.394 -116.884,23.7681 -100.363,23.7681 Z " fill="#24682c" fill-opacity="1.00" />			<path d="M-86.3388,1.26717 L-91.5571,-6.77516 L-92.6622,-8.61692 C-93.1533,-9.35362 -93.9514,-9.84475 -94.8109,-9.90615 C-94.8723,-9.90615 -94.9337,-9.90615 -94.9337,-9.90615 L-96.8368,-9.90615 C-97.021,-9.90615 -97.2051,-10.0903 -97.2051,-10.2745 L-97.2051,-10.7042 C-97.2051,-10.7656 -97.2051,-10.827 -97.2051,-10.8884 L-103.774,-10.8884 C-103.774,-10.8884 -103.774,-10.8884 -103.774,-10.827 L-103.774,-10.3359 C-103.774,-10.1517 -103.958,-9.96754 -104.142,-9.96754 L-104.634,-9.96754 C-104.879,-9.96754 -105.125,-10.0289 -105.37,-10.0289 C-105.432,-10.0289 -105.554,-10.0289 -105.616,-10.0289 C-106.537,-10.0289 -107.396,-9.59919 -107.949,-8.7397 L-109.115,-6.89795 L-114.333,1.08299 C-114.579,1.45134 -114.456,1.88108 -114.088,2.12665 L-110.65,4.39815 C-110.527,4.45954 -110.404,4.52093 -110.22,4.52093 C-109.975,4.52093 -109.729,4.39815 -109.606,4.21397 L-107.396,0.837423 C-107.396,0.776031 -107.335,0.776031 -107.335,0.776031 C-107.273,0.776031 -107.212,0.837423 -107.212,0.898814 L-107.212,4.33676 C-106.782,4.45954 -106.291,4.58232 -105.861,4.7665 C-104.081,5.38042 -102.239,6.42408 -101.073,7.09939 C-100.766,7.28356 -100.52,7.46774 -100.336,7.52913 C-100.213,7.46774 -100.029,7.34495 -99.7836,7.22217 C-98.6786,6.54686 -96.714,5.5032 -94.8109,4.82789 C-94.3811,4.70511 -93.9514,4.58232 -93.583,4.45954 L-93.583,0.898814 C-93.583,0.837423 -93.5216,0.776031 -93.4602,0.776031 C-93.3989,0.776031 -93.3989,0.776031 -93.3989,0.837423 L-91.066,4.39815 C-90.9432,4.64372 -90.6976,4.7665 -90.452,4.7665 C-90.3293,4.7665 -90.1451,4.70511 -90.0223,4.64372 L-86.5844,2.43361 C-86.216,2.06526 -86.1546,1.57412 -86.3388,1.26717 Z M-96.3457,-1.86382 C-96.3457,-1.2499 -96.8368,-0.758765 -97.4507,-0.758765 L-103.467,-0.758765 C-104.081,-0.758765 -104.572,-1.2499 -104.572,-1.86382 L-104.572,-4.81062 C-104.572,-5.42454 -104.081,-5.91568 -103.467,-5.91568 L-97.4507,-5.91568 C-96.8368,-5.91568 -96.3457,-5.42454 -96.3457,-4.74923 L-96.3457,-1.86382 Z M-106.966,21.5879 C-107.089,21.8948 -106.905,22.2632 -106.537,22.2632 L-101.503,22.2632 C-101.134,22.2632 -100.889,21.8948 -101.073,21.5879 L-101.748,20.0531 C-101.81,19.8689 -101.81,19.6233 -101.687,19.4391 L-101.625,19.3164 C-101.318,18.948 -101.196,18.4569 -101.196,17.9657 L-101.196,8.57279 L-101.196,8.26583 C-101.318,8.20444 -101.503,8.08166 -101.625,8.02027 C-101.932,7.83609 -102.239,7.65191 -102.608,7.46774 C-103.958,6.73104 -105.739,5.81016 -107.335,5.44181 L-107.335,6.48547 L-107.335,7.65191 L-107.335,8.32722 L-107.335,17.9657 C-107.335,18.4569 -107.151,18.8866 -106.782,19.1936 L-106.475,19.4391 C-106.291,19.5619 -106.23,19.8075 -106.353,20.0531 L-106.966,21.5879 Z M-94.2583,19.1936 C-93.89,18.8866 -93.7058,18.3955 -93.7058,17.9657 L-93.7058,8.38862 L-93.7058,7.71331 L-93.7058,6.85382 C-93.6444,6.73104 -93.6444,6.60825 -93.6444,6.48547 L-93.6444,5.5032 L-93.7058,5.5032 C-95.2406,5.93294 -96.9596,6.79243 -98.2488,7.46774 C-98.6172,7.65191 -98.9241,7.83609 -99.2311,8.02027 C-99.4766,8.20444 -99.7222,8.32722 -99.9064,8.38862 L-99.9064,8.57279 L-99.9064,17.9657 C-99.9064,18.4569 -99.7836,18.948 -99.4766,19.3164 L-99.4153,19.4391 C-99.2925,19.6233 -99.2311,19.8689 -99.3539,20.0531 L-100.029,21.5879 C-100.152,21.8948 -99.9678,22.2632 -99.5994,22.2632 L-94.5653,22.2632 C-94.1969,22.2632 -93.9514,21.8948 -94.1356,21.5879 L-94.8109,20.0531 C-94.8723,19.8689 -94.8723,19.6233 -94.6881,19.4391 L-94.2583,19.1936 Z M-83.5762,4.95067 L-84.8654,4.09119 C-85.0496,3.96841 -85.1724,3.72284 -85.1724,3.47727 L-85.1724,3.10892 C-85.1724,2.92474 -85.2951,2.74057 -85.4793,2.74057 C-85.6021,2.67918 -85.7249,2.74057 -85.7863,2.80196 L-89.8995,5.44181 C-90.0223,5.5032 -90.0837,5.62598 -90.0837,5.74877 C-90.0837,5.87155 -90.0223,6.05573 -89.8381,6.05573 L-89.347,6.17851 C-89.1014,6.2399 -88.9786,6.42408 -88.9173,6.66964 L-88.5489,8.14305 C-88.4875,8.5114 -88.0578,8.63418 -87.7508,8.45001 L-83.6376,5.81016 C-83.3306,5.56459 -83.3306,5.13485 -83.5762,4.95067 Z M-117.096,5.68738 L-112.983,8.32722 C-112.676,8.5114 -112.246,8.38862 -112.185,8.02027 L-111.816,6.54686 C-111.755,6.30129 -111.571,6.11712 -111.387,6.05573 L-110.896,5.93294 C-110.711,5.87155 -110.65,5.68738 -110.65,5.5032 C-110.65,5.44181 -110.711,5.31902 -110.773,5.31902 L-114.886,2.67918 C-114.947,2.61779 -115.07,2.61779 -115.132,2.61779 C-115.316,2.61779 -115.5,2.80196 -115.5,2.98614 L-115.5,3.35449 C-115.5,3.60005 -115.623,3.78423 -115.807,3.90701 L-117.096,4.7665 C-117.403,5.07346 -117.403,5.5032 -117.096,5.68738 Z M-108.317,-14.6947 C-108.256,-14.6947 -108.133,-14.6947 -108.071,-14.6947 C-106.844,-11.5637 -103.835,-9.35362 -100.275,-9.35362 C-96.714,-9.35362 -93.7058,-11.5637 -92.478,-14.6947 C-92.4166,-14.6947 -92.4166,-14.6947 -92.3552,-14.6947 C-91.2501,-14.6947 -90.3293,-16.0453 -90.3293,-17.7029 C-90.3293,-19.0535 -90.9432,-20.22 -91.7413,-20.5883 L-91.7413,-24.456 C-91.1887,-24.6402 -90.759,-25.1927 -90.759,-25.8066 C-90.759,-26.6047 -91.3729,-27.2186 -92.171,-27.2186 C-92.9691,-27.2186 -93.583,-26.6047 -93.583,-25.8066 C-93.583,-25.1927 -93.1533,-24.6402 -92.6008,-24.456 L-92.6008,-21.0181 C-93.89,-23.9649 -96.8368,-26.0522 -100.275,-26.0522 C-103.835,-26.0522 -106.844,-23.8421 -108.071,-20.7111 C-108.133,-20.7111 -108.256,-20.7111 -108.317,-20.7111 C-109.422,-20.7111 -110.343,-19.3605 -110.343,-17.7029 C-110.343,-16.0453 -109.422,-14.6947 -108.317,-14.6947 Z M-106.046,-20.8339 C-102.423,-22.4915 -98.2488,-22.4915 -94.6267,-20.8339 C-94.1356,-19.913 -93.8286,-18.808 -93.8286,-17.7029 C-93.8286,-16.7206 -94.0742,-15.7998 -94.4425,-14.9403 C-98.1874,-13.1599 -102.546,-13.1599 -106.291,-14.9403 C-106.659,-15.7998 -106.905,-16.7206 -106.905,-17.7029 C-106.844,-18.808 -106.598,-19.913 -106.046,-20.8339 Z " fill="#ffffff" fill-opacity="1.00" />			<path d="M33.0432,23.794 C49.5642,23.794 62.9383,10.4198 62.9383,-6.10116 C62.9383,-22.6221 49.5642,-35.9963 33.0432,-35.9963 C16.5222,-35.9963 3.1481,-22.6221 3.1481,-6.10116 C3.1481,10.4198 16.5222,23.794 33.0432,23.794 Z " fill="#865f3e" fill-opacity="1.00" stroke-width="0.04" stroke="#000000" stroke-linecap="square" stroke-linejoin="miter" />			<path d="M-32.1791,15.6619 C-20.1379,14.8062 -11.0829,4.3659 -11.9386,-7.67533 C-12.7942,-19.7166 -23.2345,-28.7716 -35.2758,-27.9159 C-47.317,-27.0603 -56.372,-16.6199 -55.5163,-4.57871 C-54.6607,7.46252 -44.2204,16.5175 -32.1791,15.6619 Z " fill="none" stroke-width="1.00" stroke="#ffffff" stroke-linecap="square" stroke-linejoin="miter" />			<path d="M-28.6358,-6.12702 C-28.6358,-13.3912 -34.5247,-19.28 -41.7889,-19.28 C-49.0531,-19.28 -54.9419,-13.3912 -54.9419,-6.12702 C-54.9419,1.13719 -49.0531,7.02599 -41.7889,7.02599 C-34.5247,7.02599 -28.6358,1.13719 -28.6358,-6.12702 Z " fill="none" stroke-width="1.00" stroke="#ffffff" stroke-linecap="square" stroke-linejoin="miter" />			<path d="M11.1984,-6.0753 L54.8881,-6.0753 " fill="none" stroke-width="1.00" stroke="#ffffff" stroke-linecap="square" stroke-linejoin="miter" />			<path d="M30.207,-11.875 L30.207,-0.27557 M33.0432,-11.875 L33.0432,-0.27557 M35.8794,-11.875 L35.8794,-0.27557 " fill="none" stroke-width="1.00" stroke="#ffffff" stroke-linecap="square" stroke-linejoin="miter" />			<path d="M35.8794,-11.875 L35.8794,-0.27557 M38.7156,-11.875 L38.7156,-0.27557 M41.5518,-11.875 L41.5518,-0.27557 " fill="none" stroke-width="1.00" stroke="#ffffff" stroke-linecap="square" stroke-linejoin="miter" />			<path d="M24.5346,-11.875 L24.5346,-0.27557 M27.3708,-11.875 L27.3708,-0.27557 M30.207,-11.875 L30.207,-0.27557 " fill="none" stroke-width="1.00" stroke="#ffffff" stroke-linecap="square" stroke-linejoin="miter" />			<path d="M18.8622,-11.875 L18.8622,-0.27557 M21.6984,-11.875 L21.6984,-0.27557 M24.5346,-11.875 L24.5346,-0.27557 " fill="none" stroke-width="1.00" stroke="#ffffff" stroke-linecap="square" stroke-linejoin="miter" />			<path d="M41.5518,-11.875 L41.5518,-0.27557 M44.388,-11.875 L44.388,-0.27557 M47.2242,-11.875 L47.2242,-0.27557 " fill="none" stroke-width="1.00" stroke="#ffffff" stroke-linecap="square" stroke-linejoin="miter" />			<path d="M82.3172,-6.07301 L118.408,-6.07301 " fill="none" stroke-width="1.00" stroke="#ffffff" stroke-linecap="square" stroke-linejoin="miter" />			<path d="M79.5428,0.443963 C79.5428,1.2061 79.6638,1.77574 79.9058,2.15289 C80.1477,2.53004 80.5313,2.71862 81.0563,2.71862 C81.5755,2.71862 81.9576,2.53298 82.2025,2.16171 C82.4474,1.79044 82.5698,1.21589 82.5698,0.438085 C82.5698,-0.333848 82.4488,-0.90594 82.2069,-1.27819 C81.9649,-1.65044 81.5814,-1.83657 81.0563,-1.83657 C80.5391,-1.83657 80.1575,-1.65289 79.9117,-1.28554 C79.6658,-0.918185 79.5428,-0.341685 79.5428,0.443963 Z M80.3157,-0.890266 C80.3824,-1.04504 80.4764,-1.16064 80.5979,-1.23705 C80.7193,-1.31346 80.8722,-1.35166 81.0563,-1.35166 C81.2522,-1.35166 81.4095,-1.3115 81.528,-1.23117 C81.6465,-1.15084 81.7381,-1.03427 81.8028,-0.88145 C81.8733,-0.718835 81.9194,-0.534668 81.9409,-0.32895 C81.9625,-0.123232 81.9732,0.132446 81.9732,0.438085 C81.9732,0.716294 81.961,0.971972 81.9365,1.20512 C81.912,1.43827 81.8665,1.62733 81.7998,1.77231 C81.7293,1.92709 81.6338,2.04269 81.5133,2.1191 C81.3928,2.19551 81.2405,2.23371 81.0563,2.23371 C80.8702,2.23371 80.7179,2.19551 80.5993,2.1191 C80.4808,2.04269 80.3873,1.92905 80.3187,1.77819 C80.2481,1.62537 80.2006,1.43925 80.1761,1.21981 C80.1517,1.00038 80.1394,0.741764 80.1394,0.443963 C80.1394,0.142243 80.1517,-0.115885 80.1761,-0.330419 C80.2006,-0.544954 80.2472,-0.731569 80.3157,-0.890266 Z " fill="#ffffff" fill-opacity="1.00" />			<path d="M81.0563,-8.3529 L81.0563,-3.79771 " fill="none" stroke-width="1.00" stroke="#ffffff" stroke-linecap="square" stroke-linejoin="miter" />			<path d="M119.669,-8.3529 L119.669,-3.79771 " fill="none" stroke-width="1.00" stroke="#ffffff" stroke-linecap="square" stroke-linejoin="miter" />			<path d="M113.758,-8.3506 L113.758,-3.79542 " fill="none" stroke-width="0.50" stroke="#ffffff" stroke-linecap="square" stroke-linejoin="miter" />		</g>	</svg>