<?xml version="1.0" encoding="utf-8" ?>	<!-- Generator: Assembly 2.4 - http://assemblyapp.co -->	<svg version="1.1" xmlns="http://www.w3.org/2000/svg" xmlns:xlink="http://www.w3.org/1999/xlink" width="500.00" height="286.00" viewBox="0 0 500.0 286.0">		<g id="document" transform="scale(1.668611557910451 1.668611557910451) translate(150.0 85.71428571428571)">			<path d="M97.8822,29.8277 C114.403,29.8277 127.777,16.4535 127.777,-0.0674528 C127.777,-16.5884 114.403,-29.9626 97.8822,-29.9626 C81.3612,-29.9626 67.9871,-16.5884 67.9871,-0.0674528 C67.9871,16.4535 81.3612,29.8277 97.8822,29.8277 Z " fill="#ff7502" fill-opacity="1.00" />			<path d="M-36.2079,30.4322 C-19.6869,30.4322 -6.31277,17.0581 -6.31277,0.537125 C-6.31277,-15.9839 -19.6869,-29.358 -36.2079,-29.358 C-52.7289,-29.358 -66.103,-15.9839 -66.103,0.537125 C-66.103,17.0581 -52.7289,30.4322 -36.2079,30.4322 Z " fill="#015e6c" fill-opacity="1.00" />			<path d="M-102.843,30.4322 C-86.3221,30.4322 -72.948,17.0581 -72.948,0.537124 C-72.948,-15.9839 -86.3221,-29.358 -102.843,-29.358 C-119.364,-29.358 -132.738,-15.9839 -132.738,0.537124 C-132.738,17.0581 -119.364,30.4322 -102.843,30.4322 Z " fill="#24682c" fill-opacity="1.00" />			<path d="M-88.8192,7.93131 L-94.0375,-0.111016 L-95.1426,-1.95277 C-95.6337,-2.68947 -96.4318,-3.18061 -97.2913,-3.242 C-97.3527,-3.242 -97.4141,-3.242 -97.4141,-3.242 L-99.3172,-3.242 C-99.5014,-3.242 -99.6856,-3.42617 -99.6856,-3.61035 L-99.6856,-4.04009 C-99.6856,-4.10148 -99.6856,-4.16288 -99.6856,-4.22427 L-106.255,-4.22427 C-106.255,-4.22427 -106.255,-4.22427 -106.255,-4.16288 L-106.255,-3.67174 C-106.255,-3.48757 -106.439,-3.30339 -106.623,-3.30339 L-107.114,-3.30339 C-107.36,-3.30339 -107.605,-3.36478 -107.851,-3.36478 C-107.912,-3.36478 -108.035,-3.36478 -108.096,-3.36478 C-109.017,-3.36478 -109.877,-2.93504 -110.429,-2.07555 L-111.596,-0.2338 L-116.814,7.74714 C-117.059,8.11549 -116.937,8.54523 -116.568,8.7908 L-113.13,11.0623 C-113.008,11.1237 -112.885,11.1851 -112.701,11.1851 C-112.455,11.1851 -112.21,11.0623 -112.087,10.8781 L-109.877,7.50157 C-109.877,7.44018 -109.815,7.44018 -109.815,7.44018 C-109.754,7.44018 -109.692,7.50157 -109.692,7.56296 L-109.692,11.0009 C-109.263,11.1237 -108.772,11.2465 -108.342,11.4306 C-106.561,12.0446 -104.72,13.0882 -103.553,13.7635 C-103.246,13.9477 -103.001,14.1319 -102.817,14.1933 C-102.694,14.1319 -102.51,14.0091 -102.264,13.8863 C-101.159,13.211 -99.1945,12.1673 -97.2913,11.492 C-96.8616,11.3693 -96.4318,11.2465 -96.0635,11.1237 L-96.0635,7.56296 C-96.0635,7.50157 -96.0021,7.44018 -95.9407,7.44018 C-95.8793,7.44018 -95.8793,7.44018 -95.8793,7.50157 L-93.5464,11.0623 C-93.4236,11.3079 -93.1781,11.4306 -92.9325,11.4306 C-92.8097,11.4306 -92.6255,11.3693 -92.5028,11.3079 L-89.0648,9.09776 C-88.6965,8.72941 -88.6351,8.23827 -88.8192,7.93131 Z M-98.8261,4.80033 C-98.8261,5.41425 -99.3172,5.90538 -99.9312,5.90538 L-105.948,5.90538 C-106.561,5.90538 -107.053,5.41425 -107.053,4.80033 L-107.053,1.85352 C-107.053,1.2396 -106.561,0.748469 -105.948,0.748469 L-99.9312,0.748469 C-99.3172,0.748469 -98.8261,1.2396 -98.8261,1.91491 L-98.8261,4.80033 Z M-109.447,28.252 C-109.57,28.559 -109.386,28.9273 -109.017,28.9273 L-103.983,28.9273 C-103.615,28.9273 -103.369,28.559 -103.553,28.252 L-104.229,26.7172 C-104.29,26.533 -104.29,26.2875 -104.167,26.1033 L-104.106,25.9805 C-103.799,25.6122 -103.676,25.121 -103.676,24.6299 L-103.676,15.2369 L-103.676,14.93 C-103.799,14.8686 -103.983,14.7458 -104.106,14.6844 C-104.413,14.5002 -104.72,14.3161 -105.088,14.1319 C-106.439,13.3952 -108.219,12.4743 -109.815,12.106 L-109.815,13.1496 L-109.815,14.3161 L-109.815,14.9914 L-109.815,24.6299 C-109.815,25.121 -109.631,25.5508 -109.263,25.8577 L-108.956,26.1033 C-108.772,26.2261 -108.71,26.4716 -108.833,26.7172 L-109.447,28.252 Z M-96.7388,25.8577 C-96.3704,25.5508 -96.1863,25.0596 -96.1863,24.6299 L-96.1863,15.0528 L-96.1863,14.3775 L-96.1863,13.518 C-96.1249,13.3952 -96.1249,13.2724 -96.1249,13.1496 L-96.1249,12.1673 L-96.1863,12.1673 C-97.7211,12.5971 -99.44,13.4566 -100.729,14.1319 C-101.098,14.3161 -101.405,14.5002 -101.712,14.6844 C-101.957,14.8686 -102.203,14.9914 -102.387,15.0528 L-102.387,15.2369 L-102.387,24.6299 C-102.387,25.121 -102.264,25.6122 -101.957,25.9805 L-101.896,26.1033 C-101.773,26.2875 -101.712,26.533 -101.834,26.7172 L-102.51,28.252 C-102.632,28.559 -102.448,28.9273 -102.08,28.9273 L-97.0457,28.9273 C-96.6774,28.9273 -96.4318,28.559 -96.616,28.252 L-97.2913,26.7172 C-97.3527,26.533 -97.3527,26.2875 -97.1685,26.1033 L-96.7388,25.8577 Z M-86.0566,11.6148 L-87.3458,10.7553 C-87.53,10.6326 -87.6528,10.387 -87.6528,10.1414 L-87.6528,9.77307 C-87.6528,9.58889 -87.7756,9.40472 -87.9598,9.40472 C-88.0825,9.34332 -88.2053,9.40472 -88.2667,9.46611 L-92.38,12.106 C-92.5028,12.1673 -92.5641,12.2901 -92.5641,12.4129 C-92.5641,12.5357 -92.5028,12.7199 -92.3186,12.7199 L-91.8274,12.8427 C-91.5819,12.904 -91.4591,13.0882 -91.3977,13.3338 L-91.0293,14.8072 C-90.968,15.1755 -90.5382,15.2983 -90.2313,15.1142 L-86.118,12.4743 C-85.811,12.2287 -85.811,11.799 -86.0566,11.6148 Z M-119.577,12.3515 L-115.463,14.9914 C-115.156,15.1755 -114.727,15.0528 -114.665,14.6844 L-114.297,13.211 C-114.235,12.9654 -114.051,12.7813 -113.867,12.7199 L-113.376,12.5971 C-113.192,12.5357 -113.13,12.3515 -113.13,12.1673 C-113.13,12.106 -113.192,11.9832 -113.253,11.9832 L-117.366,9.34332 C-117.428,9.28193 -117.551,9.28193 -117.612,9.28193 C-117.796,9.28193 -117.98,9.46611 -117.98,9.65028 L-117.98,10.0186 C-117.98,10.2642 -118.103,10.4484 -118.287,10.5712 L-119.577,11.4306 C-119.884,11.7376 -119.884,12.1673 -119.577,12.3515 Z M-110.798,-8.03056 C-110.736,-8.03056 -110.613,-8.03056 -110.552,-8.03056 C-109.324,-4.89958 -106.316,-2.68947 -102.755,-2.68947 C-99.1945,-2.68947 -96.1863,-4.89958 -94.9584,-8.03056 C-94.897,-8.03056 -94.897,-8.03056 -94.8356,-8.03056 C-93.7306,-8.03056 -92.8097,-9.38118 -92.8097,-11.0388 C-92.8097,-12.3894 -93.4236,-13.5558 -94.2217,-13.9242 L-94.2217,-17.7919 C-93.6692,-17.976 -93.2395,-18.5286 -93.2395,-19.1425 C-93.2395,-19.9406 -93.8534,-20.5545 -94.6515,-20.5545 C-95.4496,-20.5545 -96.0635,-19.9406 -96.0635,-19.1425 C-96.0635,-18.5286 -95.6337,-17.976 -95.0812,-17.7919 L-95.0812,-14.3539 C-96.3704,-17.3007 -99.3172,-19.388 -102.755,-19.388 C-106.316,-19.388 -109.324,-17.1779 -110.552,-14.047 C-110.613,-14.047 -110.736,-14.047 -110.798,-14.047 C-111.903,-14.047 -112.823,-12.6963 -112.823,-11.0388 C-112.823,-9.38118 -111.903,-8.03056 -110.798,-8.03056 Z M-108.526,-14.1697 C-104.904,-15.8273 -100.729,-15.8273 -97.1071,-14.1697 C-96.616,-13.2489 -96.309,-12.1438 -96.309,-11.0388 C-96.309,-10.0565 -96.5546,-9.13561 -96.923,-8.27613 C-100.668,-6.49576 -105.027,-6.49576 -108.772,-8.27613 C-109.14,-9.13561 -109.386,-10.0565 -109.386,-11.0388 C-109.324,-12.1438 -109.079,-13.2489 -108.526,-14.1697 Z " fill="#ffffff" fill-opacity="1.00" />			<path d="M30.5628,30.4581 C47.0838,30.4581 60.4579,17.084 60.4579,0.562984 C60.4579,-15.958 47.0838,-29.3321 30.5628,-29.3321 C14.0418,-29.3321 0.667655,-15.958 0.667655,0.562984 C0.667655,17.084 14.0418,30.4581 30.5628,30.4581 Z " fill="#865f3e" fill-opacity="1.00" stroke-width="0.04" stroke="#000000" stroke-linecap="square" stroke-linejoin="miter" />			<path d="M-34.6596,22.326 C-22.6184,21.4704 -13.5634,11.03 -14.419,-1.01119 C-15.2746,-13.0524 -25.715,-22.1074 -37.7562,-21.2518 C-49.7974,-20.3961 -58.8524,-9.95579 -57.9968,2.08544 C-57.1411,14.1267 -46.7008,23.1817 -34.6596,22.326 Z " fill="none" stroke-width="1.00" stroke="#ffffff" stroke-linecap="square" stroke-linejoin="miter" />			<path d="M-31.1163,0.537124 C-31.1163,-6.72708 -37.0051,-12.6159 -44.2693,-12.6159 C-51.5335,-12.6159 -57.4223,-6.72708 -57.4223,0.537124 C-57.4223,7.80133 -51.5335,13.6901 -44.2693,13.6901 C-37.0051,13.6901 -31.1163,7.80133 -31.1163,0.537124 Z " fill="none" stroke-width="1.00" stroke="#ffffff" stroke-linecap="square" stroke-linejoin="miter" />			<path d="M8.71791,0.588843 L52.4076,0.588843 " fill="none" stroke-width="1.00" stroke="#ffffff" stroke-linecap="square" stroke-linejoin="miter" />			<path d="M27.7266,-5.21089 L27.7266,6.38858 M30.5628,-5.21089 L30.5628,6.38858 M33.399,-5.21089 L33.399,6.38858 " fill="none" stroke-width="1.00" stroke="#ffffff" stroke-linecap="square" stroke-linejoin="miter" />			<path d="M33.399,-5.21089 L33.399,6.38858 M36.2352,-5.21089 L36.2352,6.38858 M39.0714,-5.21089 L39.0714,6.38858 " fill="none" stroke-width="1.00" stroke="#ffffff" stroke-linecap="square" stroke-linejoin="miter" />			<path d="M22.0542,-5.21089 L22.0542,6.38858 M24.8904,-5.21089 L24.8904,6.38858 M27.7266,-5.21089 L27.7266,6.38858 " fill="none" stroke-width="1.00" stroke="#ffffff" stroke-linecap="square" stroke-linejoin="miter" />			<path d="M16.3818,-5.21089 L16.3818,6.38858 M19.218,-5.21089 L19.218,6.38858 M22.0542,-5.21089 L22.0542,6.38858 " fill="none" stroke-width="1.00" stroke="#ffffff" stroke-linecap="square" stroke-linejoin="miter" />			<path d="M39.0714,-5.21089 L39.0714,6.38858 M41.9076,-5.21089 L41.9076,6.38858 M44.7438,-5.21089 L44.7438,6.38858 " fill="none" stroke-width="1.00" stroke="#ffffff" stroke-linecap="square" stroke-linejoin="miter" />			<path d="M79.8368,0.591137 L115.928,0.591137 " fill="none" stroke-width="1.00" stroke="#ffffff" stroke-linecap="square" stroke-linejoin="miter" />			<path d="M77.0624,7.10811 C77.0624,7.87025 77.1834,8.43989 77.4253,8.81704 C77.6673,9.19419 78.0508,9.38276 78.5759,9.38276 C79.0951,9.38276 79.4771,9.19713 79.722,8.82585 C79.9669,8.45458 80.0894,7.88004 80.0894,7.10223 C80.0894,6.3303 79.9684,5.75821 79.7264,5.38595 C79.4845,5.0137 79.101,4.82758 78.5759,4.82758 C78.0586,4.82758 77.6771,5.01125 77.4312,5.37861 C77.1853,5.74596 77.0624,6.32246 77.0624,7.10811 Z M77.8353,5.77388 C77.9019,5.6191 77.996,5.50351 78.1174,5.4271 C78.2389,5.35069 78.3917,5.31248 78.5759,5.31248 C78.7718,5.31248 78.929,5.35265 79.0476,5.43298 C79.1661,5.5133 79.2577,5.62988 79.3223,5.7827 C79.3929,5.94531 79.4389,6.12948 79.4605,6.3352 C79.482,6.54091 79.4928,6.79659 79.4928,7.10223 C79.4928,7.38044 79.4805,7.63612 79.4561,7.86927 C79.4316,8.10241 79.386,8.29148 79.3194,8.43646 C79.2489,8.59124 79.1534,8.70683 79.0329,8.78324 C78.9124,8.85965 78.76,8.89786 78.5759,8.89786 C78.3898,8.89786 78.2374,8.85965 78.1189,8.78324 C78.0004,8.70683 77.9068,8.5932 77.8382,8.44234 C77.7677,8.28952 77.7202,8.10339 77.6957,7.88396 C77.6712,7.66453 77.659,7.40591 77.659,7.10811 C77.659,6.80639 77.6712,6.54826 77.6957,6.33373 C77.7202,6.11919 77.7667,5.93258 77.8353,5.77388 Z " fill="#ffffff" fill-opacity="1.00" />			<path d="M78.5759,-1.68875 L78.5759,2.86644 " fill="none" stroke-width="1.00" stroke="#ffffff" stroke-linecap="square" stroke-linejoin="miter" />			<path d="M117.189,-1.68875 L117.189,2.86644 " fill="none" stroke-width="1.00" stroke="#ffffff" stroke-linecap="square" stroke-linejoin="miter" />			<path d="M111.278,-1.68646 L111.278,2.86873 " fill="none" stroke-width="0.50" stroke="#ffffff" stroke-linecap="square" stroke-linejoin="miter" />		</g>	</svg>