<?xml version="1.0" encoding="utf-8" ?>	<!-- Generator: Assembly 2.4 - http://assemblyapp.co -->	<svg version="1.1" xmlns="http://www.w3.org/2000/svg" xmlns:xlink="http://www.w3.org/1999/xlink" width="500.00" height="286.00" viewBox="0 0 500.0 286.0">		<g id="document" transform="scale(1.668611557910451 1.668611557910451) translate(150.0 85.71428571428571)">			<path d="M97.8822,29.8277 C114.403,29.8277 127.777,16.4535 127.777,-0.0674528 C127.777,-16.5884 114.403,-29.9626 97.8822,-29.9626 C81.3612,-29.9626 67.9871,-16.5884 67.9871,-0.0674528 C67.9871,16.4535 81.3612,29.8277 97.8822,29.8277 Z " fill="#ff7502" fill-opacity="1.00" />			<path d="M-36.2079,30.4322 C-19.6869,30.4322 -6.31277,17.0581 -6.31277,0.537125 C-6.31277,-15.9839 -19.6869,-29.358 -36.2079,-29.358 C-52.7289,-29.358 -66.103,-15.9839 -66.103,0.537125 C-66.103,17.0581 -52.7289,30.4322 -36.2079,30.4322 Z " fill="#015e6c" fill-opacity="1.00" />			<path d="M-102.843,30.4322 C-86.3221,30.4322 -72.948,17.0581 -72.948,0.537124 C-72.948,-15.9839 -86.3221,-29.358 -102.843,-29.358 C-119.364,-29.358 -132.738,-15.9839 -132.738,0.537124 C-132.738,17.0581 -119.364,30.4322 -102.843,30.4322 Z " fill="#24682c" fill-opacity="1.00" />			<path d="M-88.8192,7.93131 L-94.0375,-0.111016 L-95.1426,-1.95277 C-95.6337,-2.68947 -96.4318,-3.18061 -97.2913,-3.242 C-97.3527,-3.242 -97.4141,-3.242 -97.4141,-3.242 L-99.3172,-3.242 C-99.5014,-3.242 -99.6856,-3.42617 -99.6856,-3.61035 L-99.6856,-4.04009 C-99.6856,-4.10148 -99.6856,-4.16288 -99.6856,-4.22427 L-106.255,-4.22427 C-106.255,-4.22427 -106.255,-4.22427 -106.255,-4.16288 L-106.255,-3.67174 C-106.255,-3.48757 -106.439,-3.30339 -106.623,-3.30339 L-107.114,-3.30339 C-107.36,-3.30339 -107.605,-3.36478 -107.851,-3.36478 C-107.912,-3.36478 -108.035,-3.36478 -108.096,-3.36478 C-109.017,-3.36478 -109.877,-2.93504 -110.429,-2.07555 L-111.596,-0.2338 L-116.814,7.74714 C-117.059,8.11549 -116.937,8.54523 -116.568,8.7908 L-113.13,11.0623 C-113.008,11.1237 -112.885,11.1851 -112.701,11.1851 C-112.455,11.1851 -112.21,11.0623 -112.087,10.8781 L-109.877,7.50157 C-109.877,7.44018 -109.815,7.44018 -109.815,7.44018 C-109.754,7.44018 -109.692,7.50157 -109.692,7.56296 L-109.692,11.0009 C-109.263,11.1237 -108.772,11.2465 -108.342,11.4306 C-106.561,12.0446 -104.72,13.0882 -103.553,13.7635 C-103.246,13.9477 -103.001,14.1319 -102.817,14.1933 C-102.694,14.1319 -102.51,14.0091 -102.264,13.8863 C-101.159,13.211 -99.1945,12.1673 -97.2913,11.492 C-96.8616,11.3693 -96.4318,11.2465 -96.0635,11.1237 L-96.0635,7.56296 C-96.0635,7.50157 -96.0021,7.44018 -95.9407,7.44018 C-95.8793,7.44018 -95.8793,7.44018 -95.8793,7.50157 L-93.5464,11.0623 C-93.4236,11.3079 -93.1781,11.4306 -92.9325,11.4306 C-92.8097,11.4306 -92.6255,11.3693 -92.5028,11.3079 L-89.0648,9.09776 C-88.6965,8.72941 -88.6351,8.23827 -88.8192,7.93131 Z M-98.8261,4.80033 C-98.8261,5.41425 -99.3172,5.90538 -99.9312,5.90538 L-105.948,5.90538 C-106.561,5.90538 -107.053,5.41425 -107.053,4.80033 L-107.053,1.85352 C-107.053,1.2396 -106.561,0.748469 -105.948,0.748469 L-99.9312,0.748469 C-99.3172,0.748469 -98.8261,1.2396 -98.8261,1.91491 L-98.8261,4.80033 Z M-109.447,28.252 C-109.57,28.559 -109.386,28.9273 -109.017,28.9273 L-103.983,28.9273 C-103.615,28.9273 -103.369,28.559 -103.553,28.252 L-104.229,26.7172 C-104.29,26.533 -104.29,26.2875 -104.167,26.1033 L-104.106,25.9805 C-103.799,25.6122 -103.676,25.121 -103.676,24.6299 L-103.676,15.2369 L-103.676,14.93 C-103.799,14.8686 -103.983,14.7458 -104.106,14.6844 C-104.413,14.5002 -104.72,14.3161 -105.088,14.1319 C-106.439,13.3952 -108.219,12.4743 -109.815,12.106 L-109.815,13.1496 L-109.815,14.3161 L-109.815,14.9914 L-109.815,24.6299 C-109.815,25.121 -109.631,25.5508 -109.263,25.8577 L-108.956,26.1033 C-108.772,26.2261 -108.71,26.4716 -108.833,26.7172 L-109.447,28.252 Z M-96.7388,25.8577 C-96.3704,25.5508 -96.1863,25.0596 -96.1863,24.6299 L-96.1863,15.0528 L-96.1863,14.3775 L-96.1863,13.518 C-96.1249,13.3952 -96.1249,13.2724 -96.1249,13.1496 L-96.1249,12.1673 L-96.1863,12.1673 C-97.7211,12.5971 -99.44,13.4566 -100.729,14.1319 C-101.098,14.3161 -101.405,14.5002 -101.712,14.6844 C-101.957,14.8686 -102.203,14.9914 -102.387,15.0528 L-102.387,15.2369 L-102.387,24.6299 C-102.387,25.121 -102.264,25.6122 -101.957,25.9805 L-101.896,26.1033 C-101.773,26.2875 -101.712,26.533 -101.834,26.7172 L-102.51,28.252 C-102.632,28.559 -102.448,28.9273 -102.08,28.9273 L-97.0457,28.9273 C-96.6774,28.9273 -96.4318,28.559 -96.616,28.252 L-97.2913,26.7172 C-97.3527,26.533 -97.3527,26.2875 -97.1685,26.1033 L-96.7388,25.8577 Z M-86.0566,11.6148 L-87.3458,10.7553 C-87.53,10.6326 -87.6528,10.387 -87.6528,10.1414 L-87.6528,9.77307 C-87.6528,9.58889 -87.7756,9.40472 -87.9598,9.40472 C-88.0825,9.34332 -88.2053,9.40472 -88.2667,9.46611 L-92.38,12.106 C-92.5028,12.1673 -92.5641,12.2901 -92.5641,12.4129 C-92.5641,12.5357 -92.5028,12.7199 -92.3186,12.7199 L-91.8274,12.8427 C-91.5819,12.904 -91.4591,13.0882 -91.3977,13.3338 L-91.0293,14.8072 C-90.968,15.1755 -90.5382,15.2983 -90.2313,15.1142 L-86.118,12.4743 C-85.811,12.2287 -85.811,11.799 -86.0566,11.6148 Z M-119.577,12.3515 L-115.463,14.9914 C-115.156,15.1755 -114.727,15.0528 -114.665,14.6844 L-114.297,13.211 C-114.235,12.9654 -114.051,12.7813 -113.867,12.7199 L-113.376,12.5971 C-113.192,12.5357 -113.13,12.3515 -113.13,12.1673 C-113.13,12.106 -113.192,11.9832 -113.253,11.9832 L-117.366,9.34332 C-117.428,9.28193 -117.551,9.28193 -117.612,9.28193 C-117.796,9.28193 -117.98,9.46611 -117.98,9.65028 L-117.98,10.0186 C-117.98,10.2642 -118.103,10.4484 -118.287,10.5712 L-119.577,11.4306 C-119.884,11.7376 -119.884,12.1673 -119.577,12.3515 Z M-110.798,-8.03056 C-110.736,-8.03056 -110.613,-8.03056 -110.552,-8.03056 C-109.324,-4.89958 -106.316,-2.68947 -102.755,-2.68947 C-99.1945,-2.68947 -96.1863,-4.89958 -94.9584,-8.03056 C-94.897,-8.03056 -94.897,-8.03056 -94.8356,-8.03056 C-93.7306,-8.03056 -92.8097,-9.38118 -92.8097,-11.0388 C-92.8097,-12.3894 -93.4236,-13.5558 -94.2217,-13.9242 L-94.2217,-17.7919 C-93.6692,-17.976 -93.2395,-18.5286 -93.2395,-19.1425 C-93.2395,-19.9406 -93.8534,-20.5545 -94.6515,-20.5545 C-95.4496,-20.5545 -96.0635,-19.9406 -96.0635,-19.1425 C-96.0635,-18.5286 -95.6337,-17.976 -95.0812,-17.7919 L-95.0812,-14.3539 C-96.3704,-17.3007 -99.3172,-19.388 -102.755,-19.388 C-106.316,-19.388 -109.324,-17.1779 -110.552,-14.047 C-110.613,-14.047 -110.736,-14.047 -110.798,-14.047 C-111.903,-14.047 -112.823,-12.6963 -112.823,-11.0388 C-112.823,-9.38118 -111.903,-8.03056 -110.798,-8.03056 Z M-108.526,-14.1697 C-104.904,-15.8273 -100.729,-15.8273 -97.1071,-14.1697 C-96.616,-13.2489 -96.309,-12.1438 -96.309,-11.0388 C-96.309,-10.0565 -96.5546,-9.13561 -96.923,-8.27613 C-100.668,-6.49576 -105.027,-6.49576 -108.772,-8.27613 C-109.14,-9.13561 -109.386,-10.0565 -109.386,-11.0388 C-109.324,-12.1438 -109.079,-13.2489 -108.526,-14.1697 Z " fill="#ffffff" fill-opacity="1.00" />			<path d="M30.5628,30.4581 C47.0838,30.4581 60.4579,17.084 60.4579,0.562984 C60.4579,-15.958 47.0838,-29.3321 30.5628,-29.3321 C14.0418,-29.3321 0.667655,-15.958 0.667655,0.562984 C0.667655,17.084 14.0418,30.4581 30.5628,30.4581 Z " fill="#865f3e" fill-opacity="1.00" stroke-width="0.04" stroke="#000000" stroke-linecap="square" stroke-linejoin="miter" />			<path d="M-34.6596,22.326 C-22.6184,21.4704 -13.5634,11.03 -14.419,-1.01119 C-15.2746,-13.0524 -25.715,-22.1074 -37.7562,-21.2518 C-49.7974,-20.3961 -58.8524,-9.95579 -57.9968,2.08544 C-57.1411,14.1267 -46.7008,23.1817 -34.6596,22.326 Z " fill="none" stroke-width="1.00" stroke="#ffffff" stroke-linecap="square" stroke-linejoin="miter" />			<path d="M-31.1163,0.537124 C-31.1163,-6.72708 -37.0051,-12.6159 -44.2693,-12.6159 C-51.5335,-12.6159 -57.4223,-6.72708 -57.4223,0.537124 C-57.4223,7.80133 -51.5335,13.6901 -44.2693,13.6901 C-37.0051,13.6901 -31.1163,7.80133 -31.1163,0.537124 Z " fill="none" stroke-width="1.00" stroke="#ffffff" stroke-linecap="square" stroke-linejoin="miter" />			<path d="M8.71791,0.588843 L52.4076,0.588843 " fill="none" stroke-width="1.00" stroke="#ffffff" stroke-linecap="square" stroke-linejoin="miter" />			<path d="M27.7266,-5.21089 L27.7266,6.38858 M30.5628,-5.21089 L30.5628,6.38858 M33.399,-5.21089 L33.399,6.38858 " fill="none" stroke-width="1.00" stroke="#ffffff" stroke-linecap="square" stroke-linejoin="miter" />			<path d="M33.399,-5.21089 L33.399,6.38858 M36.2352,-5.21089 L36.2352,6.38858 M39.0714,-5.21089 L39.0714,6.38858 " fill="none" stroke-width="1.00" stroke="#ffffff" stroke-linecap="square" stroke-linejoin="miter" />			<path d="M22.0542,-5.21089 L22.0542,6.38858 M24.8904,-5.21089 L24.8904,6.38858 M27.7266,-5.21089 L27.7266,6.38858 " fill="none" stroke-width="1.00" stroke="#ffffff" stroke-linecap="square" stroke-linejoin="miter" />			<path d="M16.3818,-5.21089 L16.3818,6.38858 M19.218,-5.21089 L19.218,6.38858 M22.0542,-5.21089 L22.0542,6.38858 " fill="none" stroke-width="1.00" stroke="#ffffff" stroke-linecap="square" stroke-linejoin="miter" />			<path d="M39.0714,-5.21089 L39.0714,6.38858 M41.9076,-5.21089 L41.9076,6.38858 M44.7438,-5.21089 L44.7438,6.38858 " fill="none" stroke-width="1.00" stroke="#ffffff" stroke-linecap="square" stroke-linejoin="miter" />			<path d="M79.8368,0.591137 L115.928,0.591137 " fill="none" stroke-width="1.00" stroke="#ffffff" stroke-linecap="square" stroke-linejoin="miter" />			<path d="M77.0624,7.10811 C77.0624,7.87025 77.1834,8.43989 77.4253,8.81704 C77.6673,9.19419 78.0508,9.38276 78.5759,9.38276 C79.0951,9.38276 79.4771,9.19713 79.722,8.82585 C79.9669,8.45458 80.0894,7.88004 80.0894,7.10223 C80.0894,6.3303 79.9684,5.75821 79.7264,5.38595 C79.4845,5.0137 79.101,4.82758 78.5759,4.82758 C78.0586,4.82758 77.6771,5.01125 77.4312,5.37861 C77.1853,5.74596 77.0624,6.32246 77.0624,7.10811 Z M77.8353,5.77388 C77.9019,5.6191 77.996,5.50351 78.1174,5.4271 C78.2389,5.35069 78.3917,5.31248 78.5759,5.31248 C78.7718,5.31248 78.929,5.35265 79.0476,5.43298 C79.1661,5.5133 79.2577,5.62988 79.3223,5.7827 C79.3929,5.94531 79.4389,6.12948 79.4605,6.3352 C79.482,6.54091 79.4928,6.79659 79.4928,7.10223 C79.4928,7.38044 79.4805,7.63612 79.4561,7.86927 C79.4316,8.10241 79.386,8.29148 79.3194,8.43646 C79.2489,8.59124 79.1534,8.70683 79.0329,8.78324 C78.9124,8.85965 78.76,8.89786 78.5759,8.89786 C78.3898,8.89786 78.2374,8.85965 78.1189,8.78324 C78.0004,8.70683 77.9068,8.5932 77.8382,8.44234 C77.7677,8.28952 77.7202,8.10339 77.6957,7.88396 C77.6712,7.66453 77.659,7.40591 77.659,7.10811 C77.659,6.80639 77.6712,6.54826 77.6957,6.33373 C77.7202,6.11919 77.7667,5.93258 77.8353,5.77388 Z " fill="#ffffff" fill-opacity="1.00" />			<path d="M78.5759,-1.68875 L78.5759,2.86644 " fill="none" stroke-width="1.00" stroke="#ffffff" stroke-linecap="square" stroke-linejoin="miter" />			<path d="M117.189,-1.68875 L117.189,2.86644 " fill="none" stroke-width="1.00" stroke="#ffffff" stroke-linecap="square" stroke-linejoin="miter" />			<path d="M111.278,-1.68646 L111.278,2.86873 " fill="none" stroke-width="0.50" stroke="#ffffff" stroke-linecap="square" stroke-linejoin="miter" />			<path d="M-116.406,45.9128 L-115.564,45.9128 L-115.564,39.6599 L-116.406,39.6599 L-116.406,45.9128 Z M-113.024,39.0321 L-113.024,42.1951 C-113.078,42.0925 -113.134,42.0061 -113.19,41.9359 C-113.247,41.8657 -113.303,41.8117 -113.357,41.7739 C-113.467,41.6929 -113.608,41.6524 -113.778,41.6524 C-113.956,41.6524 -114.11,41.6936 -114.239,41.7759 C-114.369,41.8583 -114.475,41.9858 -114.557,42.1586 C-114.64,42.3314 -114.701,42.5515 -114.742,42.8187 C-114.782,43.086 -114.802,43.4033 -114.802,43.7705 C-114.802,44.5318 -114.721,45.09 -114.559,45.4451 C-114.397,45.8001 -114.144,45.9776 -113.798,45.9776 C-113.614,45.9776 -113.467,45.9344 -113.357,45.848 C-113.246,45.7616 -113.135,45.6037 -113.024,45.3742 L-113.024,45.9128 L-112.251,45.9128 L-112.251,39.0321 L-113.024,39.0321 Z M-114,43.7988 C-114,43.2507 -113.963,42.8768 -113.887,42.677 C-113.809,42.461 -113.678,42.353 -113.494,42.353 C-113.321,42.353 -113.196,42.4664 -113.118,42.6932 C-113.039,42.9362 -113,43.3115 -113,43.8191 C-113,44.3239 -113.039,44.6979 -113.118,44.9409 C-113.196,45.1677 -113.321,45.2811 -113.494,45.2811 C-113.683,45.2811 -113.815,45.1717 -113.891,44.953 C-113.964,44.7343 -114,44.3496 -114,43.7988 Z M-109.752,44.4994 C-109.752,45.0421 -109.914,45.3135 -110.238,45.3135 C-110.595,45.3135 -110.773,44.8653 -110.773,43.9689 L-109.003,43.9689 L-109.003,43.8717 C-109.003,42.3922 -109.423,41.6524 -110.262,41.6524 C-110.694,41.6524 -111.014,41.8306 -111.22,42.187 C-111.427,42.5434 -111.53,43.0914 -111.53,43.8312 C-111.53,44.2038 -111.505,44.5251 -111.455,44.7951 C-111.405,45.0651 -111.328,45.2878 -111.222,45.4633 C-111.117,45.6388 -110.984,45.7684 -110.823,45.8521 C-110.663,45.9358 -110.47,45.9776 -110.246,45.9776 C-109.493,45.9776 -109.088,45.4849 -109.031,44.4994 L-109.752,44.4994 Z M-110.773,43.41 C-110.74,42.9699 -110.69,42.6811 -110.623,42.5434 C-110.555,42.3895 -110.442,42.3125 -110.283,42.3125 C-110.126,42.3125 -110.013,42.3895 -109.942,42.5434 C-109.875,42.6811 -109.825,42.9699 -109.793,43.41 L-110.773,43.41 Z M-108.314,45.9128 L-107.541,45.9128 L-107.541,43.2035 C-107.541,43.0415 -107.532,42.9051 -107.515,42.7944 C-107.497,42.6838 -107.469,42.594 -107.432,42.5251 C-107.394,42.4563 -107.345,42.4063 -107.284,42.3753 C-107.223,42.3442 -107.148,42.3287 -107.059,42.3287 C-106.894,42.3287 -106.778,42.3881 -106.711,42.5069 C-106.643,42.6257 -106.609,42.8268 -106.609,43.1103 L-106.605,45.9128 L-105.832,45.9128 L-105.832,42.9321 C-105.832,42.4975 -105.872,42.2045 -105.953,42.0533 C-106.099,41.786 -106.342,41.6524 -106.682,41.6524 C-107.033,41.6524 -107.32,41.836 -107.541,42.2032 L-107.541,41.7212 L-108.314,41.7212 L-108.314,45.9128 Z M-104.864,41.7212 L-105.289,41.7212 L-105.289,42.3368 L-104.864,42.3368 L-104.864,45.9128 L-104.09,45.9128 L-104.09,42.3368 L-103.669,42.3368 L-103.669,41.7212 L-104.09,41.7212 L-104.09,40.5468 L-104.864,40.5468 L-104.864,41.7212 Z M-103.114,45.9128 L-102.337,45.9128 L-102.337,41.7212 L-103.114,41.7212 L-103.114,45.9128 Z M-102.75,39.9393 C-102.89,39.9393 -103.016,39.9906 -103.127,40.0932 C-103.229,40.1958 -103.28,40.3173 -103.28,40.4577 C-103.28,40.6089 -103.231,40.7344 -103.131,40.8343 C-103.028,40.9369 -102.904,40.9882 -102.758,40.9882 C-102.612,40.9882 -102.488,40.9369 -102.385,40.8343 C-102.283,40.7317 -102.232,40.6075 -102.232,40.4617 C-102.232,40.3186 -102.283,40.1958 -102.385,40.0932 C-102.488,39.9906 -102.61,39.9393 -102.75,39.9393 Z M-99.8462,39.0321 L-99.8462,42.1951 C-99.9002,42.0925 -99.9556,42.0061 -100.012,41.9359 C-100.069,41.8657 -100.124,41.8117 -100.178,41.7739 C-100.289,41.6929 -100.429,41.6524 -100.6,41.6524 C-100.778,41.6524 -100.932,41.6936 -101.061,41.7759 C-101.191,41.8583 -101.297,41.9858 -101.379,42.1586 C-101.461,42.3314 -101.523,42.5515 -101.563,42.8187 C-101.604,43.086 -101.624,43.4033 -101.624,43.7705 C-101.624,44.5318 -101.543,45.09 -101.381,45.4451 C-101.219,45.8001 -100.965,45.9776 -100.62,45.9776 C-100.436,45.9776 -100.289,45.9344 -100.178,45.848 C-100.068,45.7616 -99.9569,45.6037 -99.8462,45.3742 L-99.8462,45.9128 L-99.0727,45.9128 L-99.0727,39.0321 L-99.8462,39.0321 Z M-100.822,43.7988 C-100.822,43.2507 -100.784,42.8768 -100.709,42.677 C-100.631,42.461 -100.5,42.353 -100.316,42.353 C-100.143,42.353 -100.018,42.4664 -99.9394,42.6932 C-99.8611,42.9362 -99.8219,43.3115 -99.8219,43.8191 C-99.8219,44.3239 -99.8611,44.6979 -99.9394,44.9409 C-100.018,45.1677 -100.143,45.2811 -100.316,45.2811 C-100.505,45.2811 -100.637,45.1717 -100.713,44.953 C-100.786,44.7343 -100.822,44.3496 -100.822,43.7988 Z M-96.574,41.7212 L-96.574,42.1951 C-96.7683,41.8333 -97.0248,41.6524 -97.3434,41.6524 C-97.6917,41.6524 -97.9469,41.8232 -98.1088,42.1647 C-98.2708,42.5062 -98.3518,43.0401 -98.3518,43.7664 C-98.3518,44.5278 -98.2708,45.0867 -98.1088,45.443 C-97.9469,45.7994 -97.6917,45.9776 -97.3434,45.9776 C-97.1625,45.9776 -97.0167,45.9344 -96.906,45.848 C-96.7953,45.7616 -96.6847,45.6037 -96.574,45.3742 L-96.574,45.9128 L-95.8004,45.9128 L-95.8004,41.7212 L-96.574,41.7212 Z M-97.55,43.7988 C-97.55,43.2507 -97.5122,42.8768 -97.4366,42.677 C-97.3583,42.461 -97.2273,42.353 -97.0437,42.353 C-96.8709,42.353 -96.7454,42.4664 -96.6671,42.6932 C-96.5888,42.9362 -96.5497,43.3115 -96.5497,43.8191 C-96.5497,44.3239 -96.5888,44.6979 -96.6671,44.9409 C-96.7454,45.1677 -96.8709,45.2811 -97.0437,45.2811 C-97.2327,45.2811 -97.365,45.1717 -97.4406,44.953 C-97.5135,44.7343 -97.55,44.3496 -97.55,43.7988 Z M-93.3017,39.0321 L-93.3017,42.1951 C-93.3557,42.0925 -93.411,42.0061 -93.4677,41.9359 C-93.5244,41.8657 -93.5798,41.8117 -93.6338,41.7739 C-93.7445,41.6929 -93.8849,41.6524 -94.055,41.6524 C-94.2331,41.6524 -94.387,41.6936 -94.5166,41.7759 C-94.6462,41.8583 -94.7522,41.9858 -94.8345,42.1586 C-94.9169,42.3314 -94.9783,42.5515 -95.0188,42.8187 C-95.0593,43.086 -95.0796,43.4033 -95.0796,43.7705 C-95.0796,44.5318 -94.9986,45.09 -94.8366,45.4451 C-94.6746,45.8001 -94.4208,45.9776 -94.0752,45.9776 C-93.8916,45.9776 -93.7445,45.9344 -93.6338,45.848 C-93.5231,45.7616 -93.4124,45.6037 -93.3017,45.3742 L-93.3017,45.9128 L-92.5282,45.9128 L-92.5282,39.0321 L-93.3017,39.0321 Z M-94.2777,43.7988 C-94.2777,43.2507 -94.2399,42.8768 -94.1643,42.677 C-94.086,42.461 -93.9551,42.353 -93.7715,42.353 C-93.5987,42.353 -93.4731,42.4664 -93.3948,42.6932 C-93.3165,42.9362 -93.2774,43.3115 -93.2774,43.8191 C-93.2774,44.3239 -93.3165,44.6979 -93.3948,44.9409 C-93.4731,45.1677 -93.5987,45.2811 -93.7715,45.2811 C-93.9605,45.2811 -94.0927,45.1717 -94.1683,44.953 C-94.2412,44.7343 -94.2777,44.3496 -94.2777,43.7988 Z M-90.0294,44.4994 C-90.0294,45.0421 -90.1914,45.3135 -90.5154,45.3135 C-90.8718,45.3135 -91.05,44.8653 -91.05,43.9689 L-89.2802,43.9689 L-89.2802,43.8717 C-89.2802,42.3922 -89.7,41.6524 -90.5397,41.6524 C-90.9717,41.6524 -91.2909,41.8306 -91.4975,42.187 C-91.704,42.5434 -91.8073,43.0914 -91.8073,43.8312 C-91.8073,44.2038 -91.7823,44.5251 -91.7324,44.7951 C-91.6824,45.0651 -91.6048,45.2878 -91.4995,45.4633 C-91.3942,45.6388 -91.2612,45.7684 -91.1006,45.8521 C-90.9399,45.9358 -90.7476,45.9776 -90.5235,45.9776 C-89.7702,45.9776 -89.3652,45.4849 -89.3085,44.4994 L-90.0294,44.4994 Z M-91.05,43.41 C-91.0176,42.9699 -90.9676,42.6811 -90.9001,42.5434 C-90.8326,42.3895 -90.7192,42.3125 -90.5599,42.3125 C-90.4033,42.3125 -90.2899,42.3895 -90.2197,42.5434 C-90.1523,42.6811 -90.1023,42.9699 -90.0699,43.41 L-91.05,43.41 Z " fill="#24682c" fill-opacity="1.00" />			<path d="M-49.864,45.0644 L-49.0702,45.0644 L-48.8272,40.7554 C-48.784,41.1063 -48.7361,41.4418 -48.6834,41.7617 C-48.6308,42.0817 -48.5707,42.3969 -48.5032,42.7074 L-48.0091,45.0644 L-47.4422,45.0644 L-46.9157,42.3348 L-46.8752,42.1201 L-46.7699,41.5491 C-46.7564,41.4735 -46.7409,41.3804 -46.7233,41.2697 C-46.7058,41.159 -46.6862,41.0294 -46.6646,40.8809 L-46.6443,40.7554 C-46.6416,40.7851 -46.6396,40.8087 -46.6383,40.8262 C-46.6369,40.8438 -46.6362,40.8552 -46.6362,40.8606 L-46.616,41.6301 L-46.5795,42.4684 C-46.5795,42.5197 -46.5775,42.5845 -46.5735,42.6628 C-46.5694,42.7411 -46.5647,42.8343 -46.5593,42.9423 L-46.4176,45.0644 L-45.6116,45.0644 L-46.1867,38.8114 L-46.9157,38.8114 L-47.4057,41.3183 L-47.4989,41.7678 L-47.6042,42.4482 L-47.7216,43.165 C-47.7243,43.1758 -47.727,43.194 -47.7297,43.2197 C-47.7324,43.2453 -47.7364,43.2811 -47.7418,43.327 C-47.7877,42.976 -47.8384,42.6406 -47.8937,42.3206 C-47.9491,42.0007 -48.0105,41.6814 -48.078,41.3628 L-48.6288,38.8114 L-49.3496,38.8114 L-49.864,45.0644 Z M-43.3397,40.8728 L-43.3397,41.3466 C-43.5341,40.9848 -43.7906,40.804 -44.1091,40.804 C-44.4574,40.804 -44.7126,40.9747 -44.8746,41.3163 C-45.0366,41.6578 -45.1175,42.1917 -45.1175,42.918 C-45.1175,43.6793 -45.0366,44.2382 -44.8746,44.5946 C-44.7126,44.951 -44.4574,45.1292 -44.1091,45.1292 C-43.9282,45.1292 -43.7825,45.086 -43.6718,44.9996 C-43.5611,44.9132 -43.4504,44.7552 -43.3397,44.5258 L-43.3397,45.0644 L-42.5661,45.0644 L-42.5661,40.8728 L-43.3397,40.8728 Z M-44.3157,42.9504 C-44.3157,42.4023 -44.2779,42.0284 -44.2023,41.8286 C-44.124,41.6126 -43.993,41.5046 -43.8095,41.5046 C-43.6367,41.5046 -43.5111,41.618 -43.4328,41.8448 C-43.3545,42.0878 -43.3154,42.463 -43.3154,42.9706 C-43.3154,43.4755 -43.3545,43.8494 -43.4328,44.0924 C-43.5111,44.3192 -43.6367,44.4326 -43.8095,44.4326 C-43.9984,44.4326 -44.1307,44.3233 -44.2063,44.1046 C-44.2792,43.8859 -44.3157,43.5011 -44.3157,42.9504 Z M-40.0633,41.375 C-40.1821,41.1617 -40.2955,41.0132 -40.4035,40.9295 C-40.5115,40.8458 -40.6519,40.804 -40.8247,40.804 C-41.1892,40.804 -41.4497,40.9781 -41.6063,41.3264 C-41.7656,41.6909 -41.8453,42.2565 -41.8453,43.0233 C-41.8453,43.7468 -41.7623,44.2787 -41.5962,44.6189 C-41.4302,44.9591 -41.1717,45.1292 -40.8207,45.1292 C-40.4805,45.1292 -40.228,44.9375 -40.0633,44.5541 L-40.0633,45.36 C-40.0633,45.6813 -40.0971,45.896 -40.1646,46.004 C-40.2294,46.1173 -40.3522,46.174 -40.5331,46.174 C-40.8652,46.174 -41.0313,45.9513 -41.0313,45.5058 L-41.7805,45.5058 L-41.7845,45.6354 C-41.7845,45.9999 -41.6765,46.2901 -41.4605,46.5061 C-41.2472,46.7194 -40.953,46.8261 -40.5777,46.8261 C-40.008,46.8261 -39.6287,46.6425 -39.4397,46.2753 C-39.3371,46.0755 -39.2858,45.7164 -39.2858,45.198 L-39.2858,40.8728 L-40.0633,40.8728 L-40.0633,41.375 Z M-40.0512,43.0071 C-40.0512,43.5605 -40.0849,43.9331 -40.1524,44.1248 C-40.2199,44.33 -40.3428,44.4326 -40.521,44.4326 C-40.71,44.4326 -40.845,44.3179 -40.926,44.0884 C-41.0043,43.84 -41.0434,43.4525 -41.0434,42.9261 C-41.0434,42.4293 -41.0056,42.0682 -40.93,41.8427 C-40.8544,41.6173 -40.7343,41.5046 -40.5696,41.5046 C-40.224,41.5046 -40.0512,42.0054 -40.0512,43.0071 Z M-38.411,45.0644 L-37.6375,45.0644 L-37.6375,42.355 C-37.6375,42.193 -37.6287,42.0567 -37.6112,41.946 C-37.5936,41.8353 -37.5659,41.7455 -37.5281,41.6767 C-37.4903,41.6078 -37.4411,41.5579 -37.3803,41.5268 C-37.3196,41.4958 -37.2447,41.4803 -37.1556,41.4803 C-36.9909,41.4803 -36.8748,41.5397 -36.8073,41.6585 C-36.7398,41.7773 -36.706,41.9784 -36.706,42.2619 L-36.702,45.0644 L-35.9285,45.0644 L-35.9285,42.0837 C-35.9285,41.649 -35.969,41.3561 -36.0499,41.2049 C-36.1957,40.9376 -36.4387,40.804 -36.7789,40.804 C-37.1299,40.804 -37.4161,40.9875 -37.6375,41.3547 L-37.6375,40.8728 L-38.411,40.8728 L-38.411,45.0644 Z M-35.0537,45.0644 L-34.2761,45.0644 L-34.2761,40.8728 L-35.0537,40.8728 L-35.0537,45.0644 Z M-34.6892,39.0909 C-34.8296,39.0909 -34.9551,39.1422 -35.0658,39.2448 C-35.1684,39.3474 -35.2197,39.4689 -35.2197,39.6092 C-35.2197,39.7604 -35.1698,39.886 -35.0699,39.9859 C-34.9673,40.0885 -34.8431,40.1398 -34.6973,40.1398 C-34.5515,40.1398 -34.4273,40.0885 -34.3247,39.9859 C-34.2221,39.8833 -34.1708,39.7591 -34.1708,39.6133 C-34.1708,39.4702 -34.2221,39.3474 -34.3247,39.2448 C-34.4273,39.1422 -34.5488,39.0909 -34.6892,39.0909 Z M-33.3123,40.8728 L-33.7375,40.8728 L-33.7375,41.4884 L-33.3123,41.4884 L-33.3123,45.0644 L-32.5387,45.0644 L-32.5387,41.4884 L-32.1175,41.4884 L-32.1175,40.8728 L-32.5387,40.8728 L-32.5387,39.6983 L-33.3123,39.6983 L-33.3123,40.8728 Z M-31.5627,43.6429 C-31.5627,44.1775 -31.4682,44.5595 -31.2792,44.789 C-31.0902,45.0158 -30.7716,45.1292 -30.3235,45.1292 C-29.7538,45.1292 -29.3785,44.9375 -29.1976,44.5541 C-29.1112,44.357 -29.068,43.9655 -29.068,43.3797 L-29.068,40.8728 L-29.8415,40.8728 L-29.8415,43.3797 L-29.8415,43.7158 C-29.8415,43.9696 -29.8766,44.1478 -29.9468,44.2504 C-30.017,44.3476 -30.1399,44.3962 -30.3154,44.3962 C-30.4828,44.3962 -30.6022,44.3408 -30.6738,44.2301 C-30.7453,44.1194 -30.7838,43.9345 -30.7892,43.6753 L-30.7892,40.8728 L-31.5627,40.8728 L-31.5627,43.6429 Z M-26.5733,38.1837 L-26.5733,41.3466 C-26.6273,41.244 -26.6827,41.1576 -26.7394,41.0874 C-26.7961,41.0172 -26.8514,40.9632 -26.9054,40.9254 C-27.0161,40.8444 -27.1565,40.804 -27.3266,40.804 C-27.5048,40.804 -27.6587,40.8451 -27.7883,40.9275 C-27.9179,41.0098 -28.0238,41.1374 -28.1062,41.3102 C-28.1885,41.483 -28.2499,41.703 -28.2904,41.9703 C-28.3309,42.2376 -28.3512,42.5548 -28.3512,42.922 C-28.3512,43.6834 -28.2702,44.2416 -28.1082,44.5966 C-27.9462,44.9517 -27.6924,45.1292 -27.3468,45.1292 C-27.1632,45.1292 -27.0161,45.086 -26.9054,44.9996 C-26.7947,44.9132 -26.684,44.7552 -26.5733,44.5258 L-26.5733,45.0644 L-25.7998,45.0644 L-25.7998,38.1837 L-26.5733,38.1837 Z M-27.5493,42.9504 C-27.5493,42.4023 -27.5115,42.0284 -27.4359,41.8286 C-27.3576,41.6126 -27.2267,41.5046 -27.0431,41.5046 C-26.8703,41.5046 -26.7448,41.618 -26.6665,41.8448 C-26.5882,42.0878 -26.549,42.463 -26.549,42.9706 C-26.549,43.4755 -26.5882,43.8494 -26.6665,44.0924 C-26.7448,44.3192 -26.8703,44.4326 -27.0431,44.4326 C-27.2321,44.4326 -27.3644,44.3233 -27.44,44.1046 C-27.5129,43.8859 -27.5493,43.5011 -27.5493,42.9504 Z M-23.301,43.651 C-23.301,44.1937 -23.463,44.465 -23.787,44.465 C-24.1434,44.465 -24.3216,44.0168 -24.3216,43.1205 L-22.5518,43.1205 L-22.5518,43.0233 C-22.5518,41.5437 -22.9716,40.804 -23.8113,40.804 C-24.2433,40.804 -24.5626,40.9821 -24.7691,41.3385 C-24.9756,41.6949 -25.0789,42.243 -25.0789,42.9828 C-25.0789,43.3554 -25.0539,43.6766 -25.004,43.9466 C-24.954,44.2166 -24.8764,44.4394 -24.7711,44.6149 C-24.6658,44.7903 -24.5329,44.9199 -24.3722,45.0036 C-24.2116,45.0873 -24.0192,45.1292 -23.7951,45.1292 C-23.0418,45.1292 -22.6369,44.6365 -22.5802,43.651 L-23.301,43.651 Z M-24.3216,42.5616 C-24.2892,42.1215 -24.2393,41.8326 -24.1718,41.6949 C-24.1043,41.541 -23.9909,41.4641 -23.8316,41.4641 C-23.675,41.4641 -23.5616,41.541 -23.4914,41.6949 C-23.4239,41.8326 -23.3739,42.1215 -23.3415,42.5616 L-24.3216,42.5616 Z " fill="#015e6c" fill-opacity="1.00" />			<path d="M20.2524,41.2813 C20.2524,41.9644 20.3321,42.426 20.4914,42.6663 C20.7209,43.0173 21.1164,43.1928 21.678,43.1928 C22.1883,43.1928 22.5676,43.0565 22.816,42.7838 C23.0239,42.5435 23.1278,42.0831 23.1278,41.4028 L23.1278,36.8629 L22.3017,36.8629 L22.3017,41.4028 C22.3017,41.8078 22.2612,42.0764 22.1802,42.2087 C22.1019,42.3383 21.9399,42.4031 21.6942,42.4031 C21.4485,42.4031 21.2838,42.3288 21.2001,42.1803 C21.1191,42.0319 21.0786,41.7322 21.0786,41.2813 L21.0786,36.8629 L20.2524,36.8629 L20.2524,41.2813 Z M24.0471,43.1159 L24.8207,43.1159 L24.8207,40.4065 C24.8207,40.2445 24.8294,40.1082 24.847,39.9975 C24.8645,39.8868 24.8922,39.797 24.93,39.7282 C24.9678,39.6593 25.0171,39.6094 25.0778,39.5783 C25.1386,39.5473 25.2135,39.5317 25.3026,39.5317 C25.4673,39.5317 25.5834,39.5911 25.6509,39.7099 C25.7184,39.8287 25.7521,40.0299 25.7521,40.3134 L25.7562,43.1159 L26.5297,43.1159 L26.5297,40.1352 C26.5297,39.7005 26.4892,39.4076 26.4082,39.2564 C26.2624,38.9891 26.0194,38.8554 25.6792,38.8554 C25.3282,38.8554 25.042,39.039 24.8207,39.4062 L24.8207,38.9243 L24.0471,38.9243 L24.0471,43.1159 Z M27.4045,43.1159 L28.182,43.1159 L28.182,38.9243 L27.4045,38.9243 L27.4045,43.1159 Z M27.7689,37.1423 C27.6286,37.1423 27.503,37.1936 27.3923,37.2962 C27.2897,37.3988 27.2384,37.5203 27.2384,37.6607 C27.2384,37.8119 27.2884,37.9375 27.3883,38.0374 C27.4909,38.1399 27.6151,38.1912 27.7608,38.1912 C27.9066,38.1912 28.0308,38.1399 28.1334,38.0374 C28.236,37.9348 28.2873,37.8106 28.2873,37.6648 C28.2873,37.5217 28.236,37.3988 28.1334,37.2962 C28.0308,37.1936 27.9093,37.1423 27.7689,37.1423 Z M30.6727,36.2352 L30.6727,39.3981 C30.6187,39.2955 30.5633,39.2091 30.5066,39.1389 C30.4499,39.0687 30.3946,39.0147 30.3406,38.9769 C30.2299,38.8959 30.0895,38.8554 29.9194,38.8554 C29.7412,38.8554 29.5873,38.8966 29.4577,38.9789 C29.3281,39.0613 29.2222,39.1889 29.1398,39.3617 C29.0575,39.5344 28.996,39.7545 28.9555,40.0218 C28.9151,40.2891 28.8948,40.6063 28.8948,40.9735 C28.8948,41.7349 28.9758,42.2931 29.1378,42.6481 C29.2998,43.0031 29.5536,43.1807 29.8992,43.1807 C30.0828,43.1807 30.2299,43.1375 30.3406,43.0511 C30.4513,42.9647 30.562,42.8067 30.6727,42.5772 L30.6727,43.1159 L31.4462,43.1159 L31.4462,36.2352 L30.6727,36.2352 Z M29.6967,41.0018 C29.6967,40.4538 29.7345,40.0798 29.8101,39.88 C29.8884,39.664 30.0193,39.556 30.2029,39.556 C30.3757,39.556 30.5012,39.6694 30.5795,39.8962 C30.6578,40.1392 30.697,40.5145 30.697,41.0221 C30.697,41.527 30.6578,41.9009 30.5795,42.1439 C30.5012,42.3707 30.3757,42.4841 30.2029,42.4841 C30.0139,42.4841 29.8816,42.3747 29.806,42.156 C29.7331,41.9374 29.6967,41.5526 29.6967,41.0018 Z M33.945,38.9243 L33.945,39.3981 C33.7506,39.0363 33.4941,38.8554 33.1755,38.8554 C32.8272,38.8554 32.5721,39.0262 32.4101,39.3677 C32.2481,39.7093 32.1671,40.2432 32.1671,40.9694 C32.1671,41.7308 32.2481,42.2897 32.4101,42.6461 C32.5721,43.0025 32.8272,43.1807 33.1755,43.1807 C33.3564,43.1807 33.5022,43.1375 33.6129,43.0511 C33.7236,42.9647 33.8343,42.8067 33.945,42.5772 L33.945,43.1159 L34.7185,43.1159 L34.7185,38.9243 L33.945,38.9243 Z M32.9689,41.0018 C32.9689,40.4538 33.0067,40.0798 33.0823,39.88 C33.1606,39.664 33.2916,39.556 33.4752,39.556 C33.648,39.556 33.7735,39.6694 33.8518,39.8962 C33.9301,40.1392 33.9693,40.5145 33.9693,41.0221 C33.9693,41.527 33.9301,41.9009 33.8518,42.1439 C33.7735,42.3707 33.648,42.4841 33.4752,42.4841 C33.2862,42.4841 33.1539,42.3747 33.0783,42.156 C33.0054,41.9374 32.9689,41.5526 32.9689,41.0018 Z M37.2172,36.2352 L37.2172,39.3981 C37.1632,39.2955 37.1079,39.2091 37.0512,39.1389 C36.9945,39.0687 36.9391,39.0147 36.8851,38.9769 C36.7745,38.8959 36.6341,38.8554 36.464,38.8554 C36.2858,38.8554 36.1319,38.8966 36.0023,38.9789 C35.8727,39.0613 35.7667,39.1889 35.6844,39.3617 C35.602,39.5344 35.5406,39.7545 35.5001,40.0218 C35.4596,40.2891 35.4394,40.6063 35.4394,40.9735 C35.4394,41.7349 35.5203,42.2931 35.6823,42.6481 C35.8443,43.0031 36.0981,43.1807 36.4437,43.1807 C36.6273,43.1807 36.7745,43.1375 36.8851,43.0511 C36.9958,42.9647 37.1065,42.8067 37.2172,42.5772 L37.2172,43.1159 L37.9908,43.1159 L37.9908,36.2352 L37.2172,36.2352 Z M36.2412,41.0018 C36.2412,40.4538 36.279,40.0798 36.3546,39.88 C36.4329,39.664 36.5639,39.556 36.7475,39.556 C36.9202,39.556 37.0458,39.6694 37.1241,39.8962 C37.2024,40.1392 37.2415,40.5145 37.2415,41.0221 C37.2415,41.527 37.2024,41.9009 37.1241,42.1439 C37.0458,42.3707 36.9202,42.4841 36.7475,42.4841 C36.5585,42.4841 36.4262,42.3747 36.3506,42.156 C36.2777,41.9374 36.2412,41.5526 36.2412,41.0018 Z M40.4895,41.7025 C40.4895,42.2451 40.3275,42.5165 40.0035,42.5165 C39.6471,42.5165 39.4689,42.0683 39.4689,41.1719 L41.2387,41.1719 L41.2387,41.0747 C41.2387,39.5952 40.8189,38.8554 39.9792,38.8554 C39.5472,38.8554 39.228,39.0336 39.0214,39.39 C38.8149,39.7464 38.7116,40.2945 38.7116,41.0342 C38.7116,41.4068 38.7366,41.7281 38.7865,41.9981 C38.8365,42.2681 38.9141,42.4908 39.0194,42.6663 C39.1247,42.8418 39.2577,42.9714 39.4183,43.0551 C39.579,43.1388 39.7713,43.1807 39.9954,43.1807 C40.7487,43.1807 41.1537,42.6879 41.2104,41.7025 L40.4895,41.7025 Z M39.4689,40.6131 C39.5013,40.173 39.5513,39.8841 39.6188,39.7464 C39.6863,39.5925 39.7997,39.5155 39.959,39.5155 C40.1156,39.5155 40.229,39.5925 40.2992,39.7464 C40.3667,39.8841 40.4166,40.173 40.449,40.6131 L39.4689,40.6131 Z M43.5471,39.0093 C43.323,38.8878 43.0922,38.8271 42.8546,38.8271 C42.5171,38.8271 42.2431,38.9337 42.0325,39.147 C41.8246,39.363 41.7207,39.6397 41.7207,39.9772 C41.7207,40.2283 41.7774,40.443 41.8908,40.6212 C42.0068,40.7939 42.2282,41.0072 42.5549,41.261 C42.6494,41.3366 42.7291,41.4048 42.7939,41.4655 C42.8587,41.5263 42.9059,41.5796 42.9356,41.6255 C43.0004,41.72 43.0328,41.8321 43.0328,41.9617 C43.0328,42.3099 42.856,42.4841 42.5023,42.4841 C42.3025,42.4841 42.0905,42.4004 41.8665,42.233 L41.8665,42.9822 C42.0959,43.1145 42.3227,43.1807 42.5468,43.1807 C42.9113,43.1807 43.2016,43.0686 43.4175,42.8445 C43.6362,42.6177 43.7456,42.3167 43.7456,41.9414 C43.7456,41.6822 43.6929,41.4676 43.5876,41.2975 C43.5363,41.2111 43.4621,41.1193 43.3649,41.0221 C43.2677,40.9249 43.1462,40.8196 43.0004,40.7062 C42.6386,40.4308 42.4577,40.1932 42.4577,39.9934 C42.4577,39.9286 42.4706,39.8672 42.4962,39.8092 C42.5219,39.7511 42.557,39.7012 42.6015,39.6593 C42.6461,39.6175 42.698,39.5844 42.7574,39.5601 C42.8168,39.5358 42.8816,39.5236 42.9518,39.5236 C43.1597,39.5236 43.3581,39.5938 43.5471,39.7342 L43.5471,39.0093 Z M24.4258,53.3107 L25.2682,53.3107 L25.2682,47.0577 L24.4258,47.0577 L24.4258,53.3107 Z M27.8115,49.6213 C27.6927,49.408 27.5793,49.2595 27.4713,49.1758 C27.3633,49.0921 27.2229,49.0502 27.0501,49.0502 C26.6856,49.0502 26.4251,49.2244 26.2685,49.5727 C26.1092,49.9371 26.0295,50.5028 26.0295,51.2695 C26.0295,51.9931 26.1126,52.525 26.2786,52.8652 C26.4446,53.2054 26.7032,53.3755 27.0541,53.3755 C27.3943,53.3755 27.6468,53.1838 27.8115,52.8004 L27.8115,53.6063 C27.8115,53.9276 27.7777,54.1422 27.7102,54.2502 C27.6454,54.3636 27.5226,54.4203 27.3417,54.4203 C27.0096,54.4203 26.8436,54.1976 26.8436,53.7521 L26.0943,53.7521 L26.0903,53.8817 C26.0903,54.2462 26.1983,54.5364 26.4143,54.7524 C26.6276,54.9657 26.9219,55.0724 27.2971,55.0724 C27.8668,55.0724 28.2462,54.8888 28.4351,54.5216 C28.5377,54.3218 28.589,53.9627 28.589,53.4443 L28.589,49.1191 L27.8115,49.1191 L27.8115,49.6213 Z M27.8236,51.2533 C27.8236,51.8068 27.7899,52.1794 27.7224,52.3711 C27.6549,52.5763 27.532,52.6789 27.3538,52.6789 C27.1648,52.6789 27.0298,52.5641 26.9489,52.3347 C26.8706,52.0863 26.8314,51.6988 26.8314,51.1723 C26.8314,50.6756 26.8692,50.3145 26.9448,50.089 C27.0204,49.8636 27.1405,49.7509 27.3052,49.7509 C27.6508,49.7509 27.8236,50.2517 27.8236,51.2533 Z M29.4638,51.8892 C29.4638,52.4238 29.5583,52.8058 29.7473,53.0353 C29.9363,53.2621 30.2549,53.3755 30.7031,53.3755 C31.2727,53.3755 31.648,53.1838 31.8289,52.8004 C31.9153,52.6033 31.9585,52.2118 31.9585,51.6259 L31.9585,49.1191 L31.185,49.1191 L31.185,51.6259 L31.185,51.9621 C31.185,52.2159 31.1499,52.3941 31.0797,52.4966 C31.0095,52.5938 30.8867,52.6424 30.7112,52.6424 C30.5438,52.6424 30.4243,52.5871 30.3527,52.4764 C30.2812,52.3657 30.2427,52.1808 30.2373,51.9216 L30.2373,49.1191 L29.4638,49.1191 L29.4638,51.8892 Z M34.4532,49.1191 L34.4532,49.5929 C34.2588,49.2311 34.0023,49.0502 33.6837,49.0502 C33.3355,49.0502 33.0803,49.221 32.9183,49.5625 C32.7563,49.9041 32.6753,50.438 32.6753,51.1643 C32.6753,51.9256 32.7563,52.4845 32.9183,52.8409 C33.0803,53.1973 33.3355,53.3755 33.6837,53.3755 C33.8646,53.3755 34.0104,53.3323 34.1211,53.2459 C34.2318,53.1595 34.3425,53.0015 34.4532,52.772 L34.4532,53.3107 L35.2267,53.3107 L35.2267,49.1191 L34.4532,49.1191 Z M33.4772,51.1966 C33.4772,50.6486 33.515,50.2746 33.5906,50.0748 C33.6689,49.8589 33.7998,49.7509 33.9834,49.7509 C34.1562,49.7509 34.2818,49.8643 34.3601,50.091 C34.4384,50.334 34.4775,50.7093 34.4775,51.2169 C34.4775,51.7218 34.4384,52.0957 34.3601,52.3387 C34.2818,52.5655 34.1562,52.6789 33.9834,52.6789 C33.7944,52.6789 33.6621,52.5695 33.5865,52.3509 C33.5137,52.1322 33.4772,51.7474 33.4772,51.1966 Z M36.1056,53.3107 L36.8831,53.3107 L36.8831,49.1191 L36.1056,49.1191 L36.1056,53.3107 Z M36.47,47.3371 C36.3296,47.3371 36.2041,47.3884 36.0934,47.491 C35.9908,47.5936 35.9395,47.7151 35.9395,47.8555 C35.9395,48.0067 35.9895,48.1323 36.0894,48.2322 C36.1919,48.3348 36.3161,48.3861 36.4619,48.3861 C36.6077,48.3861 36.7319,48.3348 36.8345,48.2322 C36.9371,48.1296 36.9884,48.0054 36.9884,47.8596 C36.9884,47.7165 36.9371,47.5936 36.8345,47.491 C36.7319,47.3884 36.6104,47.3371 36.47,47.3371 Z M39.3738,49.2041 C39.1497,49.0826 38.9188,49.0219 38.6813,49.0219 C38.3438,49.0219 38.0697,49.1285 37.8591,49.3418 C37.6512,49.5578 37.5473,49.8346 37.5473,50.172 C37.5473,50.4231 37.604,50.6378 37.7174,50.816 C37.8335,50.9888 38.0549,51.202 38.3816,51.4558 C38.4761,51.5314 38.5557,51.5996 38.6205,51.6604 C38.6853,51.7211 38.7326,51.7744 38.7622,51.8203 C38.827,51.9148 38.8594,52.0269 38.8594,52.1565 C38.8594,52.5047 38.6826,52.6789 38.3289,52.6789 C38.1291,52.6789 37.9172,52.5952 37.6931,52.4278 L37.6931,53.177 C37.9226,53.3093 38.1494,53.3755 38.3735,53.3755 C38.7379,53.3755 39.0282,53.2634 39.2442,53.0393 C39.4629,52.8125 39.5722,52.5115 39.5722,52.1362 C39.5722,51.877 39.5196,51.6624 39.4143,51.4923 C39.363,51.4059 39.2887,51.3141 39.1915,51.2169 C39.0943,51.1197 38.9728,51.0144 38.827,50.901 C38.4653,50.6256 38.2844,50.388 38.2844,50.1882 C38.2844,50.1234 38.2972,50.062 38.3228,50.004 C38.3485,49.9459 38.3836,49.896 38.4281,49.8541 C38.4727,49.8123 38.5247,49.7792 38.5841,49.7549 C38.6435,49.7306 38.7083,49.7185 38.7784,49.7185 C38.9863,49.7185 39.1848,49.7887 39.3738,49.929 L39.3738,49.2041 Z " fill="#865f3e" fill-opacity="1.00" />			<path d="M86.7928,40.9577 L87.6352,40.9577 L87.6352,38.1836 C88.0996,38.1836 88.4546,38.1282 88.7003,38.0175 C89.189,37.7745 89.4333,37.2372 89.4333,36.4057 C89.4333,35.8144 89.3118,35.3824 89.0688,35.1097 C88.8258,34.8397 88.4371,34.7047 87.9025,34.7047 L86.7928,34.7047 L86.7928,40.9577 Z M87.6352,35.4135 L87.7526,35.4135 C88.0307,35.4135 88.2346,35.4999 88.3642,35.6726 C88.4938,35.8454 88.5586,36.1181 88.5586,36.4907 C88.5586,36.8552 88.4911,37.109 88.3561,37.2521 C88.2238,37.3925 87.9835,37.4627 87.6352,37.4627 L87.6352,35.4135 Z M92.5112,38.8963 C92.5112,38.5156 92.4849,38.1876 92.4322,37.9122 C92.3796,37.6368 92.2993,37.4087 92.1913,37.2278 C92.0833,37.0469 91.9462,36.9133 91.7802,36.8269 C91.6142,36.7405 91.4177,36.6973 91.191,36.6973 C90.3162,36.6973 89.8788,37.4195 89.8788,38.8639 C89.8788,40.303 90.3175,41.0225 91.195,41.0225 C92.0725,41.0225 92.5112,40.3138 92.5112,38.8963 Z M91.7093,38.8761 C91.7093,39.4134 91.6715,39.7819 91.5959,39.9817 C91.523,40.195 91.3948,40.3016 91.2112,40.3016 C91.0276,40.3016 90.8967,40.1936 90.8184,39.9776 C90.7455,39.7643 90.709,39.3891 90.709,38.8518 C90.709,38.3145 90.7455,37.9379 90.8184,37.7219 C90.8967,37.5059 91.0276,37.3979 91.2112,37.3979 C91.3975,37.3979 91.5271,37.5072 91.6,37.7259 C91.6729,37.9419 91.7093,38.3253 91.7093,38.8761 Z M94.852,36.8512 C94.6279,36.7297 94.3971,36.6689 94.1595,36.6689 C93.822,36.6689 93.548,36.7756 93.3374,36.9888 C93.1295,37.2048 93.0255,37.4816 93.0255,37.8191 C93.0255,38.0702 93.0822,38.2848 93.1956,38.463 C93.3117,38.6358 93.5331,38.8491 93.8598,39.1029 C93.9543,39.1785 94.0339,39.2466 94.0987,39.3074 C94.1635,39.3681 94.2108,39.4215 94.2405,39.4674 C94.3053,39.5618 94.3377,39.6739 94.3377,39.8035 C94.3377,40.1518 94.1608,40.3259 93.8072,40.3259 C93.6074,40.3259 93.3954,40.2422 93.1713,40.0748 L93.1713,40.8241 C93.4008,40.9563 93.6276,41.0225 93.8517,41.0225 C94.2162,41.0225 94.5064,40.9104 94.7224,40.6864 C94.9411,40.4596 95.0505,40.1585 95.0505,39.7832 C95.0505,39.5241 94.9978,39.3094 94.8925,39.1393 C94.8412,39.0529 94.767,38.9611 94.6698,38.8639 C94.5726,38.7667 94.4511,38.6614 94.3053,38.548 C93.9435,38.2726 93.7626,38.0351 93.7626,37.8353 C93.7626,37.7705 93.7754,37.709 93.8011,37.651 C93.8267,37.593 93.8618,37.543 93.9064,37.5012 C93.9509,37.4593 94.0029,37.4262 94.0623,37.4019 C94.1217,37.3776 94.1865,37.3655 94.2567,37.3655 C94.4646,37.3655 94.663,37.4357 94.852,37.5761 L94.852,36.8512 Z M95.6701,40.9577 L96.4477,40.9577 L96.4477,36.7661 L95.6701,36.7661 L95.6701,40.9577 Z M96.0346,34.9842 C95.8942,34.9842 95.7686,35.0355 95.6579,35.1381 C95.5553,35.2407 95.504,35.3622 95.504,35.5026 C95.504,35.6537 95.554,35.7793 95.6539,35.8792 C95.7565,35.9818 95.8807,36.0331 96.0265,36.0331 C96.1723,36.0331 96.2965,35.9818 96.3991,35.8792 C96.5016,35.7766 96.5529,35.6524 96.5529,35.5066 C96.5529,35.3635 96.5016,35.2407 96.3991,35.1381 C96.2965,35.0355 96.175,34.9842 96.0346,34.9842 Z M99.0315,36.8471 C98.8344,36.7472 98.6319,36.6973 98.424,36.6973 C97.992,36.6973 97.6734,36.8761 97.4682,37.2339 C97.263,37.5916 97.1604,38.1471 97.1604,38.9004 C97.1604,40.3151 97.5762,41.0225 98.4078,41.0225 C98.6184,41.0225 98.8263,40.9685 99.0315,40.8605 L99.0315,40.1356 C98.8884,40.2409 98.7574,40.2935 98.6386,40.2935 C98.2147,40.2935 98.0028,39.8035 98.0028,38.8234 C98.0028,37.9001 98.2161,37.4384 98.6427,37.4384 C98.7939,37.4384 98.9235,37.5045 99.0315,37.6368 L99.0315,36.8471 Z M97.6667,42.5574 L98.023,42.7437 L98.7318,41.6462 L98.185,41.3789 L97.6667,42.5574 Z M101.307,36.7661 L101.307,37.2399 C101.113,36.8782 100.857,36.6973 100.538,36.6973 C100.19,36.6973 99.9346,36.868 99.7726,37.2096 C99.6106,37.5511 99.5296,38.085 99.5296,38.8113 C99.5296,39.5726 99.6106,40.1315 99.7726,40.4879 C99.9346,40.8443 100.19,41.0225 100.538,41.0225 C100.719,41.0225 100.865,40.9793 100.975,40.8929 C101.086,40.8065 101.197,40.6486 101.307,40.4191 L101.307,40.9577 L102.081,40.9577 L102.081,36.7661 L101.307,36.7661 Z M100.331,38.8437 C100.331,38.2956 100.369,37.9217 100.445,37.7219 C100.523,37.5059 100.654,37.3979 100.838,37.3979 C101.01,37.3979 101.136,37.5113 101.214,37.7381 C101.293,37.9811 101.332,38.3563 101.332,38.8639 C101.332,39.3688 101.293,39.7427 101.214,39.9857 C101.136,40.2125 101.01,40.3259 100.838,40.3259 C100.649,40.3259 100.516,40.2166 100.441,39.9979 C100.368,39.7792 100.331,39.3945 100.331,38.8437 Z M101.49,35.2555 C101.465,35.4175 101.41,35.4985 101.324,35.4985 C101.245,35.4985 101.151,35.4675 101.04,35.4054 C100.83,35.2839 100.649,35.2231 100.497,35.2231 C100.12,35.2231 99.9103,35.4958 99.8698,36.0412 L100.356,36.0412 C100.377,35.89 100.437,35.8144 100.534,35.8144 C100.604,35.8144 100.678,35.8346 100.757,35.8751 L100.959,35.9723 C101.1,36.0452 101.226,36.0817 101.34,36.0817 C101.442,36.0817 101.53,36.0668 101.603,36.0371 C101.676,36.0074 101.737,35.9602 101.785,35.8954 C101.834,35.8306 101.872,35.7455 101.901,35.6403 C101.929,35.535 101.95,35.4067 101.964,35.2555 L101.49,35.2555 Z M105.434,38.8963 C105.434,38.5156 105.408,38.1876 105.355,37.9122 C105.303,37.6368 105.222,37.4087 105.114,37.2278 C105.006,37.0469 104.869,36.9133 104.703,36.8269 C104.537,36.7405 104.341,36.6973 104.114,36.6973 C103.239,36.6973 102.802,37.4195 102.802,38.8639 C102.802,40.303 103.241,41.0225 104.118,41.0225 C104.996,41.0225 105.434,40.3138 105.434,38.8963 Z M104.632,38.8761 C104.632,39.4134 104.595,39.7819 104.519,39.9817 C104.446,40.195 104.318,40.3016 104.134,40.3016 C103.951,40.3016 103.82,40.1936 103.741,39.9776 C103.669,39.7643 103.632,39.3891 103.632,38.8518 C103.632,38.3145 103.669,37.9379 103.741,37.7219 C103.82,37.5059 103.951,37.3979 104.134,37.3979 C104.321,37.3979 104.45,37.5072 104.523,37.7259 C104.596,37.9419 104.632,38.3253 104.632,38.8761 Z M109.492,34.077 L109.492,37.2399 C109.438,37.1373 109.383,37.0509 109.326,36.9807 C109.269,36.9106 109.214,36.8566 109.16,36.8188 C109.049,36.7378 108.909,36.6973 108.739,36.6973 C108.561,36.6973 108.407,36.7384 108.277,36.8208 C108.148,36.9031 108.042,37.0307 107.959,37.2035 C107.877,37.3763 107.816,37.5963 107.775,37.8636 C107.735,38.1309 107.714,38.4481 107.714,38.8153 C107.714,39.5767 107.795,40.1349 107.957,40.4899 C108.119,40.845 108.373,41.0225 108.719,41.0225 C108.902,41.0225 109.049,40.9793 109.16,40.8929 C109.271,40.8065 109.382,40.6486 109.492,40.4191 L109.492,40.9577 L110.266,40.9577 L110.266,34.077 L109.492,34.077 Z M108.516,38.8437 C108.516,38.2956 108.554,37.9217 108.63,37.7219 C108.708,37.5059 108.839,37.3979 109.022,37.3979 C109.195,37.3979 109.321,37.5113 109.399,37.7381 C109.477,37.9811 109.517,38.3563 109.517,38.8639 C109.517,39.3688 109.477,39.7427 109.399,39.9857 C109.321,40.2125 109.195,40.3259 109.022,40.3259 C108.833,40.3259 108.701,40.2166 108.626,39.9979 C108.553,39.7792 108.516,39.3945 108.516,38.8437 Z M113.619,38.8963 C113.619,38.5156 113.593,38.1876 113.54,37.9122 C113.487,37.6368 113.407,37.4087 113.299,37.2278 C113.191,37.0469 113.054,36.9133 112.888,36.8269 C112.722,36.7405 112.526,36.6973 112.299,36.6973 C111.424,36.6973 110.987,37.4195 110.987,38.8639 C110.987,40.303 111.425,41.0225 112.303,41.0225 C113.18,41.0225 113.619,40.3138 113.619,38.8963 Z M112.817,38.8761 C112.817,39.4134 112.779,39.7819 112.704,39.9817 C112.631,40.195 112.503,40.3016 112.319,40.3016 C112.135,40.3016 112.004,40.1936 111.926,39.9776 C111.853,39.7643 111.817,39.3891 111.817,38.8518 C111.817,38.3145 111.853,37.9379 111.926,37.7219 C112.004,37.5059 112.135,37.3979 112.319,37.3979 C112.505,37.3979 112.635,37.5072 112.708,37.7259 C112.781,37.9419 112.817,38.3253 112.817,38.8761 Z M94.6353,45.6123 L96.3079,45.6123 L94.4126,51.1525 L97.288,51.1525 L97.288,50.4154 L95.5101,50.4154 L97.3892,44.8995 L94.6353,44.8995 L94.6353,45.6123 Z M99.4952,49.7391 C99.4952,50.2818 99.3332,50.5531 99.0092,50.5531 C98.6528,50.5531 98.4746,50.1049 98.4746,49.2086 L100.244,49.2086 L100.244,49.1114 C100.244,47.6318 99.8245,46.8921 98.9849,46.8921 C98.5529,46.8921 98.2336,47.0703 98.0271,47.4266 C97.8205,47.783 97.7173,48.3311 97.7173,49.0709 C97.7173,49.4435 97.7423,49.7648 97.7922,50.0347 C97.8421,50.3047 97.9198,50.5275 98.0251,50.703 C98.1304,50.8785 98.2633,51.0081 98.424,51.0918 C98.5846,51.1755 98.777,51.2173 99.0011,51.2173 C99.7544,51.2173 100.159,50.7246 100.216,49.7391 L99.4952,49.7391 Z M98.4746,48.6497 C98.507,48.2096 98.5569,47.9207 98.6244,47.783 C98.6919,47.6291 98.8053,47.5522 98.9646,47.5522 C99.1212,47.5522 99.2346,47.6291 99.3048,47.783 C99.3723,47.9207 99.4223,48.2096 99.4547,48.6497 L98.4746,48.6497 Z M100.933,51.1525 L101.706,51.1525 L101.706,48.6133 C101.706,48.2623 101.764,48.0166 101.881,47.8762 C101.999,47.7331 102.198,47.6615 102.476,47.6615 C102.514,47.6615 102.56,47.6656 102.614,47.6737 L102.614,46.8637 C102.4,46.8772 102.229,46.9285 102.099,47.0176 C101.97,47.1067 101.839,47.262 101.706,47.4833 L101.706,46.9609 L100.933,46.9609 L100.933,51.1525 Z M105.623,49.0911 C105.623,48.7104 105.596,48.3824 105.544,48.107 C105.491,47.8316 105.411,47.6035 105.303,47.4226 C105.195,47.2417 105.058,47.1081 104.892,47.0217 C104.726,46.9353 104.529,46.8921 104.302,46.8921 C103.428,46.8921 102.99,47.6143 102.99,49.0587 C102.99,50.4978 103.429,51.2173 104.306,51.2173 C105.184,51.2173 105.623,50.5086 105.623,49.0911 Z M104.821,49.0709 C104.821,49.6082 104.783,49.9767 104.707,50.1765 C104.634,50.3898 104.506,50.4964 104.323,50.4964 C104.139,50.4964 104.008,50.3884 103.93,50.1724 C103.857,49.9592 103.82,49.5839 103.82,49.0466 C103.82,48.5093 103.857,48.1327 103.93,47.9167 C104.008,47.7007 104.139,47.5927 104.323,47.5927 C104.509,47.5927 104.638,47.702 104.711,47.9207 C104.784,48.1367 104.821,48.5201 104.821,49.0709 Z " fill="#ff7502" fill-opacity="1.00" />		</g>	</svg>