<?xml version="1.0" encoding="utf-8" ?>	<!-- Generator: Assembly 2.4 - http://assemblyapp.co -->	<svg version="1.1" xmlns="http://www.w3.org/2000/svg" xmlns:xlink="http://www.w3.org/1999/xlink" width="500.00" height="286.00" viewBox="0 0 500.0 286.0">		<g id="document" transform="scale(1.6699479320168975 1.6699479320168975) translate(149.5490805229578 85.71428571428571)">			<g>				<path d="M100.363,23.1635 C116.884,23.1635 130.258,9.78939 130.258,-6.7316 C130.258,-23.2526 116.884,-36.6267 100.363,-36.6267 C83.8417,-36.6267 70.4675,-23.2526 70.4675,-6.7316 C70.4675,9.78939 83.8417,23.1635 100.363,23.1635 Z " fill="#ff7502" fill-opacity="1.00" />				<path d="M-33.7274,23.7681 C-17.2065,23.7681 -3.83233,10.394 -3.83233,-6.12702 C-3.83233,-22.648 -17.2065,-36.0221 -33.7274,-36.0221 C-50.2484,-36.0221 -63.6226,-22.648 -63.6226,-6.12702 C-63.6226,10.394 -50.2484,23.7681 -33.7274,23.7681 Z " fill="#015e6c" fill-opacity="1.00" />				<path d="M-100.363,23.7681 C-83.8417,23.7681 -70.4675,10.394 -70.4675,-6.12702 C-70.4675,-22.648 -83.8417,-36.0221 -100.363,-36.0221 C-116.884,-36.0221 -130.258,-22.648 -130.258,-6.12702 C-130.258,10.394 -116.884,23.7681 -100.363,23.7681 Z " fill="#24682c" fill-opacity="1.00" />				<path d="M-86.3388,1.26717 L-91.5571,-6.77516 L-92.6622,-8.61692 C-93.1533,-9.35362 -93.9514,-9.84475 -94.8109,-9.90615 C-94.8723,-9.90615 -94.9337,-9.90615 -94.9337,-9.90615 L-96.8368,-9.90615 C-97.021,-9.90615 -97.2051,-10.0903 -97.2051,-10.2745 L-97.2051,-10.7042 C-97.2051,-10.7656 -97.2051,-10.827 -97.2051,-10.8884 L-103.774,-10.8884 C-103.774,-10.8884 -103.774,-10.8884 -103.774,-10.827 L-103.774,-10.3359 C-103.774,-10.1517 -103.958,-9.96754 -104.142,-9.96754 L-104.634,-9.96754 C-104.879,-9.96754 -105.125,-10.0289 -105.37,-10.0289 C-105.432,-10.0289 -105.554,-10.0289 -105.616,-10.0289 C-106.537,-10.0289 -107.396,-9.59919 -107.949,-8.7397 L-109.115,-6.89795 L-114.333,1.08299 C-114.579,1.45134 -114.456,1.88108 -114.088,2.12665 L-110.65,4.39815 C-110.527,4.45954 -110.404,4.52093 -110.22,4.52093 C-109.975,4.52093 -109.729,4.39815 -109.606,4.21397 L-107.396,0.837423 C-107.396,0.776031 -107.335,0.776031 -107.335,0.776031 C-107.273,0.776031 -107.212,0.837423 -107.212,0.898814 L-107.212,4.33676 C-106.782,4.45954 -106.291,4.58232 -105.861,4.7665 C-104.081,5.38042 -102.239,6.42408 -101.073,7.09939 C-100.766,7.28356 -100.52,7.46774 -100.336,7.52913 C-100.213,7.46774 -100.029,7.34495 -99.7836,7.22217 C-98.6786,6.54686 -96.714,5.5032 -94.8109,4.82789 C-94.3811,4.70511 -93.9514,4.58232 -93.583,4.45954 L-93.583,0.898814 C-93.583,0.837423 -93.5216,0.776031 -93.4602,0.776031 C-93.3989,0.776031 -93.3989,0.776031 -93.3989,0.837423 L-91.066,4.39815 C-90.9432,4.64372 -90.6976,4.7665 -90.452,4.7665 C-90.3293,4.7665 -90.1451,4.70511 -90.0223,4.64372 L-86.5844,2.43361 C-86.216,2.06526 -86.1546,1.57412 -86.3388,1.26717 Z M-96.3457,-1.86382 C-96.3457,-1.2499 -96.8368,-0.758765 -97.4507,-0.758765 L-103.467,-0.758765 C-104.081,-0.758765 -104.572,-1.2499 -104.572,-1.86382 L-104.572,-4.81062 C-104.572,-5.42454 -104.081,-5.91568 -103.467,-5.91568 L-97.4507,-5.91568 C-96.8368,-5.91568 -96.3457,-5.42454 -96.3457,-4.74923 L-96.3457,-1.86382 Z M-106.966,21.5879 C-107.089,21.8948 -106.905,22.2632 -106.537,22.2632 L-101.503,22.2632 C-101.134,22.2632 -100.889,21.8948 -101.073,21.5879 L-101.748,20.0531 C-101.81,19.8689 -101.81,19.6233 -101.687,19.4391 L-101.625,19.3164 C-101.318,18.948 -101.196,18.4569 -101.196,17.9657 L-101.196,8.57279 L-101.196,8.26583 C-101.318,8.20444 -101.503,8.08166 -101.625,8.02027 C-101.932,7.83609 -102.239,7.65191 -102.608,7.46774 C-103.958,6.73104 -105.739,5.81016 -107.335,5.44181 L-107.335,6.48547 L-107.335,7.65191 L-107.335,8.32722 L-107.335,17.9657 C-107.335,18.4569 -107.151,18.8866 -106.782,19.1936 L-106.475,19.4391 C-106.291,19.5619 -106.23,19.8075 -106.353,20.0531 L-106.966,21.5879 Z M-94.2583,19.1936 C-93.89,18.8866 -93.7058,18.3955 -93.7058,17.9657 L-93.7058,8.38862 L-93.7058,7.71331 L-93.7058,6.85382 C-93.6444,6.73104 -93.6444,6.60825 -93.6444,6.48547 L-93.6444,5.5032 L-93.7058,5.5032 C-95.2406,5.93294 -96.9596,6.79243 -98.2488,7.46774 C-98.6172,7.65191 -98.9241,7.83609 -99.2311,8.02027 C-99.4766,8.20444 -99.7222,8.32722 -99.9064,8.38862 L-99.9064,8.57279 L-99.9064,17.9657 C-99.9064,18.4569 -99.7836,18.948 -99.4766,19.3164 L-99.4153,19.4391 C-99.2925,19.6233 -99.2311,19.8689 -99.3539,20.0531 L-100.029,21.5879 C-100.152,21.8948 -99.9678,22.2632 -99.5994,22.2632 L-94.5653,22.2632 C-94.1969,22.2632 -93.9514,21.8948 -94.1356,21.5879 L-94.8109,20.0531 C-94.8723,19.8689 -94.8723,19.6233 -94.6881,19.4391 L-94.2583,19.1936 Z M-83.5762,4.95067 L-84.8654,4.09119 C-85.0496,3.96841 -85.1724,3.72284 -85.1724,3.47727 L-85.1724,3.10892 C-85.1724,2.92474 -85.2951,2.74057 -85.4793,2.74057 C-85.6021,2.67918 -85.7249,2.74057 -85.7863,2.80196 L-89.8995,5.44181 C-90.0223,5.5032 -90.0837,5.62598 -90.0837,5.74877 C-90.0837,5.87155 -90.0223,6.05573 -89.8381,6.05573 L-89.347,6.17851 C-89.1014,6.2399 -88.9786,6.42408 -88.9173,6.66964 L-88.5489,8.14305 C-88.4875,8.5114 -88.0578,8.63418 -87.7508,8.45001 L-83.6376,5.81016 C-83.3306,5.56459 -83.3306,5.13485 -83.5762,4.95067 Z M-117.096,5.68738 L-112.983,8.32722 C-112.676,8.5114 -112.246,8.38862 -112.185,8.02027 L-111.816,6.54686 C-111.755,6.30129 -111.571,6.11712 -111.387,6.05573 L-110.896,5.93294 C-110.711,5.87155 -110.65,5.68738 -110.65,5.5032 C-110.65,5.44181 -110.711,5.31902 -110.773,5.31902 L-114.886,2.67918 C-114.947,2.61779 -115.07,2.61779 -115.132,2.61779 C-115.316,2.61779 -115.5,2.80196 -115.5,2.98614 L-115.5,3.35449 C-115.5,3.60005 -115.623,3.78423 -115.807,3.90701 L-117.096,4.7665 C-117.403,5.07346 -117.403,5.5032 -117.096,5.68738 Z M-108.317,-14.6947 C-108.256,-14.6947 -108.133,-14.6947 -108.071,-14.6947 C-106.844,-11.5637 -103.835,-9.35362 -100.275,-9.35362 C-96.714,-9.35362 -93.7058,-11.5637 -92.478,-14.6947 C-92.4166,-14.6947 -92.4166,-14.6947 -92.3552,-14.6947 C-91.2501,-14.6947 -90.3293,-16.0453 -90.3293,-17.7029 C-90.3293,-19.0535 -90.9432,-20.22 -91.7413,-20.5883 L-91.7413,-24.456 C-91.1887,-24.6402 -90.759,-25.1927 -90.759,-25.8066 C-90.759,-26.6047 -91.3729,-27.2186 -92.171,-27.2186 C-92.9691,-27.2186 -93.583,-26.6047 -93.583,-25.8066 C-93.583,-25.1927 -93.1533,-24.6402 -92.6008,-24.456 L-92.6008,-21.0181 C-93.89,-23.9649 -96.8368,-26.0522 -100.275,-26.0522 C-103.835,-26.0522 -106.844,-23.8421 -108.071,-20.7111 C-108.133,-20.7111 -108.256,-20.7111 -108.317,-20.7111 C-109.422,-20.7111 -110.343,-19.3605 -110.343,-17.7029 C-110.343,-16.0453 -109.422,-14.6947 -108.317,-14.6947 Z M-106.046,-20.8339 C-102.423,-22.4915 -98.2488,-22.4915 -94.6267,-20.8339 C-94.1356,-19.913 -93.8286,-18.808 -93.8286,-17.7029 C-93.8286,-16.7206 -94.0742,-15.7998 -94.4425,-14.9403 C-98.1874,-13.1599 -102.546,-13.1599 -106.291,-14.9403 C-106.659,-15.7998 -106.905,-16.7206 -106.905,-17.7029 C-106.844,-18.808 -106.598,-19.913 -106.046,-20.8339 Z " fill="#ffffff" fill-opacity="1.00" />				<path d="M33.0432,23.794 C49.5642,23.794 62.9383,10.4198 62.9383,-6.10116 C62.9383,-22.6221 49.5642,-35.9963 33.0432,-35.9963 C16.5222,-35.9963 3.1481,-22.6221 3.1481,-6.10116 C3.1481,10.4198 16.5222,23.794 33.0432,23.794 Z " fill="#865f3e" fill-opacity="1.00" stroke-width="0.04" stroke="#000000" stroke-linecap="square" stroke-linejoin="miter" />				<path d="M-32.1791,15.6619 C-20.1379,14.8062 -11.0829,4.3659 -11.9386,-7.67533 C-12.7942,-19.7166 -23.2345,-28.7716 -35.2758,-27.9159 C-47.317,-27.0603 -56.372,-16.6199 -55.5163,-4.57871 C-54.6607,7.46252 -44.2204,16.5175 -32.1791,15.6619 Z " fill="none" stroke-width="1.00" stroke="#ffffff" stroke-linecap="square" stroke-linejoin="miter" />				<path d="M-28.6358,-6.12702 C-28.6358,-13.3912 -34.5247,-19.28 -41.7889,-19.28 C-49.0531,-19.28 -54.9419,-13.3912 -54.9419,-6.12702 C-54.9419,1.13719 -49.0531,7.02599 -41.7889,7.02599 C-34.5247,7.02599 -28.6358,1.13719 -28.6358,-6.12702 Z " fill="none" stroke-width="1.00" stroke="#ffffff" stroke-linecap="square" stroke-linejoin="miter" />				<path d="M11.1984,-6.0753 L54.8881,-6.0753 " fill="none" stroke-width="1.00" stroke="#ffffff" stroke-linecap="square" stroke-linejoin="miter" />				<path d="M30.207,-11.875 L30.207,-0.27557 M33.0432,-11.875 L33.0432,-0.27557 M35.8794,-11.875 L35.8794,-0.27557 " fill="none" stroke-width="1.00" stroke="#ffffff" stroke-linecap="square" stroke-linejoin="miter" />				<path d="M35.8794,-11.875 L35.8794,-0.27557 M38.7156,-11.875 L38.7156,-0.27557 M41.5518,-11.875 L41.5518,-0.27557 " fill="none" stroke-width="1.00" stroke="#ffffff" stroke-linecap="square" stroke-linejoin="miter" />				<path d="M24.5346,-11.875 L24.5346,-0.27557 M27.3708,-11.875 L27.3708,-0.27557 M30.207,-11.875 L30.207,-0.27557 " fill="none" stroke-width="1.00" stroke="#ffffff" stroke-linecap="square" stroke-linejoin="miter" />				<path d="M18.8622,-11.875 L18.8622,-0.27557 M21.6984,-11.875 L21.6984,-0.27557 M24.5346,-11.875 L24.5346,-0.27557 " fill="none" stroke-width="1.00" stroke="#ffffff" stroke-linecap="square" stroke-linejoin="miter" />				<path d="M41.5518,-11.875 L41.5518,-0.27557 M44.388,-11.875 L44.388,-0.27557 M47.2242,-11.875 L47.2242,-0.27557 " fill="none" stroke-width="1.00" stroke="#ffffff" stroke-linecap="square" stroke-linejoin="miter" />				<path d="M82.3172,-6.07301 L118.408,-6.07301 " fill="none" stroke-width="1.00" stroke="#ffffff" stroke-linecap="square" stroke-linejoin="miter" />				<path d="M79.5428,0.443963 C79.5428,1.2061 79.6638,1.77574 79.9058,2.15289 C80.1477,2.53004 80.5313,2.71862 81.0563,2.71862 C81.5755,2.71862 81.9576,2.53298 82.2025,2.16171 C82.4474,1.79044 82.5698,1.21589 82.5698,0.438085 C82.5698,-0.333848 82.4488,-0.90594 82.2069,-1.27819 C81.9649,-1.65044 81.5814,-1.83657 81.0563,-1.83657 C80.5391,-1.83657 80.1575,-1.65289 79.9117,-1.28554 C79.6658,-0.918185 79.5428,-0.341685 79.5428,0.443963 Z M80.3157,-0.890266 C80.3824,-1.04504 80.4764,-1.16064 80.5979,-1.23705 C80.7193,-1.31346 80.8722,-1.35166 81.0563,-1.35166 C81.2522,-1.35166 81.4095,-1.3115 81.528,-1.23117 C81.6465,-1.15084 81.7381,-1.03427 81.8028,-0.88145 C81.8733,-0.718835 81.9194,-0.534668 81.9409,-0.32895 C81.9625,-0.123232 81.9732,0.132446 81.9732,0.438085 C81.9732,0.716294 81.961,0.971972 81.9365,1.20512 C81.912,1.43827 81.8665,1.62733 81.7998,1.77231 C81.7293,1.92709 81.6338,2.04269 81.5133,2.1191 C81.3928,2.19551 81.2405,2.23371 81.0563,2.23371 C80.8702,2.23371 80.7179,2.19551 80.5993,2.1191 C80.4808,2.04269 80.3873,1.92905 80.3187,1.77819 C80.2481,1.62537 80.2006,1.43925 80.1761,1.21981 C80.1517,1.00038 80.1394,0.741764 80.1394,0.443963 C80.1394,0.142243 80.1517,-0.115885 80.1761,-0.330419 C80.2006,-0.544954 80.2472,-0.731569 80.3157,-0.890266 Z " fill="#ffffff" fill-opacity="1.00" />				<path d="M81.0563,-8.3529 L81.0563,-3.79771 " fill="none" stroke-width="1.00" stroke="#ffffff" stroke-linecap="square" stroke-linejoin="miter" />				<path d="M119.669,-8.3529 L119.669,-3.79771 " fill="none" stroke-width="1.00" stroke="#ffffff" stroke-linecap="square" stroke-linejoin="miter" />				<path d="M113.758,-8.3506 L113.758,-3.79542 " fill="none" stroke-width="0.50" stroke="#ffffff" stroke-linecap="square" stroke-linejoin="miter" />				<g>					<path d="M-113.926,34.8407 L-113.083,34.8407 L-113.083,28.5878 L-113.926,28.5878 L-113.926,34.8407 Z M-110.544,27.9601 L-110.544,31.123 C-110.598,31.0204 -110.653,30.934 -110.71,30.8638 C-110.767,30.7936 -110.822,30.7396 -110.876,30.7018 C-110.987,30.6208 -111.127,30.5803 -111.297,30.5803 C-111.475,30.5803 -111.629,30.6215 -111.759,30.7038 C-111.889,30.7862 -111.994,30.9137 -112.077,31.0865 C-112.159,31.2593 -112.221,31.4794 -112.261,31.7467 C-112.302,32.0139 -112.322,32.3312 -112.322,32.6984 C-112.322,33.4597 -112.241,34.0179 -112.079,34.373 C-111.917,34.728 -111.663,34.9055 -111.317,34.9055 C-111.134,34.9055 -110.987,34.8623 -110.876,34.7759 C-110.765,34.6895 -110.655,34.5316 -110.544,34.3021 L-110.544,34.8407 L-109.77,34.8407 L-109.77,27.9601 L-110.544,27.9601 Z M-111.52,32.7267 C-111.52,32.1786 -111.482,31.8047 -111.407,31.6049 C-111.328,31.3889 -111.197,31.2809 -111.014,31.2809 C-110.841,31.2809 -110.715,31.3943 -110.637,31.6211 C-110.559,31.8641 -110.52,32.2394 -110.52,32.747 C-110.52,33.2518 -110.559,33.6258 -110.637,33.8688 C-110.715,34.0956 -110.841,34.209 -111.014,34.209 C-111.203,34.209 -111.335,34.0996 -111.411,33.8809 C-111.484,33.6622 -111.52,33.2775 -111.52,32.7267 Z M-107.272,33.4273 C-107.272,33.97 -107.434,34.2414 -107.758,34.2414 C-108.114,34.2414 -108.292,33.7932 -108.292,32.8968 L-106.522,32.8968 L-106.522,32.7996 C-106.522,31.3201 -106.942,30.5803 -107.782,30.5803 C-108.214,30.5803 -108.533,30.7585 -108.74,31.1149 C-108.946,31.4713 -109.05,32.0193 -109.05,32.7591 C-109.05,33.1317 -109.025,33.453 -108.975,33.723 C-108.925,33.993 -108.847,34.2157 -108.742,34.3912 C-108.637,34.5667 -108.504,34.6963 -108.343,34.78 C-108.182,34.8637 -107.99,34.9055 -107.766,34.9055 C-107.013,34.9055 -106.608,34.4128 -106.551,33.4273 L-107.272,33.4273 Z M-108.292,32.3379 C-108.26,31.8979 -108.21,31.609 -108.142,31.4713 C-108.075,31.3174 -107.962,31.2404 -107.802,31.2404 C-107.646,31.2404 -107.532,31.3174 -107.462,31.4713 C-107.395,31.609 -107.345,31.8979 -107.312,32.3379 L-108.292,32.3379 Z M-105.834,34.8407 L-105.06,34.8407 L-105.06,32.1314 C-105.06,31.9694 -105.052,31.8331 -105.034,31.7224 C-105.017,31.6117 -104.989,31.5219 -104.951,31.453 C-104.913,31.3842 -104.864,31.3342 -104.803,31.3032 C-104.743,31.2722 -104.668,31.2566 -104.579,31.2566 C-104.414,31.2566 -104.298,31.316 -104.23,31.4348 C-104.163,31.5536 -104.129,31.7548 -104.129,32.0382 L-104.125,34.8407 L-103.351,34.8407 L-103.351,31.8601 C-103.351,31.4254 -103.392,31.1324 -103.473,30.9812 C-103.619,30.7139 -103.862,30.5803 -104.202,30.5803 C-104.553,30.5803 -104.839,30.7639 -105.06,31.1311 L-105.06,30.6491 L-105.834,30.6491 L-105.834,34.8407 Z M-102.384,30.6491 L-102.809,30.6491 L-102.809,31.2647 L-102.384,31.2647 L-102.384,34.8407 L-101.61,34.8407 L-101.61,31.2647 L-101.189,31.2647 L-101.189,30.6491 L-101.61,30.6491 L-101.61,29.4747 L-102.384,29.4747 L-102.384,30.6491 Z M-100.634,34.8407 L-99.8564,34.8407 L-99.8564,30.6491 L-100.634,30.6491 L-100.634,34.8407 Z M-100.27,28.8672 C-100.41,28.8672 -100.535,28.9185 -100.646,29.0211 C-100.749,29.1237 -100.8,29.2452 -100.8,29.3856 C-100.8,29.5368 -100.75,29.6623 -100.65,29.7622 C-100.548,29.8648 -100.423,29.9161 -100.278,29.9161 C-100.132,29.9161 -100.008,29.8648 -99.905,29.7622 C-99.8024,29.6596 -99.7511,29.5354 -99.7511,29.3896 C-99.7511,29.2466 -99.8024,29.1237 -99.905,29.0211 C-100.008,28.9185 -100.129,28.8672 -100.27,28.8672 Z M-97.3658,27.9601 L-97.3658,31.123 C-97.4198,31.0204 -97.4751,30.934 -97.5318,30.8638 C-97.5885,30.7936 -97.6439,30.7396 -97.6979,30.7018 C-97.8086,30.6208 -97.949,30.5803 -98.1191,30.5803 C-98.2972,30.5803 -98.4511,30.6215 -98.5807,30.7038 C-98.7103,30.7862 -98.8163,30.9137 -98.8986,31.0865 C-98.981,31.2593 -99.0424,31.4794 -99.0829,31.7467 C-99.1234,32.0139 -99.1437,32.3312 -99.1437,32.6984 C-99.1437,33.4597 -99.0627,34.0179 -98.9007,34.373 C-98.7387,34.728 -98.4849,34.9055 -98.1393,34.9055 C-97.9557,34.9055 -97.8086,34.8623 -97.6979,34.7759 C-97.5872,34.6895 -97.4765,34.5316 -97.3658,34.3021 L-97.3658,34.8407 L-96.5923,34.8407 L-96.5923,27.9601 L-97.3658,27.9601 Z M-98.3418,32.7267 C-98.3418,32.1786 -98.304,31.8047 -98.2284,31.6049 C-98.1501,31.3889 -98.0192,31.2809 -97.8356,31.2809 C-97.6628,31.2809 -97.5372,31.3943 -97.4589,31.6211 C-97.3806,31.8641 -97.3415,32.2394 -97.3415,32.747 C-97.3415,33.2518 -97.3806,33.6258 -97.4589,33.8688 C-97.5372,34.0956 -97.6628,34.209 -97.8356,34.209 C-98.0246,34.209 -98.1569,34.0996 -98.2324,33.8809 C-98.3053,33.6622 -98.3418,33.2775 -98.3418,32.7267 Z M-94.0935,30.6491 L-94.0935,31.123 C-94.2879,30.7612 -94.5444,30.5803 -94.863,30.5803 C-95.2113,30.5803 -95.4664,30.7511 -95.6284,31.0926 C-95.7904,31.4341 -95.8714,31.968 -95.8714,32.6943 C-95.8714,33.4557 -95.7904,34.0146 -95.6284,34.371 C-95.4664,34.7273 -95.2113,34.9055 -94.863,34.9055 C-94.6821,34.9055 -94.5363,34.8623 -94.4256,34.7759 C-94.3149,34.6895 -94.2042,34.5316 -94.0935,34.3021 L-94.0935,34.8407 L-93.32,34.8407 L-93.32,30.6491 L-94.0935,30.6491 Z M-95.0695,32.7267 C-95.0695,32.1786 -95.0317,31.8047 -94.9561,31.6049 C-94.8778,31.3889 -94.7469,31.2809 -94.5633,31.2809 C-94.3905,31.2809 -94.265,31.3943 -94.1867,31.6211 C-94.1084,31.8641 -94.0692,32.2394 -94.0692,32.747 C-94.0692,33.2518 -94.1084,33.6258 -94.1867,33.8688 C-94.265,34.0956 -94.3905,34.209 -94.5633,34.209 C-94.7523,34.209 -94.8846,34.0996 -94.9602,33.8809 C-95.0331,33.6622 -95.0695,33.2775 -95.0695,32.7267 Z M-90.8212,27.9601 L-90.8212,31.123 C-90.8752,31.0204 -90.9306,30.934 -90.9873,30.8638 C-91.044,30.7936 -91.0993,30.7396 -91.1533,30.7018 C-91.264,30.6208 -91.4044,30.5803 -91.5745,30.5803 C-91.7527,30.5803 -91.9066,30.6215 -92.0362,30.7038 C-92.1658,30.7862 -92.2718,30.9137 -92.3541,31.0865 C-92.4364,31.2593 -92.4979,31.4794 -92.5384,31.7467 C-92.5789,32.0139 -92.5991,32.3312 -92.5991,32.6984 C-92.5991,33.4597 -92.5181,34.0179 -92.3561,34.373 C-92.1941,34.728 -91.9403,34.9055 -91.5948,34.9055 C-91.4112,34.9055 -91.264,34.8623 -91.1533,34.7759 C-91.0426,34.6895 -90.9319,34.5316 -90.8212,34.3021 L-90.8212,34.8407 L-90.0477,34.8407 L-90.0477,27.9601 L-90.8212,27.9601 Z M-91.7972,32.7267 C-91.7972,32.1786 -91.7594,31.8047 -91.6839,31.6049 C-91.6056,31.3889 -91.4746,31.2809 -91.291,31.2809 C-91.1182,31.2809 -90.9927,31.3943 -90.9144,31.6211 C-90.8361,31.8641 -90.7969,32.2394 -90.7969,32.747 C-90.7969,33.2518 -90.8361,33.6258 -90.9144,33.8688 C-90.9927,34.0956 -91.1182,34.209 -91.291,34.209 C-91.48,34.209 -91.6123,34.0996 -91.6879,33.8809 C-91.7608,33.6622 -91.7972,33.2775 -91.7972,32.7267 Z M-87.549,33.4273 C-87.549,33.97 -87.711,34.2414 -88.0349,34.2414 C-88.3913,34.2414 -88.5695,33.7932 -88.5695,32.8968 L-86.7997,32.8968 L-86.7997,32.7996 C-86.7997,31.3201 -87.2196,30.5803 -88.0592,30.5803 C-88.4912,30.5803 -88.8105,30.7585 -89.017,31.1149 C-89.2236,31.4713 -89.3268,32.0193 -89.3268,32.7591 C-89.3268,33.1317 -89.3019,33.453 -89.2519,33.723 C-89.202,33.993 -89.1243,34.2157 -89.0191,34.3912 C-88.9138,34.5667 -88.7808,34.6963 -88.6201,34.78 C-88.4595,34.8637 -88.2671,34.9055 -88.043,34.9055 C-87.2898,34.9055 -86.8848,34.4128 -86.8281,33.4273 L-87.549,33.4273 Z M-88.5695,32.3379 C-88.5371,31.8979 -88.4872,31.609 -88.4197,31.4713 C-88.3522,31.3174 -88.2388,31.2404 -88.0795,31.2404 C-87.9229,31.2404 -87.8095,31.3174 -87.7393,31.4713 C-87.6718,31.609 -87.6219,31.8979 -87.5895,32.3379 L-88.5695,32.3379 Z " fill="#24682c" fill-opacity="1.00" />					<path d="M-47.3835,34.8407 L-46.5898,34.8407 L-46.3468,30.5317 C-46.3036,30.8827 -46.2556,31.2182 -46.203,31.5381 C-46.1503,31.858 -46.0903,32.1732 -46.0228,32.4837 L-45.5287,34.8407 L-44.9617,34.8407 L-44.4352,32.1111 L-44.3947,31.8965 L-44.2894,31.3255 C-44.2759,31.2499 -44.2604,31.1567 -44.2429,31.046 C-44.2253,30.9353 -44.2057,30.8057 -44.1841,30.6572 L-44.1639,30.5317 C-44.1612,30.5614 -44.1592,30.585 -44.1578,30.6026 C-44.1565,30.6201 -44.1558,30.6316 -44.1558,30.637 L-44.1355,31.4065 L-44.0991,32.2448 C-44.0991,32.2961 -44.0971,32.3609 -44.093,32.4392 C-44.089,32.5175 -44.0842,32.6106 -44.0788,32.7186 L-43.9371,34.8407 L-43.1312,34.8407 L-43.7063,28.5878 L-44.4352,28.5878 L-44.9253,31.0946 L-45.0184,31.5442 L-45.1237,32.2245 L-45.2412,32.9414 C-45.2439,32.9522 -45.2466,32.9704 -45.2493,32.996 C-45.252,33.0217 -45.256,33.0575 -45.2614,33.1034 C-45.3073,32.7524 -45.3579,32.4169 -45.4133,32.097 C-45.4686,31.777 -45.53,31.4578 -45.5975,31.1392 L-46.1483,28.5878 L-46.8692,28.5878 L-47.3835,34.8407 Z M-40.8592,30.6491 L-40.8592,31.123 C-41.0536,30.7612 -41.3101,30.5803 -41.6287,30.5803 C-41.977,30.5803 -42.2321,30.7511 -42.3941,31.0926 C-42.5561,31.4341 -42.6371,31.968 -42.6371,32.6943 C-42.6371,33.4557 -42.5561,34.0146 -42.3941,34.371 C-42.2321,34.7273 -41.977,34.9055 -41.6287,34.9055 C-41.4478,34.9055 -41.302,34.8623 -41.1913,34.7759 C-41.0806,34.6895 -40.9699,34.5316 -40.8592,34.3021 L-40.8592,34.8407 L-40.0857,34.8407 L-40.0857,30.6491 L-40.8592,30.6491 Z M-41.8352,32.7267 C-41.8352,32.1786 -41.7974,31.8047 -41.7218,31.6049 C-41.6435,31.3889 -41.5126,31.2809 -41.329,31.2809 C-41.1562,31.2809 -41.0307,31.3943 -40.9524,31.6211 C-40.8741,31.8641 -40.8349,32.2394 -40.8349,32.747 C-40.8349,33.2518 -40.8741,33.6258 -40.9524,33.8688 C-41.0307,34.0956 -41.1562,34.209 -41.329,34.209 C-41.518,34.209 -41.6503,34.0996 -41.7259,33.8809 C-41.7988,33.6622 -41.8352,33.2775 -41.8352,32.7267 Z M-37.5829,31.1513 C-37.7017,30.938 -37.8151,30.7895 -37.9231,30.7058 C-38.0311,30.6222 -38.1715,30.5803 -38.3443,30.5803 C-38.7088,30.5803 -38.9693,30.7544 -39.1259,31.1027 C-39.2852,31.4672 -39.3648,32.0328 -39.3648,32.7996 C-39.3648,33.5232 -39.2818,34.0551 -39.1158,34.3953 C-38.9497,34.7354 -38.6912,34.9055 -38.3402,34.9055 C-38,34.9055 -37.7476,34.7138 -37.5829,34.3305 L-37.5829,35.1364 C-37.5829,35.4577 -37.6166,35.6723 -37.6841,35.7803 C-37.7489,35.8937 -37.8718,35.9504 -38.0527,35.9504 C-38.3848,35.9504 -38.5508,35.7277 -38.5508,35.2822 L-39.3,35.2822 L-39.3041,35.4118 C-39.3041,35.7763 -39.1961,36.0665 -38.9801,36.2825 C-38.7668,36.4958 -38.4725,36.6024 -38.0972,36.6024 C-37.5276,36.6024 -37.1482,36.4188 -36.9592,36.0516 C-36.8566,35.8518 -36.8053,35.4928 -36.8053,34.9744 L-36.8053,30.6491 L-37.5829,30.6491 L-37.5829,31.1513 Z M-37.5707,32.7834 C-37.5707,33.3369 -37.6045,33.7095 -37.672,33.9012 C-37.7395,34.1064 -37.8623,34.209 -38.0405,34.209 C-38.2295,34.209 -38.3645,34.0942 -38.4455,33.8647 C-38.5238,33.6163 -38.563,33.2289 -38.563,32.7024 C-38.563,32.2056 -38.5252,31.8445 -38.4496,31.6191 C-38.374,31.3936 -38.2538,31.2809 -38.0891,31.2809 C-37.7435,31.2809 -37.5707,31.7818 -37.5707,32.7834 Z M-35.9306,34.8407 L-35.157,34.8407 L-35.157,32.1314 C-35.157,31.9694 -35.1483,31.8331 -35.1307,31.7224 C-35.1132,31.6117 -35.0855,31.5219 -35.0477,31.453 C-35.0099,31.3842 -34.9606,31.3342 -34.8999,31.3032 C-34.8391,31.2722 -34.7642,31.2566 -34.6751,31.2566 C-34.5104,31.2566 -34.3943,31.316 -34.3268,31.4348 C-34.2593,31.5536 -34.2256,31.7548 -34.2256,32.0382 L-34.2215,34.8407 L-33.448,34.8407 L-33.448,31.8601 C-33.448,31.4254 -33.4885,31.1324 -33.5695,30.9812 C-33.7153,30.7139 -33.9583,30.5803 -34.2985,30.5803 C-34.6495,30.5803 -34.9356,30.7639 -35.157,31.1311 L-35.157,30.6491 L-35.9306,30.6491 L-35.9306,34.8407 Z M-32.5732,34.8407 L-31.7957,34.8407 L-31.7957,30.6491 L-32.5732,30.6491 L-32.5732,34.8407 Z M-32.2088,28.8672 C-32.3491,28.8672 -32.4747,28.9185 -32.5854,29.0211 C-32.688,29.1237 -32.7393,29.2452 -32.7393,29.3856 C-32.7393,29.5368 -32.6893,29.6623 -32.5894,29.7622 C-32.4868,29.8648 -32.3626,29.9161 -32.2169,29.9161 C-32.0711,29.9161 -31.9469,29.8648 -31.8443,29.7622 C-31.7417,29.6596 -31.6904,29.5354 -31.6904,29.3896 C-31.6904,29.2466 -31.7417,29.1237 -31.8443,29.0211 C-31.9469,28.9185 -32.0684,28.8672 -32.2088,28.8672 Z M-30.8318,30.6491 L-31.257,30.6491 L-31.257,31.2647 L-30.8318,31.2647 L-30.8318,34.8407 L-30.0583,34.8407 L-30.0583,31.2647 L-29.6371,31.2647 L-29.6371,30.6491 L-30.0583,30.6491 L-30.0583,29.4747 L-30.8318,29.4747 L-30.8318,30.6491 Z M-29.0823,33.4192 C-29.0823,33.9538 -28.9878,34.3359 -28.7988,34.5653 C-28.6098,34.7921 -28.2912,34.9055 -27.843,34.9055 C-27.2733,34.9055 -26.8981,34.7138 -26.7172,34.3305 C-26.6308,34.1334 -26.5876,33.7419 -26.5876,33.156 L-26.5876,30.6491 L-27.3611,30.6491 L-27.3611,33.156 L-27.3611,33.4921 C-27.3611,33.7459 -27.3962,33.9241 -27.4664,34.0267 C-27.5366,34.1239 -27.6594,34.1725 -27.8349,34.1725 C-28.0023,34.1725 -28.1218,34.1172 -28.1933,34.0065 C-28.2649,33.8958 -28.3034,33.7108 -28.3088,33.4516 L-28.3088,30.6491 L-29.0823,30.6491 L-29.0823,33.4192 Z M-24.0929,27.9601 L-24.0929,31.123 C-24.1469,31.0204 -24.2022,30.934 -24.2589,30.8638 C-24.3156,30.7936 -24.371,30.7396 -24.425,30.7018 C-24.5356,30.6208 -24.676,30.5803 -24.8461,30.5803 C-25.0243,30.5803 -25.1782,30.6215 -25.3078,30.7038 C-25.4374,30.7862 -25.5434,30.9137 -25.6257,31.0865 C-25.7081,31.2593 -25.7695,31.4794 -25.81,31.7467 C-25.8505,32.0139 -25.8707,32.3312 -25.8707,32.6984 C-25.8707,33.4597 -25.7897,34.0179 -25.6278,34.373 C-25.4658,34.728 -25.212,34.9055 -24.8664,34.9055 C-24.6828,34.9055 -24.5356,34.8623 -24.425,34.7759 C-24.3143,34.6895 -24.2036,34.5316 -24.0929,34.3021 L-24.0929,34.8407 L-23.3193,34.8407 L-23.3193,27.9601 L-24.0929,27.9601 Z M-25.0689,32.7267 C-25.0689,32.1786 -25.0311,31.8047 -24.9555,31.6049 C-24.8772,31.3889 -24.7462,31.2809 -24.5626,31.2809 C-24.3899,31.2809 -24.2643,31.3943 -24.186,31.6211 C-24.1077,31.8641 -24.0686,32.2394 -24.0686,32.747 C-24.0686,33.2518 -24.1077,33.6258 -24.186,33.8688 C-24.2643,34.0956 -24.3899,34.209 -24.5626,34.209 C-24.7516,34.209 -24.8839,34.0996 -24.9595,33.8809 C-25.0324,33.6622 -25.0689,33.2775 -25.0689,32.7267 Z M-20.8206,33.4273 C-20.8206,33.97 -20.9826,34.2414 -21.3066,34.2414 C-21.663,34.2414 -21.8412,33.7932 -21.8412,32.8968 L-20.0714,32.8968 L-20.0714,32.7996 C-20.0714,31.3201 -20.4912,30.5803 -21.3309,30.5803 C-21.7629,30.5803 -22.0821,30.7585 -22.2887,31.1149 C-22.4952,31.4713 -22.5985,32.0193 -22.5985,32.7591 C-22.5985,33.1317 -22.5735,33.453 -22.5236,33.723 C-22.4736,33.993 -22.396,34.2157 -22.2907,34.3912 C-22.1854,34.5667 -22.0524,34.6963 -21.8918,34.78 C-21.7311,34.8637 -21.5388,34.9055 -21.3147,34.9055 C-20.5614,34.9055 -20.1564,34.4128 -20.0997,33.4273 L-20.8206,33.4273 Z M-21.8412,32.3379 C-21.8088,31.8979 -21.7588,31.609 -21.6913,31.4713 C-21.6238,31.3174 -21.5104,31.2404 -21.3511,31.2404 C-21.1945,31.2404 -21.0811,31.3174 -21.0109,31.4713 C-20.9434,31.609 -20.8935,31.8979 -20.8611,32.3379 L-21.8412,32.3379 Z " fill="#015e6c" fill-opacity="1.00" />					<path d="M12.5328,33.0062 C12.5328,33.6892 12.6124,34.1509 12.7717,34.3912 C13.0012,34.7422 13.3967,34.9177 13.9583,34.9177 C14.4686,34.9177 14.8479,34.7813 15.0963,34.5087 C15.3042,34.2684 15.4082,33.808 15.4082,33.1277 L15.4082,28.5878 L14.582,28.5878 L14.582,33.1277 C14.582,33.5326 14.5415,33.8013 14.4605,33.9336 C14.3822,34.0632 14.2202,34.128 13.9745,34.128 C13.7288,34.128 13.5641,34.0537 13.4804,33.9052 C13.3994,33.7567 13.359,33.457 13.359,33.0062 L13.359,28.5878 L12.5328,28.5878 L12.5328,33.0062 Z M16.3275,34.8407 L17.101,34.8407 L17.101,32.1314 C17.101,31.9694 17.1098,31.8331 17.1273,31.7224 C17.1449,31.6117 17.1726,31.5219 17.2104,31.453 C17.2482,31.3842 17.2974,31.3342 17.3582,31.3032 C17.4189,31.2722 17.4938,31.2566 17.5829,31.2566 C17.7476,31.2566 17.8637,31.316 17.9312,31.4348 C17.9987,31.5536 18.0325,31.7548 18.0325,32.0382 L18.0365,34.8407 L18.81,34.8407 L18.81,31.8601 C18.81,31.4254 18.7695,31.1324 18.6885,30.9812 C18.5428,30.7139 18.2998,30.5803 17.9596,30.5803 C17.6086,30.5803 17.3224,30.7639 17.101,31.1311 L17.101,30.6491 L16.3275,30.6491 L16.3275,34.8407 Z M19.6848,34.8407 L20.4624,34.8407 L20.4624,30.6491 L19.6848,30.6491 L19.6848,34.8407 Z M20.0493,28.8672 C19.9089,28.8672 19.7834,28.9185 19.6727,29.0211 C19.5701,29.1237 19.5188,29.2452 19.5188,29.3856 C19.5188,29.5368 19.5687,29.6623 19.6686,29.7622 C19.7712,29.8648 19.8954,29.9161 20.0412,29.9161 C20.187,29.9161 20.3112,29.8648 20.4138,29.7622 C20.5164,29.6596 20.5677,29.5354 20.5677,29.3896 C20.5677,29.2466 20.5164,29.1237 20.4138,29.0211 C20.3112,28.9185 20.1897,28.8672 20.0493,28.8672 Z M22.953,27.9601 L22.953,31.123 C22.899,31.0204 22.8437,30.934 22.787,30.8638 C22.7303,30.7936 22.6749,30.7396 22.6209,30.7018 C22.5102,30.6208 22.3699,30.5803 22.1998,30.5803 C22.0216,30.5803 21.8677,30.6215 21.7381,30.7038 C21.6085,30.7862 21.5025,30.9137 21.4202,31.0865 C21.3378,31.2593 21.2764,31.4794 21.2359,31.7467 C21.1954,32.0139 21.1752,32.3312 21.1752,32.6984 C21.1752,33.4597 21.2561,34.0179 21.4181,34.373 C21.5801,34.728 21.8339,34.9055 22.1795,34.9055 C22.3631,34.9055 22.5102,34.8623 22.6209,34.7759 C22.7316,34.6895 22.8423,34.5316 22.953,34.3021 L22.953,34.8407 L23.7266,34.8407 L23.7266,27.9601 L22.953,27.9601 Z M21.977,32.7267 C21.977,32.1786 22.0148,31.8047 22.0904,31.6049 C22.1687,31.3889 22.2997,31.2809 22.4833,31.2809 C22.656,31.2809 22.7816,31.3943 22.8599,31.6211 C22.9382,31.8641 22.9773,32.2394 22.9773,32.747 C22.9773,33.2518 22.9382,33.6258 22.8599,33.8688 C22.7816,34.0956 22.656,34.209 22.4833,34.209 C22.2943,34.209 22.162,34.0996 22.0864,33.8809 C22.0135,33.6622 21.977,33.2775 21.977,32.7267 Z M26.2253,30.6491 L26.2253,31.123 C26.0309,30.7612 25.7744,30.5803 25.4558,30.5803 C25.1076,30.5803 24.8524,30.7511 24.6904,31.0926 C24.5284,31.4341 24.4474,31.968 24.4474,32.6943 C24.4474,33.4557 24.5284,34.0146 24.6904,34.371 C24.8524,34.7273 25.1076,34.9055 25.4558,34.9055 C25.6367,34.9055 25.7825,34.8623 25.8932,34.7759 C26.0039,34.6895 26.1146,34.5316 26.2253,34.3021 L26.2253,34.8407 L26.9988,34.8407 L26.9988,30.6491 L26.2253,30.6491 Z M25.2493,32.7267 C25.2493,32.1786 25.2871,31.8047 25.3627,31.6049 C25.441,31.3889 25.5719,31.2809 25.7555,31.2809 C25.9283,31.2809 26.0539,31.3943 26.1322,31.6211 C26.2105,31.8641 26.2496,32.2394 26.2496,32.747 C26.2496,33.2518 26.2105,33.6258 26.1322,33.8688 C26.0539,34.0956 25.9283,34.209 25.7555,34.209 C25.5665,34.209 25.4342,34.0996 25.3586,33.8809 C25.2857,33.6622 25.2493,33.2775 25.2493,32.7267 Z M29.4976,27.9601 L29.4976,31.123 C29.4436,31.0204 29.3882,30.934 29.3315,30.8638 C29.2748,30.7936 29.2195,30.7396 29.1655,30.7018 C29.0548,30.6208 28.9144,30.5803 28.7443,30.5803 C28.5661,30.5803 28.4122,30.6215 28.2826,30.7038 C28.153,30.7862 28.0471,30.9137 27.9647,31.0865 C27.8824,31.2593 27.8209,31.4794 27.7804,31.7467 C27.7399,32.0139 27.7197,32.3312 27.7197,32.6984 C27.7197,33.4597 27.8007,34.0179 27.9627,34.373 C28.1247,34.728 28.3785,34.9055 28.7241,34.9055 C28.9077,34.9055 29.0548,34.8623 29.1655,34.7759 C29.2762,34.6895 29.3869,34.5316 29.4976,34.3021 L29.4976,34.8407 L30.2711,34.8407 L30.2711,27.9601 L29.4976,27.9601 Z M28.5216,32.7267 C28.5216,32.1786 28.5594,31.8047 28.635,31.6049 C28.7133,31.3889 28.8442,31.2809 29.0278,31.2809 C29.2006,31.2809 29.3261,31.3943 29.4044,31.6211 C29.4827,31.8641 29.5219,32.2394 29.5219,32.747 C29.5219,33.2518 29.4827,33.6258 29.4044,33.8688 C29.3261,34.0956 29.2006,34.209 29.0278,34.209 C28.8388,34.209 28.7065,34.0996 28.6309,33.8809 C28.558,33.6622 28.5216,33.2775 28.5216,32.7267 Z M32.7699,33.4273 C32.7699,33.97 32.6079,34.2414 32.2839,34.2414 C31.9275,34.2414 31.7493,33.7932 31.7493,32.8968 L33.5191,32.8968 L33.5191,32.7996 C33.5191,31.3201 33.0992,30.5803 32.2596,30.5803 C31.8276,30.5803 31.5083,30.7585 31.3018,31.1149 C31.0952,31.4713 30.992,32.0193 30.992,32.7591 C30.992,33.1317 31.0169,33.453 31.0669,33.723 C31.1168,33.993 31.1945,34.2157 31.2998,34.3912 C31.4051,34.5667 31.538,34.6963 31.6987,34.78 C31.8593,34.8637 32.0517,34.9055 32.2758,34.9055 C33.029,34.9055 33.434,34.4128 33.4907,33.4273 L32.7699,33.4273 Z M31.7493,32.3379 C31.7817,31.8979 31.8316,31.609 31.8991,31.4713 C31.9666,31.3174 32.08,31.2404 32.2393,31.2404 C32.3959,31.2404 32.5093,31.3174 32.5795,31.4713 C32.647,31.609 32.697,31.8979 32.7294,32.3379 L31.7493,32.3379 Z M35.8275,30.7342 C35.6034,30.6127 35.3726,30.552 35.135,30.552 C34.7975,30.552 34.5234,30.6586 34.3128,30.8719 C34.105,31.0879 34.001,31.3646 34.001,31.7021 C34.001,31.9532 34.0577,32.1678 34.1711,32.346 C34.2872,32.5188 34.5086,32.7321 34.8353,32.9859 C34.9298,33.0615 35.0094,33.1297 35.0742,33.1904 C35.139,33.2512 35.1863,33.3045 35.216,33.3504 C35.2808,33.4449 35.3132,33.5569 35.3132,33.6865 C35.3132,34.0348 35.1363,34.209 34.7826,34.209 C34.5828,34.209 34.3709,34.1253 34.1468,33.9579 L34.1468,34.7071 C34.3763,34.8394 34.6031,34.9055 34.8272,34.9055 C35.1917,34.9055 35.4819,34.7935 35.6979,34.5694 C35.9166,34.3426 36.0259,34.0416 36.0259,33.6663 C36.0259,33.4071 35.9733,33.1925 35.868,33.0224 C35.8167,32.936 35.7424,32.8442 35.6452,32.747 C35.548,32.6498 35.4266,32.5445 35.2808,32.4311 C34.919,32.1557 34.7381,31.9181 34.7381,31.7183 C34.7381,31.6535 34.7509,31.5921 34.7766,31.534 C34.8022,31.476 34.8373,31.426 34.8819,31.3842 C34.9264,31.3423 34.9784,31.3093 35.0378,31.285 C35.0972,31.2607 35.162,31.2485 35.2322,31.2485 C35.4401,31.2485 35.6385,31.3187 35.8275,31.4591 L35.8275,30.7342 Z M38.4072,34.8407 L39.2496,34.8407 L39.2496,28.5878 L38.4072,28.5878 L38.4072,34.8407 Z M41.7929,31.1513 C41.6741,30.938 41.5607,30.7895 41.4527,30.7058 C41.3447,30.6222 41.2043,30.5803 41.0315,30.5803 C40.6671,30.5803 40.4065,30.7544 40.2499,31.1027 C40.0906,31.4672 40.011,32.0328 40.011,32.7996 C40.011,33.5232 40.094,34.0551 40.26,34.3953 C40.4261,34.7354 40.6846,34.9055 41.0356,34.9055 C41.3758,34.9055 41.6282,34.7138 41.7929,34.3305 L41.7929,35.1364 C41.7929,35.4577 41.7592,35.6723 41.6917,35.7803 C41.6269,35.8937 41.504,35.9504 41.3231,35.9504 C40.991,35.9504 40.825,35.7277 40.825,35.2822 L40.0758,35.2822 L40.0717,35.4118 C40.0717,35.7763 40.1797,36.0665 40.3957,36.2825 C40.609,36.4958 40.9033,36.6024 41.2786,36.6024 C41.8483,36.6024 42.2276,36.4188 42.4166,36.0516 C42.5192,35.8518 42.5705,35.4928 42.5705,34.9744 L42.5705,30.6491 L41.7929,30.6491 L41.7929,31.1513 Z M41.8051,32.7834 C41.8051,33.3369 41.7713,33.7095 41.7038,33.9012 C41.6363,34.1064 41.5135,34.209 41.3353,34.209 C41.1463,34.209 41.0113,34.0942 40.9303,33.8647 C40.852,33.6163 40.8128,33.2289 40.8128,32.7024 C40.8128,32.2056 40.8506,31.8445 40.9262,31.6191 C41.0018,31.3936 41.122,31.2809 41.2867,31.2809 C41.6323,31.2809 41.8051,31.7818 41.8051,32.7834 Z M43.4452,33.4192 C43.4452,33.9538 43.5397,34.3359 43.7287,34.5653 C43.9177,34.7921 44.2363,34.9055 44.6845,34.9055 C45.2542,34.9055 45.6295,34.7138 45.8104,34.3305 C45.8968,34.1334 45.94,33.7419 45.94,33.156 L45.94,30.6491 L45.1664,30.6491 L45.1664,33.156 L45.1664,33.4921 C45.1664,33.7459 45.1313,33.9241 45.0611,34.0267 C44.9909,34.1239 44.8681,34.1725 44.6926,34.1725 C44.5252,34.1725 44.4057,34.1172 44.3342,34.0065 C44.2626,33.8958 44.2242,33.7108 44.2188,33.4516 L44.2188,30.6491 L43.4452,30.6491 L43.4452,33.4192 Z M48.4347,30.6491 L48.4347,31.123 C48.2403,30.7612 47.9838,30.5803 47.6652,30.5803 C47.3169,30.5803 47.0618,30.7511 46.8998,31.0926 C46.7378,31.4341 46.6568,31.968 46.6568,32.6943 C46.6568,33.4557 46.7378,34.0146 46.8998,34.371 C47.0618,34.7273 47.3169,34.9055 47.6652,34.9055 C47.8461,34.9055 47.9919,34.8623 48.1026,34.7759 C48.2133,34.6895 48.324,34.5316 48.4347,34.3021 L48.4347,34.8407 L49.2082,34.8407 L49.2082,30.6491 L48.4347,30.6491 Z M47.4586,32.7267 C47.4586,32.1786 47.4964,31.8047 47.572,31.6049 C47.6503,31.3889 47.7813,31.2809 47.9649,31.2809 C48.1377,31.2809 48.2632,31.3943 48.3415,31.6211 C48.4198,31.8641 48.459,32.2394 48.459,32.747 C48.459,33.2518 48.4198,33.6258 48.3415,33.8688 C48.2632,34.0956 48.1377,34.209 47.9649,34.209 C47.7759,34.209 47.6436,34.0996 47.568,33.8809 C47.4951,33.6622 47.4586,33.2775 47.4586,32.7267 Z M50.087,34.8407 L50.8646,34.8407 L50.8646,30.6491 L50.087,30.6491 L50.087,34.8407 Z M50.4515,28.8672 C50.3111,28.8672 50.1855,28.9185 50.0748,29.0211 C49.9722,29.1237 49.9209,29.2452 49.9209,29.3856 C49.9209,29.5368 49.9709,29.6623 50.0708,29.7622 C50.1734,29.8648 50.2976,29.9161 50.4434,29.9161 C50.5892,29.9161 50.7134,29.8648 50.816,29.7622 C50.9186,29.6596 50.9699,29.5354 50.9699,29.3896 C50.9699,29.2466 50.9186,29.1237 50.816,29.0211 C50.7134,28.9185 50.5919,28.8672 50.4515,28.8672 Z M53.3552,30.7342 C53.1311,30.6127 52.9003,30.552 52.6627,30.552 C52.3252,30.552 52.0512,30.6586 51.8406,30.8719 C51.6327,31.0879 51.5287,31.3646 51.5287,31.7021 C51.5287,31.9532 51.5854,32.1678 51.6988,32.346 C51.8149,32.5188 52.0363,32.7321 52.363,32.9859 C52.4575,33.0615 52.5371,33.1297 52.6019,33.1904 C52.6667,33.2512 52.714,33.3045 52.7437,33.3504 C52.8085,33.4449 52.8409,33.5569 52.8409,33.6865 C52.8409,34.0348 52.664,34.209 52.3104,34.209 C52.1106,34.209 51.8986,34.1253 51.6745,33.9579 L51.6745,34.7071 C51.904,34.8394 52.1308,34.9055 52.3549,34.9055 C52.7194,34.9055 53.0096,34.7935 53.2256,34.5694 C53.4443,34.3426 53.5537,34.0416 53.5537,33.6663 C53.5537,33.4071 53.501,33.1925 53.3957,33.0224 C53.3444,32.936 53.2702,32.8442 53.173,32.747 C53.0758,32.6498 52.9543,32.5445 52.8085,32.4311 C52.4467,32.1557 52.2658,31.9181 52.2658,31.7183 C52.2658,31.6535 52.2786,31.5921 52.3043,31.534 C52.3299,31.476 52.365,31.426 52.4096,31.3842 C52.4541,31.3423 52.5061,31.3093 52.5655,31.285 C52.6249,31.2607 52.6897,31.2485 52.7599,31.2485 C52.9678,31.2485 53.1662,31.3187 53.3552,31.4591 L53.3552,30.7342 Z " fill="#865f3e" fill-opacity="1.00" />					<path d="M80.2916,34.8407 L81.134,34.8407 L81.134,32.0666 C81.5984,32.0666 81.9534,32.0112 82.1991,31.9006 C82.6878,31.6576 82.9321,31.1203 82.9321,30.2887 C82.9321,29.6974 82.8106,29.2655 82.5677,28.9928 C82.3247,28.7228 81.9359,28.5878 81.4013,28.5878 L80.2916,28.5878 L80.2916,34.8407 Z M81.134,29.2965 L81.2515,29.2965 C81.5295,29.2965 81.7334,29.3829 81.863,29.5557 C81.9926,29.7285 82.0574,30.0012 82.0574,30.3738 C82.0574,30.7382 81.9899,30.992 81.8549,31.1351 C81.7226,31.2755 81.4823,31.3457 81.134,31.3457 L81.134,29.2965 Z M86.01,32.7794 C86.01,32.3987 85.9837,32.0706 85.931,31.7953 C85.8784,31.5199 85.7981,31.2917 85.6901,31.1108 C85.5821,30.9299 85.4451,30.7963 85.279,30.7099 C85.113,30.6235 84.9166,30.5803 84.6898,30.5803 C83.815,30.5803 83.3776,31.3025 83.3776,32.747 C83.3776,34.186 83.8164,34.9055 84.6938,34.9055 C85.5713,34.9055 86.01,34.1968 86.01,32.7794 Z M85.2081,32.7591 C85.2081,33.2964 85.1704,33.6649 85.0948,33.8647 C85.0219,34.078 84.8936,34.1847 84.71,34.1847 C84.5264,34.1847 84.3955,34.0767 84.3172,33.8607 C84.2443,33.6474 84.2078,33.2721 84.2078,32.7348 C84.2078,32.1975 84.2443,31.8209 84.3172,31.6049 C84.3955,31.3889 84.5264,31.2809 84.71,31.2809 C84.8963,31.2809 85.0259,31.3903 85.0988,31.609 C85.1717,31.825 85.2081,32.2083 85.2081,32.7591 Z M88.3508,30.7342 C88.1267,30.6127 87.8959,30.552 87.6583,30.552 C87.3208,30.552 87.0468,30.6586 86.8362,30.8719 C86.6283,31.0879 86.5243,31.3646 86.5243,31.7021 C86.5243,31.9532 86.581,32.1678 86.6944,32.346 C86.8105,32.5188 87.0319,32.7321 87.3586,32.9859 C87.4531,33.0615 87.5328,33.1297 87.5976,33.1904 C87.6624,33.2512 87.7096,33.3045 87.7393,33.3504 C87.8041,33.4449 87.8365,33.5569 87.8365,33.6865 C87.8365,34.0348 87.6597,34.209 87.306,34.209 C87.1062,34.209 86.8942,34.1253 86.6701,33.9579 L86.6701,34.7071 C86.8996,34.8394 87.1264,34.9055 87.3505,34.9055 C87.715,34.9055 88.0052,34.7935 88.2212,34.5694 C88.4399,34.3426 88.5493,34.0416 88.5493,33.6663 C88.5493,33.4071 88.4966,33.1925 88.3913,33.0224 C88.34,32.936 88.2658,32.8442 88.1686,32.747 C88.0714,32.6498 87.9499,32.5445 87.8041,32.4311 C87.4423,32.1557 87.2614,31.9181 87.2614,31.7183 C87.2614,31.6535 87.2742,31.5921 87.2999,31.534 C87.3255,31.476 87.3606,31.426 87.4052,31.3842 C87.4497,31.3423 87.5017,31.3093 87.5611,31.285 C87.6205,31.2607 87.6853,31.2485 87.7555,31.2485 C87.9634,31.2485 88.1618,31.3187 88.3508,31.4591 L88.3508,30.7342 Z M89.1689,34.8407 L89.9465,34.8407 L89.9465,30.6491 L89.1689,30.6491 L89.1689,34.8407 Z M89.5334,28.8672 C89.393,28.8672 89.2674,28.9185 89.1567,29.0211 C89.0542,29.1237 89.0029,29.2452 89.0029,29.3856 C89.0029,29.5368 89.0528,29.6623 89.1527,29.7622 C89.2553,29.8648 89.3795,29.9161 89.5253,29.9161 C89.6711,29.9161 89.7953,29.8648 89.8979,29.7622 C90.0005,29.6596 90.0518,29.5354 90.0518,29.3896 C90.0518,29.2466 90.0005,29.1237 89.8979,29.0211 C89.7953,28.9185 89.6738,28.8672 89.5334,28.8672 Z M92.5303,30.7301 C92.3332,30.6302 92.1307,30.5803 91.9228,30.5803 C91.4908,30.5803 91.1722,30.7592 90.967,31.1169 C90.7618,31.4746 90.6592,32.0301 90.6592,32.7834 C90.6592,34.1982 91.075,34.9055 91.9066,34.9055 C92.1172,34.9055 92.3251,34.8515 92.5303,34.7435 L92.5303,34.0186 C92.3872,34.1239 92.2562,34.1766 92.1374,34.1766 C91.7135,34.1766 91.5016,33.6865 91.5016,32.7065 C91.5016,31.7831 91.7149,31.3214 92.1415,31.3214 C92.2927,31.3214 92.4223,31.3876 92.5303,31.5199 L92.5303,30.7301 Z M91.1655,36.4404 L91.5219,36.6267 L92.2306,35.5292 L91.6839,35.2619 L91.1655,36.4404 Z M94.8063,30.6491 L94.8063,31.123 C94.6119,30.7612 94.3554,30.5803 94.0368,30.5803 C93.6885,30.5803 93.4334,30.7511 93.2714,31.0926 C93.1094,31.4341 93.0284,31.968 93.0284,32.6943 C93.0284,33.4557 93.1094,34.0146 93.2714,34.371 C93.4334,34.7273 93.6885,34.9055 94.0368,34.9055 C94.2177,34.9055 94.3635,34.8623 94.4742,34.7759 C94.5849,34.6895 94.6956,34.5316 94.8063,34.3021 L94.8063,34.8407 L95.5798,34.8407 L95.5798,30.6491 L94.8063,30.6491 Z M93.8303,32.7267 C93.8303,32.1786 93.8681,31.8047 93.9437,31.6049 C94.022,31.3889 94.1529,31.2809 94.3365,31.2809 C94.5093,31.2809 94.6348,31.3943 94.7131,31.6211 C94.7914,31.8641 94.8306,32.2394 94.8306,32.747 C94.8306,33.2518 94.7914,33.6258 94.7131,33.8688 C94.6348,34.0956 94.5093,34.209 94.3365,34.209 C94.1475,34.209 94.0152,34.0996 93.9396,33.8809 C93.8667,33.6622 93.8303,33.2775 93.8303,32.7267 Z M94.9885,29.1386 C94.9642,29.3006 94.9089,29.3815 94.8225,29.3815 C94.7442,29.3815 94.6497,29.3505 94.539,29.2884 C94.3284,29.1669 94.1475,29.1062 93.9963,29.1062 C93.6183,29.1062 93.4091,29.3788 93.3686,29.9242 L93.8546,29.9242 C93.8762,29.773 93.9356,29.6974 94.0328,29.6974 C94.103,29.6974 94.1772,29.7177 94.2555,29.7582 L94.458,29.8554 C94.5984,29.9283 94.7253,29.9647 94.8387,29.9647 C94.9413,29.9647 95.029,29.9499 95.1019,29.9202 C95.1748,29.8905 95.2356,29.8432 95.2842,29.7784 C95.3328,29.7136 95.3712,29.6286 95.3996,29.5233 C95.4279,29.418 95.4489,29.2898 95.4624,29.1386 L94.9885,29.1386 Z M98.9331,32.7794 C98.9331,32.3987 98.9067,32.0706 98.8541,31.7953 C98.8015,31.5199 98.7211,31.2917 98.6131,31.1108 C98.5051,30.9299 98.3681,30.7963 98.2021,30.7099 C98.036,30.6235 97.8396,30.5803 97.6128,30.5803 C96.7381,30.5803 96.3007,31.3025 96.3007,32.747 C96.3007,34.186 96.7394,34.9055 97.6169,34.9055 C98.4943,34.9055 98.9331,34.1968 98.9331,32.7794 Z M98.1312,32.7591 C98.1312,33.2964 98.0934,33.6649 98.0178,33.8647 C97.9449,34.078 97.8167,34.1847 97.6331,34.1847 C97.4495,34.1847 97.3185,34.0767 97.2402,33.8607 C97.1673,33.6474 97.1309,33.2721 97.1309,32.7348 C97.1309,32.1975 97.1673,31.8209 97.2402,31.6049 C97.3185,31.3889 97.4495,31.2809 97.6331,31.2809 C97.8194,31.2809 97.949,31.3903 98.0219,31.609 C98.0948,31.825 98.1312,32.2083 98.1312,32.7591 Z M102.991,27.9601 L102.991,31.123 C102.937,31.0204 102.882,30.934 102.825,30.8638 C102.768,30.7936 102.713,30.7396 102.659,30.7018 C102.548,30.6208 102.408,30.5803 102.238,30.5803 C102.06,30.5803 101.906,30.6215 101.776,30.7038 C101.646,30.7862 101.54,30.9137 101.458,31.0865 C101.376,31.2593 101.314,31.4794 101.274,31.7467 C101.233,32.0139 101.213,32.3312 101.213,32.6984 C101.213,33.4597 101.294,34.0179 101.456,34.373 C101.618,34.728 101.872,34.9055 102.217,34.9055 C102.401,34.9055 102.548,34.8623 102.659,34.7759 C102.77,34.6895 102.88,34.5316 102.991,34.3021 L102.991,34.8407 L103.765,34.8407 L103.765,27.9601 L102.991,27.9601 Z M102.015,32.7267 C102.015,32.1786 102.053,31.8047 102.128,31.6049 C102.207,31.3889 102.338,31.2809 102.521,31.2809 C102.694,31.2809 102.82,31.3943 102.898,31.6211 C102.976,31.8641 103.015,32.2394 103.015,32.747 C103.015,33.2518 102.976,33.6258 102.898,33.8688 C102.82,34.0956 102.694,34.209 102.521,34.209 C102.332,34.209 102.2,34.0996 102.124,33.8809 C102.051,33.6622 102.015,33.2775 102.015,32.7267 Z M107.118,32.7794 C107.118,32.3987 107.091,32.0706 107.039,31.7953 C106.986,31.5199 106.906,31.2917 106.798,31.1108 C106.69,30.9299 106.553,30.7963 106.387,30.7099 C106.221,30.6235 106.024,30.5803 105.798,30.5803 C104.923,30.5803 104.485,31.3025 104.485,32.747 C104.485,34.186 104.924,34.9055 105.802,34.9055 C106.679,34.9055 107.118,34.1968 107.118,32.7794 Z M106.316,32.7591 C106.316,33.2964 106.278,33.6649 106.203,33.8647 C106.13,34.078 106.001,34.1847 105.818,34.1847 C105.634,34.1847 105.503,34.0767 105.425,33.8607 C105.352,33.6474 105.316,33.2721 105.316,32.7348 C105.316,32.1975 105.352,31.8209 105.425,31.6049 C105.503,31.3889 105.634,31.2809 105.818,31.2809 C106.004,31.2809 106.134,31.3903 106.207,31.609 C106.279,31.825 106.316,32.2083 106.316,32.7591 Z M109.446,29.3006 L111.119,29.3006 L109.224,34.8407 L112.099,34.8407 L112.099,34.1037 L110.321,34.1037 L112.2,28.5878 L109.446,28.5878 L109.446,29.3006 Z M114.306,33.4273 C114.306,33.97 114.144,34.2414 113.82,34.2414 C113.464,34.2414 113.286,33.7932 113.286,32.8968 L115.056,32.8968 L115.056,32.7996 C115.056,31.3201 114.636,30.5803 113.796,30.5803 C113.364,30.5803 113.045,30.7585 112.838,31.1149 C112.632,31.4713 112.528,32.0193 112.528,32.7591 C112.528,33.1317 112.553,33.453 112.603,33.723 C112.653,33.993 112.731,34.2157 112.836,34.3912 C112.941,34.5667 113.074,34.6963 113.235,34.78 C113.396,34.8637 113.588,34.9055 113.812,34.9055 C114.565,34.9055 114.97,34.4128 115.027,33.4273 L114.306,33.4273 Z M113.286,32.3379 C113.318,31.8979 113.368,31.609 113.436,31.4713 C113.503,31.3174 113.616,31.2404 113.776,31.2404 C113.932,31.2404 114.046,31.3174 114.116,31.4713 C114.183,31.609 114.233,31.8979 114.266,32.3379 L113.286,32.3379 Z M115.744,34.8407 L116.517,34.8407 L116.517,32.3015 C116.517,31.9505 116.576,31.7048 116.692,31.5644 C116.81,31.4213 117.009,31.3498 117.287,31.3498 C117.325,31.3498 117.371,31.3538 117.425,31.3619 L117.425,30.552 C117.211,30.5655 117.04,30.6168 116.91,30.7058 C116.781,30.7949 116.65,30.9502 116.517,31.1716 L116.517,30.6491 L115.744,30.6491 L115.744,34.8407 Z M120.434,32.7794 C120.434,32.3987 120.407,32.0706 120.355,31.7953 C120.302,31.5199 120.222,31.2917 120.114,31.1108 C120.006,30.9299 119.869,30.7963 119.703,30.7099 C119.537,30.6235 119.34,30.5803 119.113,30.5803 C118.239,30.5803 117.801,31.3025 117.801,32.747 C117.801,34.186 118.24,34.9055 119.117,34.9055 C119.995,34.9055 120.434,34.1968 120.434,32.7794 Z M119.632,32.7591 C119.632,33.2964 119.594,33.6649 119.518,33.8647 C119.446,34.078 119.317,34.1847 119.134,34.1847 C118.95,34.1847 118.819,34.0767 118.741,33.8607 C118.668,33.6474 118.632,33.2721 118.632,32.7348 C118.632,32.1975 118.668,31.8209 118.741,31.6049 C118.819,31.3889 118.95,31.2809 119.134,31.2809 C119.32,31.2809 119.45,31.3903 119.522,31.609 C119.595,31.825 119.632,32.2083 119.632,32.7591 Z " fill="#ff7502" fill-opacity="1.00" />				</g>			</g>		</g>	</svg>