<?xml version="1.0" encoding="utf-8" ?>	<!-- Generator: Assembly 2.4 - http://assemblyapp.co -->	<svg version="1.1" xmlns="http://www.w3.org/2000/svg" xmlns:xlink="http://www.w3.org/1999/xlink" width="500.00" height="200.00" viewBox="0 0 500.0 500.0">		<g id="document" transform="scale(1.6666666666666667 1.6666666666666667) translate(150.0 150.0)">			<path d="M80.1344,24.2285 C93.2594,24.2285 103.884,13.6035 103.884,0.47848 C103.884,-12.6465 93.2594,-23.2715 80.1344,-23.2715 C67.0094,-23.2715 56.3844,-12.6465 56.3844,0.47848 C56.3844,13.6035 67.0094,24.2285 80.1344,24.2285 Z " fill="#ff7502" fill-opacity="1.00" />			<path d="M-26.3927,24.7088 C-13.2677,24.7088 -2.6427,14.0838 -2.6427,0.958783 C-2.6427,-12.1662 -13.2677,-22.7912 -26.3927,-22.7912 C-39.5177,-22.7912 -50.1427,-12.1662 -50.1427,0.958783 C-50.1427,14.0838 -39.5177,24.7088 -26.3927,24.7088 Z " fill="#015e6c" fill-opacity="1.00" />			<path d="M-79.3307,24.7088 C-66.2057,24.7088 -55.5807,14.0838 -55.5807,0.958783 C-55.5807,-12.1662 -66.2057,-22.7912 -79.3307,-22.7912 C-92.4557,-22.7912 -103.081,-12.1662 -103.081,0.958783 C-103.081,14.0838 -92.4557,24.7088 -79.3307,24.7088 Z " fill="#24682c" fill-opacity="1.00" />			<path d="M-68.1895,6.83305 L-72.3351,0.443872 L-73.213,-1.0193 C-73.6032,-1.60457 -74.2372,-1.99475 -74.9201,-2.04352 C-74.9688,-2.04352 -75.0176,-2.04352 -75.0176,-2.04352 L-76.5295,-2.04352 C-76.6759,-2.04352 -76.8222,-2.18984 -76.8222,-2.33615 L-76.8222,-2.67756 C-76.8222,-2.72633 -76.8222,-2.7751 -76.8222,-2.82388 L-82.0408,-2.82388 C-82.0408,-2.82388 -82.0408,-2.82388 -82.0408,-2.7751 L-82.0408,-2.38493 C-82.0408,-2.23861 -82.1871,-2.09229 -82.3335,-2.09229 L-82.7236,-2.09229 C-82.9187,-2.09229 -83.1138,-2.14106 -83.3089,-2.14106 C-83.3577,-2.14106 -83.4552,-2.14106 -83.504,-2.14106 C-84.2356,-2.14106 -84.9184,-1.79966 -85.3573,-1.11684 L-86.284,0.346327 L-90.4297,6.68673 C-90.6248,6.97937 -90.5272,7.32077 -90.2346,7.51586 L-87.5033,9.32044 C-87.4058,9.36921 -87.3082,9.41799 -87.1619,9.41799 C-86.9668,9.41799 -86.7717,9.32044 -86.6742,9.17412 L-84.9184,6.49164 C-84.9184,6.44287 -84.8696,6.44287 -84.8696,6.44287 C-84.8208,6.44287 -84.7721,6.49164 -84.7721,6.54042 L-84.7721,9.27167 C-84.4307,9.36921 -84.0405,9.46676 -83.6991,9.61308 C-82.2847,10.1008 -80.8215,10.9299 -79.8948,11.4664 C-79.651,11.6127 -79.4559,11.7591 -79.3096,11.8078 C-79.212,11.7591 -79.0657,11.6615 -78.8706,11.564 C-77.9927,11.0275 -76.432,10.1983 -74.9201,9.66185 C-74.5787,9.5643 -74.2372,9.46676 -73.9446,9.36921 L-73.9446,6.54042 C-73.9446,6.49164 -73.8958,6.44287 -73.8471,6.44287 C-73.7983,6.44287 -73.7983,6.44287 -73.7983,6.49164 L-71.9449,9.32044 C-71.8474,9.51553 -71.6523,9.61308 -71.4572,9.61308 C-71.3597,9.61308 -71.2134,9.5643 -71.1158,9.51553 L-68.3846,7.75973 C-68.0919,7.46709 -68.0432,7.07691 -68.1895,6.83305 Z M-76.1394,4.34566 C-76.1394,4.83338 -76.5295,5.22356 -77.0173,5.22356 L-81.797,5.22356 C-82.2847,5.22356 -82.6749,4.83338 -82.6749,4.34566 L-82.6749,2.00459 C-82.6749,1.51686 -82.2847,1.12668 -81.797,1.12668 L-77.0173,1.12668 C-76.5295,1.12668 -76.1394,1.51686 -76.1394,2.05336 L-76.1394,4.34566 Z M-84.577,22.9767 C-84.6745,23.2206 -84.5282,23.5132 -84.2356,23.5132 L-80.2362,23.5132 C-79.9436,23.5132 -79.7485,23.2206 -79.8948,22.9767 L-80.4313,21.7574 C-80.4801,21.6111 -80.4801,21.416 -80.3826,21.2697 L-80.3338,21.1721 C-80.0899,20.8795 -79.9924,20.4893 -79.9924,20.0991 L-79.9924,12.637 L-79.9924,12.3931 C-80.0899,12.3443 -80.2362,12.2468 -80.3338,12.198 C-80.5777,12.0517 -80.8215,11.9054 -81.1141,11.7591 C-82.1871,11.1738 -83.6015,10.4422 -84.8696,10.1496 L-84.8696,10.9787 L-84.8696,11.9054 L-84.8696,12.4419 L-84.8696,20.0991 C-84.8696,20.4893 -84.7233,20.8307 -84.4307,21.0746 L-84.1868,21.2697 C-84.0405,21.3672 -83.9917,21.5623 -84.0893,21.7574 L-84.577,22.9767 Z M-74.4811,21.0746 C-74.1885,20.8307 -74.0422,20.4405 -74.0422,20.0991 L-74.0422,12.4906 L-74.0422,11.9541 L-74.0422,11.2713 C-73.9934,11.1738 -73.9934,11.0762 -73.9934,10.9787 L-73.9934,10.1983 L-74.0422,10.1983 C-75.2615,10.5398 -76.6271,11.2226 -77.6513,11.7591 C-77.9439,11.9054 -78.1878,12.0517 -78.4317,12.198 C-78.6268,12.3443 -78.8218,12.4419 -78.9682,12.4906 L-78.9682,12.637 L-78.9682,20.0991 C-78.9682,20.4893 -78.8706,20.8795 -78.6268,21.1721 L-78.578,21.2697 C-78.4804,21.416 -78.4317,21.6111 -78.5292,21.7574 L-79.0657,22.9767 C-79.1633,23.2206 -79.0169,23.5132 -78.7243,23.5132 L-74.725,23.5132 C-74.4323,23.5132 -74.2372,23.2206 -74.3836,22.9767 L-74.9201,21.7574 C-74.9688,21.6111 -74.9688,21.416 -74.8225,21.2697 L-74.4811,21.0746 Z M-65.9947,9.75939 L-67.0189,9.07658 C-67.1653,8.97903 -67.2628,8.78395 -67.2628,8.58886 L-67.2628,8.29622 C-67.2628,8.1499 -67.3603,8.00359 -67.5067,8.00359 C-67.6042,7.95482 -67.7017,8.00359 -67.7505,8.05236 L-71.0183,10.1496 C-71.1158,10.1983 -71.1646,10.2959 -71.1646,10.3934 C-71.1646,10.491 -71.1158,10.6373 -70.9695,10.6373 L-70.5793,10.7348 C-70.3842,10.7836 -70.2867,10.9299 -70.2379,11.125 L-69.9453,12.2956 C-69.8965,12.5882 -69.5551,12.6857 -69.3112,12.5394 L-66.0435,10.4422 C-65.7996,10.2471 -65.7996,9.90571 -65.9947,9.75939 Z M-92.6244,10.3447 L-89.3567,12.4419 C-89.1128,12.5882 -88.7714,12.4906 -88.7226,12.198 L-88.43,11.0275 C-88.3812,10.8324 -88.2349,10.6861 -88.0886,10.6373 L-87.6984,10.5398 C-87.5521,10.491 -87.5033,10.3447 -87.5033,10.1983 C-87.5033,10.1496 -87.5521,10.052 -87.6009,10.052 L-90.8686,7.95482 C-90.9174,7.90604 -91.0149,7.90604 -91.0637,7.90604 C-91.21,7.90604 -91.3563,8.05236 -91.3563,8.19868 L-91.3563,8.49131 C-91.3563,8.6864 -91.4539,8.83272 -91.6002,8.93026 L-92.6244,9.61308 C-92.8683,9.85694 -92.8683,10.1983 -92.6244,10.3447 Z M-85.65,-5.84776 C-85.6012,-5.84776 -85.5037,-5.84776 -85.4549,-5.84776 C-84.4794,-3.36037 -82.0896,-1.60457 -79.2608,-1.60457 C-76.432,-1.60457 -74.0422,-3.36037 -73.0667,-5.84776 C-73.0179,-5.84776 -73.0179,-5.84776 -72.9692,-5.84776 C-72.0913,-5.84776 -71.3597,-6.92076 -71.3597,-8.23761 C-71.3597,-9.3106 -71.8474,-10.2373 -72.4814,-10.5299 L-72.4814,-13.6026 C-72.0425,-13.7489 -71.7011,-14.1878 -71.7011,-14.6756 C-71.7011,-15.3096 -72.1888,-15.7973 -72.8228,-15.7973 C-73.4569,-15.7973 -73.9446,-15.3096 -73.9446,-14.6756 C-73.9446,-14.1878 -73.6032,-13.7489 -73.1643,-13.6026 L-73.1643,-10.8713 C-74.1885,-13.2124 -76.5295,-14.8707 -79.2608,-14.8707 C-82.0896,-14.8707 -84.4794,-13.1148 -85.4549,-10.6275 C-85.5037,-10.6275 -85.6012,-10.6275 -85.65,-10.6275 C-86.5279,-10.6275 -87.2595,-9.55446 -87.2595,-8.23761 C-87.2595,-6.92076 -86.5279,-5.84776 -85.65,-5.84776 Z M-83.8454,-10.725 C-80.9678,-12.0419 -77.6513,-12.0419 -74.7737,-10.725 C-74.3836,-9.99341 -74.1397,-9.11551 -74.1397,-8.23761 C-74.1397,-7.45725 -74.3348,-6.72567 -74.6274,-6.04285 C-77.6025,-4.62845 -81.0654,-4.62845 -84.0405,-6.04285 C-84.3331,-6.72567 -84.5282,-7.45725 -84.5282,-8.23761 C-84.4794,-9.11551 -84.2844,-9.99341 -83.8454,-10.725 Z " fill="#ffffff" fill-opacity="1.00" />			<path d="M26.6529,24.7293 C39.7779,24.7293 50.4029,14.1043 50.4029,0.979327 C50.4029,-12.1457 39.7779,-22.7707 26.6529,-22.7707 C13.5279,-22.7707 2.90286,-12.1457 2.90286,0.979327 C2.90286,14.1043 13.5279,24.7293 26.6529,24.7293 Z " fill="#865f3e" fill-opacity="1.00" stroke-width="0.04" stroke="#000000" stroke-linecap="square" stroke-linejoin="miter" />			<path d="M-25.1627,18.2688 C-15.5966,17.5891 -8.40288,9.29482 -9.08265,-0.271263 C-9.76241,-9.83734 -18.0567,-17.031 -27.6227,-16.3513 C-37.1888,-15.6715 -44.3825,-7.37725 -43.7027,2.18883 C-43.023,11.7549 -34.7287,18.9486 -25.1627,18.2688 Z " fill="none" stroke-width="1.00" stroke="#ffffff" stroke-linecap="square" stroke-linejoin="miter" />			<path d="M-22.3477,0.958783 C-22.3477,-4.81222 -27.026,-9.49055 -32.797,-9.49055 C-38.568,-9.49055 -43.2464,-4.81222 -43.2464,0.958783 C-43.2464,6.72979 -38.568,11.4081 -32.797,11.4081 C-27.026,11.4081 -22.3477,6.72979 -22.3477,0.958783 Z " fill="none" stroke-width="1.00" stroke="#ffffff" stroke-linecap="square" stroke-linejoin="miter" />			<path d="M9.29834,0.99987 L44.0074,0.99987 " fill="none" stroke-width="1.00" stroke="#ffffff" stroke-linecap="square" stroke-linejoin="miter" />			<path d="M24.3997,-3.60769 L24.3997,5.60743 M26.6529,-3.60769 L26.6529,5.60743 M28.9061,-3.60769 L28.9061,5.60743 " fill="none" stroke-width="1.00" stroke="#ffffff" stroke-linecap="square" stroke-linejoin="miter" />			<path d="M28.9061,-3.60769 L28.9061,5.60743 M31.1593,-3.60769 L31.1593,5.60743 M33.4125,-3.60769 L33.4125,5.60743 " fill="none" stroke-width="1.00" stroke="#ffffff" stroke-linecap="square" stroke-linejoin="miter" />			<path d="M19.8933,-3.60769 L19.8933,5.60743 M22.1465,-3.60769 L22.1465,5.60743 M24.3997,-3.60769 L24.3997,5.60743 " fill="none" stroke-width="1.00" stroke="#ffffff" stroke-linecap="square" stroke-linejoin="miter" />			<path d="M15.3869,-3.60769 L15.3869,5.60743 M17.6401,-3.60769 L17.6401,5.60743 M19.8933,-3.60769 L19.8933,5.60743 " fill="none" stroke-width="1.00" stroke="#ffffff" stroke-linecap="square" stroke-linejoin="miter" />			<path d="M33.4125,-3.60769 L33.4125,5.60743 M35.6657,-3.60769 L35.6657,5.60743 M37.9189,-3.60769 L37.9189,5.60743 " fill="none" stroke-width="1.00" stroke="#ffffff" stroke-linecap="square" stroke-linejoin="miter" />			<path d="M65.7983,1.00169 L94.4705,1.00169 " fill="none" stroke-width="1.00" stroke="#ffffff" stroke-linecap="square" stroke-linejoin="miter" />			<path d="M63.5942,6.17906 C63.5942,6.78454 63.6903,7.23709 63.8825,7.53671 C64.0748,7.83634 64.3794,7.98615 64.7966,7.98615 C65.2091,7.98615 65.5126,7.83867 65.7071,7.54372 C65.9017,7.24876 65.999,6.79232 65.999,6.17439 C65.999,5.56114 65.9029,5.10664 65.7106,4.81091 C65.5184,4.51517 65.2137,4.36731 64.7966,4.36731 C64.3857,4.36731 64.0825,4.51323 63.8872,4.80507 C63.6919,5.09691 63.5942,5.55491 63.5942,6.17906 Z M64.2082,5.11909 C64.2612,4.99613 64.3359,4.9043 64.4324,4.84359 C64.5289,4.78289 64.6503,4.75254 64.7966,4.75254 C64.9522,4.75254 65.0771,4.78445 65.1713,4.84826 C65.2655,4.91208 65.3382,5.00469 65.3896,5.1261 C65.4456,5.25529 65.4822,5.4016 65.4993,5.56503 C65.5165,5.72846 65.525,5.93158 65.525,6.17439 C65.525,6.39541 65.5153,6.59854 65.4958,6.78376 C65.4764,6.96898 65.4402,7.11918 65.3873,7.23436 C65.3312,7.35733 65.2554,7.44916 65.1596,7.50986 C65.0639,7.57056 64.9429,7.60092 64.7966,7.60092 C64.6487,7.60092 64.5277,7.57056 64.4335,7.50986 C64.3394,7.44916 64.265,7.35888 64.2106,7.23903 C64.1545,7.11763 64.1168,6.96976 64.0973,6.79543 C64.0779,6.62111 64.0681,6.41565 64.0681,6.17906 C64.0681,5.93936 64.0779,5.7343 64.0973,5.56386 C64.1168,5.39342 64.1538,5.24517 64.2082,5.11909 Z " fill="#ffffff" fill-opacity="1.00" />			<path d="M64.7966,-0.80955 L64.7966,2.80929 " fill="none" stroke-width="1.00" stroke="#ffffff" stroke-linecap="square" stroke-linejoin="miter" />			<path d="M95.4722,-0.80955 L95.4722,2.80929 " fill="none" stroke-width="1.00" stroke="#ffffff" stroke-linecap="square" stroke-linejoin="miter" />			<path d="M90.7762,-0.807727 L90.7762,2.81111 " fill="none" stroke-width="0.50" stroke="#ffffff" stroke-linecap="square" stroke-linejoin="miter" />		</g>	</svg>