<?xml version="1.0" encoding="utf-8" ?>	<!-- Generator: Assembly 2.4 - http://assemblyapp.co -->	<svg version="1.1" xmlns="http://www.w3.org/2000/svg" xmlns:xlink="http://www.w3.org/1999/xlink" width="500.00" height="500.00" viewBox="0 0 500.0 500.0">		<g id="document" transform="scale(1.6666666666666667 1.6666666666666667) translate(150.0 150.0)">			<g>				<path d="M8.32965e-07,68.6884 C47.6891,68.6884 86.2946,30.0829 86.2946,-17.6062 C86.2946,-65.2954 47.6891,-103.901 8.32965e-07,-103.901 C-47.6891,-103.901 -86.2946,-65.2954 -86.2946,-17.6062 C-86.2946,30.0829 -47.6891,68.6884 8.32965e-07,68.6884 Z " fill="#865f3e" fill-opacity="1.00" stroke-width="0.12" stroke="#000000" stroke-linecap="square" stroke-linejoin="miter" />				<g>					<path d="M-63.1204,-17.6062 L62.9934,-17.6062 " fill="none" stroke-width="2.89" stroke="#ffffff" stroke-linecap="square" stroke-linejoin="miter" />					<path d="M-8.25041,-34.3476 L-8.25041,-0.864849 M-0.0635014,-34.3476 L-0.0635014,-0.864849 M8.12341,-34.3476 L8.12341,-0.864849 " fill="none" stroke-width="2.89" stroke="#ffffff" stroke-linecap="square" stroke-linejoin="miter" />					<path d="M8.12341,-34.3476 L8.12341,-0.864849 M16.3103,-34.3476 L16.3103,-0.864849 M24.4972,-34.3476 L24.4972,-0.864849 " fill="none" stroke-width="2.89" stroke="#ffffff" stroke-linecap="square" stroke-linejoin="miter" />					<path d="M-24.6242,-34.3476 L-24.6242,-0.864849 M-16.4373,-34.3476 L-16.4373,-0.864849 M-8.25041,-34.3476 L-8.25041,-0.864849 " fill="none" stroke-width="2.89" stroke="#ffffff" stroke-linecap="square" stroke-linejoin="miter" />					<path d="M-40.9981,-34.3476 L-40.9981,-0.864849 M-32.8112,-34.3476 L-32.8112,-0.864849 M-24.6242,-34.3476 L-24.6242,-0.864849 " fill="none" stroke-width="2.89" stroke="#ffffff" stroke-linecap="square" stroke-linejoin="miter" />					<path d="M24.4972,-34.3476 L24.4972,-0.864849 M32.6841,-34.3476 L32.6841,-0.864849 M40.8711,-34.3476 L40.8711,-0.864849 " fill="none" stroke-width="2.89" stroke="#ffffff" stroke-linecap="square" stroke-linejoin="miter" />				</g>				<path d="M-59.205,93.5793 C-59.205,95.551 -58.9751,96.8837 -58.5153,97.5773 C-57.8528,98.5905 -56.7111,99.0971 -55.0901,99.0971 C-53.6171,99.0971 -52.5221,98.7035 -51.8051,97.9164 C-51.205,97.2227 -50.905,95.8939 -50.905,93.93 L-50.905,80.8253 L-53.2898,80.8253 L-53.2898,93.93 C-53.2898,95.099 -53.4067,95.8745 -53.6405,96.2563 C-53.8665,96.6304 -54.3341,96.8175 -55.0433,96.8175 C-55.7525,96.8175 -56.2279,96.6032 -56.4695,96.1745 C-56.7033,95.7459 -56.8202,94.8808 -56.8202,93.5793 L-56.8202,80.8253 L-59.205,80.8253 L-59.205,93.5793 Z M-48.2513,98.8749 L-46.0185,98.8749 L-46.0185,91.0542 C-46.0185,90.5866 -45.9931,90.193 -45.9425,89.8735 C-45.8918,89.554 -45.8119,89.2948 -45.7028,89.0961 C-45.5937,88.8974 -45.4515,88.7532 -45.2761,88.6636 C-45.1008,88.5739 -44.8845,88.5291 -44.6273,88.5291 C-44.1519,88.5291 -43.8168,88.7006 -43.622,89.0435 C-43.4271,89.3864 -43.3297,89.967 -43.3297,90.7853 L-43.318,98.8749 L-41.0852,98.8749 L-41.0852,90.271 C-41.0852,89.0162 -41.2021,88.1706 -41.4359,87.7342 C-41.8568,86.9626 -42.5582,86.5769 -43.5401,86.5769 C-44.5533,86.5769 -45.3794,87.1068 -46.0185,88.1667 L-46.0185,86.7756 L-48.2513,86.7756 L-48.2513,98.8749 Z M-38.5601,98.8749 L-36.3156,98.8749 L-36.3156,86.7756 L-38.5601,86.7756 L-38.5601,98.8749 Z M-37.508,81.6319 C-37.9133,81.6319 -38.2757,81.78 -38.5952,82.0761 C-38.8913,82.3723 -39.0394,82.723 -39.0394,83.1283 C-39.0394,83.5647 -38.8952,83.9271 -38.6069,84.2154 C-38.3107,84.5116 -37.9522,84.6597 -37.5314,84.6597 C-37.1105,84.6597 -36.752,84.5116 -36.4559,84.2154 C-36.1597,83.9193 -36.0117,83.5608 -36.0117,83.1399 C-36.0117,82.7269 -36.1597,82.3723 -36.4559,82.0761 C-36.752,81.78 -37.1027,81.6319 -37.508,81.6319 Z M-29.1261,79.0133 L-29.1261,88.1433 C-29.282,87.8472 -29.4418,87.5978 -29.6054,87.3952 C-29.7691,87.1925 -29.9289,87.0367 -30.0847,86.9276 C-30.4043,86.6938 -30.8095,86.5769 -31.3005,86.5769 C-31.8149,86.5769 -32.2591,86.6957 -32.6332,86.9334 C-33.0073,87.1711 -33.3132,87.5394 -33.5509,88.0381 C-33.7886,88.5369 -33.9659,89.1721 -34.0828,89.9436 C-34.1997,90.7152 -34.2581,91.6309 -34.2581,92.6908 C-34.2581,94.8886 -34.0243,96.4999 -33.5567,97.5247 C-33.0891,98.5496 -32.3565,99.062 -31.359,99.062 C-30.829,99.062 -30.4043,98.9373 -30.0847,98.6879 C-29.7652,98.4385 -29.4457,97.9826 -29.1261,97.3202 L-29.1261,98.8749 L-26.8933,98.8749 L-26.8933,79.0133 L-29.1261,79.0133 Z M-31.9435,92.7727 C-31.9435,91.1906 -31.8344,90.1112 -31.6161,89.5345 C-31.3901,88.911 -31.0121,88.5993 -30.4822,88.5993 C-29.9834,88.5993 -29.621,88.9266 -29.395,89.5812 C-29.169,90.2827 -29.056,91.3659 -29.056,92.8311 C-29.056,94.2885 -29.169,95.3679 -29.395,96.0693 C-29.621,96.724 -29.9834,97.0513 -30.4822,97.0513 C-31.0277,97.0513 -31.4096,96.7356 -31.6278,96.1044 C-31.8383,95.4731 -31.9435,94.3625 -31.9435,92.7727 Z M-19.6804,86.7756 L-19.6804,88.1433 C-20.2416,87.099 -20.982,86.5769 -21.9016,86.5769 C-22.9069,86.5769 -23.6434,87.0698 -24.111,88.0557 C-24.5786,89.0415 -24.8124,90.5827 -24.8124,92.6791 C-24.8124,94.8769 -24.5786,96.4901 -24.111,97.5189 C-23.6434,98.5476 -22.9069,99.062 -21.9016,99.062 C-21.3794,99.062 -20.9586,98.9373 -20.639,98.6879 C-20.3195,98.4385 -20,97.9826 -19.6804,97.3202 L-19.6804,98.8749 L-17.4476,98.8749 L-17.4476,86.7756 L-19.6804,86.7756 Z M-22.4978,92.7727 C-22.4978,91.1906 -22.3887,90.1112 -22.1705,89.5345 C-21.9445,88.911 -21.5665,88.5993 -21.0365,88.5993 C-20.5377,88.5993 -20.1753,88.9266 -19.9493,89.5812 C-19.7233,90.2827 -19.6103,91.3659 -19.6103,92.8311 C-19.6103,94.2885 -19.7233,95.3679 -19.9493,96.0693 C-20.1753,96.724 -20.5377,97.0513 -21.0365,97.0513 C-21.5821,97.0513 -21.9639,96.7356 -22.1822,96.1044 C-22.3926,95.4731 -22.4978,94.3625 -22.4978,92.7727 Z M-10.2348,79.0133 L-10.2348,88.1433 C-10.3906,87.8472 -10.5504,87.5978 -10.7141,87.3952 C-10.8777,87.1925 -11.0375,87.0367 -11.1934,86.9276 C-11.5129,86.6938 -11.9182,86.5769 -12.4091,86.5769 C-12.9235,86.5769 -13.3677,86.6957 -13.7418,86.9334 C-14.1159,87.1711 -14.4218,87.5394 -14.6595,88.0381 C-14.8972,88.5369 -15.0745,89.1721 -15.1914,89.9436 C-15.3083,90.7152 -15.3668,91.6309 -15.3668,92.6908 C-15.3668,94.8886 -15.133,96.4999 -14.6654,97.5247 C-14.1977,98.5496 -13.4652,99.062 -12.4676,99.062 C-11.9376,99.062 -11.5129,98.9373 -11.1934,98.6879 C-10.8738,98.4385 -10.5543,97.9826 -10.2348,97.3202 L-10.2348,98.8749 L-8.00194,98.8749 L-8.00194,79.0133 L-10.2348,79.0133 Z M-13.0521,92.7727 C-13.0521,91.1906 -12.943,90.1112 -12.7248,89.5345 C-12.4988,88.911 -12.1208,88.5993 -11.5908,88.5993 C-11.092,88.5993 -10.7297,88.9266 -10.5036,89.5812 C-10.2776,90.2827 -10.1646,91.3659 -10.1646,92.8311 C-10.1646,94.2885 -10.2776,95.3679 -10.5036,96.0693 C-10.7297,96.724 -11.092,97.0513 -11.5908,97.0513 C-12.1364,97.0513 -12.5183,96.7356 -12.7365,96.1044 C-12.9469,95.4731 -13.0521,94.3625 -13.0521,92.7727 Z M-0.789088,94.7951 C-0.789088,96.3616 -1.2567,97.1448 -2.19191,97.1448 C-3.22065,97.1448 -3.73502,95.8511 -3.73502,93.2637 L1.3736,93.2637 L1.3736,92.9831 C1.3736,88.7123 0.161714,86.5769 -2.26205,86.5769 C-3.50901,86.5769 -4.43059,87.0912 -5.02679,88.12 C-5.62299,89.1487 -5.92109,90.7308 -5.92109,92.8662 C-5.92109,93.9417 -5.849,94.8691 -5.70482,95.6485 C-5.56064,96.4278 -5.33658,97.0708 -5.03263,97.5773 C-4.72869,98.0839 -4.34486,98.458 -3.88115,98.6996 C-3.41743,98.9412 -2.86215,99.062 -2.21529,99.062 C-0.0409157,99.062 1.1281,97.6397 1.29177,94.7951 L-0.789088,94.7951 Z M-3.73502,91.6504 C-3.6415,90.3801 -3.49732,89.5462 -3.30248,89.1487 C-3.10764,88.7045 -2.78032,88.4824 -2.3205,88.4824 C-1.86848,88.4824 -1.54116,88.7045 -1.33853,89.1487 C-1.14369,89.5462 -0.999512,90.3801 -0.90599,91.6504 L-3.73502,91.6504 Z M8.03701,87.0211 C7.39015,86.6704 6.72381,86.495 6.03799,86.495 C5.0638,86.495 4.27277,86.8029 3.66488,87.4186 C3.06478,88.042 2.76473,88.8409 2.76473,89.815 C2.76473,90.5398 2.92839,91.1594 3.25572,91.6738 C3.59084,92.1726 4.2299,92.7883 5.17291,93.5208 C5.44568,93.7391 5.67559,93.9358 5.86263,94.1112 C6.04968,94.2865 6.18606,94.4405 6.27179,94.573 C6.45883,94.8457 6.55236,95.1692 6.55236,95.5432 C6.55236,96.5486 6.04188,97.0513 5.02094,97.0513 C4.44422,97.0513 3.83244,96.8097 3.18558,96.3265 L3.18558,98.4892 C3.84802,98.8711 4.50267,99.062 5.14953,99.062 C6.20165,99.062 7.03945,98.7386 7.66293,98.0917 C8.2942,97.4371 8.60983,96.5681 8.60983,95.4848 C8.60983,94.7366 8.45786,94.117 8.15391,93.6261 C8.00584,93.3767 7.79152,93.1117 7.51095,92.8311 C7.23039,92.5506 6.87968,92.2466 6.45883,91.9193 C5.41451,91.1243 4.89235,90.4385 4.89235,89.8618 C4.89235,89.6748 4.92937,89.4975 5.0034,89.3299 C5.07744,89.1623 5.17876,89.0182 5.30735,88.8974 C5.43594,88.7766 5.58597,88.6811 5.75742,88.611 C5.92888,88.5408 6.11592,88.5057 6.31855,88.5057 C6.91865,88.5057 7.49147,88.7084 8.03701,89.1136 L8.03701,87.0211 Z M15.4837,98.8749 L17.9152,98.8749 L17.9152,80.8253 L15.4837,80.8253 L15.4837,98.8749 Z M25.2567,88.2252 C24.9138,87.6095 24.5864,87.1809 24.2747,86.9393 C23.963,86.6977 23.5577,86.5769 23.0589,86.5769 C22.0068,86.5769 21.2547,87.0795 20.8027,88.0849 C20.3429,89.137 20.113,90.7697 20.113,92.9831 C20.113,95.0717 20.3526,96.6071 20.8319,97.589 C21.3112,98.571 22.0575,99.062 23.0706,99.062 C24.0526,99.062 24.7813,98.5087 25.2567,97.402 L25.2567,99.7283 C25.2567,100.656 25.1593,101.275 24.9644,101.587 C24.7774,101.914 24.4228,102.078 23.9006,102.078 C22.942,102.078 22.4627,101.435 22.4627,100.149 L20.3,100.149 L20.2883,100.523 C20.2883,101.575 20.6001,102.413 21.2236,103.037 C21.8392,103.652 22.6887,103.96 23.772,103.96 C25.4164,103.96 26.5114,103.43 27.057,102.37 C27.3531,101.794 27.5012,100.757 27.5012,99.2607 L27.5012,86.7756 L25.2567,86.7756 L25.2567,88.2252 Z M25.2917,92.9363 C25.2917,94.534 25.1943,95.6095 24.9995,96.1628 C24.8047,96.7551 24.45,97.0513 23.9357,97.0513 C23.3901,97.0513 23.0005,96.7201 22.7667,96.0576 C22.5407,95.3406 22.4276,94.2223 22.4276,92.7025 C22.4276,91.2685 22.5368,90.2262 22.755,89.5754 C22.9732,88.9246 23.32,88.5993 23.7954,88.5993 C24.793,88.5993 25.2917,90.045 25.2917,92.9363 Z M30.0263,94.7717 C30.0263,96.3148 30.299,97.4176 30.8446,98.08 C31.3901,98.7347 32.3098,99.062 33.6035,99.062 C35.2479,99.062 36.3312,98.5087 36.8534,97.402 C37.1027,96.8331 37.2274,95.703 37.2274,94.0118 L37.2274,86.7756 L34.9946,86.7756 L34.9946,94.0118 L34.9946,94.9821 C34.9946,95.7147 34.8933,96.2291 34.6907,96.5252 C34.488,96.8058 34.1334,96.9461 33.6269,96.9461 C33.1437,96.9461 32.7988,96.7863 32.5923,96.4668 C32.3857,96.1472 32.2747,95.6134 32.2591,94.8652 L32.2591,86.7756 L30.0263,86.7756 L30.0263,94.7717 Z M44.4286,86.7756 L44.4286,88.1433 C43.8675,87.099 43.1271,86.5769 42.2075,86.5769 C41.2021,86.5769 40.4656,87.0698 39.998,88.0557 C39.5304,89.0415 39.2966,90.5827 39.2966,92.6791 C39.2966,94.8769 39.5304,96.4901 39.998,97.5189 C40.4656,98.5476 41.2021,99.062 42.2075,99.062 C42.7296,99.062 43.1505,98.9373 43.47,98.6879 C43.7895,98.4385 44.1091,97.9826 44.4286,97.3202 L44.4286,98.8749 L46.6614,98.8749 L46.6614,86.7756 L44.4286,86.7756 Z M41.6113,92.7727 C41.6113,91.1906 41.7204,90.1112 41.9386,89.5345 C42.1646,88.911 42.5426,88.5993 43.0725,88.5993 C43.5713,88.5993 43.9337,88.9266 44.1597,89.5812 C44.3857,90.2827 44.4987,91.3659 44.4987,92.8311 C44.4987,94.2885 44.3857,95.3679 44.1597,96.0693 C43.9337,96.724 43.5713,97.0513 43.0725,97.0513 C42.527,97.0513 42.1451,96.7356 41.9269,96.1044 C41.7165,95.4731 41.6113,94.3625 41.6113,92.7727 Z M49.1982,98.8749 L51.4427,98.8749 L51.4427,86.7756 L49.1982,86.7756 L49.1982,98.8749 Z M50.2503,81.6319 C49.8451,81.6319 49.4827,81.78 49.1631,82.0761 C48.867,82.3723 48.7189,82.723 48.7189,83.1283 C48.7189,83.5647 48.8631,83.9271 49.1514,84.2154 C49.4476,84.5116 49.8061,84.6597 50.2269,84.6597 C50.6478,84.6597 51.0063,84.5116 51.3024,84.2154 C51.5986,83.9193 51.7467,83.5608 51.7467,83.1399 C51.7467,82.7269 51.5986,82.3723 51.3024,82.0761 C51.0063,81.78 50.6556,81.6319 50.2503,81.6319 Z M58.6322,87.0211 C57.9853,86.6704 57.319,86.495 56.6332,86.495 C55.659,86.495 54.8679,86.8029 54.2601,87.4186 C53.66,88.042 53.3599,88.8409 53.3599,89.815 C53.3599,90.5398 53.5236,91.1594 53.8509,91.6738 C54.186,92.1726 54.8251,92.7883 55.7681,93.5208 C56.0409,93.7391 56.2708,93.9358 56.4578,94.1112 C56.6449,94.2865 56.7812,94.4405 56.867,94.573 C57.054,94.8457 57.1475,95.1692 57.1475,95.5432 C57.1475,96.5486 56.6371,97.0513 55.6161,97.0513 C55.0394,97.0513 54.4276,96.8097 53.7808,96.3265 L53.7808,98.4892 C54.4432,98.8711 55.0979,99.062 55.7447,99.062 C56.7968,99.062 57.6346,98.7386 58.2581,98.0917 C58.8894,97.4371 59.205,96.5681 59.205,95.4848 C59.205,94.7366 59.053,94.117 58.7491,93.6261 C58.601,93.3767 58.3867,93.1117 58.1061,92.8311 C57.8256,92.5506 57.4749,92.2466 57.054,91.9193 C56.0097,91.1243 55.4875,90.4385 55.4875,89.8618 C55.4875,89.6748 55.5245,89.4975 55.5986,89.3299 C55.6726,89.1623 55.7739,89.0182 55.9025,88.8974 C56.0311,88.7766 56.1811,88.6811 56.3526,88.611 C56.5241,88.5408 56.7111,88.5057 56.9137,88.5057 C57.5138,88.5057 58.0866,88.7084 58.6322,89.1136 L58.6322,87.0211 Z " fill="#865f3e" fill-opacity="1.00" />			</g>		</g>	</svg>