<?xml version="1.0" encoding="utf-8" ?>	<!-- Generator: Assembly 2.4 - http://assemblyapp.co -->	<svg version="1.1" xmlns="http://www.w3.org/2000/svg" xmlns:xlink="http://www.w3.org/1999/xlink" width="500.00" height="500.00" viewBox="0 0 500.0 500.0">		<g id="document" transform="scale(1.6666666666666667 1.6666666666666667) translate(150.0 150.0)">			<g>				<path d="M-0.00105543,67.6627 C51.8993,67.6627 93.9139,25.6481 93.9139,-26.2523 C93.9139,-78.1526 51.8993,-120.167 -0.0010556,-120.167 C-51.9014,-120.167 -93.916,-78.1526 -93.916,-26.2523 C-93.916,25.6481 -51.9014,67.6627 -0.00105543,67.6627 Z " fill="#865f3e" fill-opacity="1.00" stroke-width="0.04" stroke="#000000" stroke-linecap="square" stroke-linejoin="miter" />				<path d="M-68.6263,-26.2523 L68.6241,-26.2523 " fill="none" stroke-width="2.00" stroke="#ffffff" stroke-linecap="square" stroke-linejoin="miter" />				<path d="M-8.91092,-44.472 L-8.91092,-8.0325 M-0.00105644,-44.472 L-0.00105641,-8.0325 M8.90881,-44.472 L8.90881,-8.0325 " fill="none" stroke-width="2.00" stroke="#ffffff" stroke-linecap="square" stroke-linejoin="miter" />				<path d="M8.90881,-44.472 L8.90881,-8.0325 M17.8187,-44.472 L17.8187,-8.0325 M26.7285,-44.472 L26.7285,-8.0325 " fill="none" stroke-width="2.00" stroke="#ffffff" stroke-linecap="square" stroke-linejoin="miter" />				<path d="M-26.7306,-44.472 L-26.7306,-8.0325 M-17.8208,-44.472 L-17.8208,-8.0325 M-8.91092,-44.472 L-8.91092,-8.0325 " fill="none" stroke-width="2.00" stroke="#ffffff" stroke-linecap="square" stroke-linejoin="miter" />				<path d="M-44.5504,-44.472 L-44.5504,-8.0325 M-35.6405,-44.472 L-35.6405,-8.0325 M-26.7306,-44.472 L-26.7306,-8.0325 " fill="none" stroke-width="2.00" stroke="#ffffff" stroke-linecap="square" stroke-linejoin="miter" />				<path d="M26.7285,-44.472 L26.7285,-8.0325 M35.6384,-44.472 L35.6384,-8.0325 M44.5483,-44.472 L44.5483,-8.0325 " fill="none" stroke-width="2.00" stroke="#ffffff" stroke-linecap="square" stroke-linejoin="miter" />			</g>			<path d="M-89.2795,104.39 L-89.1904,113.613 C-89.1735,115.242 -88.8978,116.69 -88.3635,117.958 C-87.8291,119.226 -87.0276,120.223 -85.9589,120.948 C-84.8902,121.673 -83.5374,122.036 -81.9004,122.036 C-79.3644,122.036 -77.4666,121.294 -76.2071,119.809 C-74.9476,118.325 -74.3178,116.311 -74.3178,113.766 L-74.3433,104.364 L-74.3433,104.351 C-74.3433,104.004 -74.4705,103.709 -74.7249,103.467 C-74.9794,103.226 -75.2805,103.105 -75.6282,103.105 C-75.976,103.105 -76.2728,103.226 -76.5188,103.467 C-76.7648,103.709 -76.8878,104.004 -76.8878,104.351 L-76.8878,104.364 L-76.8623,113.766 C-76.8623,114.894 -77.0277,115.891 -77.3585,116.756 C-77.6893,117.621 -78.2279,118.295 -78.9742,118.779 C-79.7206,119.262 -80.713,119.504 -81.9513,119.504 C-83.6222,119.504 -84.8181,118.974 -85.5391,117.914 C-86.26,116.853 -86.629,115.407 -86.6459,113.575 L-86.735,104.377 C-86.7435,103.978 -86.8686,103.671 -87.1103,103.455 C-87.352,103.238 -87.6722,103.13 -88.0708,103.13 C-88.3931,103.13 -88.6752,103.257 -88.9169,103.512 C-89.1586,103.766 -89.2795,104.055 -89.2795,104.377 L-89.2795,104.39 Z M-69.8268,108.69 C-69.9285,108.342 -70.0727,108.043 -70.2593,107.793 C-70.4459,107.543 -70.7131,107.418 -71.0608,107.418 C-71.4086,107.418 -71.6779,107.543 -71.8687,107.793 C-72.0596,108.043 -72.155,108.342 -72.155,108.69 L-72.1295,120.382 C-72.1295,120.738 -72.0066,121.041 -71.7606,121.292 C-71.5146,121.542 -71.2135,121.667 -70.8573,121.667 C-70.5095,121.667 -70.2106,121.542 -69.9604,121.292 C-69.7101,121.041 -69.585,120.742 -69.585,120.395 L-69.5978,115.318 C-69.6062,113.69 -69.2733,112.396 -68.599,111.438 C-67.9248,110.48 -66.96,110 -65.7047,110 C-65.1788,110 -64.7462,110.147 -64.407,110.439 C-64.0677,110.732 -63.8175,111.065 -63.6564,111.438 C-63.5122,111.76 -63.4167,112.133 -63.3701,112.558 C-63.3234,112.982 -63.3001,113.444 -63.3001,113.944 L-63.3001,120.369 C-63.3001,120.717 -63.175,121.016 -62.9248,121.266 C-62.6746,121.516 -62.3756,121.641 -62.0279,121.641 C-61.6801,121.641 -61.3811,121.516 -61.1309,121.266 C-60.8807,121.016 -60.7556,120.717 -60.7556,120.369 L-60.7556,113.944 C-60.7556,113.41 -60.7832,112.84 -60.8383,112.233 C-60.8934,111.627 -61.0567,111.014 -61.3281,110.395 C-61.6759,109.614 -62.2187,108.929 -62.9566,108.34 C-63.6945,107.751 -64.619,107.456 -65.7301,107.456 C-66.5783,107.456 -67.3226,107.676 -67.9629,108.117 C-68.6033,108.558 -69.1525,109.004 -69.6105,109.453 L-69.8268,108.69 Z M-56.9643,106.133 C-56.6166,106.133 -56.3324,106.001 -56.1119,105.738 C-55.8914,105.475 -55.7811,105.178 -55.7811,104.848 L-55.7938,104.084 C-55.8023,103.737 -55.9274,103.44 -56.1692,103.194 C-56.4109,102.948 -56.7099,102.825 -57.0661,102.825 C-57.329,102.825 -57.6047,102.924 -57.8931,103.124 C-58.1814,103.323 -58.3256,103.584 -58.3256,103.906 L-58.3002,104.873 C-58.2917,105.229 -58.1645,105.528 -57.9185,105.77 C-57.6725,106.012 -57.3545,106.133 -56.9643,106.133 Z M-58.3129,120.433 C-58.3129,120.772 -58.1899,121.063 -57.9439,121.304 C-57.698,121.546 -57.3969,121.667 -57.0406,121.667 C-56.6929,121.667 -56.3939,121.548 -56.1437,121.311 C-55.8935,121.073 -55.7684,120.785 -55.7684,120.445 L-55.7938,108.664 L-55.7938,108.652 C-55.7938,108.287 -55.9253,107.994 -56.1882,107.774 C-56.4512,107.553 -56.7692,107.443 -57.1424,107.443 C-57.3969,107.443 -57.6598,107.545 -57.9312,107.748 C-58.2026,107.952 -58.3383,108.215 -58.3383,108.537 L-58.3129,120.433 Z M-53.9236,114.53 C-53.9236,115.471 -53.7582,116.366 -53.4275,117.214 C-53.0967,118.062 -52.6302,118.815 -52.028,119.472 C-51.4258,120.13 -50.7197,120.649 -49.9097,121.031 C-49.0997,121.412 -48.2155,121.603 -47.257,121.603 C-46.4682,121.603 -45.6773,121.404 -44.8843,121.005 C-44.0913,120.607 -43.453,120.06 -42.9696,119.364 L-42.8169,120.395 C-42.766,120.742 -42.6536,121.041 -42.4797,121.292 C-42.3059,121.542 -42.0451,121.667 -41.6973,121.667 C-41.3496,121.667 -41.0506,121.542 -40.8004,121.292 C-40.5502,121.041 -40.4251,120.742 -40.4251,120.395 L-40.4251,104.148 C-40.4251,103.8 -40.5502,103.501 -40.8004,103.251 C-41.0506,103.001 -41.3496,102.876 -41.6973,102.876 C-42.0451,102.876 -42.344,103.001 -42.5942,103.251 C-42.8444,103.501 -42.9696,103.8 -42.9696,104.148 L-42.9696,109.504 C-43.5124,108.868 -44.1273,108.363 -44.8143,107.99 C-45.5013,107.617 -46.2859,107.43 -47.168,107.43 C-48.0331,107.43 -48.8686,107.596 -49.6743,107.927 C-50.4801,108.257 -51.1925,108.724 -51.8117,109.326 C-52.5072,110.021 -53.0331,110.823 -53.3893,111.731 C-53.7455,112.638 -53.9236,113.571 -53.9236,114.53 Z M-47.2825,119.059 C-48.0628,119.059 -48.7647,118.847 -49.3881,118.423 C-50.0115,117.999 -50.5013,117.441 -50.8575,116.75 C-51.2137,116.058 -51.3919,115.318 -51.3919,114.53 C-51.3919,113.741 -51.2116,112.996 -50.8511,112.297 C-50.4907,111.597 -49.9945,111.029 -49.3626,110.592 C-48.7307,110.155 -48.0161,109.937 -47.2189,109.937 C-46.4046,109.937 -45.6858,110.144 -45.0624,110.56 C-44.439,110.976 -43.9492,111.527 -43.593,112.214 C-43.2367,112.901 -43.0586,113.652 -43.0586,114.466 C-43.0586,115.06 -43.1625,115.641 -43.3703,116.209 C-43.5781,116.777 -43.8729,117.273 -44.2545,117.697 C-44.6362,118.113 -45.0985,118.444 -45.6413,118.69 C-46.1841,118.936 -46.7312,119.059 -47.2825,119.059 Z M-31.2267,107.379 C-32.219,107.379 -33.1372,107.572 -33.9811,107.958 C-34.825,108.344 -35.5629,108.874 -36.1948,109.549 C-36.8267,110.223 -37.3186,110.991 -37.6706,111.851 C-38.0226,112.712 -38.1986,113.613 -38.1986,114.555 C-38.1986,115.505 -38.0184,116.408 -37.6579,117.265 C-37.2974,118.121 -36.7991,118.881 -36.163,119.542 C-35.5269,120.204 -34.789,120.723 -33.9493,121.101 C-33.1096,121.478 -32.2106,121.667 -31.2521,121.667 C-30.3955,121.667 -29.5431,121.482 -28.6949,121.113 C-27.8467,120.744 -27.2021,120.183 -26.7611,119.428 L-26.6211,120.445 C-26.6211,120.793 -26.5194,121.092 -26.3158,121.342 C-26.1122,121.593 -25.8366,121.718 -25.4888,121.718 C-25.1411,121.718 -24.8421,121.593 -24.5919,121.342 C-24.3417,121.092 -24.2166,120.793 -24.2166,120.445 L-24.1911,108.664 L-24.1911,108.639 C-24.1911,108.291 -24.3162,107.992 -24.5664,107.742 C-24.8167,107.492 -25.1156,107.367 -25.4634,107.367 C-25.8111,107.367 -26.0868,107.492 -26.2903,107.742 C-26.4939,107.992 -26.5957,108.291 -26.5957,108.639 L-26.7356,109.86 C-26.9646,109.462 -27.3145,109.074 -27.7852,108.696 C-28.256,108.319 -28.7903,108.005 -29.3883,107.755 C-29.9862,107.505 -30.599,107.379 -31.2267,107.379 Z M-26.8374,114.53 C-26.8374,115.344 -27.0346,116.101 -27.429,116.8 C-27.8234,117.5 -28.3535,118.062 -29.0193,118.486 C-29.6851,118.91 -30.4252,119.122 -31.2394,119.122 C-32.0536,119.122 -32.7979,118.91 -33.4722,118.486 C-34.1465,118.062 -34.683,117.5 -35.0816,116.8 C-35.4802,116.101 -35.6796,115.34 -35.6796,114.517 C-35.6796,113.703 -35.4845,112.946 -35.0943,112.246 C-34.7042,111.546 -34.1741,110.984 -33.504,110.56 C-32.834,110.136 -32.0833,109.924 -31.2521,109.924 C-30.404,109.924 -29.6491,110.136 -28.9875,110.56 C-28.3259,110.984 -27.8022,111.544 -27.4163,112.239 C-27.0304,112.935 -26.8374,113.698 -26.8374,114.53 Z M-22.2828,114.53 C-22.2828,115.471 -22.1174,116.366 -21.7866,117.214 C-21.4558,118.062 -20.9893,118.815 -20.3871,119.472 C-19.7849,120.13 -19.0788,120.649 -18.2688,121.031 C-17.4588,121.412 -16.5746,121.603 -15.6162,121.603 C-14.8274,121.603 -14.0365,121.404 -13.2434,121.005 C-12.4504,120.607 -11.8121,120.06 -11.3287,119.364 L-11.176,120.395 C-11.1251,120.742 -11.0127,121.041 -10.8389,121.292 C-10.665,121.542 -10.4042,121.667 -10.0564,121.667 C-9.70868,121.667 -9.4097,121.542 -9.15949,121.292 C-8.90928,121.041 -8.78418,120.742 -8.78418,120.395 L-8.78418,104.148 C-8.78418,103.8 -8.90928,103.501 -9.15949,103.251 C-9.4097,103.001 -9.70868,102.876 -10.0564,102.876 C-10.4042,102.876 -10.7032,103.001 -10.9534,103.251 C-11.2036,103.501 -11.3287,103.8 -11.3287,104.148 L-11.3287,109.504 C-11.8715,108.868 -12.4864,108.363 -13.1734,107.99 C-13.8605,107.617 -14.645,107.43 -15.5271,107.43 C-16.3922,107.43 -17.2277,107.596 -18.0334,107.927 C-18.8392,108.257 -19.5517,108.724 -20.1708,109.326 C-20.8663,110.021 -21.3922,110.823 -21.7484,111.731 C-22.1046,112.638 -22.2828,113.571 -22.2828,114.53 Z M-15.6416,119.059 C-16.4219,119.059 -17.1238,118.847 -17.7472,118.423 C-18.3706,117.999 -18.8604,117.441 -19.2166,116.75 C-19.5729,116.058 -19.751,115.318 -19.751,114.53 C-19.751,113.741 -19.5707,112.996 -19.2103,112.297 C-18.8498,111.597 -18.3536,111.029 -17.7217,110.592 C-17.0899,110.155 -16.3753,109.937 -15.578,109.937 C-14.7638,109.937 -14.0449,110.144 -13.4215,110.56 C-12.7981,110.976 -12.3083,111.527 -11.9521,112.214 C-11.5959,112.901 -11.4177,113.652 -11.4177,114.466 C-11.4177,115.06 -11.5216,115.641 -11.7294,116.209 C-11.9372,116.777 -12.232,117.273 -12.6137,117.697 C-12.9953,118.113 -13.4576,118.444 -14.0004,118.69 C-14.5432,118.936 -15.0903,119.059 -15.6416,119.059 Z M-0.107428,107.481 C-1.03193,107.481 -1.89706,107.67 -2.70282,108.047 C-3.50858,108.425 -4.21468,108.94 -4.82112,109.593 C-5.42756,110.246 -5.90041,110.991 -6.23968,111.826 C-6.57894,112.661 -6.74858,113.541 -6.74858,114.466 C-6.74858,115.424 -6.57682,116.334 -6.23332,117.195 C-5.88981,118.056 -5.40847,118.817 -4.78931,119.479 C-4.17015,120.14 -3.44285,120.662 -2.6074,121.043 C-1.77196,121.425 -0.866538,121.616 0.108854,121.616 C1.32173,121.616 2.3883,121.334 3.30856,120.77 C4.22883,120.206 4.95189,119.538 5.47775,118.766 C5.63042,118.554 5.70676,118.312 5.70676,118.041 C5.70676,117.693 5.58165,117.392 5.33144,117.138 C5.08123,116.883 4.78226,116.756 4.43451,116.756 C4.24791,116.756 4.05071,116.811 3.84291,116.921 C3.63511,117.032 3.48032,117.167 3.37854,117.328 C3.05623,117.795 2.60671,118.206 2.02995,118.563 C1.4532,118.919 0.80011,119.097 0.0706867,119.097 C-0.607847,119.097 -1.23337,118.931 -1.80588,118.601 C-2.3784,118.27 -2.86397,117.837 -3.26261,117.303 C-3.66125,116.769 -3.93266,116.196 -4.07685,115.585 L4.81618,115.573 C5.13,115.573 5.41202,115.465 5.66223,115.248 C5.91244,115.032 6.05451,114.767 6.08843,114.453 C6.11388,114.207 6.1266,113.965 6.1266,113.728 C6.1266,112.574 5.84034,111.525 5.26783,110.579 C4.69532,109.633 3.93833,108.881 2.99686,108.321 C2.0554,107.761 1.02063,107.481 -0.107428,107.481 Z M-3.98779,113.041 C-3.74182,112.235 -3.26473,111.531 -2.55651,110.929 C-1.84829,110.327 -1.03193,110.026 -0.107428,110.026 C0.80011,110.026 1.58891,110.318 2.25896,110.904 C2.92901,111.489 3.34461,112.197 3.50576,113.028 L-3.98779,113.041 Z M14.5362,107.418 C13.8237,107.418 13.1049,107.502 12.3797,107.672 C11.6545,107.842 10.9866,108.103 10.3759,108.455 C9.76524,108.806 9.27542,109.258 8.90647,109.809 C8.53752,110.361 8.35304,111.018 8.35304,111.781 C8.35304,112.63 8.56508,113.308 8.98916,113.817 C9.41325,114.326 9.96668,114.716 10.6495,114.988 C11.3322,115.259 12.0723,115.456 12.8695,115.579 C13.6668,115.702 14.4386,115.802 15.185,115.878 C15.5752,115.92 15.9971,115.967 16.4509,116.018 C16.9047,116.069 17.2948,116.177 17.6214,116.342 C17.9479,116.508 18.1112,116.777 18.1112,117.15 C18.1112,117.634 17.9225,118.015 17.545,118.295 C17.1676,118.575 16.7054,118.772 16.1583,118.887 C15.6112,119.001 15.0832,119.059 14.5743,119.059 C13.6159,119.059 12.7911,118.915 12.0998,118.626 C11.4086,118.338 10.8975,117.871 10.5668,117.227 C10.4735,117.032 10.3144,116.864 10.0897,116.724 C9.8649,116.584 9.64225,116.514 9.42173,116.514 C9.07398,116.514 8.775,116.639 8.52479,116.89 C8.27458,117.14 8.14948,117.439 8.14948,117.786 C8.14948,117.982 8.20037,118.181 8.30215,118.384 C8.84498,119.436 9.68254,120.236 10.8148,120.783 C11.9471,121.33 13.2046,121.603 14.5871,121.603 C15.5964,121.603 16.5633,121.446 17.4878,121.132 C18.4123,120.819 19.1714,120.335 19.7651,119.682 C20.3588,119.029 20.6557,118.189 20.6557,117.163 C20.6557,116.442 20.5052,115.848 20.2041,115.382 C19.903,114.915 19.498,114.546 18.9891,114.275 C18.4802,114.004 17.9204,113.798 17.3097,113.658 C16.699,113.518 16.0798,113.414 15.4522,113.346 C15.1299,113.312 14.7143,113.272 14.2054,113.225 C13.6965,113.179 13.1897,113.105 12.6851,113.003 C12.1804,112.901 11.7563,112.755 11.4128,112.564 C11.0693,112.373 10.8975,112.112 10.8975,111.781 C10.8975,111.332 11.1053,110.976 11.5209,110.713 C11.9365,110.45 12.4285,110.259 12.9968,110.14 C13.565,110.021 14.0739,109.962 14.5235,109.962 C15.2953,109.962 15.9611,110.094 16.5209,110.357 C17.0807,110.619 17.5005,111.014 17.7804,111.54 C17.8737,111.726 18.0327,111.89 18.2575,112.03 C18.4823,112.169 18.7007,112.239 18.9127,112.239 C19.2605,112.239 19.5594,112.114 19.8097,111.864 C20.0599,111.614 20.185,111.315 20.185,110.967 C20.185,110.738 20.1341,110.535 20.0323,110.357 C19.5573,109.457 18.8258,108.743 17.8377,108.213 C16.8496,107.683 15.7491,107.418 14.5362,107.418 Z M31.6098,121.501 C31.9575,121.501 32.2565,121.376 32.5067,121.126 C32.7569,120.876 32.882,120.577 32.882,120.229 L32.8693,104.313 C32.8693,103.949 32.7442,103.645 32.494,103.404 C32.2438,103.162 31.9236,103.041 31.5334,103.041 C31.2027,103.041 30.9185,103.173 30.681,103.435 C30.4436,103.698 30.3248,103.991 30.3248,104.313 L30.3375,120.229 C30.3375,120.577 30.4626,120.876 30.7128,121.126 C30.9631,121.376 31.262,121.501 31.6098,121.501 Z M46.9531,107.392 C46.5969,107.392 46.3424,107.519 46.1898,107.774 C46.0371,108.028 45.9268,108.329 45.859,108.677 L45.6682,109.695 C45.1762,108.932 44.5783,108.363 43.8743,107.99 C43.1703,107.617 42.4154,107.43 41.6097,107.43 C40.6767,107.43 39.8158,107.621 39.027,108.003 C38.2382,108.385 37.5512,108.902 36.966,109.555 C36.3807,110.208 35.9248,110.952 35.5983,111.788 C35.2717,112.623 35.1085,113.499 35.1085,114.415 C35.1085,115.331 35.2717,116.219 35.5983,117.08 C35.9248,117.941 36.3807,118.711 36.966,119.389 C37.5512,120.068 38.2403,120.607 39.0334,121.005 C39.8264,121.404 40.6852,121.603 41.6097,121.603 C42.3476,121.603 43.0706,121.457 43.7789,121.164 C44.4871,120.872 45.0914,120.335 45.5918,119.555 L45.5918,120.802 C45.5918,121.607 45.3819,122.35 44.9621,123.028 C44.5422,123.707 43.9867,124.249 43.2954,124.657 C42.6041,125.064 41.8472,125.267 41.0244,125.267 C40.3544,125.267 39.6949,125.11 39.0461,124.797 C38.3972,124.483 37.8608,124.063 37.4367,123.537 C37.3264,123.393 37.1716,123.274 36.9723,123.181 C36.773,123.088 36.5885,123.041 36.4189,123.041 C36.0711,123.041 35.7722,123.166 35.522,123.416 C35.2717,123.666 35.1466,123.965 35.1466,124.313 C35.1466,124.61 35.2442,124.881 35.4393,125.127 C36.1178,125.976 36.9469,126.635 37.9265,127.106 C38.9061,127.576 39.9345,127.812 41.0117,127.812 C41.9701,127.812 42.8756,127.629 43.728,127.265 C44.5804,126.9 45.3374,126.395 45.9989,125.751 C46.6605,125.106 47.18,124.364 47.5574,123.524 C47.9349,122.685 48.1278,121.79 48.1363,120.84 L48.2254,108.69 L48.2254,108.664 C48.2254,108.317 48.1003,108.018 47.8501,107.767 C47.5999,107.517 47.3009,107.392 46.9531,107.392 Z M45.5664,114.428 C45.5664,115.2 45.3946,115.94 45.0511,116.648 C44.7076,117.356 44.2369,117.935 43.6389,118.384 C43.041,118.834 42.3645,119.059 41.6097,119.059 C40.8463,119.059 40.1678,118.83 39.5741,118.372 C38.9804,117.914 38.5139,117.331 38.1746,116.622 C37.8353,115.914 37.6657,115.178 37.6657,114.415 C37.6657,113.643 37.8374,112.92 38.181,112.246 C38.5245,111.572 38.9952,111.024 39.5932,110.605 C40.1911,110.185 40.876,109.975 41.6478,109.975 C42.4027,109.975 43.0749,110.187 43.6644,110.611 C44.2538,111.035 44.7182,111.584 45.0575,112.259 C45.3967,112.933 45.5664,113.656 45.5664,114.428 Z M59.7774,120.42 C59.8792,120.768 60.0234,121.067 60.21,121.317 C60.3966,121.567 60.6637,121.692 61.0115,121.692 C61.3592,121.692 61.6285,121.567 61.8194,121.317 C62.0102,121.067 62.1056,120.768 62.1056,120.42 L62.0802,108.728 C62.0802,108.372 61.9572,108.069 61.7112,107.818 C61.4653,107.568 61.1642,107.443 60.8079,107.443 C60.4602,107.443 60.1612,107.568 59.911,107.818 C59.6608,108.069 59.5357,108.368 59.5357,108.715 L59.5484,113.792 C59.5569,115.42 59.224,116.714 58.5497,117.672 C57.8754,118.63 56.9106,119.11 55.6553,119.11 C55.1379,119.11 54.7096,118.963 54.3703,118.671 C54.0311,118.378 53.7766,118.045 53.607,117.672 C53.4628,117.35 53.3674,116.974 53.3207,116.546 C53.2741,116.118 53.2508,115.658 53.2508,115.166 L53.2508,108.741 C53.2508,108.393 53.1257,108.094 52.8755,107.844 C52.6252,107.594 52.3263,107.469 51.9785,107.469 C51.6308,107.469 51.3318,107.594 51.0816,107.844 C50.8314,108.094 50.7063,108.393 50.7063,108.741 L50.7063,115.166 C50.7063,115.7 50.7338,116.27 50.789,116.877 C50.8441,117.483 51.0074,118.096 51.2788,118.715 C51.6265,119.496 52.1694,120.18 52.9073,120.77 C53.6452,121.359 54.5697,121.654 55.6808,121.654 C56.5374,121.654 57.2838,121.431 57.9199,120.986 C58.5561,120.541 59.1031,120.098 59.5611,119.657 L59.7774,120.42 Z M71.2277,107.379 C70.2353,107.379 69.3172,107.572 68.4732,107.958 C67.6293,108.344 66.8914,108.874 66.2595,109.549 C65.6276,110.223 65.1357,110.991 64.7837,111.851 C64.4317,112.712 64.2557,113.613 64.2557,114.555 C64.2557,115.505 64.436,116.408 64.7964,117.265 C65.1569,118.121 65.6552,118.881 66.2913,119.542 C66.9275,120.204 67.6654,120.723 68.5051,121.101 C69.3447,121.478 70.2438,121.667 71.2022,121.667 C72.0589,121.667 72.9113,121.482 73.7594,121.113 C74.6076,120.744 75.2522,120.183 75.6933,119.428 L75.8332,120.445 C75.8332,120.793 75.935,121.092 76.1386,121.342 C76.3421,121.593 76.6178,121.718 76.9655,121.718 C77.3133,121.718 77.6122,121.593 77.8625,121.342 C78.1127,121.092 78.2378,120.793 78.2378,120.445 L78.2632,108.664 L78.2632,108.639 C78.2632,108.291 78.1381,107.992 77.8879,107.742 C77.6377,107.492 77.3387,107.367 76.991,107.367 C76.6432,107.367 76.3676,107.492 76.164,107.742 C75.9604,107.992 75.8587,108.291 75.8587,108.639 L75.7187,109.86 C75.4897,109.462 75.1398,109.074 74.6691,108.696 C74.1984,108.319 73.664,108.005 73.0661,107.755 C72.4681,107.505 71.8553,107.379 71.2277,107.379 Z M75.6169,114.53 C75.6169,115.344 75.4197,116.101 75.0253,116.8 C74.6309,117.5 74.1008,118.062 73.435,118.486 C72.7692,118.91 72.0292,119.122 71.2149,119.122 C70.4007,119.122 69.6564,118.91 68.9821,118.486 C68.3079,118.062 67.7714,117.5 67.3727,116.8 C66.9741,116.101 66.7748,115.34 66.7748,114.517 C66.7748,113.703 66.9699,112.946 67.36,112.246 C67.7502,111.546 68.2803,110.984 68.9503,110.56 C69.6204,110.136 70.371,109.924 71.2022,109.924 C72.0504,109.924 72.8053,110.136 73.4668,110.56 C74.1284,110.984 74.6521,111.544 75.0381,112.239 C75.424,112.935 75.6169,113.698 75.6169,114.53 Z M82.1181,106.133 C82.4659,106.133 82.75,106.001 82.9705,105.738 C83.1911,105.475 83.3013,105.178 83.3013,104.848 L83.2886,104.084 C83.2801,103.737 83.155,103.44 82.9133,103.194 C82.6716,102.948 82.3726,102.825 82.0164,102.825 C81.7534,102.825 81.4778,102.924 81.1894,103.124 C80.901,103.323 80.7568,103.584 80.7568,103.906 L80.7823,104.873 C80.7908,105.229 80.918,105.528 81.1639,105.77 C81.4099,106.012 81.728,106.133 82.1181,106.133 Z M80.7695,120.433 C80.7695,120.772 80.8925,121.063 81.1385,121.304 C81.3845,121.546 81.6856,121.667 82.0418,121.667 C82.3895,121.667 82.6885,121.548 82.9387,121.311 C83.1889,121.073 83.314,120.785 83.314,120.445 L83.2886,108.664 L83.2886,108.652 C83.2886,108.287 83.1571,107.994 82.8942,107.774 C82.6313,107.553 82.3132,107.443 81.94,107.443 C81.6856,107.443 81.4226,107.545 81.1512,107.748 C80.8798,107.952 80.7441,108.215 80.7441,108.537 L80.7695,120.433 Z M92.1816,107.418 C91.4692,107.418 90.7504,107.502 90.0252,107.672 C89.3,107.842 88.6321,108.103 88.0214,108.455 C87.4107,108.806 86.9209,109.258 86.5519,109.809 C86.183,110.361 85.9985,111.018 85.9985,111.781 C85.9985,112.63 86.2105,113.308 86.6346,113.817 C87.0587,114.326 87.6121,114.716 88.2949,114.988 C88.9777,115.259 89.7177,115.456 90.515,115.579 C91.3123,115.702 92.0841,115.802 92.8305,115.878 C93.2206,115.92 93.6426,115.967 94.0964,116.018 C94.5501,116.069 94.9403,116.177 95.2668,116.342 C95.5934,116.508 95.7567,116.777 95.7567,117.15 C95.7567,117.634 95.5679,118.015 95.1905,118.295 C94.8131,118.575 94.3508,118.772 93.8038,118.887 C93.2567,119.001 92.7287,119.059 92.2198,119.059 C91.2614,119.059 90.4365,118.915 89.7453,118.626 C89.054,118.338 88.543,117.871 88.2122,117.227 C88.1189,117.032 87.9599,116.864 87.7351,116.724 C87.5104,116.584 87.2877,116.514 87.0672,116.514 C86.7194,116.514 86.4205,116.639 86.1703,116.89 C85.92,117.14 85.7949,117.439 85.7949,117.786 C85.7949,117.982 85.8458,118.181 85.9476,118.384 C86.4904,119.436 87.328,120.236 88.4603,120.783 C89.5926,121.33 90.85,121.603 92.2325,121.603 C93.2418,121.603 94.2088,121.446 95.1333,121.132 C96.0578,120.819 96.8169,120.335 97.4106,119.682 C98.0043,119.029 98.3012,118.189 98.3012,117.163 C98.3012,116.442 98.1506,115.848 97.8495,115.382 C97.5484,114.915 97.1434,114.546 96.6345,114.275 C96.1256,114.004 95.5658,113.798 94.9551,113.658 C94.3445,113.518 93.7253,113.414 93.0977,113.346 C92.7754,113.312 92.3598,113.272 91.8509,113.225 C91.342,113.179 90.8352,113.105 90.3305,113.003 C89.8259,112.901 89.4018,112.755 89.0583,112.564 C88.7148,112.373 88.543,112.112 88.543,111.781 C88.543,111.332 88.7508,110.976 89.1664,110.713 C89.582,110.45 90.0739,110.259 90.6422,110.14 C91.2105,110.021 91.7194,109.962 92.1689,109.962 C92.9407,109.962 93.6066,110.094 94.1663,110.357 C94.7261,110.619 95.146,111.014 95.4259,111.54 C95.5192,111.726 95.6782,111.89 95.903,112.03 C96.1277,112.169 96.3461,112.239 96.5582,112.239 C96.9059,112.239 97.2049,112.114 97.4551,111.864 C97.7053,111.614 97.8304,111.315 97.8304,110.967 C97.8304,110.738 97.7795,110.535 97.6778,110.357 C97.2028,109.457 96.4712,108.743 95.4831,108.213 C94.495,107.683 93.3945,107.418 92.1816,107.418 Z " fill="#865f3e" fill-opacity="1.00" />		</g>	</svg>