<?xml version="1.0" encoding="utf-8" ?>	<!-- Generator: Assembly 2.4 - http://assemblyapp.co -->	<svg version="1.1" xmlns="http://www.w3.org/2000/svg" xmlns:xlink="http://www.w3.org/1999/xlink" width="500.00" height="500.00" viewBox="0 0 500.0 500.0">		<g id="document" transform="scale(1.6666666666666667 1.6666666666666667) translate(150.0 150.0)">			<path d="M-105.983,110.918 C-105.599,110.918 -105.269,110.789 -104.992,110.532 C-104.716,110.274 -104.578,109.958 -104.578,109.584 L-104.578,109.57 L-104.592,103.404 L-102.205,103.348 C-100.669,103.301 -99.2999,103.053 -98.0968,102.604 C-96.8937,102.155 -95.9458,101.448 -95.2529,100.483 C-94.5601,99.519 -94.2137,98.2457 -94.2137,96.6634 C-94.2137,95.2777 -94.5437,94.1355 -95.2038,93.2367 C-95.8639,92.3379 -96.7533,91.6661 -97.8721,91.2214 C-98.991,90.7766 -100.234,90.5543 -101.601,90.5543 L-106.025,90.5824 C-106.474,90.5917 -106.818,90.7579 -107.057,91.0809 C-107.296,91.4039 -107.415,91.6918 -107.415,91.9446 L-107.387,109.542 L-107.387,109.556 C-107.387,109.93 -107.249,110.251 -106.973,110.518 C-106.696,110.785 -106.366,110.918 -105.983,110.918 Z M-97.0225,96.6774 C-97.0225,98.1474 -97.4812,99.1445 -98.3988,99.6688 C-99.3163,100.193 -100.599,100.474 -102.247,100.511 L-104.592,100.568 L-104.606,93.3771 L-101.699,93.3771 C-100.239,93.3771 -99.094,93.6346 -98.2654,94.1495 C-97.4368,94.6645 -97.0225,95.5071 -97.0225,96.6774 Z M-85.057,95.3292 C-86.115,95.3292 -87.1075,95.5375 -88.0344,95.9542 C-88.9613,96.3708 -89.7781,96.9419 -90.485,97.6675 C-91.1919,98.3931 -91.7466,99.2287 -92.1492,100.174 C-92.5518,101.12 -92.7531,102.126 -92.7531,103.194 C-92.7531,104.271 -92.5518,105.279 -92.1492,106.22 C-91.7466,107.161 -91.1919,107.987 -90.485,108.699 C-89.7781,109.411 -88.9589,109.968 -88.0273,110.37 C-87.0958,110.773 -86.1057,110.974 -85.057,110.974 C-83.9991,110.974 -83.0043,110.768 -82.0727,110.356 C-81.1411,109.944 -80.3219,109.38 -79.615,108.664 C-78.9081,107.948 -78.3534,107.119 -77.9508,106.178 C-77.5482,105.237 -77.3469,104.242 -77.3469,103.194 C-77.3469,102.126 -77.5459,101.12 -77.9438,100.174 C-78.3417,99.2287 -78.8918,98.3908 -79.594,97.6605 C-80.2962,96.9302 -81.113,96.3591 -82.0446,95.9471 C-82.9762,95.5352 -83.9803,95.3292 -85.057,95.3292 Z M-89.9162,103.222 C-89.9162,102.304 -89.7032,101.464 -89.2772,100.701 C-88.8512,99.938 -88.2731,99.3247 -87.5428,98.8613 C-86.8125,98.3978 -85.9839,98.1661 -85.057,98.1661 C-84.1395,98.1661 -83.3133,98.3955 -82.5783,98.8542 C-81.8433,99.313 -81.2605,99.9239 -80.8298,100.687 C-80.3991,101.45 -80.1838,102.286 -80.1838,103.194 C-80.1838,104.083 -80.4015,104.902 -80.8368,105.651 C-81.2722,106.401 -81.8574,107.002 -82.5923,107.456 C-83.3273,107.91 -84.1442,108.137 -85.043,108.137 C-85.9231,108.137 -86.733,107.917 -87.4726,107.477 C-88.2123,107.037 -88.8044,106.445 -89.2492,105.701 C-89.6939,104.956 -89.9162,104.13 -89.9162,103.222 Z M-68.2043,95.3011 C-68.9908,95.3011 -69.7843,95.3948 -70.5848,95.582 C-71.3853,95.7693 -72.1226,96.0572 -72.7967,96.4457 C-73.4708,96.8343 -74.0115,97.3328 -74.4188,97.9414 C-74.826,98.55 -75.0297,99.2756 -75.0297,100.118 C-75.0297,101.054 -74.7956,101.803 -74.3275,102.365 C-73.8594,102.927 -73.2484,103.358 -72.4948,103.657 C-71.7411,103.957 -70.9242,104.175 -70.0441,104.31 C-69.164,104.446 -68.312,104.556 -67.4881,104.64 C-67.0574,104.687 -66.5916,104.739 -66.0907,104.795 C-65.5898,104.851 -65.1591,104.97 -64.7987,105.153 C-64.4382,105.336 -64.258,105.633 -64.258,106.045 C-64.258,106.578 -64.4663,107 -64.8829,107.309 C-65.2996,107.618 -65.8098,107.835 -66.4137,107.962 C-67.0176,108.088 -67.6004,108.151 -68.1622,108.151 C-69.2202,108.151 -70.1307,107.992 -70.8937,107.674 C-71.6568,107.355 -72.2209,106.841 -72.586,106.129 C-72.689,105.914 -72.8646,105.729 -73.1127,105.574 C-73.3608,105.42 -73.6066,105.343 -73.85,105.343 C-74.2339,105.343 -74.5639,105.481 -74.8401,105.757 C-75.1163,106.033 -75.2544,106.363 -75.2544,106.747 C-75.2544,106.962 -75.1982,107.182 -75.0859,107.407 C-74.4867,108.568 -73.5621,109.45 -72.3122,110.054 C-71.0623,110.658 -69.6743,110.96 -68.1482,110.96 C-67.034,110.96 -65.9667,110.787 -64.9461,110.44 C-63.9256,110.094 -63.0877,109.56 -62.4323,108.839 C-61.7769,108.119 -61.4492,107.192 -61.4492,106.059 C-61.4492,105.263 -61.6154,104.608 -61.9478,104.093 C-62.2801,103.578 -62.7272,103.17 -63.289,102.871 C-63.8507,102.571 -64.4687,102.344 -65.1428,102.19 C-65.8169,102.035 -66.5003,101.92 -67.1932,101.846 C-67.549,101.808 -68.0077,101.764 -68.5695,101.712 C-69.1312,101.661 -69.6907,101.579 -70.2477,101.466 C-70.8048,101.354 -71.2729,101.193 -71.6521,100.982 C-72.0313,100.771 -72.2209,100.483 -72.2209,100.118 C-72.2209,99.622 -71.9915,99.2287 -71.5327,98.9385 C-71.074,98.6483 -70.5309,98.4376 -69.9037,98.3065 C-69.2764,98.1754 -68.7146,98.1099 -68.2184,98.1099 C-67.3664,98.1099 -66.6314,98.255 -66.0135,98.5453 C-65.3955,98.8355 -64.9321,99.2709 -64.6231,99.8514 C-64.5201,100.057 -64.3446,100.238 -64.0965,100.392 C-63.8484,100.547 -63.6073,100.624 -63.3732,100.624 C-62.9894,100.624 -62.6593,100.486 -62.3831,100.209 C-62.1069,99.9333 -61.9688,99.6032 -61.9688,99.2194 C-61.9688,98.9666 -62.025,98.7419 -62.1374,98.5453 C-62.6617,97.5528 -63.4692,96.764 -64.5599,96.1789 C-65.6507,95.5937 -66.8655,95.3011 -68.2043,95.3011 Z M-57.1939,93.8827 C-56.81,93.8827 -56.4964,93.7376 -56.253,93.4473 C-56.0095,93.1571 -55.8878,92.8294 -55.8878,92.4643 L-55.9019,91.6216 C-55.9112,91.2377 -56.0493,90.9101 -56.3162,90.6385 C-56.583,90.367 -56.913,90.2313 -57.3062,90.2313 C-57.5965,90.2313 -57.9008,90.3413 -58.2191,90.5613 C-58.5374,90.7813 -58.6966,91.0692 -58.6966,91.425 L-58.6685,92.4923 C-58.6591,92.8856 -58.5187,93.2156 -58.2472,93.4824 C-57.9757,93.7493 -57.6246,93.8827 -57.1939,93.8827 Z M-58.6826,109.668 C-58.6826,110.043 -58.5468,110.363 -58.2753,110.63 C-58.0038,110.897 -57.6714,111.03 -57.2782,111.03 C-56.8943,111.03 -56.5643,110.899 -56.2881,110.637 C-56.0119,110.375 -55.8738,110.057 -55.8738,109.682 L-55.9019,96.6774 L-55.9019,96.6634 C-55.9019,96.2608 -56.047,95.9378 -56.3372,95.6944 C-56.6275,95.4509 -56.9786,95.3292 -57.3905,95.3292 C-57.6714,95.3292 -57.9616,95.4416 -58.2612,95.6663 C-58.5608,95.891 -58.7106,96.1812 -58.7106,96.537 L-58.6826,109.668 Z M-46.4362,118.235 C-46.895,118.235 -47.307,118.137 -47.6721,117.94 C-48.0373,117.743 -48.3322,117.514 -48.5569,117.252 C-48.8471,116.915 -49.2029,116.746 -49.6242,116.746 C-50.0081,116.746 -50.3381,116.884 -50.6143,117.16 C-50.8905,117.437 -51.0286,117.767 -51.0286,118.151 C-51.0286,118.497 -50.9116,118.806 -50.6775,119.077 C-50.1907,119.649 -49.5938,120.119 -48.8869,120.489 C-48.18,120.859 -47.3491,121.044 -46.3941,121.044 C-45.4298,121.044 -44.5544,120.826 -43.7679,120.391 C-42.9814,119.955 -42.3541,119.365 -41.886,118.621 C-41.4179,117.877 -41.1838,117.041 -41.1838,116.114 C-41.1838,115.244 -41.3828,114.473 -41.7807,113.804 C-42.1786,113.135 -42.7029,112.587 -43.3536,112.161 C-44.0043,111.735 -44.7135,111.466 -45.4813,111.353 L-45.088,110.749 C-44.9289,110.506 -44.8493,110.244 -44.8493,109.963 C-44.8493,109.579 -44.9874,109.249 -45.2636,108.973 C-45.5398,108.697 -45.8698,108.559 -46.2537,108.559 C-46.469,108.559 -46.6914,108.624 -46.9208,108.755 C-47.1501,108.886 -47.321,109.041 -47.4334,109.219 L-49.7085,112.688 C-49.8676,112.931 -49.9472,113.188 -49.9472,113.46 C-49.9472,113.844 -49.8091,114.174 -49.5329,114.45 C-49.2567,114.726 -48.9267,114.864 -48.5428,114.864 C-48.2339,114.864 -47.953,114.771 -47.7002,114.583 C-47.2789,114.274 -46.8108,114.12 -46.2958,114.12 C-45.7247,114.12 -45.1957,114.303 -44.7088,114.668 C-44.222,115.033 -43.9786,115.529 -43.9786,116.156 C-43.9786,116.774 -44.229,117.275 -44.7299,117.659 C-45.2308,118.043 -45.7996,118.235 -46.4362,118.235 Z M-53.697,103.138 C-53.697,104.196 -53.5097,105.2 -53.1352,106.15 C-52.7607,107.1 -52.2387,107.945 -51.5693,108.685 C-50.8999,109.425 -50.1134,110.007 -49.2099,110.433 C-48.3064,110.859 -47.321,111.072 -46.2537,111.072 C-44.8212,111.072 -43.576,110.712 -42.518,109.991 C-41.46,109.27 -40.6642,108.418 -40.1305,107.435 C-40.0088,107.21 -39.948,106.981 -39.948,106.747 C-39.948,106.363 -40.0861,106.033 -40.3622,105.757 C-40.6384,105.481 -40.9685,105.343 -41.3523,105.343 C-41.5864,105.343 -41.8252,105.415 -42.0686,105.56 C-42.312,105.705 -42.4899,105.881 -42.6023,106.087 C-42.9206,106.667 -43.3934,107.175 -44.0207,107.611 C-44.648,108.046 -45.3923,108.264 -46.2537,108.264 C-47.1338,108.264 -47.9249,108.023 -48.6271,107.54 C-49.3293,107.058 -49.8817,106.426 -50.2843,105.644 C-50.6869,104.863 -50.8882,104.027 -50.8882,103.138 C-50.8882,102.258 -50.6916,101.438 -50.2983,100.68 C-49.9051,99.9216 -49.3691,99.306 -48.6903,98.8332 C-48.0115,98.3604 -47.2461,98.124 -46.3941,98.124 C-45.4859,98.124 -44.7065,98.3744 -44.0558,98.8753 C-43.4051,99.3762 -42.9487,99.9637 -42.6865,100.638 C-42.5835,100.891 -42.4056,101.106 -42.1528,101.284 C-41.9001,101.462 -41.6426,101.551 -41.3804,101.551 C-40.9966,101.551 -40.6665,101.413 -40.3903,101.136 C-40.1141,100.86 -39.976,100.53 -39.976,100.146 C-39.976,99.9497 -40.0088,99.7718 -40.0743,99.6126 C-40.374,98.8449 -40.8257,98.1357 -41.4296,97.485 C-42.0335,96.8343 -42.7544,96.3099 -43.5924,95.912 C-44.4303,95.5141 -45.3642,95.3152 -46.3941,95.3152 C-47.4334,95.3152 -48.3954,95.5258 -49.2801,95.9471 C-50.1649,96.3685 -50.9397,96.9443 -51.6044,97.6745 C-52.2692,98.4048 -52.7841,99.2381 -53.1492,100.174 C-53.5144,101.111 -53.697,102.098 -53.697,103.138 Z M-26.3394,90.6807 C-26.3394,90.8773 -26.4049,91.0411 -26.536,91.1722 C-26.6671,91.3033 -26.8309,91.3688 -27.0275,91.3688 C-27.1773,91.3688 -27.3693,91.2939 -27.6033,91.1441 C-27.9872,90.8913 -28.3594,90.5987 -28.7198,90.2664 C-29.0803,89.934 -29.4852,89.6414 -29.9346,89.3886 C-30.384,89.1358 -30.9411,89.0094 -31.6059,89.0094 C-32.2332,89.0094 -32.8113,89.171 -33.3403,89.494 C-33.8693,89.817 -34.2929,90.2406 -34.6113,90.7649 C-34.9296,91.2892 -35.0888,91.865 -35.0888,92.4923 C-35.0888,92.9605 -34.96,93.3537 -34.7025,93.672 C-34.4451,93.9904 -34.101,94.1495 -33.6703,94.1495 C-33.2864,94.1495 -32.9564,94.0114 -32.6802,93.7352 C-32.404,93.459 -32.2659,93.129 -32.2659,92.7451 C-32.2659,92.7077 -32.2683,92.6702 -32.2729,92.6328 C-32.2776,92.5953 -32.28,92.5579 -32.28,92.5204 C-32.28,92.3238 -32.2121,92.1576 -32.0763,92.0219 C-31.9406,91.8861 -31.7697,91.8182 -31.5637,91.8182 C-31.4046,91.8182 -31.2033,91.8978 -30.9598,92.057 C-30.576,92.3004 -30.2061,92.5906 -29.8504,92.9277 C-29.4946,93.2648 -29.092,93.5573 -28.6426,93.8054 C-28.1932,94.0536 -27.6408,94.1776 -26.9854,94.1776 C-26.3675,94.1776 -25.7964,94.0208 -25.272,93.7071 C-24.7477,93.3935 -24.3264,92.9745 -24.0081,92.4502 C-23.6898,91.9259 -23.5306,91.3501 -23.5306,90.7228 C-23.5306,90.2172 -23.6523,89.7912 -23.8957,89.4448 C-24.1392,89.0984 -24.495,88.9252 -24.9631,88.9252 L-24.9771,88.9252 C-25.361,88.9252 -25.691,89.0633 -25.9672,89.3395 C-26.2434,89.6157 -26.3815,89.9457 -26.3815,90.3296 C-26.3815,90.3858 -26.3745,90.4443 -26.3605,90.5051 C-26.3464,90.566 -26.3394,90.6245 -26.3394,90.6807 Z M-30.37,95.259 C-31.4654,95.259 -32.4789,95.472 -33.4105,95.898 C-34.3421,96.324 -35.1566,96.9092 -35.8541,97.6535 C-36.5517,98.3978 -37.0947,99.2451 -37.4832,100.195 C-37.8718,101.146 -38.0661,102.141 -38.0661,103.18 C-38.0661,104.228 -37.8671,105.226 -37.4692,106.171 C-37.0713,107.117 -36.5212,107.955 -35.819,108.685 C-35.1168,109.415 -34.3023,109.989 -33.3754,110.405 C-32.4485,110.822 -31.4561,111.03 -30.3981,111.03 C-29.4525,111.03 -28.5115,110.827 -27.5753,110.419 C-26.639,110.012 -25.9274,109.392 -25.4406,108.559 L-25.2861,109.682 C-25.2861,110.066 -25.1737,110.396 -24.949,110.672 C-24.7243,110.948 -24.42,111.086 -24.0362,111.086 C-23.6523,111.086 -23.3223,110.948 -23.0461,110.672 C-22.7699,110.396 -22.6318,110.066 -22.6318,109.682 L-22.6037,96.6774 L-22.6037,96.6493 C-22.6037,96.2655 -22.7418,95.9354 -23.018,95.6592 C-23.2942,95.383 -23.6242,95.2449 -24.0081,95.2449 C-24.392,95.2449 -24.6962,95.383 -24.9209,95.6592 C-25.1457,95.9354 -25.258,96.2655 -25.258,96.6493 L-25.4125,97.9976 C-25.6653,97.5575 -26.0515,97.1292 -26.5711,96.7125 C-27.0907,96.2959 -27.6806,95.9495 -28.3406,95.6733 C-29.0007,95.3971 -29.6772,95.259 -30.37,95.259 Z M-25.5248,103.152 C-25.5248,104.05 -25.7425,104.886 -26.1779,105.659 C-26.6132,106.431 -27.1984,107.051 -27.9334,107.519 C-28.6683,107.987 -29.4852,108.222 -30.384,108.222 C-31.2828,108.222 -32.1044,107.987 -32.8487,107.519 C-33.5931,107.051 -34.1853,106.431 -34.6253,105.659 C-35.0653,104.886 -35.2854,104.046 -35.2854,103.138 C-35.2854,102.239 -35.07,101.403 -34.6393,100.631 C-34.2087,99.8584 -33.6235,99.2381 -32.8839,98.77 C-32.1442,98.3018 -31.3156,98.0678 -30.3981,98.0678 C-29.4618,98.0678 -28.6285,98.3018 -27.8983,98.77 C-27.168,99.2381 -26.5898,99.856 -26.1638,100.624 C-25.7378,101.392 -25.5248,102.234 -25.5248,103.152 Z M-12.801,95.3292 C-13.859,95.3292 -14.8515,95.5375 -15.7784,95.9542 C-16.7053,96.3708 -17.5221,96.9419 -18.229,97.6675 C-18.9359,98.3931 -19.4906,99.2287 -19.8932,100.174 C-20.2958,101.12 -20.4971,102.126 -20.4971,103.194 C-20.4971,104.271 -20.2958,105.279 -19.8932,106.22 C-19.4906,107.161 -18.9359,107.987 -18.229,108.699 C-17.5221,109.411 -16.7029,109.968 -15.7713,110.37 C-14.8398,110.773 -13.8497,110.974 -12.801,110.974 C-11.7431,110.974 -10.7483,110.768 -9.81671,110.356 C-8.88512,109.944 -8.0659,109.38 -7.35902,108.664 C-6.65214,107.948 -6.09741,107.119 -5.69481,106.178 C-5.29222,105.237 -5.09092,104.242 -5.09092,103.194 C-5.09092,102.126 -5.28988,101.12 -5.68779,100.174 C-6.0857,99.2287 -6.63576,98.3908 -7.33795,97.6605 C-8.04015,96.9302 -8.85704,96.3591 -9.78862,95.9471 C-10.7202,95.5352 -11.7243,95.3292 -12.801,95.3292 Z M-17.6602,103.222 C-17.6602,102.304 -17.4472,101.464 -17.0212,100.701 C-16.5952,99.938 -16.0171,99.3247 -15.2868,98.8613 C-14.5565,98.3978 -13.7279,98.1661 -12.801,98.1661 C-11.8835,98.1661 -11.0573,98.3955 -10.3223,98.8542 C-9.58732,99.313 -9.0045,99.9239 -8.57382,100.687 C-8.14314,101.45 -7.9278,102.286 -7.9278,103.194 C-7.9278,104.083 -8.14548,104.902 -8.58084,105.651 C-9.0162,106.401 -9.60137,107.002 -10.3363,107.456 C-11.0713,107.91 -11.8882,108.137 -12.787,108.137 C-13.6671,108.137 -14.4769,107.917 -15.2166,107.477 C-15.9562,107.037 -16.5484,106.445 -16.9932,105.701 C-17.4379,104.956 -17.6602,104.13 -17.6602,103.222 Z M4.16402,103.152 C4.16402,104.191 4.3466,105.179 4.71174,106.115 C5.07688,107.051 5.59182,107.882 6.25657,108.608 C6.92132,109.333 7.70075,109.907 8.59488,110.328 C9.48901,110.749 10.4651,110.96 11.523,110.96 C12.3938,110.96 13.2668,110.74 14.1422,110.3 C15.0176,109.86 15.7222,109.256 16.2558,108.488 L16.4244,109.626 C16.4805,110.01 16.6046,110.34 16.7965,110.616 C16.9885,110.892 17.2764,111.03 17.6602,111.03 C18.0441,111.03 18.3741,110.892 18.6503,110.616 C18.9265,110.34 19.0646,110.01 19.0646,109.626 L19.0646,91.6918 C19.0646,91.308 18.9265,90.9779 18.6503,90.7017 C18.3741,90.4255 18.0441,90.2874 17.6602,90.2874 C17.2764,90.2874 16.9463,90.4255 16.6701,90.7017 C16.3939,90.9779 16.2558,91.308 16.2558,91.6918 L16.2558,97.6043 C15.6566,96.9021 14.9778,96.3451 14.2195,95.9331 C13.4611,95.5211 12.5951,95.3152 11.6214,95.3152 C10.6664,95.3152 9.74415,95.4977 8.8547,95.8629 C7.96525,96.228 7.17879,96.743 6.49532,97.4077 C5.72758,98.1754 5.1471,99.0602 4.75387,100.062 C4.36064,101.064 4.16402,102.094 4.16402,103.152 Z M11.495,108.151 C10.6336,108.151 9.85884,107.917 9.17068,107.449 C8.48253,106.981 7.94184,106.365 7.54861,105.602 C7.15538,104.839 6.95877,104.022 6.95877,103.152 C6.95877,102.281 7.15772,101.459 7.55563,100.687 C7.95354,99.9146 8.50126,99.2873 9.19877,98.8051 C9.89629,98.3229 10.6851,98.0818 11.5652,98.0818 C12.464,98.0818 13.2575,98.3112 13.9456,98.77 C14.6338,99.2287 15.1745,99.8373 15.5677,100.596 C15.9609,101.354 16.1575,102.183 16.1575,103.081 C16.1575,103.737 16.0428,104.378 15.8135,105.005 C15.5841,105.633 15.2587,106.18 14.8374,106.649 C14.4161,107.107 13.9058,107.473 13.3066,107.744 C12.7074,108.016 12.1035,108.151 11.495,108.151 Z M28.8673,95.3292 C27.8093,95.3292 26.8169,95.5375 25.89,95.9542 C24.9631,96.3708 24.1462,96.9419 23.4393,97.6675 C22.7324,98.3931 22.1777,99.2287 21.7751,100.174 C21.3725,101.12 21.1712,102.126 21.1712,103.194 C21.1712,104.271 21.3725,105.279 21.7751,106.22 C22.1777,107.161 22.7324,107.987 23.4393,108.699 C24.1462,109.411 24.9654,109.968 25.897,110.37 C26.8286,110.773 27.8187,110.974 28.8673,110.974 C29.9253,110.974 30.92,110.768 31.8516,110.356 C32.7832,109.944 33.6024,109.38 34.3093,108.664 C35.0162,107.948 35.5709,107.119 35.9735,106.178 C36.3761,105.237 36.5774,104.242 36.5774,103.194 C36.5774,102.126 36.3785,101.12 35.9805,100.174 C35.5826,99.2287 35.0326,98.3908 34.3304,97.6605 C33.6282,96.9302 32.8113,96.3591 31.8797,95.9471 C30.9481,95.5352 29.944,95.3292 28.8673,95.3292 Z M24.0081,103.222 C24.0081,102.304 24.2211,101.464 24.6471,100.701 C25.0731,99.938 25.6512,99.3247 26.3815,98.8613 C27.1118,98.3978 27.9404,98.1661 28.8673,98.1661 C29.7848,98.1661 30.6111,98.3955 31.346,98.8542 C32.081,99.313 32.6638,99.9239 33.0945,100.687 C33.5252,101.45 33.7405,102.286 33.7405,103.194 C33.7405,104.083 33.5229,104.902 33.0875,105.651 C32.6521,106.401 32.067,107.002 31.332,107.456 C30.597,107.91 29.7801,108.137 28.8813,108.137 C28.0013,108.137 27.1914,107.917 26.4517,107.477 C25.7121,107.037 25.1199,106.445 24.6752,105.701 C24.2305,104.956 24.0081,104.13 24.0081,103.222 Z M62.0812,110.848 C62.0999,110.848 62.1116,110.85 62.1163,110.855 C62.121,110.859 62.142,110.862 62.1795,110.862 C62.3106,110.862 62.4885,110.827 62.7132,110.756 C62.9379,110.686 63.1438,110.56 63.3311,110.377 C63.5183,110.195 63.612,109.935 63.612,109.598 C63.612,109.195 63.4809,108.849 63.2187,108.559 C62.9566,108.268 62.6195,108.123 62.2076,108.123 L62.1935,108.123 L50.0455,108.137 L63.6822,92.8996 C63.8975,92.6562 64.0052,92.3472 64.0052,91.9727 C64.0052,91.5888 63.8648,91.2612 63.5839,90.9896 C63.303,90.7181 62.9753,90.5824 62.6008,90.5824 L46.7873,90.5543 C46.4971,90.5543 46.2069,90.6971 45.9166,90.9826 C45.6264,91.2682 45.4813,91.6029 45.4813,91.9868 C45.4813,92.3706 45.6147,92.703 45.8815,92.9839 C46.1483,93.2648 46.4831,93.4052 46.8857,93.4052 L46.8997,93.4052 L59.5533,93.3912 L45.9166,108.629 C45.7013,108.872 45.5936,109.181 45.5936,109.556 C45.5936,109.949 45.7341,110.279 46.0149,110.546 C46.2958,110.813 46.6235,110.946 46.998,110.946 L62.0812,110.848 Z M72.5299,95.3713 C71.5093,95.3713 70.5544,95.5797 69.6649,95.9963 C68.7755,96.4129 67.996,96.9817 67.3266,97.7026 C66.6572,98.4236 66.1352,99.2451 65.7607,100.167 C65.3862,101.09 65.1989,102.061 65.1989,103.081 C65.1989,104.139 65.3885,105.144 65.7677,106.094 C66.1469,107.044 66.6782,107.884 67.3617,108.615 C68.0452,109.345 68.848,109.921 69.7702,110.342 C70.6925,110.763 71.6919,110.974 72.7686,110.974 C74.1075,110.974 75.2848,110.663 76.3007,110.04 C77.3165,109.418 78.1147,108.68 78.6951,107.828 C78.8637,107.594 78.9479,107.327 78.9479,107.028 C78.9479,106.644 78.8098,106.312 78.5336,106.031 C78.2574,105.75 77.9274,105.609 77.5435,105.609 C77.3376,105.609 77.1199,105.67 76.8905,105.792 C76.6611,105.914 76.4903,106.063 76.3779,106.241 C76.0221,106.756 75.5259,107.21 74.8892,107.604 C74.2526,107.997 73.5317,108.193 72.7265,108.193 C71.9775,108.193 71.287,108.011 70.655,107.646 C70.023,107.281 69.487,106.803 69.047,106.213 C68.6069,105.623 68.3073,104.991 68.1482,104.317 L77.9649,104.303 C78.3113,104.303 78.6226,104.184 78.8988,103.945 C79.175,103.706 79.3318,103.414 79.3693,103.067 C79.3973,102.796 79.4114,102.529 79.4114,102.267 C79.4114,100.994 79.0954,99.835 78.4634,98.791 C77.8314,97.7471 76.9958,96.9162 75.9566,96.2982 C74.9173,95.6803 73.7751,95.3713 72.5299,95.3713 Z M68.2465,101.509 C68.518,100.619 69.0446,99.842 69.8264,99.1772 C70.6082,98.5125 71.5093,98.1801 72.5299,98.1801 C73.5317,98.1801 74.4024,98.5031 75.142,99.1492 C75.8817,99.7952 76.3405,100.577 76.5183,101.494 L68.2465,101.509 Z M90.9555,97.0987 C90.9555,96.3497 90.6465,95.8652 90.0286,95.6452 C89.4107,95.4252 88.6242,95.3152 87.6692,95.3152 C87.1543,95.3152 86.6581,95.4439 86.1806,95.7014 C85.7031,95.9588 85.2911,96.2608 84.9447,96.6072 C84.5983,96.9536 84.3642,97.2579 84.2425,97.5201 L84.1021,96.5089 C83.9897,96.0689 83.7908,95.7576 83.5052,95.575 C83.2196,95.3924 82.9692,95.3011 82.7538,95.3011 C82.3887,95.3011 82.1008,95.4369 81.8901,95.7084 C81.6795,95.9799 81.5742,96.3263 81.5742,96.7476 L81.5742,109.682 C81.5742,110.103 81.7005,110.436 81.9533,110.679 C82.2061,110.923 82.5479,111.044 82.9785,111.044 C83.4186,111.044 83.7627,110.923 84.0108,110.679 C84.2589,110.436 84.3829,110.108 84.3829,109.696 L84.3829,102.449 C84.3829,101.579 84.4859,100.792 84.6919,100.09 C84.8979,99.3879 85.2396,98.8285 85.7171,98.4119 C86.1946,97.9952 86.8406,97.7869 87.6552,97.7869 C88.0671,97.7869 88.4744,97.8875 88.877,98.0888 C89.2796,98.2901 89.612,98.3767 89.8741,98.3487 C90.595,98.2644 90.9555,97.8478 90.9555,97.0987 Z M99.7049,95.3292 C98.6469,95.3292 97.6545,95.5375 96.7276,95.9542 C95.8007,96.3708 94.9838,96.9419 94.2769,97.6675 C93.57,98.3931 93.0153,99.2287 92.6127,100.174 C92.2101,101.12 92.0088,102.126 92.0088,103.194 C92.0088,104.271 92.2101,105.279 92.6127,106.22 C93.0153,107.161 93.57,107.987 94.2769,108.699 C94.9838,109.411 95.803,109.968 96.7346,110.37 C97.6662,110.773 98.6563,110.974 99.7049,110.974 C100.763,110.974 101.758,110.768 102.689,110.356 C103.621,109.944 104.44,109.38 105.147,108.664 C105.854,107.948 106.408,107.119 106.811,106.178 C107.214,105.237 107.415,104.242 107.415,103.194 C107.415,102.126 107.216,101.12 106.818,100.174 C106.42,99.2287 105.87,98.3908 105.168,97.6605 C104.466,96.9302 103.649,96.3591 102.717,95.9471 C101.786,95.5352 100.782,95.3292 99.7049,95.3292 Z M94.8457,103.222 C94.8457,102.304 95.0587,101.464 95.4847,100.701 C95.9107,99.938 96.4888,99.3247 97.2191,98.8613 C97.9494,98.3978 98.778,98.1661 99.7049,98.1661 C100.622,98.1661 101.449,98.3955 102.184,98.8542 C102.919,99.313 103.501,99.9239 103.932,100.687 C104.363,101.45 104.578,102.286 104.578,103.194 C104.578,104.083 104.36,104.902 103.925,105.651 C103.49,106.401 102.905,107.002 102.17,107.456 C101.435,107.91 100.618,108.137 99.7189,108.137 C98.8388,108.137 98.029,107.917 97.2893,107.477 C96.5497,107.037 95.9575,106.445 95.5128,105.701 C95.068,104.956 94.8457,104.13 94.8457,103.222 Z " fill="#ff7502" fill-opacity="1.00" />			<g>				<path d="M8.93124e-07,66.1347 C51.1334,66.1347 92.527,24.741 92.527,-26.3923 C92.527,-77.5257 51.1334,-118.919 8.93124e-07,-118.919 C-51.1334,-118.919 -92.527,-77.5257 -92.527,-26.3923 C-92.527,24.741 -51.1334,66.1347 8.93124e-07,66.1347 Z " fill="#ff7502" fill-opacity="1.00" />				<path d="M-57.326,-24.354 L57.326,-24.354 " fill="none" stroke-width="2.67" stroke="#ffffff" stroke-linecap="square" stroke-linejoin="miter" />				<path d="M59.9951,-31.4032 L59.9951,-17.3047 " fill="none" stroke-width="2.67" stroke="#ffffff" stroke-linecap="square" stroke-linejoin="miter" />				<path d="M-59.9951,-31.4032 L-59.9951,-17.3047 " fill="none" stroke-width="2.67" stroke="#ffffff" stroke-linecap="square" stroke-linejoin="miter" />				<path d="M40.337,-28.9751 L40.337,-19.7328 " fill="none" stroke-width="0.89" stroke="#ffffff" stroke-linecap="square" stroke-linejoin="miter" />				<path d="M-65.0946,-2.83664 C-65.0946,-1.93673 -64.9963,-1.06515 -64.7996,-0.221904 C-64.603,0.621343 -64.298,1.37627 -63.8847,2.04286 C-63.4714,2.70946 -62.9465,3.23774 -62.3099,3.6277 C-61.6733,4.01766 -60.915,4.21264 -60.0351,4.21264 C-59.1419,4.21264 -58.3719,4.01933 -57.7253,3.6327 C-57.0787,3.24607 -56.5455,2.72113 -56.1255,2.05786 C-55.7055,1.3946 -55.3956,0.634675 -55.1956,-0.221904 C-54.9956,-1.07848 -54.8956,-1.97672 -54.8956,-2.91663 C-54.8956,-3.8032 -54.9973,-4.66145 -55.2006,-5.49136 C-55.4039,-6.32128 -55.7105,-7.0662 -56.1205,-7.72613 C-56.5305,-8.38607 -57.0421,-8.91101 -57.6553,-9.30097 C-58.2686,-9.69093 -58.9885,-9.88591 -59.8151,-9.88591 C-60.6817,-9.88591 -61.445,-9.69593 -62.1049,-9.31597 C-62.7648,-8.93601 -63.3164,-8.41773 -63.7597,-7.76113 C-64.203,-7.10453 -64.5363,-6.35294 -64.7596,-5.50636 C-64.9829,-4.65978 -65.0946,-3.76987 -65.0946,-2.83664 Z M-59.9951,2.71279 C-60.8617,2.71279 -61.5583,2.44782 -62.0849,1.91788 C-62.6115,1.38793 -62.9948,0.699668 -63.2348,-0.146912 C-63.4747,-0.993491 -63.5947,-1.89673 -63.5947,-2.85663 C-63.5947,-3.80987 -63.4714,-4.70811 -63.2248,-5.55136 C-62.9781,-6.3946 -62.5882,-7.07787 -62.0549,-7.60115 C-61.5216,-8.12443 -60.8217,-8.38607 -59.9551,-8.38607 C-59.1019,-8.38607 -58.4153,-8.12776 -57.8953,-7.61115 C-57.3754,-7.09453 -56.9954,-6.42627 -56.7554,-5.60635 C-56.5155,-4.78644 -56.3955,-3.91652 -56.3955,-2.99662 C-56.3955,-2.27003 -56.4605,-1.5651 -56.5905,-0.881836 C-56.7204,-0.198573 -56.9271,0.413031 -57.2104,0.952975 C-57.4937,1.49292 -57.8653,1.92121 -58.3253,2.23784 C-58.7852,2.55448 -59.3418,2.71279 -59.9951,2.71279 Z " fill="#ffffff" fill-opacity="1.00" />			</g>		</g>	</svg>