<?xml version="1.0" encoding="utf-8" ?>	<!-- Generator: Assembly 2.4 - http://assemblyapp.co -->	<svg version="1.1" xmlns="http://www.w3.org/2000/svg" xmlns:xlink="http://www.w3.org/1999/xlink" width="500.00" height="500.00" viewBox="0 0 500.0 500.0">		<g id="document" transform="scale(1.6666666666666667 1.6666666666666667) translate(150.0 150.0)">			<g>				<path d="M8.32965e-07,68.6291 C47.6891,68.6291 86.2946,30.0236 86.2946,-17.6655 C86.2946,-65.3547 47.6891,-103.96 8.32965e-07,-103.96 C-47.6891,-103.96 -86.2946,-65.3547 -86.2946,-17.6655 C-86.2946,30.0236 -47.6891,68.6291 8.32965e-07,68.6291 Z " fill="#ff7502" fill-opacity="1.00" />				<path d="M-57.9366,98.8048 L-55.5051,98.8048 L-55.5051,90.797 C-54.1646,90.797 -53.1397,90.6373 -52.4305,90.3177 C-51.0199,89.6163 -50.3146,88.0654 -50.3146,85.665 C-50.3146,83.9583 -50.6653,82.7113 -51.3667,81.9242 C-52.0681,81.1448 -53.1904,80.7551 -54.7335,80.7551 L-57.9366,80.7551 L-57.9366,98.8048 Z M-55.5051,82.8009 L-55.166,82.8009 C-54.3633,82.8009 -53.7749,83.0503 -53.4008,83.5491 C-53.0267,84.0479 -52.8397,84.835 -52.8397,85.9105 C-52.8397,86.9626 -53.0345,87.6952 -53.4242,88.1083 C-53.8061,88.5135 -54.4997,88.7162 -55.5051,88.7162 L-55.5051,82.8009 Z M-41.4301,92.8545 C-41.4301,91.7556 -41.506,90.8087 -41.658,90.0138 C-41.81,89.2188 -42.0419,88.5603 -42.3536,88.0381 C-42.6653,87.516 -43.0608,87.1302 -43.5401,86.8808 C-44.0194,86.6314 -44.5864,86.5067 -45.2411,86.5067 C-47.7662,86.5067 -49.0287,88.5915 -49.0287,92.761 C-49.0287,96.9149 -47.7623,98.9919 -45.2294,98.9919 C-42.6965,98.9919 -41.4301,96.9461 -41.4301,92.8545 Z M-43.7447,92.796 C-43.7447,94.3469 -43.8538,95.4108 -44.072,95.9875 C-44.2825,96.6032 -44.6527,96.911 -45.1826,96.911 C-45.7126,96.911 -46.0906,96.5993 -46.3166,95.9758 C-46.527,95.3601 -46.6322,94.2768 -46.6322,92.7259 C-46.6322,91.175 -46.527,90.0878 -46.3166,89.4643 C-46.0906,88.8409 -45.7126,88.5291 -45.1826,88.5291 C-44.6449,88.5291 -44.2708,88.8448 -44.0604,89.476 C-43.8499,90.0995 -43.7447,91.2062 -43.7447,92.796 Z M-34.6731,86.9509 C-35.32,86.6002 -35.9863,86.4249 -36.6722,86.4249 C-37.6463,86.4249 -38.4374,86.7327 -39.0453,87.3484 C-39.6454,87.9719 -39.9454,88.7707 -39.9454,89.7449 C-39.9454,90.4697 -39.7817,91.0893 -39.4544,91.6036 C-39.1193,92.1024 -38.4802,92.7181 -37.5372,93.4507 C-37.2645,93.6689 -37.0345,93.8657 -36.8475,94.0411 C-36.6605,94.2164 -36.5241,94.3703 -36.4383,94.5028 C-36.2513,94.7756 -36.1578,95.099 -36.1578,95.4731 C-36.1578,96.4785 -36.6683,96.9811 -37.6892,96.9811 C-38.2659,96.9811 -38.8777,96.7395 -39.5246,96.2563 L-39.5246,98.419 C-38.8621,98.8009 -38.2075,98.9919 -37.5606,98.9919 C-36.5085,98.9919 -35.6707,98.6684 -35.0472,98.0216 C-34.4159,97.3669 -34.1003,96.4979 -34.1003,95.4147 C-34.1003,94.6665 -34.2523,94.0469 -34.5562,93.5559 C-34.7043,93.3065 -34.9186,93.0415 -35.1992,92.761 C-35.4798,92.4804 -35.8305,92.1765 -36.2513,91.8491 C-37.2956,91.0542 -37.8178,90.3684 -37.8178,89.7917 C-37.8178,89.6046 -37.7808,89.4273 -37.7067,89.2598 C-37.6327,89.0922 -37.5314,88.948 -37.4028,88.8272 C-37.2742,88.7064 -37.1242,88.611 -36.9527,88.5408 C-36.7813,88.4707 -36.5942,88.4356 -36.3916,88.4356 C-35.7915,88.4356 -35.2187,88.6382 -34.6731,89.0435 L-34.6731,86.9509 Z M-32.3117,98.8048 L-30.0672,98.8048 L-30.0672,86.7055 L-32.3117,86.7055 L-32.3117,98.8048 Z M-31.2596,81.5618 C-31.6649,81.5618 -32.0272,81.7098 -32.3468,82.006 C-32.6429,82.3021 -32.791,82.6529 -32.791,83.0581 C-32.791,83.4945 -32.6468,83.8569 -32.3585,84.1453 C-32.0623,84.4415 -31.7038,84.5895 -31.283,84.5895 C-30.8621,84.5895 -30.5036,84.4415 -30.2075,84.1453 C-29.9113,83.8491 -29.7632,83.4906 -29.7632,83.0698 C-29.7632,82.6567 -29.9113,82.3021 -30.2075,82.006 C-30.5036,81.7098 -30.8543,81.5618 -31.2596,81.5618 Z M-22.6088,86.9393 C-23.1778,86.6509 -23.7623,86.5067 -24.3624,86.5067 C-25.6093,86.5067 -26.529,87.023 -27.1213,88.0557 C-27.7136,89.0883 -28.0097,90.6918 -28.0097,92.8662 C-28.0097,96.95 -26.8095,98.9919 -24.4091,98.9919 C-23.8012,98.9919 -23.2011,98.836 -22.6088,98.5242 L-22.6088,96.4317 C-23.0219,96.7356 -23.3999,96.8876 -23.7428,96.8876 C-24.9664,96.8876 -25.5782,95.4731 -25.5782,92.6441 C-25.5782,89.9787 -24.9625,88.646 -23.7311,88.646 C-23.2947,88.646 -22.9206,88.837 -22.6088,89.2188 L-22.6088,86.9393 Z M-26.5484,103.422 L-25.5197,103.96 L-23.4739,100.792 L-25.0521,100.021 L-26.5484,103.422 Z M-16.039,86.7055 L-16.039,88.0732 C-16.6001,87.0289 -17.3405,86.5067 -18.2601,86.5067 C-19.2654,86.5067 -20.0019,86.9997 -20.4695,87.9855 C-20.9371,88.9714 -21.1709,90.5126 -21.1709,92.609 C-21.1709,94.8068 -20.9371,96.42 -20.4695,97.4487 C-20.0019,98.4775 -19.2654,98.9919 -18.2601,98.9919 C-17.7379,98.9919 -17.3171,98.8672 -16.9975,98.6178 C-16.678,98.3684 -16.3585,97.9125 -16.039,97.25 L-16.039,98.8048 L-13.8061,98.8048 L-13.8061,86.7055 L-16.039,86.7055 Z M-18.8563,92.7025 C-18.8563,91.1205 -18.7472,90.0411 -18.529,89.4643 C-18.303,88.8409 -17.925,88.5291 -17.395,88.5291 C-16.8962,88.5291 -16.5338,88.8564 -16.3078,89.5111 C-16.0818,90.2125 -15.9688,91.2958 -15.9688,92.761 C-15.9688,94.2184 -16.0818,95.2977 -16.3078,95.9992 C-16.5338,96.6538 -16.8962,96.9811 -17.395,96.9811 C-17.9406,96.9811 -18.3224,96.6655 -18.5407,96.0342 C-18.7511,95.403 -18.8563,94.2924 -18.8563,92.7025 Z M-15.5129,82.345 C-15.583,82.8126 -15.7428,83.0464 -15.9922,83.0464 C-16.2182,83.0464 -16.491,82.9568 -16.8105,82.7775 C-17.4184,82.4268 -17.9406,82.2515 -18.377,82.2515 C-19.4681,82.2515 -20.0721,83.0386 -20.189,84.6129 L-18.7861,84.6129 C-18.7238,84.1765 -18.5523,83.9583 -18.2718,83.9583 C-18.0692,83.9583 -17.8548,84.0167 -17.6288,84.1336 L-17.0443,84.4142 C-16.639,84.6246 -16.2728,84.7298 -15.9454,84.7298 C-15.6493,84.7298 -15.396,84.6869 -15.1856,84.6012 C-14.9751,84.5155 -14.7998,84.3791 -14.6595,84.1921 C-14.5192,84.005 -14.4082,83.7595 -14.3263,83.4556 C-14.2445,83.1516 -14.1841,82.7814 -14.1451,82.345 L-15.5129,82.345 Z M-4.12664,92.8545 C-4.12664,91.7556 -4.20263,90.8087 -4.3546,90.0138 C-4.50657,89.2188 -4.73843,88.5603 -5.05017,88.0381 C-5.3619,87.516 -5.75742,87.1302 -6.23672,86.8808 C-6.71602,86.6314 -7.28299,86.5067 -7.93764,86.5067 C-10.4627,86.5067 -11.7253,88.5915 -11.7253,92.761 C-11.7253,96.9149 -10.4588,98.9919 -7.92595,98.9919 C-5.39308,98.9919 -4.12664,96.9461 -4.12664,92.8545 Z M-6.4413,92.796 C-6.4413,94.3469 -6.55041,95.4108 -6.76862,95.9875 C-6.97905,96.6032 -7.34924,96.911 -7.87919,96.911 C-8.40915,96.911 -8.78713,96.5993 -9.01314,95.9758 C-9.22357,95.3601 -9.32878,94.2768 -9.32878,92.7259 C-9.32878,91.175 -9.22357,90.0878 -9.01314,89.4643 C-8.78713,88.8409 -8.40915,88.5291 -7.87919,88.5291 C-7.34144,88.5291 -6.96736,88.8448 -6.75693,89.476 C-6.54651,90.0995 -6.4413,91.2062 -6.4413,92.796 Z M7.58694,78.9432 L7.58694,88.0732 C7.43107,87.7771 7.2713,87.5277 7.10764,87.325 C6.94398,87.1224 6.78421,86.9665 6.62834,86.8574 C6.30881,86.6236 5.90355,86.5067 5.41256,86.5067 C4.89819,86.5067 4.45397,86.6256 4.07988,86.8633 C3.70579,87.101 3.3999,87.4692 3.1622,87.968 C2.9245,88.4668 2.7472,89.1019 2.63029,89.8735 C2.51339,90.645 2.45494,91.5608 2.45494,92.6207 C2.45494,94.8185 2.68875,96.4297 3.15635,97.4546 C3.62396,98.4794 4.35655,98.9919 5.35411,98.9919 C5.88407,98.9919 6.30881,98.8672 6.62834,98.6178 C6.94787,98.3684 7.26741,97.9125 7.58694,97.25 L7.58694,98.8048 L9.81977,98.8048 L9.81977,78.9432 L7.58694,78.9432 Z M4.7696,92.7025 C4.7696,91.1205 4.87871,90.0411 5.09693,89.4643 C5.32294,88.8409 5.70092,88.5291 6.23088,88.5291 C6.72966,88.5291 7.09205,88.8564 7.31806,89.5111 C7.54407,90.2125 7.65708,91.2958 7.65708,92.761 C7.65708,94.2184 7.54407,95.2977 7.31806,95.9992 C7.09205,96.6538 6.72966,96.9811 6.23088,96.9811 C5.68533,96.9811 5.30345,96.6655 5.08524,96.0342 C4.87481,95.403 4.7696,94.2924 4.7696,92.7025 Z M19.4993,92.8545 C19.4993,91.7556 19.4233,90.8087 19.2713,90.0138 C19.1193,89.2188 18.8875,88.5603 18.5757,88.0381 C18.264,87.516 17.8685,87.1302 17.3892,86.8808 C16.9099,86.6314 16.3429,86.5067 15.6882,86.5067 C13.1632,86.5067 11.9006,88.5915 11.9006,92.761 C11.9006,96.9149 13.1671,98.9919 15.6999,98.9919 C18.2328,98.9919 19.4993,96.9461 19.4993,92.8545 Z M17.1846,92.796 C17.1846,94.3469 17.0755,95.4108 16.8573,95.9875 C16.6468,96.6032 16.2767,96.911 15.7467,96.911 C15.2167,96.911 14.8388,96.5993 14.6127,95.9758 C14.4023,95.3601 14.2971,94.2768 14.2971,92.7259 C14.2971,91.175 14.4023,90.0878 14.6127,89.4643 C14.8388,88.8409 15.2167,88.5291 15.7467,88.5291 C16.2844,88.5291 16.6585,88.8448 16.869,89.476 C17.0794,90.0995 17.1846,91.2062 17.1846,92.796 Z M26.2211,82.8126 L31.0492,82.8126 L25.5782,98.8048 L33.8782,98.8048 L33.8782,96.6772 L28.7462,96.6772 L34.1704,80.7551 L26.2211,80.7551 L26.2211,82.8126 Z M40.2494,94.7249 C40.2494,96.2914 39.7817,97.0747 38.8465,97.0747 C37.8178,97.0747 37.3034,95.7809 37.3034,93.1935 L42.412,93.1935 L42.412,92.9129 C42.412,88.6421 41.2002,86.5067 38.7764,86.5067 C37.5294,86.5067 36.6079,87.0211 36.0117,88.0498 C35.4155,89.0786 35.1174,90.6606 35.1174,92.796 C35.1174,93.8715 35.1894,94.799 35.3336,95.5783 C35.4778,96.3577 35.7019,97.0006 36.0058,97.5072 C36.3098,98.0138 36.6936,98.3879 37.1573,98.6295 C37.621,98.8711 38.1763,98.9919 38.8231,98.9919 C40.9975,98.9919 42.1665,97.5695 42.3302,94.7249 L40.2494,94.7249 Z M37.3034,91.5803 C37.3969,90.3099 37.5411,89.476 37.736,89.0786 C37.9308,88.6343 38.2581,88.4122 38.7179,88.4122 C39.17,88.4122 39.4973,88.6343 39.6999,89.0786 C39.8948,89.476 40.0389,90.3099 40.1325,91.5803 L37.3034,91.5803 Z M44.3994,98.8048 L46.6322,98.8048 L46.6322,91.4751 C46.6322,90.4619 46.7998,89.7527 47.1349,89.3474 C47.4778,88.9344 48.0506,88.7279 48.8533,88.7279 C48.9624,88.7279 49.0949,88.7395 49.2508,88.7629 L49.2508,86.4249 C48.6351,86.4639 48.1402,86.6119 47.7662,86.8691 C47.3921,87.1263 47.0141,87.5744 46.6322,88.2135 L46.6322,86.7055 L44.3994,86.7055 L44.3994,98.8048 Z M57.9366,92.8545 C57.9366,91.7556 57.8606,90.8087 57.7087,90.0138 C57.5567,89.2188 57.3248,88.5603 57.0131,88.0381 C56.7014,87.516 56.3058,87.1302 55.8265,86.8808 C55.3472,86.6314 54.7803,86.5067 54.1256,86.5067 C51.6005,86.5067 50.338,88.5915 50.338,92.761 C50.338,96.9149 51.6044,98.9919 54.1373,98.9919 C56.6702,98.9919 57.9366,96.9461 57.9366,92.8545 Z M55.622,92.796 C55.622,94.3469 55.5129,95.4108 55.2946,95.9875 C55.0842,96.6032 54.714,96.911 54.1841,96.911 C53.6541,96.911 53.2761,96.5993 53.0501,95.9758 C52.8397,95.3601 52.7345,94.2768 52.7345,92.7259 C52.7345,91.175 52.8397,90.0878 53.0501,89.4643 C53.2761,88.8409 53.6541,88.5291 54.1841,88.5291 C54.7218,88.5291 55.0959,88.8448 55.3063,89.476 C55.5168,90.0995 55.622,91.2062 55.622,92.796 Z " fill="#ff7502" fill-opacity="1.00" />				<path d="M-52.0897,-15.7645 L52.0897,-15.7645 " fill="none" stroke-width="2.89" stroke="#ffffff" stroke-linecap="square" stroke-linejoin="miter" />				<path d="M-60.0981,3.04728 C-60.0981,5.24725 -59.7489,6.89157 -59.0505,7.98024 C-58.352,9.06892 -57.2449,9.61325 -55.7293,9.61325 C-54.2306,9.61325 -53.1278,9.0774 -52.4209,8.00569 C-51.7139,6.93399 -51.3605,5.27553 -51.3605,3.03032 C-51.3605,0.802072 -51.7097,-0.849318 -52.4081,-1.92385 C-53.1066,-2.99839 -54.2136,-3.53565 -55.7293,-3.53565 C-57.2223,-3.53565 -58.3237,-3.00546 -59.0335,-1.94506 C-59.7432,-0.884664 -60.0981,0.779451 -60.0981,3.04728 Z M-57.867,-0.804074 C-57.6748,-1.25085 -57.4033,-1.58453 -57.0527,-1.80509 C-56.702,-2.02565 -56.2609,-2.13593 -55.7293,-2.13593 C-55.1637,-2.13593 -54.7099,-2.01999 -54.3677,-1.78812 C-54.0256,-1.55625 -53.7612,-1.21975 -53.5746,-0.778625 C-53.371,-0.309223 -53.2381,0.222389 -53.1759,0.81621 C-53.1136,1.41003 -53.0825,2.14807 -53.0825,3.03032 C-53.0825,3.83339 -53.1179,4.57142 -53.1886,5.24442 C-53.2593,5.91742 -53.3908,6.46317 -53.5831,6.88167 C-53.7866,7.32845 -54.0623,7.66213 -54.4102,7.88269 C-54.758,8.10325 -55.1977,8.21353 -55.7293,8.21353 C-56.2666,8.21353 -56.7063,8.10325 -57.0484,7.88269 C-57.3906,7.66213 -57.6606,7.33411 -57.8586,6.89864 C-58.0622,6.45752 -58.1993,5.92025 -58.27,5.28684 C-58.3407,4.65343 -58.376,3.90691 -58.376,3.04728 C-58.376,2.17635 -58.3407,1.43124 -58.27,0.811969 C-58.1993,0.192698 -58.065,-0.345983 -57.867,-0.804074 Z " fill="#ffffff" fill-opacity="1.00" />				<path d="M-55.7293,-22.3455 L-55.7293,-9.19664 " fill="none" stroke-width="2.89" stroke="#ffffff" stroke-linecap="square" stroke-linejoin="miter" />				<path d="M55.7293,-22.3455 L55.7293,-9.19664 " fill="none" stroke-width="2.89" stroke="#ffffff" stroke-linecap="square" stroke-linejoin="miter" />				<path d="M38.6666,-22.3389 L38.6666,-9.19002 " fill="none" stroke-width="1.45" stroke="#ffffff" stroke-linecap="square" stroke-linejoin="miter" />			</g>		</g>	</svg>